# MagicaVoxel @ Ephtracy

# group
o 

# material
mtllib Grass_5.mtl
usemtl palette

# normals
vn -1 0 0
vn 1 0 0
vn 0 0 1
vn 0 0 -1
vn 0 -1 0
vn 0 1 0

# texcoords
vt 0.970703 0.5
vt 0.974609 0.5
vt 0.978516 0.5

# verts
v -1.2 0 -0.7
v -1.2 0 -0.8
v -1.2 0.1 -0.6
v -1.2 0.1 -0.7
v -1.2 0.2 -0.6
v -1.2 0.2 -0.8
v -1.2 0.3 -0.6
v -1.2 0.3 -0.7
v -1.2 0.4 -0.6
v -1.2 0.4 -0.7
v -1.2 0.4 -0.8
v -1.2 0.5 -0.7
v -1.2 0.5 -0.8
v -0.7 0 0.7
v -0.7 0 0.6
v -0.7 0.1 0.7
v -0.7 0.1 0.6
v -0.7 0.3 0.7
v -0.7 0.3 0.6
v -0.7 0.4 0.7
v -0.7 0.4 0.6
v -0.0999999 0 5.96046e-08
v -0.0999999 0 -0.1
v -0.0999999 0.3 5.96046e-08
v -0.0999999 0.3 -0.1
v -0.0999999 0.4 5.96046e-08
v -0.0999999 0.4 -0.1
v -0.0999999 0.5 5.96046e-08
v -0.0999999 0.5 -0.1
v 0.4 0 0.7
v 0.4 0 0.6
v 0.4 0.1 0.7
v 0.4 0.1 0.6
v 0.4 0.2 0.7
v 0.4 0.2 0.6
v 0.4 0.3 0.7
v 0.4 0.3 0.6
v 0.5 0 -0.6
v 0.5 0 -0.7
v 0.5 0 -0.8
v 0.5 0.1 -0.6
v 0.5 0.1 -0.7
v 0.5 0.1 -0.8
v 0.5 0.2 -0.6
v 0.5 0.2 -0.7
v 0.5 0.2 -0.8
v 0.6 0 -0.8
v 0.6 0 -0.9
v 0.6 0.1 -0.8
v 0.6 0.1 -0.9
v 0.6 0.2 -0.7
v 0.6 0.2 -0.8
v 0.6 0.2 -0.9
v 0.6 0.4 -0.7
v 0.6 0.4 -0.8
v 0.6 0.5 -0.7
v 0.6 0.5 -0.8
v -1.1 0 -0.7
v -1.1 0 -0.8
v -1.1 0.1 -0.6
v -1.1 0.1 -0.7
v -1.1 0.2 -0.6
v -1.1 0.2 -0.8
v -1.1 0.3 -0.6
v -1.1 0.3 -0.7
v -1.1 0.4 -0.6
v -1.1 0.4 -0.7
v -1.1 0.4 -0.8
v -1.1 0.5 -0.7
v -1.1 0.5 -0.8
v -0.6 0 0.7
v -0.6 0 0.6
v -0.6 0.1 0.7
v -0.6 0.1 0.6
v -0.6 0.3 0.7
v -0.6 0.3 0.6
v -0.6 0.4 0.7
v -0.6 0.4 0.6
v 1.19209e-07 0 5.96046e-08
v 1.19209e-07 0 -0.1
v 1.19209e-07 0.3 5.96046e-08
v 1.19209e-07 0.3 -0.1
v 1.19209e-07 0.4 5.96046e-08
v 1.19209e-07 0.4 -0.1
v 1.19209e-07 0.5 5.96046e-08
v 1.19209e-07 0.5 -0.1
v 0.5 0 0.7
v 0.5 0 0.6
v 0.5 0.1 0.7
v 0.5 0.1 0.6
v 0.5 0.2 0.7
v 0.5 0.2 0.6
v 0.5 0.3 0.7
v 0.5 0.3 0.6
v 0.6 0.1 -0.6
v 0.6 0.1 -0.7
v 0.6 0.2 -0.6
v 0.6 0.2 -0.7
v 0.7 0 -0.6
v 0.7 0 -0.8
v 0.7 0 -0.9
v 0.7 0.1 -0.6
v 0.7 0.1 -0.7
v 0.7 0.1 -0.8
v 0.7 0.1 -0.9
v 0.7 0.2 -0.7
v 0.7 0.2 -0.8
v 0.7 0.2 -0.9
v 0.7 0.4 -0.7
v 0.7 0.4 -0.8
v 0.7 0.5 -0.7
v 0.7 0.5 -0.8
v -0.7 0 0.7
v -0.7 0.1 0.7
v -0.7 0.3 0.7
v -0.7 0.4 0.7
v -0.6 0 0.7
v -0.6 0.1 0.7
v -0.6 0.3 0.7
v -0.6 0.4 0.7
v 0.4 0 0.7
v 0.4 0.1 0.7
v 0.4 0.2 0.7
v 0.4 0.3 0.7
v 0.5 0 0.7
v 0.5 0.1 0.7
v 0.5 0.2 0.7
v 0.5 0.3 0.7
v -0.0999999 0 5.96046e-08
v -0.0999999 0.3 5.96046e-08
v -0.0999999 0.4 5.96046e-08
v -0.0999999 0.5 5.96046e-08
v 1.19209e-07 0 5.96046e-08
v 1.19209e-07 0.3 5.96046e-08
v 1.19209e-07 0.4 5.96046e-08
v 1.19209e-07 0.5 5.96046e-08
v -1.2 0.1 -0.6
v -1.2 0.2 -0.6
v -1.2 0.3 -0.6
v -1.2 0.4 -0.6
v -1.1 0.1 -0.6
v -1.1 0.2 -0.6
v -1.1 0.3 -0.6
v -1.1 0.4 -0.6
v 0.5 0 -0.6
v 0.5 0.1 -0.6
v 0.5 0.2 -0.6
v 0.6 0 -0.6
v 0.6 0.1 -0.6
v 0.6 0.2 -0.6
v 0.7 0 -0.6
v 0.7 0.1 -0.6
v -1.2 0 -0.7
v -1.2 0.1 -0.7
v -1.2 0.4 -0.7
v -1.2 0.5 -0.7
v -1.1 0 -0.7
v -1.1 0.1 -0.7
v -1.1 0.4 -0.7
v -1.1 0.5 -0.7
v 0.6 0.1 -0.7
v 0.6 0.2 -0.7
v 0.6 0.4 -0.7
v 0.6 0.5 -0.7
v 0.7 0.1 -0.7
v 0.7 0.2 -0.7
v 0.7 0.4 -0.7
v 0.7 0.5 -0.7
v -0.7 0 0.6
v -0.7 0.1 0.6
v -0.7 0.3 0.6
v -0.7 0.4 0.6
v -0.6 0 0.6
v -0.6 0.1 0.6
v -0.6 0.3 0.6
v -0.6 0.4 0.6
v 0.4 0 0.6
v 0.4 0.1 0.6
v 0.4 0.2 0.6
v 0.4 0.3 0.6
v 0.5 0 0.6
v 0.5 0.1 0.6
v 0.5 0.2 0.6
v 0.5 0.3 0.6
v -0.0999999 0 -0.1
v -0.0999999 0.3 -0.1
v -0.0999999 0.4 -0.1
v -0.0999999 0.5 -0.1
v 1.19209e-07 0 -0.1
v 1.19209e-07 0.3 -0.1
v 1.19209e-07 0.4 -0.1
v 1.19209e-07 0.5 -0.1
v -1.2 0 -0.8
v -1.2 0.2 -0.8
v -1.2 0.4 -0.8
v -1.2 0.5 -0.8
v -1.1 0 -0.8
v -1.1 0.2 -0.8
v -1.1 0.4 -0.8
v -1.1 0.5 -0.8
v 0.5 0 -0.8
v 0.5 0.1 -0.8
v 0.5 0.2 -0.8
v 0.6 0 -0.8
v 0.6 0.1 -0.8
v 0.6 0.2 -0.8
v 0.6 0.4 -0.8
v 0.6 0.5 -0.8
v 0.7 0.2 -0.8
v 0.7 0.4 -0.8
v 0.7 0.5 -0.8
v 0.6 0 -0.9
v 0.6 0.1 -0.9
v 0.6 0.2 -0.9
v 0.7 0 -0.9
v 0.7 0.1 -0.9
v 0.7 0.2 -0.9
v -0.7 0 0.7
v -0.6 0 0.7
v 0.4 0 0.7
v 0.5 0 0.7
v -0.7 0 0.6
v -0.6 0 0.6
v 0.4 0 0.6
v 0.5 0 0.6
v -0.0999999 0 5.96046e-08
v 1.19209e-07 0 5.96046e-08
v -0.0999999 0 -0.1
v 1.19209e-07 0 -0.1
v 0.5 0 -0.6
v 0.6 0 -0.6
v 0.7 0 -0.6
v -1.2 0 -0.7
v -1.1 0 -0.7
v 0.5 0 -0.7
v 0.6 0 -0.7
v -1.2 0 -0.8
v -1.1 0 -0.8
v 0.5 0 -0.8
v 0.6 0 -0.8
v 0.7 0 -0.8
v 0.6 0 -0.9
v 0.7 0 -0.9
v -1.2 0.1 -0.6
v -1.1 0.1 -0.6
v -1.2 0.1 -0.7
v -1.1 0.1 -0.7
v 0.6 0.1 -0.6
v 0.7 0.1 -0.6
v 0.6 0.1 -0.7
v 0.7 0.1 -0.7
v 0.5 0.2 -0.6
v 0.6 0.2 -0.6
v 0.5 0.2 -0.7
v 0.6 0.2 -0.7
v 0.5 0.2 -0.8
v 0.6 0.2 -0.8
v 0.7 0.2 -0.8
v 0.6 0.2 -0.9
v 0.7 0.2 -0.9
v 0.4 0.3 0.7
v 0.5 0.3 0.7
v 0.4 0.3 0.6
v 0.5 0.3 0.6
v -0.7 0.4 0.7
v -0.6 0.4 0.7
v -0.7 0.4 0.6
v -0.6 0.4 0.6
v -1.2 0.4 -0.6
v -1.1 0.4 -0.6
v -1.2 0.4 -0.7
v -1.1 0.4 -0.7
v -0.0999999 0.5 5.96046e-08
v 1.19209e-07 0.5 5.96046e-08
v -0.0999999 0.5 -0.1
v 1.19209e-07 0.5 -0.1
v -1.2 0.5 -0.7
v -1.1 0.5 -0.7
v 0.6 0.5 -0.7
v 0.7 0.5 -0.7
v -1.2 0.5 -0.8
v -1.1 0.5 -0.8
v 0.6 0.5 -0.8
v 0.7 0.5 -0.8

# faces
f 4/3/1 2/3/1 1/3/1
f 5/3/1 4/3/1 3/3/1
f 6/3/1 2/3/1 4/3/1
f 6/3/1 4/3/1 5/3/1
f 7/2/1 6/2/1 5/2/1
f 8/2/1 6/2/1 7/2/1
f 9/1/1 8/1/1 7/1/1
f 10/2/1 6/2/1 8/2/1
f 10/1/1 8/1/1 9/1/1
f 11/2/1 6/2/1 10/2/1
f 12/1/1 11/1/1 10/1/1
f 13/1/1 11/1/1 12/1/1
f 16/3/1 15/3/1 14/3/1
f 17/3/1 15/3/1 16/3/1
f 18/2/1 17/2/1 16/2/1
f 19/2/1 17/2/1 18/2/1
f 20/1/1 19/1/1 18/1/1
f 21/1/1 19/1/1 20/1/1
f 24/3/1 23/3/1 22/3/1
f 25/3/1 23/3/1 24/3/1
f 26/2/1 25/2/1 24/2/1
f 27/2/1 25/2/1 26/2/1
f 28/1/1 27/1/1 26/1/1
f 29/1/1 27/1/1 28/1/1
f 32/3/1 31/3/1 30/3/1
f 33/3/1 31/3/1 32/3/1
f 34/2/1 33/2/1 32/2/1
f 35/2/1 33/2/1 34/2/1
f 36/1/1 35/1/1 34/1/1
f 37/1/1 35/1/1 36/1/1
f 41/2/1 39/2/1 38/2/1
f 42/3/1 40/3/1 39/3/1
f 42/2/1 39/2/1 41/2/1
f 43/3/1 40/3/1 42/3/1
f 44/1/1 42/1/1 41/1/1
f 45/2/1 43/2/1 42/2/1
f 45/1/1 42/1/1 44/1/1
f 46/2/1 43/2/1 45/2/1
f 49/2/1 48/2/1 47/2/1
f 50/2/1 48/2/1 49/2/1
f 52/1/1 50/1/1 49/1/1
f 53/1/1 50/1/1 52/1/1
f 54/2/1 52/2/1 51/2/1
f 55/2/1 52/2/1 54/2/1
f 56/1/1 55/1/1 54/1/1
f 57/1/1 55/1/1 56/1/1
f 58/3/2 59/3/2 61/3/2
f 60/3/2 61/3/2 62/3/2
f 61/3/2 59/3/2 63/3/2
f 62/3/2 61/3/2 63/3/2
f 62/2/2 63/2/2 64/2/2
f 64/2/2 63/2/2 65/2/2
f 64/1/2 65/1/2 66/1/2
f 65/2/2 63/2/2 67/2/2
f 66/1/2 65/1/2 67/1/2
f 67/2/2 63/2/2 68/2/2
f 67/1/2 68/1/2 69/1/2
f 69/1/2 68/1/2 70/1/2
f 71/3/2 72/3/2 73/3/2
f 73/3/2 72/3/2 74/3/2
f 73/2/2 74/2/2 75/2/2
f 75/2/2 74/2/2 76/2/2
f 75/1/2 76/1/2 77/1/2
f 77/1/2 76/1/2 78/1/2
f 79/3/2 80/3/2 81/3/2
f 81/3/2 80/3/2 82/3/2
f 81/2/2 82/2/2 83/2/2
f 83/2/2 82/2/2 84/2/2
f 83/1/2 84/1/2 85/1/2
f 85/1/2 84/1/2 86/1/2
f 87/3/2 88/3/2 89/3/2
f 89/3/2 88/3/2 90/3/2
f 89/2/2 90/2/2 91/2/2
f 91/2/2 90/2/2 92/2/2
f 91/1/2 92/1/2 93/1/2
f 93/1/2 92/1/2 94/1/2
f 95/1/2 96/1/2 97/1/2
f 97/1/2 96/1/2 98/1/2
f 99/3/2 100/3/2 102/3/2
f 102/3/2 100/3/2 103/3/2
f 100/2/2 101/2/2 104/2/2
f 103/3/2 100/3/2 104/3/2
f 104/2/2 101/2/2 105/2/2
f 103/3/2 104/3/2 106/3/2
f 104/1/2 105/1/2 107/1/2
f 106/3/2 104/3/2 107/3/2
f 107/1/2 105/1/2 108/1/2
f 106/2/2 107/2/2 109/2/2
f 109/2/2 107/2/2 110/2/2
f 109/1/2 110/1/2 111/1/2
f 111/1/2 110/1/2 112/1/2
f 117/3/3 114/3/3 113/3/3
f 118/2/3 115/2/3 114/2/3
f 118/3/3 114/3/3 117/3/3
f 119/1/3 116/1/3 115/1/3
f 119/2/3 115/2/3 118/2/3
f 120/1/3 116/1/3 119/1/3
f 125/3/3 122/3/3 121/3/3
f 126/2/3 123/2/3 122/2/3
f 126/3/3 122/3/3 125/3/3
f 127/1/3 124/1/3 123/1/3
f 127/2/3 123/2/3 126/2/3
f 128/1/3 124/1/3 127/1/3
f 133/3/3 130/3/3 129/3/3
f 134/2/3 131/2/3 130/2/3
f 134/3/3 130/3/3 133/3/3
f 135/1/3 132/1/3 131/1/3
f 135/2/3 131/2/3 134/2/3
f 136/1/3 132/1/3 135/1/3
f 141/3/3 138/3/3 137/3/3
f 142/2/3 139/2/3 138/2/3
f 142/3/3 138/3/3 141/3/3
f 143/1/3 140/1/3 139/1/3
f 143/2/3 139/2/3 142/2/3
f 144/1/3 140/1/3 143/1/3
f 148/2/3 146/2/3 145/2/3
f 149/1/3 147/1/3 146/1/3
f 149/2/3 146/2/3 148/2/3
f 150/1/3 147/1/3 149/1/3
f 151/3/3 149/3/3 148/3/3
f 152/3/3 149/3/3 151/3/3
f 157/3/3 154/3/3 153/3/3
f 158/3/3 154/3/3 157/3/3
f 159/1/3 156/1/3 155/1/3
f 160/1/3 156/1/3 159/1/3
f 165/3/3 162/3/3 161/3/3
f 166/2/3 163/2/3 162/2/3
f 166/3/3 162/3/3 165/3/3
f 167/1/3 164/1/3 163/1/3
f 167/2/3 163/2/3 166/2/3
f 168/1/3 164/1/3 167/1/3
f 169/3/4 170/3/4 173/3/4
f 170/2/4 171/2/4 174/2/4
f 173/3/4 170/3/4 174/3/4
f 171/1/4 172/1/4 175/1/4
f 174/2/4 171/2/4 175/2/4
f 175/1/4 172/1/4 176/1/4
f 177/3/4 178/3/4 181/3/4
f 178/2/4 179/2/4 182/2/4
f 181/3/4 178/3/4 182/3/4
f 179/1/4 180/1/4 183/1/4
f 182/2/4 179/2/4 183/2/4
f 183/1/4 180/1/4 184/1/4
f 185/3/4 186/3/4 189/3/4
f 186/2/4 187/2/4 190/2/4
f 189/3/4 186/3/4 190/3/4
f 187/1/4 188/1/4 191/1/4
f 190/2/4 187/2/4 191/2/4
f 191/1/4 188/1/4 192/1/4
f 193/3/4 194/3/4 197/3/4
f 194/2/4 195/2/4 198/2/4
f 197/3/4 194/3/4 198/3/4
f 195/1/4 196/1/4 199/1/4
f 198/2/4 195/2/4 199/2/4
f 199/1/4 196/1/4 200/1/4
f 201/3/4 202/3/4 204/3/4
f 202/2/4 203/2/4 205/2/4
f 204/3/4 202/3/4 205/3/4
f 205/2/4 203/2/4 206/2/4
f 206/2/4 207/2/4 209/2/4
f 207/1/4 208/1/4 210/1/4
f 209/2/4 207/2/4 210/2/4
f 210/1/4 208/1/4 211/1/4
f 212/2/4 213/2/4 215/2/4
f 213/1/4 214/1/4 216/1/4
f 215/2/4 213/2/4 216/2/4
f 216/1/4 214/1/4 217/1/4
f 222/3/5 219/3/5 218/3/5
f 223/3/5 219/3/5 222/3/5
f 224/3/5 221/3/5 220/3/5
f 225/3/5 221/3/5 224/3/5
f 228/3/5 227/3/5 226/3/5
f 229/3/5 227/3/5 228/3/5
f 235/2/5 231/2/5 230/2/5
f 236/3/5 232/3/5 231/3/5
f 236/2/5 231/2/5 235/2/5
f 237/3/5 234/3/5 233/3/5
f 238/3/5 234/3/5 237/3/5
f 239/3/5 236/3/5 235/3/5
f 240/3/5 232/3/5 236/3/5
f 240/3/5 236/3/5 239/3/5
f 241/3/5 232/3/5 240/3/5
f 242/2/5 241/2/5 240/2/5
f 243/2/5 241/2/5 242/2/5
f 246/3/5 245/3/5 244/3/5
f 247/3/5 245/3/5 246/3/5
f 248/3/6 249/3/6 250/3/6
f 250/3/6 249/3/6 251/3/6
f 252/1/6 253/1/6 254/1/6
f 254/1/6 253/1/6 255/1/6
f 254/2/6 255/2/6 256/2/6
f 256/2/6 255/2/6 257/2/6
f 257/1/6 258/1/6 259/1/6
f 259/1/6 258/1/6 260/1/6
f 261/1/6 262/1/6 263/1/6
f 263/1/6 262/1/6 264/1/6
f 265/1/6 266/1/6 267/1/6
f 267/1/6 266/1/6 268/1/6
f 269/1/6 270/1/6 271/1/6
f 271/1/6 270/1/6 272/1/6
f 273/1/6 274/1/6 275/1/6
f 275/1/6 274/1/6 276/1/6
f 277/1/6 278/1/6 281/1/6
f 281/1/6 278/1/6 282/1/6
f 279/1/6 280/1/6 283/1/6
f 283/1/6 280/1/6 284/1/6
