# MagicaVoxel @ Ephtracy

# group
o 

# material
mtllib Grass_1.mtl
usemtl palette

# normals
vn -1 0 0
vn 1 0 0
vn 0 0 1
vn 0 0 -1
vn 0 -1 0
vn 0 1 0

# texcoords
vt 0.970703 0.5
vt 0.974609 0.5
vt 0.978516 0.5

# verts
v -0.9 0 0.1
v -0.9 0 0
v -0.9 0.1 0.1
v -0.9 0.1 0
v -0.9 0.2 0.1
v -0.9 0.2 0
v -0.9 0.3 0.1
v -0.9 0.3 0
v -0.7 0 0.6
v -0.7 0 0.5
v -0.7 0 -0.7
v -0.7 0 -0.8
v -0.7 0.1 0.7
v -0.7 0.1 0.6
v -0.7 0.1 0.5
v -0.7 0.2 0.7
v -0.7 0.2 0.6
v -0.7 0.2 0.5
v -0.7 0.2 -0.7
v -0.7 0.2 -0.8
v -0.7 0.3 0.7
v -0.7 0.3 0.6
v -0.7 0.3 0.5
v -0.7 0.3 -0.7
v -0.7 0.3 -0.8
v -0.7 0.4 0.7
v -0.7 0.4 0.6
v -0.7 0.4 -0.7
v -0.7 0.4 -0.8
v -0.3 0 0.9
v -0.3 0 0.8
v -0.3 0 -0.2
v -0.3 0 -0.3
v -0.3 0.1 0.9
v -0.3 0.1 0.8
v -0.3 0.1 -0.2
v -0.3 0.1 -0.3
v -0.3 0.3 0.9
v -0.3 0.3 0.8
v -0.3 0.4 0.9
v -0.3 0.4 0.8
v -0.3 0.4 -0.2
v -0.3 0.4 -0.3
v -0.3 0.5 -0.2
v -0.3 0.5 -0.3
v -0.1 0 0.2
v -0.1 0 0.1
v -0.1 0.1 0.2
v -0.1 0.1 0.1
v -0.1 0.3 0.2
v -0.1 0.3 0.1
v -0.1 0.4 0.2
v -0.1 0.4 0.1
v 0.3 0 -0.5
v 0.3 0 -0.6
v 0.3 0.1 -0.5
v 0.3 0.1 -0.6
v 0.3 0.2 -0.5
v 0.3 0.2 -0.6
v 0.4 0 -0.4
v 0.4 0 -0.5
v 0.4 0 -0.6
v 0.4 0 -0.7
v 0.4 0.1 -0.4
v 0.4 0.1 -0.5
v 0.4 0.1 -0.6
v 0.4 0.1 -0.7
v 0.4 0.2 -0.4
v 0.4 0.2 -0.5
v 0.4 0.2 -0.6
v 0.4 0.2 -0.7
v 0.4 0.3 -0.5
v 0.4 0.3 -0.6
v 0.4 0.3 -0.7
v 0.4 0.4 -0.5
v 0.4 0.4 -0.6
v 0.6 0 0.8
v 0.6 0 0.7
v 0.6 0.1 0.8
v 0.6 0.1 0.7
v 0.6 0.2 0.8
v 0.6 0.2 0.7
v 0.6 0.3 0.8
v 0.6 0.3 0.7
v 0.7 0 0.2
v 0.7 0 0.1
v 0.7 0.2 0.2
v 0.7 0.2 0.1
v 0.7 0.3 0.2
v 0.7 0.3 0.1
v 0.7 0.4 0.2
v 0.7 0.4 0.1
v -0.8 0 0.1
v -0.8 0 0
v -0.8 0.1 0.1
v -0.8 0.1 0
v -0.8 0.2 0.1
v -0.8 0.2 0
v -0.8 0.3 0.1
v -0.8 0.3 0
v -0.6 0 0.6
v -0.6 0 0.5
v -0.6 0 -0.7
v -0.6 0 -0.8
v -0.6 0.1 0.7
v -0.6 0.1 0.6
v -0.6 0.1 0.5
v -0.6 0.2 0.7
v -0.6 0.2 0.6
v -0.6 0.2 0.5
v -0.6 0.2 -0.7
v -0.6 0.2 -0.8
v -0.6 0.3 0.7
v -0.6 0.3 0.6
v -0.6 0.3 0.5
v -0.6 0.3 -0.7
v -0.6 0.3 -0.8
v -0.6 0.4 0.7
v -0.6 0.4 0.6
v -0.6 0.4 -0.7
v -0.6 0.4 -0.8
v -0.2 0 0.9
v -0.2 0 0.8
v -0.2 0 -0.2
v -0.2 0 -0.3
v -0.2 0.1 0.9
v -0.2 0.1 0.8
v -0.2 0.1 -0.2
v -0.2 0.1 -0.3
v -0.2 0.3 0.9
v -0.2 0.3 0.8
v -0.2 0.4 0.9
v -0.2 0.4 0.8
v -0.2 0.4 -0.2
v -0.2 0.4 -0.3
v -0.2 0.5 -0.2
v -0.2 0.5 -0.3
v 0 0 0.2
v 0 0 0.1
v 0 0.1 0.2
v 0 0.1 0.1
v 0 0.3 0.2
v 0 0.3 0.1
v 0 0.4 0.2
v 0 0.4 0.1
v 0.5 0 -0.5
v 0.5 0 -0.7
v 0.5 0.1 -0.4
v 0.5 0.1 -0.5
v 0.5 0.1 -0.6
v 0.5 0.1 -0.7
v 0.5 0.2 -0.4
v 0.5 0.2 -0.5
v 0.5 0.2 -0.6
v 0.5 0.2 -0.7
v 0.5 0.3 -0.5
v 0.5 0.3 -0.6
v 0.5 0.3 -0.7
v 0.5 0.4 -0.5
v 0.5 0.4 -0.6
v 0.6 0 -0.4
v 0.6 0 -0.5
v 0.6 0.1 -0.4
v 0.6 0.1 -0.5
v 0.7 0 0.8
v 0.7 0 0.7
v 0.7 0.1 0.8
v 0.7 0.1 0.7
v 0.7 0.2 0.8
v 0.7 0.2 0.7
v 0.7 0.3 0.8
v 0.7 0.3 0.7
v 0.8 0 0.2
v 0.8 0 0.1
v 0.8 0.2 0.2
v 0.8 0.2 0.1
v 0.8 0.3 0.2
v 0.8 0.3 0.1
v 0.8 0.4 0.2
v 0.8 0.4 0.1
v -0.3 0 0.9
v -0.3 0.1 0.9
v -0.3 0.3 0.9
v -0.3 0.4 0.9
v -0.2 0 0.9
v -0.2 0.1 0.9
v -0.2 0.3 0.9
v -0.2 0.4 0.9
v 0.6 0 0.8
v 0.6 0.1 0.8
v 0.6 0.2 0.8
v 0.6 0.3 0.8
v 0.7 0 0.8
v 0.7 0.1 0.8
v 0.7 0.2 0.8
v 0.7 0.3 0.8
v -0.7 0.1 0.7
v -0.7 0.2 0.7
v -0.7 0.3 0.7
v -0.7 0.4 0.7
v -0.6 0.1 0.7
v -0.6 0.2 0.7
v -0.6 0.3 0.7
v -0.6 0.4 0.7
v -0.7 0 0.6
v -0.7 0.1 0.6
v -0.6 0 0.6
v -0.6 0.1 0.6
v -0.1 0 0.2
v -0.1 0.1 0.2
v -0.1 0.3 0.2
v -0.1 0.4 0.2
v 0 0 0.2
v 0 0.1 0.2
v 0 0.3 0.2
v 0 0.4 0.2
v 0.7 0 0.2
v 0.7 0.2 0.2
v 0.7 0.3 0.2
v 0.7 0.4 0.2
v 0.8 0 0.2
v 0.8 0.2 0.2
v 0.8 0.3 0.2
v 0.8 0.4 0.2
v -0.9 0 0.1
v -0.9 0.1 0.1
v -0.9 0.2 0.1
v -0.9 0.3 0.1
v -0.8 0 0.1
v -0.8 0.1 0.1
v -0.8 0.2 0.1
v -0.8 0.3 0.1
v -0.3 0 -0.2
v -0.3 0.1 -0.2
v -0.3 0.4 -0.2
v -0.3 0.5 -0.2
v -0.2 0 -0.2
v -0.2 0.1 -0.2
v -0.2 0.4 -0.2
v -0.2 0.5 -0.2
v 0.4 0 -0.4
v 0.4 0.1 -0.4
v 0.4 0.2 -0.4
v 0.5 0 -0.4
v 0.5 0.1 -0.4
v 0.5 0.2 -0.4
v 0.6 0 -0.4
v 0.6 0.1 -0.4
v 0.3 0 -0.5
v 0.3 0.1 -0.5
v 0.3 0.2 -0.5
v 0.4 0 -0.5
v 0.4 0.1 -0.5
v 0.4 0.2 -0.5
v 0.4 0.3 -0.5
v 0.4 0.4 -0.5
v 0.5 0.2 -0.5
v 0.5 0.3 -0.5
v 0.5 0.4 -0.5
v -0.7 0 -0.7
v -0.7 0.2 -0.7
v -0.7 0.3 -0.7
v -0.7 0.4 -0.7
v -0.6 0 -0.7
v -0.6 0.2 -0.7
v -0.6 0.3 -0.7
v -0.6 0.4 -0.7
v -0.3 0 0.8
v -0.3 0.1 0.8
v -0.3 0.3 0.8
v -0.3 0.4 0.8
v -0.2 0 0.8
v -0.2 0.1 0.8
v -0.2 0.3 0.8
v -0.2 0.4 0.8
v 0.6 0 0.7
v 0.6 0.1 0.7
v 0.6 0.2 0.7
v 0.6 0.3 0.7
v 0.7 0 0.7
v 0.7 0.1 0.7
v 0.7 0.2 0.7
v 0.7 0.3 0.7
v -0.7 0.3 0.6
v -0.7 0.4 0.6
v -0.6 0.3 0.6
v -0.6 0.4 0.6
v -0.7 0 0.5
v -0.7 0.1 0.5
v -0.7 0.2 0.5
v -0.7 0.3 0.5
v -0.6 0 0.5
v -0.6 0.1 0.5
v -0.6 0.2 0.5
v -0.6 0.3 0.5
v -0.1 0 0.1
v -0.1 0.1 0.1
v -0.1 0.3 0.1
v -0.1 0.4 0.1
v 0 0 0.1
v 0 0.1 0.1
v 0 0.3 0.1
v 0 0.4 0.1
v 0.7 0 0.1
v 0.7 0.2 0.1
v 0.7 0.3 0.1
v 0.7 0.4 0.1
v 0.8 0 0.1
v 0.8 0.2 0.1
v 0.8 0.3 0.1
v 0.8 0.4 0.1
v -0.9 0 0
v -0.9 0.1 0
v -0.9 0.2 0
v -0.9 0.3 0
v -0.8 0 0
v -0.8 0.1 0
v -0.8 0.2 0
v -0.8 0.3 0
v -0.3 0 -0.3
v -0.3 0.1 -0.3
v -0.3 0.4 -0.3
v -0.3 0.5 -0.3
v -0.2 0 -0.3
v -0.2 0.1 -0.3
v -0.2 0.4 -0.3
v -0.2 0.5 -0.3
v 0.5 0 -0.5
v 0.5 0.1 -0.5
v 0.6 0 -0.5
v 0.6 0.1 -0.5
v 0.3 0 -0.6
v 0.3 0.1 -0.6
v 0.3 0.2 -0.6
v 0.4 0 -0.6
v 0.4 0.1 -0.6
v 0.4 0.2 -0.6
v 0.4 0.3 -0.6
v 0.4 0.4 -0.6
v 0.5 0.3 -0.6
v 0.5 0.4 -0.6
v 0.4 0 -0.7
v 0.4 0.1 -0.7
v 0.4 0.2 -0.7
v 0.4 0.3 -0.7
v 0.5 0 -0.7
v 0.5 0.1 -0.7
v 0.5 0.2 -0.7
v 0.5 0.3 -0.7
v -0.7 0 -0.8
v -0.7 0.2 -0.8
v -0.7 0.3 -0.8
v -0.7 0.4 -0.8
v -0.6 0 -0.8
v -0.6 0.2 -0.8
v -0.6 0.3 -0.8
v -0.6 0.4 -0.8
v -0.3 0 0.9
v -0.2 0 0.9
v -0.3 0 0.8
v -0.2 0 0.8
v 0.6 0 0.8
v 0.7 0 0.8
v 0.6 0 0.7
v 0.7 0 0.7
v -0.7 0 0.6
v -0.6 0 0.6
v -0.7 0 0.5
v -0.6 0 0.5
v -0.1 0 0.2
v 0 0 0.2
v 0.7 0 0.2
v 0.8 0 0.2
v -0.9 0 0.1
v -0.8 0 0.1
v -0.1 0 0.1
v 0 0 0.1
v 0.7 0 0.1
v 0.8 0 0.1
v -0.9 0 0
v -0.8 0 0
v -0.3 0 -0.2
v -0.2 0 -0.2
v -0.3 0 -0.3
v -0.2 0 -0.3
v 0.4 0 -0.4
v 0.5 0 -0.4
v 0.6 0 -0.4
v 0.3 0 -0.5
v 0.4 0 -0.5
v 0.5 0 -0.5
v 0.6 0 -0.5
v 0.3 0 -0.6
v 0.4 0 -0.6
v -0.7 0 -0.7
v -0.6 0 -0.7
v 0.4 0 -0.7
v 0.5 0 -0.7
v -0.7 0 -0.8
v -0.6 0 -0.8
v -0.7 0.1 0.7
v -0.6 0.1 0.7
v -0.7 0.1 0.6
v -0.6 0.1 0.6
v 0.5 0.1 -0.4
v 0.6 0.1 -0.4
v 0.5 0.1 -0.5
v 0.6 0.1 -0.5
v 0.4 0.2 -0.4
v 0.5 0.2 -0.4
v 0.3 0.2 -0.5
v 0.4 0.2 -0.5
v 0.5 0.2 -0.5
v 0.3 0.2 -0.6
v 0.4 0.2 -0.6
v 0.6 0.3 0.8
v 0.7 0.3 0.8
v 0.6 0.3 0.7
v 0.7 0.3 0.7
v -0.7 0.3 0.6
v -0.6 0.3 0.6
v -0.7 0.3 0.5
v -0.6 0.3 0.5
v -0.9 0.3 0.1
v -0.8 0.3 0.1
v -0.9 0.3 0
v -0.8 0.3 0
v 0.4 0.3 -0.6
v 0.5 0.3 -0.6
v 0.4 0.3 -0.7
v 0.5 0.3 -0.7
v -0.3 0.4 0.9
v -0.2 0.4 0.9
v -0.3 0.4 0.8
v -0.2 0.4 0.8
v -0.7 0.4 0.7
v -0.6 0.4 0.7
v -0.7 0.4 0.6
v -0.6 0.4 0.6
v -0.1 0.4 0.2
v 0 0.4 0.2
v 0.7 0.4 0.2
v 0.8 0.4 0.2
v -0.1 0.4 0.1
v 0 0.4 0.1
v 0.7 0.4 0.1
v 0.8 0.4 0.1
v 0.4 0.4 -0.5
v 0.5 0.4 -0.5
v 0.4 0.4 -0.6
v 0.5 0.4 -0.6
v -0.7 0.4 -0.7
v -0.6 0.4 -0.7
v -0.7 0.4 -0.8
v -0.6 0.4 -0.8
v -0.3 0.5 -0.2
v -0.2 0.5 -0.2
v -0.3 0.5 -0.3
v -0.2 0.5 -0.3

# faces
f 3/3/1 2/3/1 1/3/1
f 4/3/1 2/3/1 3/3/1
f 5/2/1 4/2/1 3/2/1
f 6/2/1 4/2/1 5/2/1
f 7/1/1 6/1/1 5/1/1
f 8/1/1 6/1/1 7/1/1
f 14/3/1 10/3/1 9/3/1
f 15/3/1 10/3/1 14/3/1
f 16/3/1 14/3/1 13/3/1
f 17/2/1 15/2/1 14/2/1
f 17/3/1 14/3/1 16/3/1
f 18/2/1 15/2/1 17/2/1
f 19/3/1 12/3/1 11/3/1
f 20/3/1 12/3/1 19/3/1
f 21/2/1 17/2/1 16/2/1
f 22/1/1 18/1/1 17/1/1
f 22/2/1 17/2/1 21/2/1
f 23/1/1 18/1/1 22/1/1
f 24/2/1 20/2/1 19/2/1
f 25/2/1 20/2/1 24/2/1
f 26/1/1 22/1/1 21/1/1
f 27/1/1 22/1/1 26/1/1
f 28/1/1 25/1/1 24/1/1
f 29/1/1 25/1/1 28/1/1
f 34/3/1 31/3/1 30/3/1
f 35/3/1 31/3/1 34/3/1
f 36/3/1 33/3/1 32/3/1
f 37/3/1 33/3/1 36/3/1
f 38/2/1 35/2/1 34/2/1
f 39/2/1 35/2/1 38/2/1
f 40/1/1 39/1/1 38/1/1
f 41/1/1 39/1/1 40/1/1
f 42/2/1 37/2/1 36/2/1
f 43/2/1 37/2/1 42/2/1
f 44/1/1 43/1/1 42/1/1
f 45/1/1 43/1/1 44/1/1
f 48/3/1 47/3/1 46/3/1
f 49/3/1 47/3/1 48/3/1
f 50/2/1 49/2/1 48/2/1
f 51/2/1 49/2/1 50/2/1
f 52/1/1 51/1/1 50/1/1
f 53/1/1 51/1/1 52/1/1
f 56/2/1 55/2/1 54/2/1
f 57/2/1 55/2/1 56/2/1
f 58/1/1 57/1/1 56/1/1
f 59/1/1 57/1/1 58/1/1
f 64/2/1 61/2/1 60/2/1
f 65/2/1 61/2/1 64/2/1
f 66/3/1 63/3/1 62/3/1
f 67/3/1 63/3/1 66/3/1
f 68/1/1 65/1/1 64/1/1
f 69/1/1 65/1/1 68/1/1
f 70/2/1 67/2/1 66/2/1
f 71/2/1 67/2/1 70/2/1
f 72/2/1 70/2/1 69/2/1
f 73/1/1 71/1/1 70/1/1
f 73/2/1 70/2/1 72/2/1
f 74/1/1 71/1/1 73/1/1
f 75/1/1 73/1/1 72/1/1
f 76/1/1 73/1/1 75/1/1
f 79/3/1 78/3/1 77/3/1
f 80/3/1 78/3/1 79/3/1
f 81/2/1 80/2/1 79/2/1
f 82/2/1 80/2/1 81/2/1
f 83/1/1 82/1/1 81/1/1
f 84/1/1 82/1/1 83/1/1
f 87/3/1 86/3/1 85/3/1
f 88/3/1 86/3/1 87/3/1
f 89/2/1 88/2/1 87/2/1
f 90/2/1 88/2/1 89/2/1
f 91/1/1 90/1/1 89/1/1
f 92/1/1 90/1/1 91/1/1
f 93/3/2 94/3/2 95/3/2
f 95/3/2 94/3/2 96/3/2
f 95/2/2 96/2/2 97/2/2
f 97/2/2 96/2/2 98/2/2
f 97/1/2 98/1/2 99/1/2
f 99/1/2 98/1/2 100/1/2
f 101/3/2 102/3/2 106/3/2
f 106/3/2 102/3/2 107/3/2
f 105/3/2 106/3/2 108/3/2
f 106/2/2 107/2/2 109/2/2
f 108/3/2 106/3/2 109/3/2
f 109/2/2 107/2/2 110/2/2
f 103/3/2 104/3/2 111/3/2
f 111/3/2 104/3/2 112/3/2
f 108/2/2 109/2/2 113/2/2
f 109/1/2 110/1/2 114/1/2
f 113/2/2 109/2/2 114/2/2
f 114/1/2 110/1/2 115/1/2
f 111/2/2 112/2/2 116/2/2
f 116/2/2 112/2/2 117/2/2
f 113/1/2 114/1/2 118/1/2
f 118/1/2 114/1/2 119/1/2
f 116/1/2 117/1/2 120/1/2
f 120/1/2 117/1/2 121/1/2
f 122/3/2 123/3/2 126/3/2
f 126/3/2 123/3/2 127/3/2
f 124/3/2 125/3/2 128/3/2
f 128/3/2 125/3/2 129/3/2
f 126/2/2 127/2/2 130/2/2
f 130/2/2 127/2/2 131/2/2
f 130/1/2 131/1/2 132/1/2
f 132/1/2 131/1/2 133/1/2
f 128/2/2 129/2/2 134/2/2
f 134/2/2 129/2/2 135/2/2
f 134/1/2 135/1/2 136/1/2
f 136/1/2 135/1/2 137/1/2
f 138/3/2 139/3/2 140/3/2
f 140/3/2 139/3/2 141/3/2
f 140/2/2 141/2/2 142/2/2
f 142/2/2 141/2/2 143/2/2
f 142/1/2 143/1/2 144/1/2
f 144/1/2 143/1/2 145/1/2
f 146/3/2 147/3/2 149/3/2
f 149/3/2 147/3/2 150/3/2
f 150/3/2 147/3/2 151/3/2
f 148/1/2 149/1/2 152/1/2
f 149/3/2 150/3/2 153/3/2
f 152/1/2 149/1/2 153/1/2
f 150/2/2 151/2/2 154/2/2
f 153/3/2 150/3/2 154/3/2
f 154/2/2 151/2/2 155/2/2
f 153/2/2 154/2/2 156/2/2
f 154/1/2 155/1/2 157/1/2
f 156/2/2 154/2/2 157/2/2
f 157/1/2 155/1/2 158/1/2
f 156/1/2 157/1/2 159/1/2
f 159/1/2 157/1/2 160/1/2
f 161/3/2 162/3/2 163/3/2
f 163/3/2 162/3/2 164/3/2
f 165/3/2 166/3/2 167/3/2
f 167/3/2 166/3/2 168/3/2
f 167/2/2 168/2/2 169/2/2
f 169/2/2 168/2/2 170/2/2
f 169/1/2 170/1/2 171/1/2
f 171/1/2 170/1/2 172/1/2
f 173/3/2 174/3/2 175/3/2
f 175/3/2 174/3/2 176/3/2
f 175/2/2 176/2/2 177/2/2
f 177/2/2 176/2/2 178/2/2
f 177/1/2 178/1/2 179/1/2
f 179/1/2 178/1/2 180/1/2
f 185/3/3 182/3/3 181/3/3
f 186/2/3 183/2/3 182/2/3
f 186/3/3 182/3/3 185/3/3
f 187/1/3 184/1/3 183/1/3
f 187/2/3 183/2/3 186/2/3
f 188/1/3 184/1/3 187/1/3
f 193/3/3 190/3/3 189/3/3
f 194/2/3 191/2/3 190/2/3
f 194/3/3 190/3/3 193/3/3
f 195/1/3 192/1/3 191/1/3
f 195/2/3 191/2/3 194/2/3
f 196/1/3 192/1/3 195/1/3
f 201/3/3 198/3/3 197/3/3
f 202/2/3 199/2/3 198/2/3
f 202/3/3 198/3/3 201/3/3
f 203/1/3 200/1/3 199/1/3
f 203/2/3 199/2/3 202/2/3
f 204/1/3 200/1/3 203/1/3
f 207/3/3 206/3/3 205/3/3
f 208/3/3 206/3/3 207/3/3
f 213/3/3 210/3/3 209/3/3
f 214/2/3 211/2/3 210/2/3
f 214/3/3 210/3/3 213/3/3
f 215/1/3 212/1/3 211/1/3
f 215/2/3 211/2/3 214/2/3
f 216/1/3 212/1/3 215/1/3
f 221/3/3 218/3/3 217/3/3
f 222/2/3 219/2/3 218/2/3
f 222/3/3 218/3/3 221/3/3
f 223/1/3 220/1/3 219/1/3
f 223/2/3 219/2/3 222/2/3
f 224/1/3 220/1/3 223/1/3
f 229/3/3 226/3/3 225/3/3
f 230/2/3 227/2/3 226/2/3
f 230/3/3 226/3/3 229/3/3
f 231/1/3 228/1/3 227/1/3
f 231/2/3 227/2/3 230/2/3
f 232/1/3 228/1/3 231/1/3
f 237/3/3 234/3/3 233/3/3
f 238/2/3 235/2/3 234/2/3
f 238/3/3 234/3/3 237/3/3
f 239/1/3 236/1/3 235/1/3
f 239/2/3 235/2/3 238/2/3
f 240/1/3 236/1/3 239/1/3
f 244/2/3 242/2/3 241/2/3
f 245/1/3 243/1/3 242/1/3
f 245/2/3 242/2/3 244/2/3
f 246/1/3 243/1/3 245/1/3
f 247/3/3 245/3/3 244/3/3
f 248/3/3 245/3/3 247/3/3
f 252/2/3 250/2/3 249/2/3
f 253/1/3 251/1/3 250/1/3
f 253/2/3 250/2/3 252/2/3
f 254/1/3 251/1/3 253/1/3
f 257/2/3 255/2/3 254/2/3
f 258/1/3 256/1/3 255/1/3
f 258/2/3 255/2/3 257/2/3
f 259/1/3 256/1/3 258/1/3
f 264/3/3 261/3/3 260/3/3
f 265/2/3 262/2/3 261/2/3
f 265/3/3 261/3/3 264/3/3
f 266/1/3 263/1/3 262/1/3
f 266/2/3 262/2/3 265/2/3
f 267/1/3 263/1/3 266/1/3
f 268/3/4 269/3/4 272/3/4
f 269/2/4 270/2/4 273/2/4
f 272/3/4 269/3/4 273/3/4
f 270/1/4 271/1/4 274/1/4
f 273/2/4 270/2/4 274/2/4
f 274/1/4 271/1/4 275/1/4
f 276/3/4 277/3/4 280/3/4
f 277/2/4 278/2/4 281/2/4
f 280/3/4 277/3/4 281/3/4
f 278/1/4 279/1/4 282/1/4
f 281/2/4 278/2/4 282/2/4
f 282/1/4 279/1/4 283/1/4
f 284/1/4 285/1/4 286/1/4
f 286/1/4 285/1/4 287/1/4
f 288/3/4 289/3/4 292/3/4
f 289/2/4 290/2/4 293/2/4
f 292/3/4 289/3/4 293/3/4
f 290/1/4 291/1/4 294/1/4
f 293/2/4 290/2/4 294/2/4
f 294/1/4 291/1/4 295/1/4
f 296/3/4 297/3/4 300/3/4
f 297/2/4 298/2/4 301/2/4
f 300/3/4 297/3/4 301/3/4
f 298/1/4 299/1/4 302/1/4
f 301/2/4 298/2/4 302/2/4
f 302/1/4 299/1/4 303/1/4
f 304/3/4 305/3/4 308/3/4
f 305/2/4 306/2/4 309/2/4
f 308/3/4 305/3/4 309/3/4
f 306/1/4 307/1/4 310/1/4
f 309/2/4 306/2/4 310/2/4
f 310/1/4 307/1/4 311/1/4
f 312/3/4 313/3/4 316/3/4
f 313/2/4 314/2/4 317/2/4
f 316/3/4 313/3/4 317/3/4
f 314/1/4 315/1/4 318/1/4
f 317/2/4 314/2/4 318/2/4
f 318/1/4 315/1/4 319/1/4
f 320/3/4 321/3/4 324/3/4
f 321/2/4 322/2/4 325/2/4
f 324/3/4 321/3/4 325/3/4
f 322/1/4 323/1/4 326/1/4
f 325/2/4 322/2/4 326/2/4
f 326/1/4 323/1/4 327/1/4
f 328/3/4 329/3/4 330/3/4
f 330/3/4 329/3/4 331/3/4
f 332/2/4 333/2/4 335/2/4
f 333/1/4 334/1/4 336/1/4
f 335/2/4 333/2/4 336/2/4
f 336/1/4 334/1/4 337/1/4
f 338/1/4 339/1/4 340/1/4
f 340/1/4 339/1/4 341/1/4
f 342/3/4 343/3/4 346/3/4
f 343/2/4 344/2/4 347/2/4
f 346/3/4 343/3/4 347/3/4
f 344/1/4 345/1/4 348/1/4
f 347/2/4 344/2/4 348/2/4
f 348/1/4 345/1/4 349/1/4
f 350/3/4 351/3/4 354/3/4
f 351/2/4 352/2/4 355/2/4
f 354/3/4 351/3/4 355/3/4
f 352/1/4 353/1/4 356/1/4
f 355/2/4 352/2/4 356/2/4
f 356/1/4 353/1/4 357/1/4
f 360/3/5 359/3/5 358/3/5
f 361/3/5 359/3/5 360/3/5
f 364/3/5 363/3/5 362/3/5
f 365/3/5 363/3/5 364/3/5
f 368/3/5 367/3/5 366/3/5
f 369/3/5 367/3/5 368/3/5
f 376/3/5 371/3/5 370/3/5
f 377/3/5 371/3/5 376/3/5
f 378/3/5 373/3/5 372/3/5
f 379/3/5 373/3/5 378/3/5
f 380/3/5 375/3/5 374/3/5
f 381/3/5 375/3/5 380/3/5
f 384/3/5 383/3/5 382/3/5
f 385/3/5 383/3/5 384/3/5
f 390/2/5 387/2/5 386/2/5
f 391/3/5 388/3/5 387/3/5
f 391/2/5 387/2/5 390/2/5
f 392/3/5 388/3/5 391/3/5
f 393/2/5 390/2/5 389/2/5
f 394/3/5 391/3/5 390/3/5
f 394/2/5 390/2/5 393/2/5
f 397/3/5 391/3/5 394/3/5
f 398/3/5 391/3/5 397/3/5
f 399/3/5 396/3/5 395/3/5
f 400/3/5 396/3/5 399/3/5
f 403/3/5 402/3/5 401/3/5
f 404/3/5 402/3/5 403/3/5
f 405/3/6 406/3/6 407/3/6
f 407/3/6 406/3/6 408/3/6
f 409/1/6 410/1/6 412/1/6
f 412/1/6 410/1/6 413/1/6
f 411/1/6 412/1/6 414/1/6
f 414/1/6 412/1/6 415/1/6
f 416/1/6 417/1/6 418/1/6
f 418/1/6 417/1/6 419/1/6
f 420/1/6 421/1/6 422/1/6
f 422/1/6 421/1/6 423/1/6
f 424/1/6 425/1/6 426/1/6
f 426/1/6 425/1/6 427/1/6
f 428/1/6 429/1/6 430/1/6
f 430/1/6 429/1/6 431/1/6
f 432/1/6 433/1/6 434/1/6
f 434/1/6 433/1/6 435/1/6
f 436/1/6 437/1/6 438/1/6
f 438/1/6 437/1/6 439/1/6
f 440/1/6 441/1/6 444/1/6
f 444/1/6 441/1/6 445/1/6
f 442/1/6 443/1/6 446/1/6
f 446/1/6 443/1/6 447/1/6
f 448/1/6 449/1/6 450/1/6
f 450/1/6 449/1/6 451/1/6
f 452/1/6 453/1/6 454/1/6
f 454/1/6 453/1/6 455/1/6
f 456/1/6 457/1/6 458/1/6
f 458/1/6 457/1/6 459/1/6
