# MagicaVoxel @ Ephtracy

# group
o 

# material
mtllib Grass_6.mtl
usemtl palette

# normals
vn -1 0 0
vn 1 0 0
vn 0 0 1
vn 0 0 -1
vn 0 -1 0
vn 0 1 0

# texcoords
vt 0.970703 0.5
vt 0.974609 0.5
vt 0.978516 0.5

# verts
v -1.2 0 -1
v -1.2 0 -1.2
v -1.2 0.1 -1
v -1.2 0.1 -1.1
v -1.2 0.2 -1
v -1.2 0.2 -1.1
v -1.2 0.2 -1.2
v -1.2 0.4 -1.1
v -1.2 0.4 -1.2
v -1.2 0.5 -1.1
v -1.2 0.5 -1.2
v -0.9 0 0.6
v -0.9 0 0.5
v -0.9 0.1 0.6
v -0.9 0.1 0.5
v -0.9 0.3 0.6
v -0.9 0.3 0.5
v -0.9 0.4 0.6
v -0.9 0.4 0.5
v -0.4 0 -0.1
v -0.4 0 -0.2
v -0.4 0.1 -0.1
v -0.4 0.1 -0.2
v -0.4 0.3 -0.1
v -0.4 0.3 -0.2
v -0.4 0.4 -0.1
v -0.4 0.4 -0.2
v 0.2 0 0.6
v 0.2 0 0.5
v 0.2 0.1 0.6
v 0.2 0.1 0.5
v 0.2 0.4 0.6
v 0.2 0.4 0.5
v 0.2 0.5 0.6
v 0.2 0.5 0.5
v 0.3 0 -0.6
v 0.3 0 -0.7
v 0.3 0.3 -0.6
v 0.3 0.3 -0.7
v 0.3 0.4 -0.6
v 0.3 0.4 -0.7
v 0.3 0.5 -0.6
v 0.3 0.5 -0.7
v -1.1 0 -1
v -1.1 0 -1.2
v -1.1 0.1 -1
v -1.1 0.1 -1.1
v -1.1 0.2 -1
v -1.1 0.2 -1.1
v -1.1 0.2 -1.2
v -1.1 0.4 -1.1
v -1.1 0.4 -1.2
v -1.1 0.5 -1.1
v -1.1 0.5 -1.2
v -0.8 0 0.6
v -0.8 0 0.5
v -0.8 0.1 0.6
v -0.8 0.1 0.5
v -0.8 0.3 0.6
v -0.8 0.3 0.5
v -0.8 0.4 0.6
v -0.8 0.4 0.5
v -0.3 0 -0.1
v -0.3 0 -0.2
v -0.3 0.1 -0.1
v -0.3 0.1 -0.2
v -0.3 0.3 -0.1
v -0.3 0.3 -0.2
v -0.3 0.4 -0.1
v -0.3 0.4 -0.2
v 0.3 0 0.6
v 0.3 0 0.5
v 0.3 0.1 0.6
v 0.3 0.1 0.5
v 0.3 0.4 0.6
v 0.3 0.4 0.5
v 0.3 0.5 0.6
v 0.3 0.5 0.5
v 0.4 0 -0.6
v 0.4 0 -0.7
v 0.4 0.3 -0.6
v 0.4 0.3 -0.7
v 0.4 0.4 -0.6
v 0.4 0.4 -0.7
v 0.4 0.5 -0.6
v 0.4 0.5 -0.7
v -0.9 0 0.6
v -0.9 0.1 0.6
v -0.9 0.3 0.6
v -0.9 0.4 0.6
v -0.8 0 0.6
v -0.8 0.1 0.6
v -0.8 0.3 0.6
v -0.8 0.4 0.6
v 0.2 0 0.6
v 0.2 0.1 0.6
v 0.2 0.4 0.6
v 0.2 0.5 0.6
v 0.3 0 0.6
v 0.3 0.1 0.6
v 0.3 0.4 0.6
v 0.3 0.5 0.6
v -0.4 0 -0.1
v -0.4 0.1 -0.1
v -0.4 0.3 -0.1
v -0.4 0.4 -0.1
v -0.3 0 -0.1
v -0.3 0.1 -0.1
v -0.3 0.3 -0.1
v -0.3 0.4 -0.1
v 0.3 0 -0.6
v 0.3 0.3 -0.6
v 0.3 0.4 -0.6
v 0.3 0.5 -0.6
v 0.4 0 -0.6
v 0.4 0.3 -0.6
v 0.4 0.4 -0.6
v 0.4 0.5 -0.6
v -1.2 0 -1
v -1.2 0.1 -1
v -1.2 0.2 -1
v -1.1 0 -1
v -1.1 0.1 -1
v -1.1 0.2 -1
v -1.2 0.2 -1.1
v -1.2 0.4 -1.1
v -1.2 0.5 -1.1
v -1.1 0.2 -1.1
v -1.1 0.4 -1.1
v -1.1 0.5 -1.1
v -0.9 0 0.5
v -0.9 0.1 0.5
v -0.9 0.3 0.5
v -0.9 0.4 0.5
v -0.8 0 0.5
v -0.8 0.1 0.5
v -0.8 0.3 0.5
v -0.8 0.4 0.5
v 0.2 0 0.5
v 0.2 0.1 0.5
v 0.2 0.4 0.5
v 0.2 0.5 0.5
v 0.3 0 0.5
v 0.3 0.1 0.5
v 0.3 0.4 0.5
v 0.3 0.5 0.5
v -0.4 0 -0.2
v -0.4 0.1 -0.2
v -0.4 0.3 -0.2
v -0.4 0.4 -0.2
v -0.3 0 -0.2
v -0.3 0.1 -0.2
v -0.3 0.3 -0.2
v -0.3 0.4 -0.2
v 0.3 0 -0.7
v 0.3 0.3 -0.7
v 0.3 0.4 -0.7
v 0.3 0.5 -0.7
v 0.4 0 -0.7
v 0.4 0.3 -0.7
v 0.4 0.4 -0.7
v 0.4 0.5 -0.7
v -1.2 0 -1.2
v -1.2 0.2 -1.2
v -1.2 0.4 -1.2
v -1.2 0.5 -1.2
v -1.1 0 -1.2
v -1.1 0.2 -1.2
v -1.1 0.4 -1.2
v -1.1 0.5 -1.2
v -0.9 0 0.6
v -0.8 0 0.6
v 0.2 0 0.6
v 0.3 0 0.6
v -0.9 0 0.5
v -0.8 0 0.5
v 0.2 0 0.5
v 0.3 0 0.5
v -0.4 0 -0.1
v -0.3 0 -0.1
v -0.4 0 -0.2
v -0.3 0 -0.2
v 0.3 0 -0.6
v 0.4 0 -0.6
v 0.3 0 -0.7
v 0.4 0 -0.7
v -1.2 0 -1
v -1.1 0 -1
v -1.2 0 -1.2
v -1.1 0 -1.2
v -1.2 0.2 -1
v -1.1 0.2 -1
v -1.2 0.2 -1.1
v -1.1 0.2 -1.1
v -0.9 0.4 0.6
v -0.8 0.4 0.6
v -0.9 0.4 0.5
v -0.8 0.4 0.5
v -0.4 0.4 -0.1
v -0.3 0.4 -0.1
v -0.4 0.4 -0.2
v -0.3 0.4 -0.2
v 0.2 0.5 0.6
v 0.3 0.5 0.6
v 0.2 0.5 0.5
v 0.3 0.5 0.5
v 0.3 0.5 -0.6
v 0.4 0.5 -0.6
v 0.3 0.5 -0.7
v 0.4 0.5 -0.7
v -1.2 0.5 -1.1
v -1.1 0.5 -1.1
v -1.2 0.5 -1.2
v -1.1 0.5 -1.2

# faces
f 3/3/1 2/3/1 1/3/1
f 4/3/1 2/3/1 3/3/1
f 5/1/1 4/1/1 3/1/1
f 6/3/1 2/3/1 4/3/1
f 6/1/1 4/1/1 5/1/1
f 7/3/1 2/3/1 6/3/1
f 8/2/1 7/2/1 6/2/1
f 9/2/1 7/2/1 8/2/1
f 10/1/1 9/1/1 8/1/1
f 11/1/1 9/1/1 10/1/1
f 14/3/1 13/3/1 12/3/1
f 15/3/1 13/3/1 14/3/1
f 16/2/1 15/2/1 14/2/1
f 17/2/1 15/2/1 16/2/1
f 18/1/1 17/1/1 16/1/1
f 19/1/1 17/1/1 18/1/1
f 22/3/1 21/3/1 20/3/1
f 23/3/1 21/3/1 22/3/1
f 24/2/1 23/2/1 22/2/1
f 25/2/1 23/2/1 24/2/1
f 26/1/1 25/1/1 24/1/1
f 27/1/1 25/1/1 26/1/1
f 30/3/1 29/3/1 28/3/1
f 31/3/1 29/3/1 30/3/1
f 32/2/1 31/2/1 30/2/1
f 33/2/1 31/2/1 32/2/1
f 34/1/1 33/1/1 32/1/1
f 35/1/1 33/1/1 34/1/1
f 38/3/1 37/3/1 36/3/1
f 39/3/1 37/3/1 38/3/1
f 40/2/1 39/2/1 38/2/1
f 41/2/1 39/2/1 40/2/1
f 42/1/1 41/1/1 40/1/1
f 43/1/1 41/1/1 42/1/1
f 44/3/2 45/3/2 46/3/2
f 46/3/2 45/3/2 47/3/2
f 46/1/2 47/1/2 48/1/2
f 47/3/2 45/3/2 49/3/2
f 48/1/2 47/1/2 49/1/2
f 49/3/2 45/3/2 50/3/2
f 49/2/2 50/2/2 51/2/2
f 51/2/2 50/2/2 52/2/2
f 51/1/2 52/1/2 53/1/2
f 53/1/2 52/1/2 54/1/2
f 55/3/2 56/3/2 57/3/2
f 57/3/2 56/3/2 58/3/2
f 57/2/2 58/2/2 59/2/2
f 59/2/2 58/2/2 60/2/2
f 59/1/2 60/1/2 61/1/2
f 61/1/2 60/1/2 62/1/2
f 63/3/2 64/3/2 65/3/2
f 65/3/2 64/3/2 66/3/2
f 65/2/2 66/2/2 67/2/2
f 67/2/2 66/2/2 68/2/2
f 67/1/2 68/1/2 69/1/2
f 69/1/2 68/1/2 70/1/2
f 71/3/2 72/3/2 73/3/2
f 73/3/2 72/3/2 74/3/2
f 73/2/2 74/2/2 75/2/2
f 75/2/2 74/2/2 76/2/2
f 75/1/2 76/1/2 77/1/2
f 77/1/2 76/1/2 78/1/2
f 79/3/2 80/3/2 81/3/2
f 81/3/2 80/3/2 82/3/2
f 81/2/2 82/2/2 83/2/2
f 83/2/2 82/2/2 84/2/2
f 83/1/2 84/1/2 85/1/2
f 85/1/2 84/1/2 86/1/2
f 91/3/3 88/3/3 87/3/3
f 92/2/3 89/2/3 88/2/3
f 92/3/3 88/3/3 91/3/3
f 93/1/3 90/1/3 89/1/3
f 93/2/3 89/2/3 92/2/3
f 94/1/3 90/1/3 93/1/3
f 99/3/3 96/3/3 95/3/3
f 100/2/3 97/2/3 96/2/3
f 100/3/3 96/3/3 99/3/3
f 101/1/3 98/1/3 97/1/3
f 101/2/3 97/2/3 100/2/3
f 102/1/3 98/1/3 101/1/3
f 107/3/3 104/3/3 103/3/3
f 108/2/3 105/2/3 104/2/3
f 108/3/3 104/3/3 107/3/3
f 109/1/3 106/1/3 105/1/3
f 109/2/3 105/2/3 108/2/3
f 110/1/3 106/1/3 109/1/3
f 115/3/3 112/3/3 111/3/3
f 116/2/3 113/2/3 112/2/3
f 116/3/3 112/3/3 115/3/3
f 117/1/3 114/1/3 113/1/3
f 117/2/3 113/2/3 116/2/3
f 118/1/3 114/1/3 117/1/3
f 122/3/3 120/3/3 119/3/3
f 123/1/3 121/1/3 120/1/3
f 123/3/3 120/3/3 122/3/3
f 124/1/3 121/1/3 123/1/3
f 128/2/3 126/2/3 125/2/3
f 129/1/3 127/1/3 126/1/3
f 129/2/3 126/2/3 128/2/3
f 130/1/3 127/1/3 129/1/3
f 131/3/4 132/3/4 135/3/4
f 132/2/4 133/2/4 136/2/4
f 135/3/4 132/3/4 136/3/4
f 133/1/4 134/1/4 137/1/4
f 136/2/4 133/2/4 137/2/4
f 137/1/4 134/1/4 138/1/4
f 139/3/4 140/3/4 143/3/4
f 140/2/4 141/2/4 144/2/4
f 143/3/4 140/3/4 144/3/4
f 141/1/4 142/1/4 145/1/4
f 144/2/4 141/2/4 145/2/4
f 145/1/4 142/1/4 146/1/4
f 147/3/4 148/3/4 151/3/4
f 148/2/4 149/2/4 152/2/4
f 151/3/4 148/3/4 152/3/4
f 149/1/4 150/1/4 153/1/4
f 152/2/4 149/2/4 153/2/4
f 153/1/4 150/1/4 154/1/4
f 155/3/4 156/3/4 159/3/4
f 156/2/4 157/2/4 160/2/4
f 159/3/4 156/3/4 160/3/4
f 157/1/4 158/1/4 161/1/4
f 160/2/4 157/2/4 161/2/4
f 161/1/4 158/1/4 162/1/4
f 163/3/4 164/3/4 167/3/4
f 164/2/4 165/2/4 168/2/4
f 167/3/4 164/3/4 168/3/4
f 165/1/4 166/1/4 169/1/4
f 168/2/4 165/2/4 169/2/4
f 169/1/4 166/1/4 170/1/4
f 175/3/5 172/3/5 171/3/5
f 176/3/5 172/3/5 175/3/5
f 177/3/5 174/3/5 173/3/5
f 178/3/5 174/3/5 177/3/5
f 181/3/5 180/3/5 179/3/5
f 182/3/5 180/3/5 181/3/5
f 185/3/5 184/3/5 183/3/5
f 186/3/5 184/3/5 185/3/5
f 189/3/5 188/3/5 187/3/5
f 190/3/5 188/3/5 189/3/5
f 191/1/6 192/1/6 193/1/6
f 193/1/6 192/1/6 194/1/6
f 195/1/6 196/1/6 197/1/6
f 197/1/6 196/1/6 198/1/6
f 199/1/6 200/1/6 201/1/6
f 201/1/6 200/1/6 202/1/6
f 203/1/6 204/1/6 205/1/6
f 205/1/6 204/1/6 206/1/6
f 207/1/6 208/1/6 209/1/6
f 209/1/6 208/1/6 210/1/6
f 211/1/6 212/1/6 213/1/6
f 213/1/6 212/1/6 214/1/6
