# MagicaVoxel @ Ephtracy

# group
o 

# material
mtllib Rocks_Grass_3.mtl
usemtl palette

# normals
vn -1 0 0
vn 1 0 0
vn 0 0 1
vn 0 0 -1
vn 0 -1 0
vn 0 1 0

# texcoords
vt 0.951172 0.5
vt 0.955078 0.5
vt 0.970703 0.5
vt 0.974609 0.5
vt 0.978516 0.5

# verts
v -0.8 0 -0.7
v -0.8 0 -0.8
v -0.8 0.1 -0.7
v -0.8 0.1 -0.8
v -0.8 0.4 -0.7
v -0.8 0.4 -0.8
v -0.8 0.5 -0.7
v -0.8 0.5 -0.8
v -0.4 0 0.1
v -0.4 0 -0.1
v -0.4 0.1 0.1
v -0.4 0.1 -0.1
v -0.3 0 0.6
v -0.3 0 0.5
v -0.3 0.2 0.6
v -0.3 0.2 0.5
v -0.3 0.4 0.6
v -0.3 0.4 0.5
v -0.3 0.5 0.6
v -0.3 0.5 0.5
v 0.2 0 -0.8
v 0.2 0 -1
v 0.2 0.1 -0.8
v 0.2 0.1 -1
v 0.5 0 0.7
v 0.5 0 0.6
v 0.5 0.1 0.7
v 0.5 0.1 0.6
v 0.7 0 -0.2
v 0.7 0 -0.3
v 0.7 0.1 -0.2
v 0.7 0.1 -0.3
v 0.7 0.2 -0.2
v 0.7 0.2 -0.3
v 0.7 0.3 -0.2
v 0.7 0.3 -0.3
v -0.7 0 -0.7
v -0.7 0 -0.8
v -0.7 0.1 -0.7
v -0.7 0.1 -0.8
v -0.7 0.4 -0.7
v -0.7 0.4 -0.8
v -0.7 0.5 -0.7
v -0.7 0.5 -0.8
v -0.2 0 0.6
v -0.2 0 0.5
v -0.2 0.2 0.6
v -0.2 0.2 0.5
v -0.2 0.4 0.6
v -0.2 0.4 0.5
v -0.2 0.5 0.6
v -0.2 0.5 0.5
v -0.1 0 0.1
v -0.1 0 5.96046e-08
v -0.1 0 -0.1
v -0.1 0.1 0.1
v -0.1 0.1 5.96046e-08
v -0.1 0.1 -0.1
v 0.4 0 -0.8
v 0.4 0 -0.9
v 0.4 0 -1
v 0.4 0.1 -0.8
v 0.4 0.1 -0.9
v 0.4 0.1 -1
v 0.6 0 0.7
v 0.6 0 0.6
v 0.6 0.1 0.7
v 0.6 0.1 0.6
v 0.8 0 -0.2
v 0.8 0 -0.3
v 0.8 0.1 -0.2
v 0.8 0.1 -0.3
v 0.8 0.2 -0.2
v 0.8 0.2 -0.3
v 0.8 0.3 -0.2
v 0.8 0.3 -0.3
v 0.5 0 0.7
v 0.5 0.1 0.7
v 0.6 0 0.7
v 0.6 0.1 0.7
v -0.3 0 0.6
v -0.3 0.2 0.6
v -0.3 0.4 0.6
v -0.3 0.5 0.6
v -0.2 0 0.6
v -0.2 0.2 0.6
v -0.2 0.4 0.6
v -0.2 0.5 0.6
v -0.4 0 0.1
v -0.4 0.1 0.1
v -0.2 0 0.1
v -0.2 0.1 0.1
v -0.1 0 0.1
v -0.1 0.1 0.1
v 0.7 0 -0.2
v 0.7 0.1 -0.2
v 0.7 0.2 -0.2
v 0.7 0.3 -0.2
v 0.8 0 -0.2
v 0.8 0.1 -0.2
v 0.8 0.2 -0.2
v 0.8 0.3 -0.2
v -0.8 0 -0.7
v -0.8 0.1 -0.7
v -0.8 0.4 -0.7
v -0.8 0.5 -0.7
v -0.7 0 -0.7
v -0.7 0.1 -0.7
v -0.7 0.4 -0.7
v -0.7 0.5 -0.7
v 0.2 0 -0.8
v 0.2 0.1 -0.8
v 0.3 0 -0.8
v 0.3 0.1 -0.8
v 0.4 0 -0.8
v 0.4 0.1 -0.8
v 0.5 0 0.6
v 0.5 0.1 0.6
v 0.6 0 0.6
v 0.6 0.1 0.6
v -0.3 0 0.5
v -0.3 0.2 0.5
v -0.3 0.4 0.5
v -0.3 0.5 0.5
v -0.2 0 0.5
v -0.2 0.2 0.5
v -0.2 0.4 0.5
v -0.2 0.5 0.5
v -0.4 0 -0.1
v -0.4 0.1 -0.1
v -0.1 0 -0.1
v -0.1 0.1 -0.1
v 0.7 0 -0.3
v 0.7 0.1 -0.3
v 0.7 0.2 -0.3
v 0.7 0.3 -0.3
v 0.8 0 -0.3
v 0.8 0.1 -0.3
v 0.8 0.2 -0.3
v 0.8 0.3 -0.3
v -0.8 0 -0.8
v -0.8 0.1 -0.8
v -0.8 0.4 -0.8
v -0.8 0.5 -0.8
v -0.7 0 -0.8
v -0.7 0.1 -0.8
v -0.7 0.4 -0.8
v -0.7 0.5 -0.8
v 0.2 0 -1
v 0.2 0.1 -1
v 0.4 0 -1
v 0.4 0.1 -1
v 0.5 0 0.7
v 0.6 0 0.7
v -0.3 0 0.6
v -0.2 0 0.6
v 0.5 0 0.6
v 0.6 0 0.6
v -0.3 0 0.5
v -0.2 0 0.5
v -0.4 0 0.1
v -0.2 0 0.1
v -0.1 0 0.1
v -0.2 0 5.96046e-08
v -0.1 0 5.96046e-08
v -0.4 0 -0.1
v -0.1 0 -0.1
v 0.7 0 -0.2
v 0.8 0 -0.2
v 0.7 0 -0.3
v 0.8 0 -0.3
v -0.8 0 -0.7
v -0.7 0 -0.7
v -0.8 0 -0.8
v -0.7 0 -0.8
v 0.2 0 -0.8
v 0.3 0 -0.8
v 0.4 0 -0.8
v 0.3 0 -0.9
v 0.4 0 -0.9
v 0.2 0 -1
v 0.4 0 -1
v 0.5 0.1 0.7
v 0.6 0.1 0.7
v 0.5 0.1 0.6
v 0.6 0.1 0.6
v -0.4 0.1 0.1
v -0.2 0.1 0.1
v -0.1 0.1 0.1
v -0.2 0.1 5.96046e-08
v -0.1 0.1 5.96046e-08
v -0.4 0.1 -0.1
v -0.1 0.1 -0.1
v 0.2 0.1 -0.8
v 0.3 0.1 -0.8
v 0.4 0.1 -0.8
v 0.3 0.1 -0.9
v 0.4 0.1 -0.9
v 0.2 0.1 -1
v 0.4 0.1 -1
v 0.7 0.3 -0.2
v 0.8 0.3 -0.2
v 0.7 0.3 -0.3
v 0.8 0.3 -0.3
v -0.3 0.5 0.6
v -0.2 0.5 0.6
v -0.3 0.5 0.5
v -0.2 0.5 0.5
v -0.8 0.5 -0.7
v -0.7 0.5 -0.7
v -0.8 0.5 -0.8
v -0.7 0.5 -0.8

# faces
f 3/5/1 2/5/1 1/5/1
f 4/5/1 2/5/1 3/5/1
f 5/4/1 4/4/1 3/4/1
f 6/4/1 4/4/1 5/4/1
f 7/3/1 6/3/1 5/3/1
f 8/3/1 6/3/1 7/3/1
f 11/1/1 10/1/1 9/1/1
f 12/1/1 10/1/1 11/1/1
f 15/5/1 14/5/1 13/5/1
f 16/5/1 14/5/1 15/5/1
f 17/4/1 16/4/1 15/4/1
f 18/4/1 16/4/1 17/4/1
f 19/3/1 18/3/1 17/3/1
f 20/3/1 18/3/1 19/3/1
f 23/1/1 22/1/1 21/1/1
f 24/1/1 22/1/1 23/1/1
f 27/1/1 26/1/1 25/1/1
f 28/1/1 26/1/1 27/1/1
f 31/5/1 30/5/1 29/5/1
f 32/5/1 30/5/1 31/5/1
f 33/4/1 32/4/1 31/4/1
f 34/4/1 32/4/1 33/4/1
f 35/3/1 34/3/1 33/3/1
f 36/3/1 34/3/1 35/3/1
f 37/5/2 38/5/2 39/5/2
f 39/5/2 38/5/2 40/5/2
f 39/4/2 40/4/2 41/4/2
f 41/4/2 40/4/2 42/4/2
f 41/3/2 42/3/2 43/3/2
f 43/3/2 42/3/2 44/3/2
f 45/5/2 46/5/2 47/5/2
f 47/5/2 46/5/2 48/5/2
f 47/4/2 48/4/2 49/4/2
f 49/4/2 48/4/2 50/4/2
f 49/3/2 50/3/2 51/3/2
f 51/3/2 50/3/2 52/3/2
f 53/2/2 54/2/2 56/2/2
f 54/1/2 55/1/2 57/1/2
f 56/2/2 54/2/2 57/2/2
f 57/1/2 55/1/2 58/1/2
f 59/2/2 60/2/2 62/2/2
f 60/1/2 61/1/2 63/1/2
f 62/2/2 60/2/2 63/2/2
f 63/1/2 61/1/2 64/1/2
f 65/1/2 66/1/2 67/1/2
f 67/1/2 66/1/2 68/1/2
f 69/5/2 70/5/2 71/5/2
f 71/5/2 70/5/2 72/5/2
f 71/4/2 72/4/2 73/4/2
f 73/4/2 72/4/2 74/4/2
f 73/3/2 74/3/2 75/3/2
f 75/3/2 74/3/2 76/3/2
f 79/1/3 78/1/3 77/1/3
f 80/1/3 78/1/3 79/1/3
f 85/5/3 82/5/3 81/5/3
f 86/4/3 83/4/3 82/4/3
f 86/5/3 82/5/3 85/5/3
f 87/3/3 84/3/3 83/3/3
f 87/4/3 83/4/3 86/4/3
f 88/3/3 84/3/3 87/3/3
f 91/1/3 90/1/3 89/1/3
f 92/1/3 90/1/3 91/1/3
f 93/2/3 92/2/3 91/2/3
f 94/2/3 92/2/3 93/2/3
f 99/5/3 96/5/3 95/5/3
f 100/4/3 97/4/3 96/4/3
f 100/5/3 96/5/3 99/5/3
f 101/3/3 98/3/3 97/3/3
f 101/4/3 97/4/3 100/4/3
f 102/3/3 98/3/3 101/3/3
f 107/5/3 104/5/3 103/5/3
f 108/4/3 105/4/3 104/4/3
f 108/5/3 104/5/3 107/5/3
f 109/3/3 106/3/3 105/3/3
f 109/4/3 105/4/3 108/4/3
f 110/3/3 106/3/3 109/3/3
f 113/1/3 112/1/3 111/1/3
f 114/1/3 112/1/3 113/1/3
f 115/2/3 114/2/3 113/2/3
f 116/2/3 114/2/3 115/2/3
f 117/1/4 118/1/4 119/1/4
f 119/1/4 118/1/4 120/1/4
f 121/5/4 122/5/4 125/5/4
f 122/4/4 123/4/4 126/4/4
f 125/5/4 122/5/4 126/5/4
f 123/3/4 124/3/4 127/3/4
f 126/4/4 123/4/4 127/4/4
f 127/3/4 124/3/4 128/3/4
f 129/1/4 130/1/4 131/1/4
f 131/1/4 130/1/4 132/1/4
f 133/5/4 134/5/4 137/5/4
f 134/4/4 135/4/4 138/4/4
f 137/5/4 134/5/4 138/5/4
f 135/3/4 136/3/4 139/3/4
f 138/4/4 135/4/4 139/4/4
f 139/3/4 136/3/4 140/3/4
f 141/5/4 142/5/4 145/5/4
f 142/4/4 143/4/4 146/4/4
f 145/5/4 142/5/4 146/5/4
f 143/3/4 144/3/4 147/3/4
f 146/4/4 143/4/4 147/4/4
f 147/3/4 144/3/4 148/3/4
f 149/1/4 150/1/4 151/1/4
f 151/1/4 150/1/4 152/1/4
f 157/1/5 154/1/5 153/1/5
f 158/1/5 154/1/5 157/1/5
f 159/5/5 156/5/5 155/5/5
f 160/5/5 156/5/5 159/5/5
f 164/1/5 162/1/5 161/1/5
f 164/2/5 163/2/5 162/2/5
f 165/2/5 163/2/5 164/2/5
f 166/1/5 164/1/5 161/1/5
f 166/1/5 165/1/5 164/1/5
f 167/1/5 165/1/5 166/1/5
f 170/5/5 169/5/5 168/5/5
f 171/5/5 169/5/5 170/5/5
f 174/5/5 173/5/5 172/5/5
f 175/5/5 173/5/5 174/5/5
f 179/2/5 178/2/5 177/2/5
f 179/1/5 177/1/5 176/1/5
f 180/2/5 178/2/5 179/2/5
f 181/1/5 179/1/5 176/1/5
f 181/1/5 180/1/5 179/1/5
f 182/1/5 180/1/5 181/1/5
f 183/1/6 184/1/6 185/1/6
f 185/1/6 184/1/6 186/1/6
f 187/1/6 188/1/6 190/1/6
f 188/2/6 189/2/6 190/2/6
f 190/2/6 189/2/6 191/2/6
f 187/1/6 190/1/6 192/1/6
f 190/1/6 191/1/6 192/1/6
f 192/1/6 191/1/6 193/1/6
f 194/1/6 195/1/6 197/1/6
f 195/2/6 196/2/6 197/2/6
f 197/2/6 196/2/6 198/2/6
f 194/1/6 197/1/6 199/1/6
f 197/1/6 198/1/6 199/1/6
f 199/1/6 198/1/6 200/1/6
f 201/3/6 202/3/6 203/3/6
f 203/3/6 202/3/6 204/3/6
f 205/3/6 206/3/6 207/3/6
f 207/3/6 206/3/6 208/3/6
f 209/3/6 210/3/6 211/3/6
f 211/3/6 210/3/6 212/3/6
