# MagicaVoxel @ Ephtracy

# group
o 

# material
mtllib Rocks_3.mtl
usemtl palette

# normals
vn -1 0 0
vn 1 0 0
vn 0 0 1
vn 0 0 -1
vn 0 -1 0
vn 0 1 0

# texcoords
vt 0.951172 0.5
vt 0.955078 0.5

# verts
v -0.8 0 0.5
v -0.8 0 0.4
v -0.8 0.1 0.5
v -0.8 0.1 0.4
v -0.7 0 -0.7
v -0.7 0 -0.9
v -0.7 0.1 -0.7
v -0.7 0.1 -0.9
v -0.6 0 0.1
v -0.6 0 5.96046e-08
v -0.6 0 -0.0999999
v -0.6 0.1 0.1
v -0.6 0.1 5.96046e-08
v -0.6 0.1 -0.0999999
v -0.2 0 0.8
v -0.2 0 0.7
v -0.2 0 -0.3
v -0.2 0 -0.5
v -0.2 0.1 0.8
v -0.2 0.1 0.7
v -0.2 0.1 -0.3
v -0.2 0.1 -0.5
v 0.2 0 0.3
v 0.2 0 0.2
v 0.2 0 0.1
v 0.2 0.1 0.3
v 0.2 0.1 0.2
v 0.2 0.1 0.1
v 0.3 0 -0.4
v 0.3 0 -0.6
v 0.3 0.1 -0.4
v 0.3 0.1 -0.6
v 0.7 0 0.8
v 0.7 0 0.7
v 0.7 0.1 0.8
v 0.7 0.1 0.7
v -0.7 0 0.5
v -0.7 0 0.4
v -0.7 0.1 0.5
v -0.7 0.1 0.4
v -0.5 0 5.96046e-08
v -0.5 0 -0.0999999
v -0.5 0 -0.7
v -0.5 0 -0.8
v -0.5 0 -0.9
v -0.5 0.1 5.96046e-08
v -0.5 0.1 -0.0999999
v -0.5 0.1 -0.7
v -0.5 0.1 -0.8
v -0.5 0.1 -0.9
v -0.4 0 0.1
v -0.4 0 5.96046e-08
v -0.4 0.1 0.1
v -0.4 0.1 5.96046e-08
v -0.1 0 0.8
v -0.1 0 0.7
v -0.1 0.1 0.8
v -0.1 0.1 0.7
v 0.1 0 -0.3
v 0.1 0 -0.4
v 0.1 0 -0.5
v 0.1 0.1 -0.3
v 0.1 0.1 -0.4
v 0.1 0.1 -0.5
v 0.3 0 0.3
v 0.3 0 0.2
v 0.3 0 0.1
v 0.3 0.1 0.3
v 0.3 0.1 0.2
v 0.3 0.1 0.1
v 0.5 0 -0.4
v 0.5 0 -0.5
v 0.5 0 -0.6
v 0.5 0.1 -0.4
v 0.5 0.1 -0.5
v 0.5 0.1 -0.6
v 0.9 0 0.8
v 0.9 0 0.7
v 0.9 0.1 0.8
v 0.9 0.1 0.7
v -0.2 0 0.8
v -0.2 0.1 0.8
v -0.1 0 0.8
v -0.1 0.1 0.8
v 0.7 0 0.8
v 0.7 0.1 0.8
v 0.8 0 0.8
v 0.8 0.1 0.8
v 0.9 0 0.8
v 0.9 0.1 0.8
v -0.8 0 0.5
v -0.8 0.1 0.5
v -0.7 0 0.5
v -0.7 0.1 0.5
v 0.2 0 0.3
v 0.2 0.1 0.3
v 0.3 0 0.3
v 0.3 0.1 0.3
v -0.6 0 0.1
v -0.6 0.1 0.1
v -0.4 0 0.1
v -0.4 0.1 0.1
v -0.2 0 -0.3
v -0.2 0.1 -0.3
v -0.1 0 -0.3
v -0.1 0.1 -0.3
v 0.1 0 -0.3
v 0.1 0.1 -0.3
v 0.3 0 -0.4
v 0.3 0.1 -0.4
v 0.4 0 -0.4
v 0.4 0.1 -0.4
v 0.5 0 -0.4
v 0.5 0.1 -0.4
v -0.7 0 -0.7
v -0.7 0.1 -0.7
v -0.6 0 -0.7
v -0.6 0.1 -0.7
v -0.5 0 -0.7
v -0.5 0.1 -0.7
v -0.2 0 0.7
v -0.2 0.1 0.7
v -0.1 0 0.7
v -0.1 0.1 0.7
v 0.7 0 0.7
v 0.7 0.1 0.7
v 0.8 0 0.7
v 0.8 0.1 0.7
v 0.9 0 0.7
v 0.9 0.1 0.7
v -0.8 0 0.4
v -0.8 0.1 0.4
v -0.7 0 0.4
v -0.7 0.1 0.4
v 0.2 0 0.1
v 0.2 0.1 0.1
v 0.3 0 0.1
v 0.3 0.1 0.1
v -0.5 0 5.96046e-08
v -0.5 0.1 5.96046e-08
v -0.4 0 5.96046e-08
v -0.4 0.1 5.96046e-08
v -0.6 0 -0.0999999
v -0.6 0.1 -0.0999999
v -0.5 0 -0.0999999
v -0.5 0.1 -0.0999999
v -0.2 0 -0.5
v -0.2 0.1 -0.5
v 0.1 0 -0.5
v 0.1 0.1 -0.5
v 0.3 0 -0.6
v 0.3 0.1 -0.6
v 0.5 0 -0.6
v 0.5 0.1 -0.6
v -0.7 0 -0.9
v -0.7 0.1 -0.9
v -0.5 0 -0.9
v -0.5 0.1 -0.9
v -0.2 0 0.8
v -0.1 0 0.8
v 0.7 0 0.8
v 0.8 0 0.8
v 0.9 0 0.8
v -0.2 0 0.7
v -0.1 0 0.7
v 0.7 0 0.7
v 0.8 0 0.7
v 0.9 0 0.7
v -0.8 0 0.5
v -0.7 0 0.5
v -0.8 0 0.4
v -0.7 0 0.4
v 0.2 0 0.3
v 0.3 0 0.3
v 0.2 0 0.2
v 0.3 0 0.2
v -0.6 0 0.1
v -0.4 0 0.1
v 0.2 0 0.1
v 0.3 0 0.1
v -0.6 0 5.96046e-08
v -0.5 0 5.96046e-08
v -0.4 0 5.96046e-08
v -0.6 0 -0.0999999
v -0.5 0 -0.0999999
v -0.2 0 -0.3
v -0.1 0 -0.3
v 0.1 0 -0.3
v -0.1 0 -0.4
v 0.1 0 -0.4
v 0.3 0 -0.4
v 0.4 0 -0.4
v 0.5 0 -0.4
v -0.2 0 -0.5
v 0.1 0 -0.5
v 0.4 0 -0.5
v 0.5 0 -0.5
v 0.3 0 -0.6
v 0.5 0 -0.6
v -0.7 0 -0.7
v -0.6 0 -0.7
v -0.5 0 -0.7
v -0.6 0 -0.8
v -0.5 0 -0.8
v -0.7 0 -0.9
v -0.5 0 -0.9
v -0.2 0.1 0.8
v -0.1 0.1 0.8
v 0.7 0.1 0.8
v 0.8 0.1 0.8
v 0.9 0.1 0.8
v -0.2 0.1 0.7
v -0.1 0.1 0.7
v 0.7 0.1 0.7
v 0.8 0.1 0.7
v 0.9 0.1 0.7
v -0.8 0.1 0.5
v -0.7 0.1 0.5
v -0.8 0.1 0.4
v -0.7 0.1 0.4
v 0.2 0.1 0.3
v 0.3 0.1 0.3
v 0.2 0.1 0.2
v 0.3 0.1 0.2
v -0.6 0.1 0.1
v -0.4 0.1 0.1
v 0.2 0.1 0.1
v 0.3 0.1 0.1
v -0.6 0.1 5.96046e-08
v -0.5 0.1 5.96046e-08
v -0.4 0.1 5.96046e-08
v -0.6 0.1 -0.0999999
v -0.5 0.1 -0.0999999
v -0.2 0.1 -0.3
v -0.1 0.1 -0.3
v 0.1 0.1 -0.3
v -0.1 0.1 -0.4
v 0.1 0.1 -0.4
v 0.3 0.1 -0.4
v 0.4 0.1 -0.4
v 0.5 0.1 -0.4
v -0.2 0.1 -0.5
v 0.1 0.1 -0.5
v 0.4 0.1 -0.5
v 0.5 0.1 -0.5
v 0.3 0.1 -0.6
v 0.5 0.1 -0.6
v -0.7 0.1 -0.7
v -0.6 0.1 -0.7
v -0.5 0.1 -0.7
v -0.6 0.1 -0.8
v -0.5 0.1 -0.8
v -0.7 0.1 -0.9
v -0.5 0.1 -0.9

# faces
f 3/2/1 2/2/1 1/2/1
f 4/2/1 2/2/1 3/2/1
f 7/1/1 6/1/1 5/1/1
f 8/1/1 6/1/1 7/1/1
f 12/1/1 10/1/1 9/1/1
f 13/2/1 11/2/1 10/2/1
f 13/1/1 10/1/1 12/1/1
f 14/2/1 11/2/1 13/2/1
f 19/2/1 16/2/1 15/2/1
f 20/2/1 16/2/1 19/2/1
f 21/1/1 18/1/1 17/1/1
f 22/1/1 18/1/1 21/1/1
f 26/1/1 24/1/1 23/1/1
f 27/2/1 25/2/1 24/2/1
f 27/1/1 24/1/1 26/1/1
f 28/2/1 25/2/1 27/2/1
f 31/1/1 30/1/1 29/1/1
f 32/1/1 30/1/1 31/1/1
f 35/1/1 34/1/1 33/1/1
f 36/1/1 34/1/1 35/1/1
f 37/2/2 38/2/2 39/2/2
f 39/2/2 38/2/2 40/2/2
f 41/2/2 42/2/2 46/2/2
f 46/2/2 42/2/2 47/2/2
f 43/2/2 44/2/2 48/2/2
f 44/1/2 45/1/2 49/1/2
f 48/2/2 44/2/2 49/2/2
f 49/1/2 45/1/2 50/1/2
f 51/1/2 52/1/2 53/1/2
f 53/1/2 52/1/2 54/1/2
f 55/2/2 56/2/2 57/2/2
f 57/2/2 56/2/2 58/2/2
f 59/2/2 60/2/2 62/2/2
f 60/1/2 61/1/2 63/1/2
f 62/2/2 60/2/2 63/2/2
f 63/1/2 61/1/2 64/1/2
f 65/1/2 66/1/2 68/1/2
f 66/2/2 67/2/2 69/2/2
f 68/1/2 66/1/2 69/1/2
f 69/2/2 67/2/2 70/2/2
f 71/2/2 72/2/2 74/2/2
f 72/1/2 73/1/2 75/1/2
f 74/2/2 72/2/2 75/2/2
f 75/1/2 73/1/2 76/1/2
f 77/2/2 78/2/2 79/2/2
f 79/2/2 78/2/2 80/2/2
f 83/2/3 82/2/3 81/2/3
f 84/2/3 82/2/3 83/2/3
f 87/1/3 86/1/3 85/1/3
f 88/1/3 86/1/3 87/1/3
f 89/2/3 88/2/3 87/2/3
f 90/2/3 88/2/3 89/2/3
f 93/2/3 92/2/3 91/2/3
f 94/2/3 92/2/3 93/2/3
f 97/1/3 96/1/3 95/1/3
f 98/1/3 96/1/3 97/1/3
f 101/1/3 100/1/3 99/1/3
f 102/1/3 100/1/3 101/1/3
f 105/1/3 104/1/3 103/1/3
f 106/1/3 104/1/3 105/1/3
f 107/2/3 106/2/3 105/2/3
f 108/2/3 106/2/3 107/2/3
f 111/1/3 110/1/3 109/1/3
f 112/1/3 110/1/3 111/1/3
f 113/2/3 112/2/3 111/2/3
f 114/2/3 112/2/3 113/2/3
f 117/1/3 116/1/3 115/1/3
f 118/1/3 116/1/3 117/1/3
f 119/2/3 118/2/3 117/2/3
f 120/2/3 118/2/3 119/2/3
f 121/2/4 122/2/4 123/2/4
f 123/2/4 122/2/4 124/2/4
f 125/1/4 126/1/4 127/1/4
f 127/1/4 126/1/4 128/1/4
f 127/2/4 128/2/4 129/2/4
f 129/2/4 128/2/4 130/2/4
f 131/2/4 132/2/4 133/2/4
f 133/2/4 132/2/4 134/2/4
f 135/2/4 136/2/4 137/2/4
f 137/2/4 136/2/4 138/2/4
f 139/1/4 140/1/4 141/1/4
f 141/1/4 140/1/4 142/1/4
f 143/2/4 144/2/4 145/2/4
f 145/2/4 144/2/4 146/2/4
f 147/1/4 148/1/4 149/1/4
f 149/1/4 148/1/4 150/1/4
f 151/1/4 152/1/4 153/1/4
f 153/1/4 152/1/4 154/1/4
f 155/1/4 156/1/4 157/1/4
f 157/1/4 156/1/4 158/1/4
f 164/2/5 160/2/5 159/2/5
f 165/2/5 160/2/5 164/2/5
f 166/1/5 162/1/5 161/1/5
f 167/2/5 163/2/5 162/2/5
f 167/1/5 162/1/5 166/1/5
f 168/2/5 163/2/5 167/2/5
f 171/2/5 170/2/5 169/2/5
f 172/2/5 170/2/5 171/2/5
f 175/1/5 174/1/5 173/1/5
f 176/1/5 174/1/5 175/1/5
f 179/2/5 176/2/5 175/2/5
f 180/2/5 176/2/5 179/2/5
f 181/1/5 178/1/5 177/1/5
f 182/1/5 178/1/5 181/1/5
f 183/1/5 178/1/5 182/1/5
f 184/2/5 182/2/5 181/2/5
f 185/2/5 182/2/5 184/2/5
f 189/1/5 187/1/5 186/1/5
f 189/2/5 188/2/5 187/2/5
f 190/2/5 188/2/5 189/2/5
f 194/1/5 190/1/5 189/1/5
f 194/1/5 189/1/5 186/1/5
f 195/1/5 190/1/5 194/1/5
f 196/2/5 193/2/5 192/2/5
f 196/1/5 192/1/5 191/1/5
f 197/2/5 193/2/5 196/2/5
f 198/1/5 196/1/5 191/1/5
f 198/1/5 197/1/5 196/1/5
f 199/1/5 197/1/5 198/1/5
f 203/1/5 201/1/5 200/1/5
f 203/2/5 202/2/5 201/2/5
f 204/2/5 202/2/5 203/2/5
f 205/1/5 203/1/5 200/1/5
f 205/1/5 204/1/5 203/1/5
f 206/1/5 204/1/5 205/1/5
f 207/2/6 208/2/6 212/2/6
f 212/2/6 208/2/6 213/2/6
f 209/1/6 210/1/6 214/1/6
f 210/2/6 211/2/6 215/2/6
f 214/1/6 210/1/6 215/1/6
f 215/2/6 211/2/6 216/2/6
f 217/2/6 218/2/6 219/2/6
f 219/2/6 218/2/6 220/2/6
f 221/1/6 222/1/6 223/1/6
f 223/1/6 222/1/6 224/1/6
f 223/2/6 224/2/6 227/2/6
f 227/2/6 224/2/6 228/2/6
f 225/1/6 226/1/6 229/1/6
f 229/1/6 226/1/6 230/1/6
f 230/1/6 226/1/6 231/1/6
f 229/2/6 230/2/6 232/2/6
f 232/2/6 230/2/6 233/2/6
f 234/1/6 235/1/6 237/1/6
f 235/2/6 236/2/6 237/2/6
f 237/2/6 236/2/6 238/2/6
f 237/1/6 238/1/6 242/1/6
f 234/1/6 237/1/6 242/1/6
f 242/1/6 238/1/6 243/1/6
f 240/2/6 241/2/6 244/2/6
f 239/1/6 240/1/6 244/1/6
f 244/2/6 241/2/6 245/2/6
f 239/1/6 244/1/6 246/1/6
f 244/1/6 245/1/6 246/1/6
f 246/1/6 245/1/6 247/1/6
f 248/1/6 249/1/6 251/1/6
f 249/2/6 250/2/6 251/2/6
f 251/2/6 250/2/6 252/2/6
f 248/1/6 251/1/6 253/1/6
f 251/1/6 252/1/6 253/1/6
f 253/1/6 252/1/6 254/1/6
