# MagicaVoxel @ Ephtracy

# group
o 

# material
mtllib Rocks_5.mtl
usemtl palette

# normals
vn -1 0 0
vn 1 0 0
vn 0 0 1
vn 0 0 -1
vn 0 -1 0
vn 0 1 0

# texcoords
vt 0.951172 0.5
vt 0.955078 0.5

# verts
v -1.1 0 1
v -1.1 0 0.7
v -1.1 0.1 1
v -1.1 0.1 0.7
v -0.9 0 0.1
v -0.9 0 -0.1
v -0.9 0.1 0.1
v -0.9 0.1 -0.1
v -0.8 0 -0.8
v -0.8 0 -0.9
v -0.8 0.1 -0.8
v -0.8 0.1 -0.9
v 0.1 0 0.9
v 0.1 0 0.7
v 0.1 0.1 0.9
v 0.1 0.1 0.7
v 0.5 0 0.1
v 0.5 0 -0.2
v 0.5 0.1 0.1
v 0.5 0.1 -0.2
v 0.7 0 -1
v 0.7 0 -1.1
v 0.7 0.1 -1
v 0.7 0.1 -1.1
v -1 0 1
v -1 0 0.9
v -1 0.1 1
v -1 0.1 0.9
v -0.9 0 0.9
v -0.9 0 0.8
v -0.9 0 0.7
v -0.9 0.1 0.9
v -0.9 0.1 0.8
v -0.9 0.1 0.7
v -0.7 0 0.1
v -0.7 0 0
v -0.7 0 -0.1
v -0.7 0.1 0.1
v -0.7 0.1 0
v -0.7 0.1 -0.1
v -0.6 0 -0.8
v -0.6 0 -0.9
v -0.6 0.1 -0.8
v -0.6 0.1 -0.9
v 0.3 0 0.9
v 0.3 0 0.8
v 0.3 0 0.7
v 0.3 0.1 0.9
v 0.3 0.1 0.8
v 0.3 0.1 0.7
v 0.8 0 0.1
v 0.8 0 -0.1
v 0.8 0 -0.2
v 0.8 0.1 0.1
v 0.8 0.1 -0.1
v 0.8 0.1 -0.2
v 0.9 0 -1
v 0.9 0 -1.1
v 0.9 0.1 -1
v 0.9 0.1 -1.1
v -1.1 0 1
v -1.1 0.1 1
v -1 0 1
v -1 0.1 1
v -1 0 0.9
v -1 0.1 0.9
v -0.9 0 0.9
v -0.9 0.1 0.9
v 0.1 0 0.9
v 0.1 0.1 0.9
v 0.2 0 0.9
v 0.2 0.1 0.9
v 0.3 0 0.9
v 0.3 0.1 0.9
v -0.9 0 0.1
v -0.9 0.1 0.1
v -0.8 0 0.1
v -0.8 0.1 0.1
v -0.7 0 0.1
v -0.7 0.1 0.1
v 0.5 0 0.1
v 0.5 0.1 0.1
v 0.6 0 0.1
v 0.6 0.1 0.1
v 0.8 0 0.1
v 0.8 0.1 0.1
v -0.8 0 -0.8
v -0.8 0.1 -0.8
v -0.7 0 -0.8
v -0.7 0.1 -0.8
v -0.6 0 -0.8
v -0.6 0.1 -0.8
v 0.7 0 -1
v 0.7 0.1 -1
v 0.8 0 -1
v 0.8 0.1 -1
v 0.9 0 -1
v 0.9 0.1 -1
v -1.1 0 0.7
v -1.1 0.1 0.7
v -0.9 0 0.7
v -0.9 0.1 0.7
v 0.1 0 0.7
v 0.1 0.1 0.7
v 0.3 0 0.7
v 0.3 0.1 0.7
v -0.9 0 -0.1
v -0.9 0.1 -0.1
v -0.7 0 -0.1
v -0.7 0.1 -0.1
v 0.5 0 -0.2
v 0.5 0.1 -0.2
v 0.8 0 -0.2
v 0.8 0.1 -0.2
v -0.8 0 -0.9
v -0.8 0.1 -0.9
v -0.7 0 -0.9
v -0.7 0.1 -0.9
v -0.6 0 -0.9
v -0.6 0.1 -0.9
v 0.7 0 -1.1
v 0.7 0.1 -1.1
v 0.8 0 -1.1
v 0.8 0.1 -1.1
v 0.9 0 -1.1
v 0.9 0.1 -1.1
v -1.1 0 1
v -1 0 1
v -1 0 0.9
v -0.9 0 0.9
v 0.1 0 0.9
v 0.2 0 0.9
v 0.3 0 0.9
v -1 0 0.8
v -0.9 0 0.8
v 0.2 0 0.8
v 0.3 0 0.8
v -1.1 0 0.7
v -0.9 0 0.7
v 0.1 0 0.7
v 0.3 0 0.7
v -0.9 0 0.1
v -0.8 0 0.1
v -0.7 0 0.1
v 0.5 0 0.1
v 0.6 0 0.1
v 0.8 0 0.1
v -0.8 0 0
v -0.7 0 0
v 0.6 0 0
v 0.7 0 0
v -0.9 0 -0.1
v -0.7 0 -0.1
v 0.7 0 -0.1
v 0.8 0 -0.1
v 0.5 0 -0.2
v 0.8 0 -0.2
v -0.8 0 -0.8
v -0.7 0 -0.8
v -0.6 0 -0.8
v -0.8 0 -0.9
v -0.7 0 -0.9
v -0.6 0 -0.9
v 0.7 0 -1
v 0.8 0 -1
v 0.9 0 -1
v 0.7 0 -1.1
v 0.8 0 -1.1
v 0.9 0 -1.1
v -1.1 0.1 1
v -1 0.1 1
v -1 0.1 0.9
v -0.9 0.1 0.9
v 0.1 0.1 0.9
v 0.2 0.1 0.9
v 0.3 0.1 0.9
v -1 0.1 0.8
v -0.9 0.1 0.8
v 0.2 0.1 0.8
v 0.3 0.1 0.8
v -1.1 0.1 0.7
v -0.9 0.1 0.7
v 0.1 0.1 0.7
v 0.3 0.1 0.7
v -0.9 0.1 0.1
v -0.8 0.1 0.1
v -0.7 0.1 0.1
v 0.5 0.1 0.1
v 0.6 0.1 0.1
v 0.8 0.1 0.1
v -0.8 0.1 0
v -0.7 0.1 0
v 0.6 0.1 0
v 0.7 0.1 0
v -0.9 0.1 -0.1
v -0.7 0.1 -0.1
v 0.7 0.1 -0.1
v 0.8 0.1 -0.1
v 0.5 0.1 -0.2
v 0.8 0.1 -0.2
v -0.8 0.1 -0.8
v -0.7 0.1 -0.8
v -0.6 0.1 -0.8
v -0.8 0.1 -0.9
v -0.7 0.1 -0.9
v -0.6 0.1 -0.9
v 0.7 0.1 -1
v 0.8 0.1 -1
v 0.9 0.1 -1
v 0.7 0.1 -1.1
v 0.8 0.1 -1.1
v 0.9 0.1 -1.1

# faces
f 3/1/1 2/1/1 1/1/1
f 4/1/1 2/1/1 3/1/1
f 7/1/1 6/1/1 5/1/1
f 8/1/1 6/1/1 7/1/1
f 11/1/1 10/1/1 9/1/1
f 12/1/1 10/1/1 11/1/1
f 15/1/1 14/1/1 13/1/1
f 16/1/1 14/1/1 15/1/1
f 19/1/1 18/1/1 17/1/1
f 20/1/1 18/1/1 19/1/1
f 23/1/1 22/1/1 21/1/1
f 24/1/1 22/1/1 23/1/1
f 25/1/2 26/1/2 27/1/2
f 27/1/2 26/1/2 28/1/2
f 29/2/2 30/2/2 32/2/2
f 30/1/2 31/1/2 33/1/2
f 32/2/2 30/2/2 33/2/2
f 33/1/2 31/1/2 34/1/2
f 35/2/2 36/2/2 38/2/2
f 36/1/2 37/1/2 39/1/2
f 38/2/2 36/2/2 39/2/2
f 39/1/2 37/1/2 40/1/2
f 41/2/2 42/2/2 43/2/2
f 43/2/2 42/2/2 44/2/2
f 45/2/2 46/2/2 48/2/2
f 46/1/2 47/1/2 49/1/2
f 48/2/2 46/2/2 49/2/2
f 49/1/2 47/1/2 50/1/2
f 51/2/2 52/2/2 54/2/2
f 52/1/2 53/1/2 55/1/2
f 54/2/2 52/2/2 55/2/2
f 55/1/2 53/1/2 56/1/2
f 57/2/2 58/2/2 59/2/2
f 59/2/2 58/2/2 60/2/2
f 63/1/3 62/1/3 61/1/3
f 64/1/3 62/1/3 63/1/3
f 67/2/3 66/2/3 65/2/3
f 68/2/3 66/2/3 67/2/3
f 71/1/3 70/1/3 69/1/3
f 72/1/3 70/1/3 71/1/3
f 73/2/3 72/2/3 71/2/3
f 74/2/3 72/2/3 73/2/3
f 77/1/3 76/1/3 75/1/3
f 78/1/3 76/1/3 77/1/3
f 79/2/3 78/2/3 77/2/3
f 80/2/3 78/2/3 79/2/3
f 83/1/3 82/1/3 81/1/3
f 84/1/3 82/1/3 83/1/3
f 85/2/3 84/2/3 83/2/3
f 86/2/3 84/2/3 85/2/3
f 89/1/3 88/1/3 87/1/3
f 90/1/3 88/1/3 89/1/3
f 91/2/3 90/2/3 89/2/3
f 92/2/3 90/2/3 91/2/3
f 95/1/3 94/1/3 93/1/3
f 96/1/3 94/1/3 95/1/3
f 97/2/3 96/2/3 95/2/3
f 98/2/3 96/2/3 97/2/3
f 99/1/4 100/1/4 101/1/4
f 101/1/4 100/1/4 102/1/4
f 103/1/4 104/1/4 105/1/4
f 105/1/4 104/1/4 106/1/4
f 107/1/4 108/1/4 109/1/4
f 109/1/4 108/1/4 110/1/4
f 111/1/4 112/1/4 113/1/4
f 113/1/4 112/1/4 114/1/4
f 115/1/4 116/1/4 117/1/4
f 117/1/4 116/1/4 118/1/4
f 117/2/4 118/2/4 119/2/4
f 119/2/4 118/2/4 120/2/4
f 121/1/4 122/1/4 123/1/4
f 123/1/4 122/1/4 124/1/4
f 123/2/4 124/2/4 125/2/4
f 125/2/4 124/2/4 126/2/4
f 129/1/5 128/1/5 127/1/5
f 134/1/5 129/1/5 127/1/5
f 134/2/5 130/2/5 129/2/5
f 135/2/5 130/2/5 134/2/5
f 136/2/5 133/2/5 132/2/5
f 136/1/5 132/1/5 131/1/5
f 137/2/5 133/2/5 136/2/5
f 138/1/5 135/1/5 134/1/5
f 138/1/5 134/1/5 127/1/5
f 139/1/5 135/1/5 138/1/5
f 140/1/5 137/1/5 136/1/5
f 140/1/5 136/1/5 131/1/5
f 141/1/5 137/1/5 140/1/5
f 148/2/5 144/2/5 143/2/5
f 148/1/5 143/1/5 142/1/5
f 149/2/5 144/2/5 148/2/5
f 150/2/5 147/2/5 146/2/5
f 150/1/5 146/1/5 145/1/5
f 151/2/5 147/2/5 150/2/5
f 152/1/5 149/1/5 148/1/5
f 152/1/5 148/1/5 142/1/5
f 153/1/5 149/1/5 152/1/5
f 154/2/5 147/2/5 151/2/5
f 154/1/5 151/1/5 150/1/5
f 155/2/5 147/2/5 154/2/5
f 156/1/5 150/1/5 145/1/5
f 156/1/5 155/1/5 154/1/5
f 156/1/5 154/1/5 150/1/5
f 157/1/5 155/1/5 156/1/5
f 161/1/5 159/1/5 158/1/5
f 162/2/5 160/2/5 159/2/5
f 162/1/5 159/1/5 161/1/5
f 163/2/5 160/2/5 162/2/5
f 167/1/5 165/1/5 164/1/5
f 168/2/5 166/2/5 165/2/5
f 168/1/5 165/1/5 167/1/5
f 169/2/5 166/2/5 168/2/5
f 170/1/6 171/1/6 172/1/6
f 170/1/6 172/1/6 177/1/6
f 172/2/6 173/2/6 177/2/6
f 177/2/6 173/2/6 178/2/6
f 175/2/6 176/2/6 179/2/6
f 174/1/6 175/1/6 179/1/6
f 179/2/6 176/2/6 180/2/6
f 177/1/6 178/1/6 181/1/6
f 170/1/6 177/1/6 181/1/6
f 181/1/6 178/1/6 182/1/6
f 179/1/6 180/1/6 183/1/6
f 174/1/6 179/1/6 183/1/6
f 183/1/6 180/1/6 184/1/6
f 186/2/6 187/2/6 191/2/6
f 185/1/6 186/1/6 191/1/6
f 191/2/6 187/2/6 192/2/6
f 189/2/6 190/2/6 193/2/6
f 188/1/6 189/1/6 193/1/6
f 193/2/6 190/2/6 194/2/6
f 191/1/6 192/1/6 195/1/6
f 185/1/6 191/1/6 195/1/6
f 195/1/6 192/1/6 196/1/6
f 194/2/6 190/2/6 197/2/6
f 193/1/6 194/1/6 197/1/6
f 197/2/6 190/2/6 198/2/6
f 188/1/6 193/1/6 199/1/6
f 197/1/6 198/1/6 199/1/6
f 193/1/6 197/1/6 199/1/6
f 199/1/6 198/1/6 200/1/6
f 201/1/6 202/1/6 204/1/6
f 202/2/6 203/2/6 205/2/6
f 204/1/6 202/1/6 205/1/6
f 205/2/6 203/2/6 206/2/6
f 207/1/6 208/1/6 210/1/6
f 208/2/6 209/2/6 211/2/6
f 210/1/6 208/1/6 211/1/6
f 211/2/6 209/2/6 212/2/6
