# MagicaVoxel @ Ephtracy

# group
o 

# material
mtllib Rocks_Grass_6.mtl
usemtl palette

# normals
vn -1 0 0
vn 1 0 0
vn 0 0 1
vn 0 0 -1
vn 0 -1 0
vn 0 1 0

# texcoords
vt 0.951172 0.5
vt 0.970703 0.5
vt 0.974609 0.5
vt 0.978516 0.5

# verts
v -1 0 0.6
v -1 0 0.5
v -1 0.3 0.6
v -1 0.3 0.5
v -1 0.4 0.6
v -1 0.4 0.5
v -1 0.5 0.6
v -1 0.5 0.5
v -0.6 0 -0.1
v -0.6 0 -0.2
v -0.6 0 -0.9
v -0.6 0 -1
v -0.6 0.1 -0.1
v -0.6 0.1 -0.2
v -0.6 0.1 -0.9
v -0.6 0.1 -1
v -0.3 0 0.7
v -0.3 0 0.5
v -0.3 0.1 0.7
v -0.3 0.1 0.5
v -0.0999999 0 -0.4
v -0.0999999 0 -0.6
v -0.0999999 0.1 -0.4
v -0.0999999 0.1 -0.6
v 1.19209e-07 0 -0.1
v 1.19209e-07 0 -0.2
v 1.19209e-07 0.1 -0.1
v 1.19209e-07 0.1 -0.2
v 1.19209e-07 0.3 -0.1
v 1.19209e-07 0.3 -0.2
v 1.19209e-07 0.4 -0.1
v 1.19209e-07 0.4 -0.2
v 0.1 0 -0.9
v 0.1 0 -1
v 0.1 0.2 -0.9
v 0.1 0.2 -1
v 0.1 0.5 -0.9
v 0.1 0.5 -1
v 0.1 0.6 -0.9
v 0.1 0.6 -1
v 0.2 0 0.9
v 0.2 0 0.7
v 0.2 0.1 0.9
v 0.2 0.1 0.7
v 0.4 0 -0.2
v 0.4 0 -0.3
v 0.4 0 -0.8
v 0.4 0 -0.9
v 0.4 0.1 -0.2
v 0.4 0.1 -0.3
v 0.4 0.1 -0.8
v 0.4 0.1 -0.9
v 0.6 0 0.6
v 0.6 0 0.5
v 0.6 0.1 0.6
v 0.6 0.1 0.5
v 0.6 0.2 0.6
v 0.6 0.2 0.5
v 0.6 0.3 0.6
v 0.6 0.3 0.5
v 0.7 0 0.7
v 0.7 0 0.6
v 0.7 0.1 0.7
v 0.7 0.1 0.6
v 0.8 0 -0.6
v 0.8 0 -0.8
v 0.8 0.1 -0.6
v 0.8 0.1 -0.8
v -0.9 0 0.6
v -0.9 0 0.5
v -0.9 0.3 0.6
v -0.9 0.3 0.5
v -0.9 0.4 0.6
v -0.9 0.4 0.5
v -0.9 0.5 0.6
v -0.9 0.5 0.5
v -0.5 0 -0.9
v -0.5 0 -1
v -0.5 0.1 -0.9
v -0.5 0.1 -1
v -0.4 0 -0.1
v -0.4 0 -0.2
v -0.4 0.1 -0.1
v -0.4 0.1 -0.2
v -0.0999999 0 0.7
v -0.0999999 0 0.5
v -0.0999999 0.1 0.7
v -0.0999999 0.1 0.5
v 0.1 0 -0.1
v 0.1 0 -0.2
v 0.1 0 -0.4
v 0.1 0 -0.6
v 0.1 0.1 -0.1
v 0.1 0.1 -0.2
v 0.1 0.1 -0.4
v 0.1 0.1 -0.6
v 0.1 0.3 -0.1
v 0.1 0.3 -0.2
v 0.1 0.4 -0.1
v 0.1 0.4 -0.2
v 0.2 0 -0.9
v 0.2 0 -1
v 0.2 0.2 -0.9
v 0.2 0.2 -1
v 0.2 0.5 -0.9
v 0.2 0.5 -1
v 0.2 0.6 -0.9
v 0.2 0.6 -1
v 0.4 0 0.9
v 0.4 0 0.7
v 0.4 0.1 0.9
v 0.4 0.1 0.7
v 0.5 0 -0.2
v 0.5 0 -0.3
v 0.5 0 -0.8
v 0.5 0 -0.9
v 0.5 0.1 -0.2
v 0.5 0.1 -0.3
v 0.5 0.1 -0.8
v 0.5 0.1 -0.9
v 0.7 0.1 0.6
v 0.7 0.1 0.5
v 0.7 0.2 0.6
v 0.7 0.2 0.5
v 0.7 0.3 0.6
v 0.7 0.3 0.5
v 0.9 0 0.7
v 0.9 0 0.5
v 0.9 0.1 0.7
v 0.9 0.1 0.5
v 1 0 -0.6
v 1 0 -0.8
v 1 0.1 -0.6
v 1 0.1 -0.8
v 0.2 0 0.9
v 0.2 0.1 0.9
v 0.4 0 0.9
v 0.4 0.1 0.9
v -0.3 0 0.7
v -0.3 0.1 0.7
v -0.0999999 0 0.7
v -0.0999999 0.1 0.7
v 0.7 0 0.7
v 0.7 0.1 0.7
v 0.9 0 0.7
v 0.9 0.1 0.7
v -1 0 0.6
v -1 0.3 0.6
v -1 0.4 0.6
v -1 0.5 0.6
v -0.9 0 0.6
v -0.9 0.3 0.6
v -0.9 0.4 0.6
v -0.9 0.5 0.6
v 0.6 0 0.6
v 0.6 0.1 0.6
v 0.6 0.2 0.6
v 0.6 0.3 0.6
v 0.7 0 0.6
v 0.7 0.1 0.6
v 0.7 0.2 0.6
v 0.7 0.3 0.6
v -0.6 0 -0.1
v -0.6 0.1 -0.1
v -0.4 0 -0.1
v -0.4 0.1 -0.1
v 1.19209e-07 0 -0.1
v 1.19209e-07 0.1 -0.1
v 1.19209e-07 0.3 -0.1
v 1.19209e-07 0.4 -0.1
v 0.1 0 -0.1
v 0.1 0.1 -0.1
v 0.1 0.3 -0.1
v 0.1 0.4 -0.1
v 0.4 0 -0.2
v 0.4 0.1 -0.2
v 0.5 0 -0.2
v 0.5 0.1 -0.2
v -0.0999999 0 -0.4
v -0.0999999 0.1 -0.4
v 0.1 0 -0.4
v 0.1 0.1 -0.4
v 0.8 0 -0.6
v 0.8 0.1 -0.6
v 1 0 -0.6
v 1 0.1 -0.6
v 0.4 0 -0.8
v 0.4 0.1 -0.8
v 0.5 0 -0.8
v 0.5 0.1 -0.8
v -0.6 0 -0.9
v -0.6 0.1 -0.9
v -0.5 0 -0.9
v -0.5 0.1 -0.9
v 0.1 0 -0.9
v 0.1 0.2 -0.9
v 0.1 0.5 -0.9
v 0.1 0.6 -0.9
v 0.2 0 -0.9
v 0.2 0.2 -0.9
v 0.2 0.5 -0.9
v 0.2 0.6 -0.9
v 0.2 0 0.7
v 0.2 0.1 0.7
v 0.4 0 0.7
v 0.4 0.1 0.7
v -1 0 0.5
v -1 0.3 0.5
v -1 0.4 0.5
v -1 0.5 0.5
v -0.9 0 0.5
v -0.9 0.3 0.5
v -0.9 0.4 0.5
v -0.9 0.5 0.5
v -0.3 0 0.5
v -0.3 0.1 0.5
v -0.0999999 0 0.5
v -0.0999999 0.1 0.5
v 0.6 0 0.5
v 0.6 0.1 0.5
v 0.6 0.2 0.5
v 0.6 0.3 0.5
v 0.7 0 0.5
v 0.7 0.1 0.5
v 0.7 0.2 0.5
v 0.7 0.3 0.5
v 0.9 0 0.5
v 0.9 0.1 0.5
v -0.6 0 -0.2
v -0.6 0.1 -0.2
v -0.4 0 -0.2
v -0.4 0.1 -0.2
v 1.19209e-07 0 -0.2
v 1.19209e-07 0.1 -0.2
v 1.19209e-07 0.3 -0.2
v 1.19209e-07 0.4 -0.2
v 0.1 0 -0.2
v 0.1 0.1 -0.2
v 0.1 0.3 -0.2
v 0.1 0.4 -0.2
v 0.4 0 -0.3
v 0.4 0.1 -0.3
v 0.5 0 -0.3
v 0.5 0.1 -0.3
v -0.0999999 0 -0.6
v -0.0999999 0.1 -0.6
v 0.1 0 -0.6
v 0.1 0.1 -0.6
v 0.8 0 -0.8
v 0.8 0.1 -0.8
v 1 0 -0.8
v 1 0.1 -0.8
v 0.4 0 -0.9
v 0.4 0.1 -0.9
v 0.5 0 -0.9
v 0.5 0.1 -0.9
v -0.6 0 -1
v -0.6 0.1 -1
v -0.5 0 -1
v -0.5 0.1 -1
v 0.1 0 -1
v 0.1 0.2 -1
v 0.1 0.5 -1
v 0.1 0.6 -1
v 0.2 0 -1
v 0.2 0.2 -1
v 0.2 0.5 -1
v 0.2 0.6 -1
v 0.2 0 0.9
v 0.4 0 0.9
v -0.3 0 0.7
v -0.0999999 0 0.7
v 0.2 0 0.7
v 0.4 0 0.7
v 0.7 0 0.7
v 0.9 0 0.7
v -1 0 0.6
v -0.9 0 0.6
v 0.6 0 0.6
v 0.7 0 0.6
v -1 0 0.5
v -0.9 0 0.5
v -0.3 0 0.5
v -0.0999999 0 0.5
v 0.6 0 0.5
v 0.7 0 0.5
v 0.9 0 0.5
v -0.6 0 -0.1
v -0.4 0 -0.1
v 1.19209e-07 0 -0.1
v 0.1 0 -0.1
v -0.6 0 -0.2
v -0.4 0 -0.2
v 1.19209e-07 0 -0.2
v 0.1 0 -0.2
v 0.4 0 -0.2
v 0.5 0 -0.2
v 0.4 0 -0.3
v 0.5 0 -0.3
v -0.0999999 0 -0.4
v 0.1 0 -0.4
v -0.0999999 0 -0.6
v 0.1 0 -0.6
v 0.8 0 -0.6
v 1 0 -0.6
v 0.4 0 -0.8
v 0.5 0 -0.8
v 0.8 0 -0.8
v 1 0 -0.8
v -0.6 0 -0.9
v -0.5 0 -0.9
v 0.1 0 -0.9
v 0.2 0 -0.9
v 0.4 0 -0.9
v 0.5 0 -0.9
v -0.6 0 -1
v -0.5 0 -1
v 0.1 0 -1
v 0.2 0 -1
v 0.2 0.1 0.9
v 0.4 0.1 0.9
v -0.3 0.1 0.7
v -0.0999999 0.1 0.7
v 0.2 0.1 0.7
v 0.4 0.1 0.7
v 0.7 0.1 0.7
v 0.9 0.1 0.7
v 0.7 0.1 0.6
v -0.3 0.1 0.5
v -0.0999999 0.1 0.5
v 0.7 0.1 0.5
v 0.9 0.1 0.5
v -0.6 0.1 -0.1
v -0.4 0.1 -0.1
v -0.6 0.1 -0.2
v -0.4 0.1 -0.2
v 0.4 0.1 -0.2
v 0.5 0.1 -0.2
v 0.4 0.1 -0.3
v 0.5 0.1 -0.3
v -0.0999999 0.1 -0.4
v 0.1 0.1 -0.4
v -0.0999999 0.1 -0.6
v 0.1 0.1 -0.6
v 0.8 0.1 -0.6
v 1 0.1 -0.6
v 0.4 0.1 -0.8
v 0.5 0.1 -0.8
v 0.8 0.1 -0.8
v 1 0.1 -0.8
v -0.6 0.1 -0.9
v -0.5 0.1 -0.9
v 0.4 0.1 -0.9
v 0.5 0.1 -0.9
v -0.6 0.1 -1
v -0.5 0.1 -1
v 0.6 0.3 0.6
v 0.7 0.3 0.6
v 0.6 0.3 0.5
v 0.7 0.3 0.5
v 1.19209e-07 0.4 -0.1
v 0.1 0.4 -0.1
v 1.19209e-07 0.4 -0.2
v 0.1 0.4 -0.2
v -1 0.5 0.6
v -0.9 0.5 0.6
v -1 0.5 0.5
v -0.9 0.5 0.5
v 0.1 0.6 -0.9
v 0.2 0.6 -0.9
v 0.1 0.6 -1
v 0.2 0.6 -1

# faces
f 3/4/1 2/4/1 1/4/1
f 4/4/1 2/4/1 3/4/1
f 5/3/1 4/3/1 3/3/1
f 6/3/1 4/3/1 5/3/1
f 7/2/1 6/2/1 5/2/1
f 8/2/1 6/2/1 7/2/1
f 13/1/1 10/1/1 9/1/1
f 14/1/1 10/1/1 13/1/1
f 15/1/1 12/1/1 11/1/1
f 16/1/1 12/1/1 15/1/1
f 19/1/1 18/1/1 17/1/1
f 20/1/1 18/1/1 19/1/1
f 23/1/1 22/1/1 21/1/1
f 24/1/1 22/1/1 23/1/1
f 27/4/1 26/4/1 25/4/1
f 28/4/1 26/4/1 27/4/1
f 29/3/1 28/3/1 27/3/1
f 30/3/1 28/3/1 29/3/1
f 31/2/1 30/2/1 29/2/1
f 32/2/1 30/2/1 31/2/1
f 35/4/1 34/4/1 33/4/1
f 36/4/1 34/4/1 35/4/1
f 37/3/1 36/3/1 35/3/1
f 38/3/1 36/3/1 37/3/1
f 39/2/1 38/2/1 37/2/1
f 40/2/1 38/2/1 39/2/1
f 43/1/1 42/1/1 41/1/1
f 44/1/1 42/1/1 43/1/1
f 49/1/1 46/1/1 45/1/1
f 50/1/1 46/1/1 49/1/1
f 51/1/1 48/1/1 47/1/1
f 52/1/1 48/1/1 51/1/1
f 55/4/1 54/4/1 53/4/1
f 56/4/1 54/4/1 55/4/1
f 57/3/1 56/3/1 55/3/1
f 58/3/1 56/3/1 57/3/1
f 59/2/1 58/2/1 57/2/1
f 60/2/1 58/2/1 59/2/1
f 63/1/1 62/1/1 61/1/1
f 64/1/1 62/1/1 63/1/1
f 67/1/1 66/1/1 65/1/1
f 68/1/1 66/1/1 67/1/1
f 69/4/2 70/4/2 71/4/2
f 71/4/2 70/4/2 72/4/2
f 71/3/2 72/3/2 73/3/2
f 73/3/2 72/3/2 74/3/2
f 73/2/2 74/2/2 75/2/2
f 75/2/2 74/2/2 76/2/2
f 77/1/2 78/1/2 79/1/2
f 79/1/2 78/1/2 80/1/2
f 81/1/2 82/1/2 83/1/2
f 83/1/2 82/1/2 84/1/2
f 85/1/2 86/1/2 87/1/2
f 87/1/2 86/1/2 88/1/2
f 89/4/2 90/4/2 93/4/2
f 93/4/2 90/4/2 94/4/2
f 91/1/2 92/1/2 95/1/2
f 95/1/2 92/1/2 96/1/2
f 93/3/2 94/3/2 97/3/2
f 97/3/2 94/3/2 98/3/2
f 97/2/2 98/2/2 99/2/2
f 99/2/2 98/2/2 100/2/2
f 101/4/2 102/4/2 103/4/2
f 103/4/2 102/4/2 104/4/2
f 103/3/2 104/3/2 105/3/2
f 105/3/2 104/3/2 106/3/2
f 105/2/2 106/2/2 107/2/2
f 107/2/2 106/2/2 108/2/2
f 109/1/2 110/1/2 111/1/2
f 111/1/2 110/1/2 112/1/2
f 113/1/2 114/1/2 117/1/2
f 117/1/2 114/1/2 118/1/2
f 115/1/2 116/1/2 119/1/2
f 119/1/2 116/1/2 120/1/2
f 121/3/2 122/3/2 123/3/2
f 123/3/2 122/3/2 124/3/2
f 123/2/2 124/2/2 125/2/2
f 125/2/2 124/2/2 126/2/2
f 127/1/2 128/1/2 129/1/2
f 129/1/2 128/1/2 130/1/2
f 131/1/2 132/1/2 133/1/2
f 133/1/2 132/1/2 134/1/2
f 137/1/3 136/1/3 135/1/3
f 138/1/3 136/1/3 137/1/3
f 141/1/3 140/1/3 139/1/3
f 142/1/3 140/1/3 141/1/3
f 145/1/3 144/1/3 143/1/3
f 146/1/3 144/1/3 145/1/3
f 151/4/3 148/4/3 147/4/3
f 152/3/3 149/3/3 148/3/3
f 152/4/3 148/4/3 151/4/3
f 153/2/3 150/2/3 149/2/3
f 153/3/3 149/3/3 152/3/3
f 154/2/3 150/2/3 153/2/3
f 159/4/3 156/4/3 155/4/3
f 160/3/3 157/3/3 156/3/3
f 160/4/3 156/4/3 159/4/3
f 161/2/3 158/2/3 157/2/3
f 161/3/3 157/3/3 160/3/3
f 162/2/3 158/2/3 161/2/3
f 165/1/3 164/1/3 163/1/3
f 166/1/3 164/1/3 165/1/3
f 171/4/3 168/4/3 167/4/3
f 172/3/3 169/3/3 168/3/3
f 172/4/3 168/4/3 171/4/3
f 173/2/3 170/2/3 169/2/3
f 173/3/3 169/3/3 172/3/3
f 174/2/3 170/2/3 173/2/3
f 177/1/3 176/1/3 175/1/3
f 178/1/3 176/1/3 177/1/3
f 181/1/3 180/1/3 179/1/3
f 182/1/3 180/1/3 181/1/3
f 185/1/3 184/1/3 183/1/3
f 186/1/3 184/1/3 185/1/3
f 189/1/3 188/1/3 187/1/3
f 190/1/3 188/1/3 189/1/3
f 193/1/3 192/1/3 191/1/3
f 194/1/3 192/1/3 193/1/3
f 199/4/3 196/4/3 195/4/3
f 200/3/3 197/3/3 196/3/3
f 200/4/3 196/4/3 199/4/3
f 201/2/3 198/2/3 197/2/3
f 201/3/3 197/3/3 200/3/3
f 202/2/3 198/2/3 201/2/3
f 203/1/4 204/1/4 205/1/4
f 205/1/4 204/1/4 206/1/4
f 207/4/4 208/4/4 211/4/4
f 208/3/4 209/3/4 212/3/4
f 211/4/4 208/4/4 212/4/4
f 209/2/4 210/2/4 213/2/4
f 212/3/4 209/3/4 213/3/4
f 213/2/4 210/2/4 214/2/4
f 215/1/4 216/1/4 217/1/4
f 217/1/4 216/1/4 218/1/4
f 219/4/4 220/4/4 223/4/4
f 220/3/4 221/3/4 224/3/4
f 223/4/4 220/4/4 224/4/4
f 221/2/4 222/2/4 225/2/4
f 224/3/4 221/3/4 225/3/4
f 225/2/4 222/2/4 226/2/4
f 223/1/4 224/1/4 227/1/4
f 227/1/4 224/1/4 228/1/4
f 229/1/4 230/1/4 231/1/4
f 231/1/4 230/1/4 232/1/4
f 233/4/4 234/4/4 237/4/4
f 234/3/4 235/3/4 238/3/4
f 237/4/4 234/4/4 238/4/4
f 235/2/4 236/2/4 239/2/4
f 238/3/4 235/3/4 239/3/4
f 239/2/4 236/2/4 240/2/4
f 241/1/4 242/1/4 243/1/4
f 243/1/4 242/1/4 244/1/4
f 245/1/4 246/1/4 247/1/4
f 247/1/4 246/1/4 248/1/4
f 249/1/4 250/1/4 251/1/4
f 251/1/4 250/1/4 252/1/4
f 253/1/4 254/1/4 255/1/4
f 255/1/4 254/1/4 256/1/4
f 257/1/4 258/1/4 259/1/4
f 259/1/4 258/1/4 260/1/4
f 261/4/4 262/4/4 265/4/4
f 262/3/4 263/3/4 266/3/4
f 265/4/4 262/4/4 266/4/4
f 263/2/4 264/2/4 267/2/4
f 266/3/4 263/3/4 267/3/4
f 267/2/4 264/2/4 268/2/4
f 273/1/5 270/1/5 269/1/5
f 274/1/5 270/1/5 273/1/5
f 280/1/5 276/1/5 275/1/5
f 281/4/5 278/4/5 277/4/5
f 282/4/5 278/4/5 281/4/5
f 283/1/5 272/1/5 271/1/5
f 284/1/5 272/1/5 283/1/5
f 285/4/5 280/4/5 279/4/5
f 286/1/5 276/1/5 280/1/5
f 286/4/5 280/4/5 285/4/5
f 287/1/5 276/1/5 286/1/5
f 292/1/5 289/1/5 288/1/5
f 293/1/5 289/1/5 292/1/5
f 294/4/5 291/4/5 290/4/5
f 295/4/5 291/4/5 294/4/5
f 298/1/5 297/1/5 296/1/5
f 299/1/5 297/1/5 298/1/5
f 302/1/5 301/1/5 300/1/5
f 303/1/5 301/1/5 302/1/5
f 308/1/5 305/1/5 304/1/5
f 309/1/5 305/1/5 308/1/5
f 314/1/5 307/1/5 306/1/5
f 315/1/5 307/1/5 314/1/5
f 316/1/5 311/1/5 310/1/5
f 317/1/5 311/1/5 316/1/5
f 318/4/5 313/4/5 312/4/5
f 319/4/5 313/4/5 318/4/5
f 320/1/6 321/1/6 324/1/6
f 324/1/6 321/1/6 325/1/6
f 326/1/6 327/1/6 328/1/6
f 322/1/6 323/1/6 329/1/6
f 329/1/6 323/1/6 330/1/6
f 328/1/6 327/1/6 331/1/6
f 331/1/6 327/1/6 332/1/6
f 333/1/6 334/1/6 335/1/6
f 335/1/6 334/1/6 336/1/6
f 337/1/6 338/1/6 339/1/6
f 339/1/6 338/1/6 340/1/6
f 341/1/6 342/1/6 343/1/6
f 343/1/6 342/1/6 344/1/6
f 345/1/6 346/1/6 349/1/6
f 349/1/6 346/1/6 350/1/6
f 347/1/6 348/1/6 353/1/6
f 353/1/6 348/1/6 354/1/6
f 351/1/6 352/1/6 355/1/6
f 355/1/6 352/1/6 356/1/6
f 357/2/6 358/2/6 359/2/6
f 359/2/6 358/2/6 360/2/6
f 361/2/6 362/2/6 363/2/6
f 363/2/6 362/2/6 364/2/6
f 365/2/6 366/2/6 367/2/6
f 367/2/6 366/2/6 368/2/6
f 369/2/6 370/2/6 371/2/6
f 371/2/6 370/2/6 372/2/6
