# MagicaVoxel @ Ephtracy

# group
o 

# material
mtllib Rocks_Grass_5.mtl
usemtl palette

# normals
vn -1 0 0
vn 1 0 0
vn 0 0 1
vn 0 0 -1
vn 0 -1 0
vn 0 1 0

# texcoords
vt 0.951172 0.5
vt 0.970703 0.5
vt 0.974609 0.5
vt 0.978516 0.5

# verts
v -1.1 0 -1
v -1.1 0 -1.1
v -1.1 0.1 -1
v -1.1 0.1 -1.1
v -1.1 0.2 -1
v -1.1 0.2 -1.1
v -1.1 0.3 -1
v -1.1 0.3 -1.1
v -0.7 0 -0.3
v -0.7 0 -0.5
v -0.7 0.1 -0.3
v -0.7 0.1 -0.5
v -0.5 0 0.3
v -0.5 0 0.2
v -0.5 0.3 0.3
v -0.5 0.3 0.2
v -0.5 0.4 0.3
v -0.5 0.4 0.2
v -0.5 0.5 0.3
v -0.5 0.5 0.2
v 0.1 0 0.7
v 0.1 0 0.6
v 0.1 0.1 0.7
v 0.1 0.1 0.6
v 0.1 0.2 0.7
v 0.1 0.2 0.6
v 0.2 0 0.6
v 0.2 0 0.5
v 0.2 0.1 0.6
v 0.2 0.1 0.5
v 0.2 0.2 0.7
v 0.2 0.2 0.6
v 0.2 0.2 0.5
v 0.2 0.3 0.7
v 0.2 0.3 0.6
v 0.4 0 -0.7
v 0.4 0 -0.8
v 0.4 0.2 -0.7
v 0.4 0.2 -0.8
v 0.4 0.4 -0.7
v 0.4 0.4 -0.8
v 0.4 0.5 -0.7
v 0.4 0.5 -0.8
v 0.6 0 0.7
v 0.6 0 0.5
v 0.6 0.1 0.7
v 0.6 0.1 0.5
v 0.8 0 0.2
v 0.8 0 0.1
v 0.8 0.1 0.2
v 0.8 0.1 0.1
v 0.8 0.3 0.2
v 0.8 0.3 0.1
v 0.8 0.4 0.2
v 0.8 0.4 0.1
v -1 0 -1
v -1 0 -1.1
v -1 0.1 -1
v -1 0.1 -1.1
v -1 0.2 -1
v -1 0.2 -1.1
v -1 0.3 -1
v -1 0.3 -1.1
v -0.5 0 -0.3
v -0.5 0 -0.5
v -0.5 0.1 -0.3
v -0.5 0.1 -0.5
v -0.4 0 0.3
v -0.4 0 0.2
v -0.4 0.3 0.3
v -0.4 0.3 0.2
v -0.4 0.4 0.3
v -0.4 0.4 0.2
v -0.4 0.5 0.3
v -0.4 0.5 0.2
v 0.3 0 0.7
v 0.3 0 0.5
v 0.3 0.1 0.6
v 0.3 0.1 0.5
v 0.3 0.2 0.7
v 0.3 0.2 0.6
v 0.3 0.2 0.5
v 0.3 0.3 0.7
v 0.3 0.3 0.6
v 0.5 0 -0.7
v 0.5 0 -0.8
v 0.5 0.2 -0.7
v 0.5 0.2 -0.8
v 0.5 0.4 -0.7
v 0.5 0.4 -0.8
v 0.5 0.5 -0.7
v 0.5 0.5 -0.8
v 0.8 0 0.7
v 0.8 0 0.5
v 0.8 0.1 0.7
v 0.8 0.1 0.5
v 0.9 0 0.2
v 0.9 0 0.1
v 0.9 0.1 0.2
v 0.9 0.1 0.1
v 0.9 0.3 0.2
v 0.9 0.3 0.1
v 0.9 0.4 0.2
v 0.9 0.4 0.1
v 0.1 0 0.7
v 0.1 0.1 0.7
v 0.1 0.2 0.7
v 0.2 0.1 0.7
v 0.2 0.2 0.7
v 0.2 0.3 0.7
v 0.3 0 0.7
v 0.3 0.2 0.7
v 0.3 0.3 0.7
v 0.6 0 0.7
v 0.6 0.1 0.7
v 0.8 0 0.7
v 0.8 0.1 0.7
v -0.5 0 0.3
v -0.5 0.3 0.3
v -0.5 0.4 0.3
v -0.5 0.5 0.3
v -0.4 0 0.3
v -0.4 0.3 0.3
v -0.4 0.4 0.3
v -0.4 0.5 0.3
v 0.8 0 0.2
v 0.8 0.1 0.2
v 0.8 0.3 0.2
v 0.8 0.4 0.2
v 0.9 0 0.2
v 0.9 0.1 0.2
v 0.9 0.3 0.2
v 0.9 0.4 0.2
v -0.7 0 -0.3
v -0.7 0.1 -0.3
v -0.5 0 -0.3
v -0.5 0.1 -0.3
v 0.4 0 -0.7
v 0.4 0.2 -0.7
v 0.4 0.4 -0.7
v 0.4 0.5 -0.7
v 0.5 0 -0.7
v 0.5 0.2 -0.7
v 0.5 0.4 -0.7
v 0.5 0.5 -0.7
v -1.1 0 -1
v -1.1 0.1 -1
v -1.1 0.2 -1
v -1.1 0.3 -1
v -1 0 -1
v -1 0.1 -1
v -1 0.2 -1
v -1 0.3 -1
v 0.1 0 0.6
v 0.1 0.1 0.6
v 0.1 0.2 0.6
v 0.2 0 0.6
v 0.2 0.1 0.6
v 0.2 0.2 0.6
v 0.2 0.3 0.6
v 0.3 0.2 0.6
v 0.3 0.3 0.6
v 0.2 0 0.5
v 0.2 0.1 0.5
v 0.2 0.2 0.5
v 0.3 0 0.5
v 0.3 0.1 0.5
v 0.3 0.2 0.5
v 0.6 0 0.5
v 0.6 0.1 0.5
v 0.8 0 0.5
v 0.8 0.1 0.5
v -0.5 0 0.2
v -0.5 0.3 0.2
v -0.5 0.4 0.2
v -0.5 0.5 0.2
v -0.4 0 0.2
v -0.4 0.3 0.2
v -0.4 0.4 0.2
v -0.4 0.5 0.2
v 0.8 0 0.1
v 0.8 0.1 0.1
v 0.8 0.3 0.1
v 0.8 0.4 0.1
v 0.9 0 0.1
v 0.9 0.1 0.1
v 0.9 0.3 0.1
v 0.9 0.4 0.1
v -0.7 0 -0.5
v -0.7 0.1 -0.5
v -0.5 0 -0.5
v -0.5 0.1 -0.5
v 0.4 0 -0.8
v 0.4 0.2 -0.8
v 0.4 0.4 -0.8
v 0.4 0.5 -0.8
v 0.5 0 -0.8
v 0.5 0.2 -0.8
v 0.5 0.4 -0.8
v 0.5 0.5 -0.8
v -1.1 0 -1.1
v -1.1 0.1 -1.1
v -1.1 0.2 -1.1
v -1.1 0.3 -1.1
v -1 0 -1.1
v -1 0.1 -1.1
v -1 0.2 -1.1
v -1 0.3 -1.1
v 0.1 0 0.7
v 0.3 0 0.7
v 0.6 0 0.7
v 0.8 0 0.7
v 0.1 0 0.6
v 0.2 0 0.6
v 0.2 0 0.5
v 0.3 0 0.5
v 0.6 0 0.5
v 0.8 0 0.5
v -0.5 0 0.3
v -0.4 0 0.3
v -0.5 0 0.2
v -0.4 0 0.2
v 0.8 0 0.2
v 0.9 0 0.2
v 0.8 0 0.1
v 0.9 0 0.1
v -0.7 0 -0.3
v -0.5 0 -0.3
v -0.7 0 -0.5
v -0.5 0 -0.5
v 0.4 0 -0.7
v 0.5 0 -0.7
v 0.4 0 -0.8
v 0.5 0 -0.8
v -1.1 0 -1
v -1 0 -1
v -1.1 0 -1.1
v -1 0 -1.1
v 0.6 0.1 0.7
v 0.8 0.1 0.7
v 0.6 0.1 0.5
v 0.8 0.1 0.5
v -0.7 0.1 -0.3
v -0.5 0.1 -0.3
v -0.7 0.1 -0.5
v -0.5 0.1 -0.5
v 0.1 0.2 0.7
v 0.2 0.2 0.7
v 0.1 0.2 0.6
v 0.2 0.2 0.6
v 0.3 0.2 0.6
v 0.2 0.2 0.5
v 0.3 0.2 0.5
v 0.2 0.3 0.7
v 0.3 0.3 0.7
v 0.2 0.3 0.6
v 0.3 0.3 0.6
v -1.1 0.3 -1
v -1 0.3 -1
v -1.1 0.3 -1.1
v -1 0.3 -1.1
v 0.8 0.4 0.2
v 0.9 0.4 0.2
v 0.8 0.4 0.1
v 0.9 0.4 0.1
v -0.5 0.5 0.3
v -0.4 0.5 0.3
v -0.5 0.5 0.2
v -0.4 0.5 0.2
v 0.4 0.5 -0.7
v 0.5 0.5 -0.7
v 0.4 0.5 -0.8
v 0.5 0.5 -0.8

# faces
f 3/4/1 2/4/1 1/4/1
f 4/4/1 2/4/1 3/4/1
f 5/3/1 4/3/1 3/3/1
f 6/3/1 4/3/1 5/3/1
f 7/2/1 6/2/1 5/2/1
f 8/2/1 6/2/1 7/2/1
f 11/1/1 10/1/1 9/1/1
f 12/1/1 10/1/1 11/1/1
f 15/4/1 14/4/1 13/4/1
f 16/4/1 14/4/1 15/4/1
f 17/3/1 16/3/1 15/3/1
f 18/3/1 16/3/1 17/3/1
f 19/2/1 18/2/1 17/2/1
f 20/2/1 18/2/1 19/2/1
f 23/4/1 22/4/1 21/4/1
f 24/4/1 22/4/1 23/4/1
f 25/3/1 24/3/1 23/3/1
f 26/3/1 24/3/1 25/3/1
f 29/4/1 28/4/1 27/4/1
f 30/4/1 28/4/1 29/4/1
f 32/2/1 30/2/1 29/2/1
f 33/2/1 30/2/1 32/2/1
f 34/2/1 32/2/1 31/2/1
f 35/2/1 32/2/1 34/2/1
f 38/4/1 37/4/1 36/4/1
f 39/4/1 37/4/1 38/4/1
f 40/3/1 39/3/1 38/3/1
f 41/3/1 39/3/1 40/3/1
f 42/2/1 41/2/1 40/2/1
f 43/2/1 41/2/1 42/2/1
f 46/1/1 45/1/1 44/1/1
f 47/1/1 45/1/1 46/1/1
f 50/4/1 49/4/1 48/4/1
f 51/4/1 49/4/1 50/4/1
f 52/3/1 51/3/1 50/3/1
f 53/3/1 51/3/1 52/3/1
f 54/2/1 53/2/1 52/2/1
f 55/2/1 53/2/1 54/2/1
f 56/4/2 57/4/2 58/4/2
f 58/4/2 57/4/2 59/4/2
f 58/3/2 59/3/2 60/3/2
f 60/3/2 59/3/2 61/3/2
f 60/2/2 61/2/2 62/2/2
f 62/2/2 61/2/2 63/2/2
f 64/1/2 65/1/2 66/1/2
f 66/1/2 65/1/2 67/1/2
f 68/4/2 69/4/2 70/4/2
f 70/4/2 69/4/2 71/4/2
f 70/3/2 71/3/2 72/3/2
f 72/3/2 71/3/2 73/3/2
f 72/2/2 73/2/2 74/2/2
f 74/2/2 73/2/2 75/2/2
f 76/4/2 77/4/2 78/4/2
f 78/4/2 77/4/2 79/4/2
f 76/4/2 78/4/2 80/4/2
f 78/2/2 79/2/2 81/2/2
f 80/4/2 78/4/2 81/4/2
f 81/2/2 79/2/2 82/2/2
f 80/2/2 81/2/2 83/2/2
f 83/2/2 81/2/2 84/2/2
f 85/4/2 86/4/2 87/4/2
f 87/4/2 86/4/2 88/4/2
f 87/3/2 88/3/2 89/3/2
f 89/3/2 88/3/2 90/3/2
f 89/2/2 90/2/2 91/2/2
f 91/2/2 90/2/2 92/2/2
f 93/1/2 94/1/2 95/1/2
f 95/1/2 94/1/2 96/1/2
f 97/4/2 98/4/2 99/4/2
f 99/4/2 98/4/2 100/4/2
f 99/3/2 100/3/2 101/3/2
f 101/3/2 100/3/2 102/3/2
f 101/2/2 102/2/2 103/2/2
f 103/2/2 102/2/2 104/2/2
f 108/4/3 106/4/3 105/4/3
f 108/3/3 107/3/3 106/3/3
f 109/3/3 107/3/3 108/3/3
f 111/4/3 108/4/3 105/4/3
f 111/4/3 109/4/3 108/4/3
f 112/2/3 110/2/3 109/2/3
f 112/4/3 109/4/3 111/4/3
f 113/2/3 110/2/3 112/2/3
f 116/1/3 115/1/3 114/1/3
f 117/1/3 115/1/3 116/1/3
f 122/4/3 119/4/3 118/4/3
f 123/3/3 120/3/3 119/3/3
f 123/4/3 119/4/3 122/4/3
f 124/2/3 121/2/3 120/2/3
f 124/3/3 120/3/3 123/3/3
f 125/2/3 121/2/3 124/2/3
f 130/4/3 127/4/3 126/4/3
f 131/3/3 128/3/3 127/3/3
f 131/4/3 127/4/3 130/4/3
f 132/2/3 129/2/3 128/2/3
f 132/3/3 128/3/3 131/3/3
f 133/2/3 129/2/3 132/2/3
f 136/1/3 135/1/3 134/1/3
f 137/1/3 135/1/3 136/1/3
f 142/4/3 139/4/3 138/4/3
f 143/3/3 140/3/3 139/3/3
f 143/4/3 139/4/3 142/4/3
f 144/2/3 141/2/3 140/2/3
f 144/3/3 140/3/3 143/3/3
f 145/2/3 141/2/3 144/2/3
f 150/4/3 147/4/3 146/4/3
f 151/3/3 148/3/3 147/3/3
f 151/4/3 147/4/3 150/4/3
f 152/2/3 149/2/3 148/2/3
f 152/3/3 148/3/3 151/3/3
f 153/2/3 149/2/3 152/2/3
f 154/4/4 155/4/4 157/4/4
f 155/3/4 156/3/4 158/3/4
f 157/4/4 155/4/4 158/4/4
f 158/3/4 156/3/4 159/3/4
f 159/2/4 160/2/4 161/2/4
f 161/2/4 160/2/4 162/2/4
f 163/4/4 164/4/4 166/4/4
f 164/2/4 165/2/4 167/2/4
f 166/4/4 164/4/4 167/4/4
f 167/2/4 165/2/4 168/2/4
f 169/1/4 170/1/4 171/1/4
f 171/1/4 170/1/4 172/1/4
f 173/4/4 174/4/4 177/4/4
f 174/3/4 175/3/4 178/3/4
f 177/4/4 174/4/4 178/4/4
f 175/2/4 176/2/4 179/2/4
f 178/3/4 175/3/4 179/3/4
f 179/2/4 176/2/4 180/2/4
f 181/4/4 182/4/4 185/4/4
f 182/3/4 183/3/4 186/3/4
f 185/4/4 182/4/4 186/4/4
f 183/2/4 184/2/4 187/2/4
f 186/3/4 183/3/4 187/3/4
f 187/2/4 184/2/4 188/2/4
f 189/1/4 190/1/4 191/1/4
f 191/1/4 190/1/4 192/1/4
f 193/4/4 194/4/4 197/4/4
f 194/3/4 195/3/4 198/3/4
f 197/4/4 194/4/4 198/4/4
f 195/2/4 196/2/4 199/2/4
f 198/3/4 195/3/4 199/3/4
f 199/2/4 196/2/4 200/2/4
f 201/4/4 202/4/4 205/4/4
f 202/3/4 203/3/4 206/3/4
f 205/4/4 202/4/4 206/4/4
f 203/2/4 204/2/4 207/2/4
f 206/3/4 203/3/4 207/3/4
f 207/2/4 204/2/4 208/2/4
f 213/4/5 210/4/5 209/4/5
f 214/4/5 210/4/5 213/4/5
f 215/4/5 210/4/5 214/4/5
f 216/4/5 210/4/5 215/4/5
f 217/1/5 212/1/5 211/1/5
f 218/1/5 212/1/5 217/1/5
f 221/4/5 220/4/5 219/4/5
f 222/4/5 220/4/5 221/4/5
f 225/4/5 224/4/5 223/4/5
f 226/4/5 224/4/5 225/4/5
f 229/1/5 228/1/5 227/1/5
f 230/1/5 228/1/5 229/1/5
f 233/4/5 232/4/5 231/4/5
f 234/4/5 232/4/5 233/4/5
f 237/4/5 236/4/5 235/4/5
f 238/4/5 236/4/5 237/4/5
f 239/1/6 240/1/6 241/1/6
f 241/1/6 240/1/6 242/1/6
f 243/1/6 244/1/6 245/1/6
f 245/1/6 244/1/6 246/1/6
f 247/3/6 248/3/6 249/3/6
f 249/3/6 248/3/6 250/3/6
f 250/2/6 251/2/6 252/2/6
f 252/2/6 251/2/6 253/2/6
f 254/2/6 255/2/6 256/2/6
f 256/2/6 255/2/6 257/2/6
f 258/2/6 259/2/6 260/2/6
f 260/2/6 259/2/6 261/2/6
f 262/2/6 263/2/6 264/2/6
f 264/2/6 263/2/6 265/2/6
f 266/2/6 267/2/6 268/2/6
f 268/2/6 267/2/6 269/2/6
f 270/2/6 271/2/6 272/2/6
f 272/2/6 271/2/6 273/2/6
