# MagicaVoxel @ Ephtracy

# group
o 

# material
mtllib Sign_Post.mtl
usemtl palette

# normals
vn -1 0 0
vn 1 0 0
vn 0 0 1
vn 0 0 -1
vn 0 -1 0
vn 0 1 0

# texcoords
vt 0.908203 0.5
vt 0.912109 0.5
vt 0.955078 0.5
vt 0.962891 0.5
vt 0.966797 0.5
vt 0.970703 0.5

# verts
v -1 1.5 0.4
v -1 1.5 0.3
v -1 1.6 0.4
v -1 1.6 0.3
v -1 1.7 0.4
v -1 1.7 0.3
v -0.9 1.4 0.4
v -0.9 1.4 0.3
v -0.9 1.5 0.4
v -0.9 1.5 0.3
v -0.9 1.7 0.4
v -0.9 1.7 0.3
v -0.9 1.8 0.4
v -0.9 1.8 0.3
v -0.8 1.3 0.4
v -0.8 1.3 0.3
v -0.8 1.4 0.4
v -0.8 1.4 0.3
v -0.8 1.8 0.4
v -0.8 1.8 0.3
v -0.8 1.9 0.4
v -0.8 1.9 0.3
v -0.7 1.2 0.4
v -0.7 1.2 0.3
v -0.7 1.3 0.4
v -0.7 1.3 0.3
v -0.7 1.9 0.4
v -0.7 1.9 0.3
v -0.7 2 0.4
v -0.7 2 0.3
v -0.2 0 0.3
v -0.2 0 -0.1
v -0.2 0.2 0.3
v -0.2 0.2 0.2
v -0.2 0.3 0.3
v -0.2 0.3 0.2
v -0.2 0.5 0.3
v -0.2 0.5 0.2
v -0.2 0.7 0.3
v -0.2 0.7 0.2
v -0.2 0.9 0.3
v -0.2 0.9 0.2
v -0.2 1.3 0.3
v -0.2 1.3 0.2
v -0.2 1.4 0.3
v -0.2 1.5 0.3
v -0.2 1.5 0.2
v -0.2 1.7 0.3
v -0.2 1.7 0.2
v -0.2 1.8 0.3
v -0.2 1.9 0.3
v -0.2 2 0.3
v -0.2 2.1 0.3
v -0.2 2.1 -0.1
v -0.2 2.2 0.3
v -0.2 2.2 -0.1
v -0.1 0 -0.1
v -0.1 0 -0.2
v -0.1 0.2 0.3
v -0.1 0.2 0.2
v -0.1 0.3 0.3
v -0.1 0.3 0.2
v -0.1 0.5 0.3
v -0.1 0.5 0.2
v -0.1 0.7 0.3
v -0.1 0.7 0.2
v -0.1 0.9 0.3
v -0.1 0.9 0.2
v -0.1 1.2 0.3
v -0.1 1.2 0.2
v -0.1 1.3 0.3
v -0.1 1.3 0.2
v -0.1 1.5 0.3
v -0.1 1.5 0.2
v -0.1 1.6 0.3
v -0.1 1.7 0.3
v -0.1 1.7 0.2
v -0.1 2.1 -0.1
v -0.1 2.1 -0.2
v -0.1 2.2 -0.1
v -0.1 2.2 -0.2
v 0.2 0 0.3
v 0.2 0 0.2
v 0.2 0.2 -0.1
v 0.2 0.2 -0.2
v 0.2 0.3 -0.1
v 0.2 0.3 -0.2
v 0.2 0.5 -0.1
v 0.2 0.5 -0.2
v 0.2 0.7 -0.1
v 0.2 0.7 -0.2
v 0.2 1 -0.1
v 0.2 1 -0.2
v 0.2 1.2 0.3
v 0.2 1.2 -0.1
v 0.2 1.2 -0.2
v 0.2 1.3 0.3
v 0.2 1.4 0.3
v 0.2 1.6 -0.1
v 0.2 1.6 -0.2
v 0.2 1.7 -0.1
v 0.2 1.8 0.3
v 0.2 1.8 -0.1
v 0.2 1.8 -0.2
v 0.2 1.9 0.3
v 0.2 2 0.3
v 0.2 2.1 0.3
v 0.2 2.1 0.2
v 0.2 2.2 0.3
v 0.2 2.2 0.2
v 0.3 0 0.2
v 0.3 0 0
v 0.3 0 -0.2
v 0.3 0.2 -0.1
v 0.3 0.2 -0.2
v 0.3 0.3 0.1
v 0.3 0.3 0
v 0.3 0.3 -0.1
v 0.3 0.3 -0.2
v 0.3 0.4 0
v 0.3 0.4 -0.1
v 0.3 0.5 -0.1
v 0.3 0.5 -0.2
v 0.3 0.7 0.1
v 0.3 0.7 0
v 0.3 0.7 -0.1
v 0.3 0.7 -0.2
v 0.3 0.9 0.1
v 0.3 0.9 0
v 0.3 1 -0.1
v 0.3 1 -0.2
v 0.3 1.2 0
v 0.3 1.2 -0.1
v 0.3 1.2 -0.2
v 0.3 1.4 0
v 0.3 1.4 -0.1
v 0.3 1.6 -0.1
v 0.3 1.6 -0.2
v 0.3 1.7 0
v 0.3 1.7 -0.1
v 0.3 1.8 -0.1
v 0.3 1.8 -0.2
v 0.3 2.1 0.2
v 0.3 2.1 0.1
v 0.3 2.1 0
v 0.3 2.1 -0.1
v 0.3 2.1 -0.2
v 0.3 2.2 0.2
v 0.3 2.2 -0.2
v 0.8 1.2 0.4
v 0.8 1.2 0.3
v 0.8 1.5 0.4
v 0.8 1.5 0.3
v 0.8 1.7 0.4
v 0.8 1.7 0.3
v 0.8 1.8 0.4
v 0.8 1.8 0.3
v 0.8 1.9 0.4
v 0.8 1.9 0.3
v 0.8 2 0.4
v 0.8 2 0.3
v -1 1.5 0.4
v -1 1.6 0.4
v -1 1.7 0.4
v -0.9 1.4 0.4
v -0.9 1.5 0.4
v -0.9 1.6 0.4
v -0.9 1.7 0.4
v -0.9 1.8 0.4
v -0.8 1.3 0.4
v -0.8 1.4 0.4
v -0.8 1.7 0.4
v -0.8 1.8 0.4
v -0.8 1.9 0.4
v -0.7 1.2 0.4
v -0.7 1.3 0.4
v -0.7 1.4 0.4
v -0.7 1.5 0.4
v -0.7 1.6 0.4
v -0.7 1.8 0.4
v -0.7 1.9 0.4
v -0.7 2 0.4
v -0.6 1.2 0.4
v -0.6 1.3 0.4
v -0.6 1.4 0.4
v -0.5 1.5 0.4
v -0.5 1.6 0.4
v -0.5 1.7 0.4
v -0.4 1.4 0.4
v -0.4 1.5 0.4
v -0.4 1.6 0.4
v -0.4 1.7 0.4
v -0.4 1.8 0.4
v -0.3 1.2 0.4
v -0.3 1.3 0.4
v -0.3 1.4 0.4
v -0.2 1.2 0.4
v -0.2 1.3 0.4
v -0.2 1.5 0.4
v -0.2 1.6 0.4
v -0.2 1.8 0.4
v -0.2 1.9 0.4
v -0.1 1.3 0.4
v -0.1 1.4 0.4
v -0.1 1.5 0.4
v -0.1 1.8 0.4
v -0.1 1.9 0.4
v 0 1.5 0.4
v 0 1.6 0.4
v 0 1.7 0.4
v 0 1.8 0.4
v 0 1.9 0.4
v 0.1 1.8 0.4
v 0.1 1.9 0.4
v 0.2 1.3 0.4
v 0.2 1.4 0.4
v 0.2 1.5 0.4
v 0.2 1.6 0.4
v 0.2 1.7 0.4
v 0.2 1.8 0.4
v 0.2 1.9 0.4
v 0.3 1.4 0.4
v 0.3 1.5 0.4
v 0.3 1.6 0.4
v 0.3 1.7 0.4
v 0.3 1.8 0.4
v 0.3 1.9 0.4
v 0.4 1.3 0.4
v 0.4 1.4 0.4
v 0.4 1.5 0.4
v 0.4 1.6 0.4
v 0.4 1.7 0.4
v 0.4 1.8 0.4
v 0.5 1.5 0.4
v 0.5 1.6 0.4
v 0.5 1.7 0.4
v 0.7 1.3 0.4
v 0.7 1.4 0.4
v 0.7 1.5 0.4
v 0.7 1.6 0.4
v 0.7 1.7 0.4
v 0.7 1.8 0.4
v 0.7 1.9 0.4
v 0.8 1.2 0.4
v 0.8 1.5 0.4
v 0.8 1.7 0.4
v 0.8 1.8 0.4
v 0.8 1.9 0.4
v 0.8 2 0.4
v -0.2 0 0.3
v -0.2 0.2 0.3
v -0.2 0.3 0.3
v -0.2 0.5 0.3
v -0.2 0.7 0.3
v -0.2 0.9 0.3
v -0.2 2 0.3
v -0.2 2.1 0.3
v -0.2 2.2 0.3
v -0.1 0.2 0.3
v -0.1 0.3 0.3
v -0.1 0.4 0.3
v -0.1 0.5 0.3
v -0.1 0.7 0.3
v -0.1 0.9 0.3
v -0.1 1.2 0.3
v -0.1 2 0.3
v -0.1 2.1 0.3
v 0 0 0.3
v 0 0.3 0.3
v 0 0.4 0.3
v 0 0.7 0.3
v 0 0.9 0.3
v 0 2 0.3
v 0 2.1 0.3
v 0.1 0.3 0.3
v 0.1 0.7 0.3
v 0.1 0.9 0.3
v 0.1 1.2 0.3
v 0.1 2 0.3
v 0.1 2.1 0.3
v 0.2 0 0.3
v 0.2 1.2 0.3
v 0.2 2 0.3
v 0.2 2.1 0.3
v 0.2 2.2 0.3
v -0.2 0.2 0.2
v -0.2 0.3 0.2
v -0.2 0.5 0.2
v -0.2 0.7 0.2
v -0.2 0.9 0.2
v -0.2 1.3 0.2
v -0.2 1.5 0.2
v -0.2 1.7 0.2
v -0.1 0.2 0.2
v -0.1 0.3 0.2
v -0.1 0.5 0.2
v -0.1 0.7 0.2
v -0.1 0.9 0.2
v -0.1 1.2 0.2
v -0.1 1.3 0.2
v -0.1 1.5 0.2
v -0.1 1.7 0.2
v 0.2 0 0.2
v 0.2 2.1 0.2
v 0.2 2.2 0.2
v 0.3 0 0.2
v 0.3 2.1 0.2
v 0.3 2.2 0.2
v -1 1.5 0.3
v -1 1.6 0.3
v -1 1.7 0.3
v -0.9 1.4 0.3
v -0.9 1.5 0.3
v -0.9 1.6 0.3
v -0.9 1.7 0.3
v -0.9 1.8 0.3
v -0.8 1.3 0.3
v -0.8 1.4 0.3
v -0.8 1.7 0.3
v -0.8 1.8 0.3
v -0.8 1.9 0.3
v -0.7 1.2 0.3
v -0.7 1.3 0.3
v -0.7 1.4 0.3
v -0.7 1.5 0.3
v -0.7 1.6 0.3
v -0.7 1.8 0.3
v -0.7 1.9 0.3
v -0.7 2 0.3
v -0.6 1.2 0.3
v -0.6 1.3 0.3
v -0.6 1.4 0.3
v -0.5 1.5 0.3
v -0.5 1.6 0.3
v -0.5 1.7 0.3
v -0.4 1.4 0.3
v -0.4 1.5 0.3
v -0.4 1.6 0.3
v -0.4 1.7 0.3
v -0.4 1.8 0.3
v -0.3 1.2 0.3
v -0.3 1.3 0.3
v -0.3 1.4 0.3
v -0.2 1.2 0.3
v -0.2 1.3 0.3
v -0.2 1.4 0.3
v -0.2 1.5 0.3
v -0.2 1.6 0.3
v -0.2 1.7 0.3
v -0.2 1.8 0.3
v -0.2 1.9 0.3
v -0.2 2 0.3
v -0.1 1.2 0.3
v -0.1 1.3 0.3
v -0.1 1.5 0.3
v -0.1 1.6 0.3
v -0.1 1.7 0.3
v 0.2 1.2 0.3
v 0.2 1.3 0.3
v 0.2 1.4 0.3
v 0.2 1.8 0.3
v 0.2 1.9 0.3
v 0.2 2 0.3
v 0.3 1.4 0.3
v 0.3 1.5 0.3
v 0.3 1.6 0.3
v 0.3 1.7 0.3
v 0.3 1.8 0.3
v 0.3 1.9 0.3
v 0.4 1.3 0.3
v 0.4 1.4 0.3
v 0.4 1.5 0.3
v 0.4 1.6 0.3
v 0.4 1.7 0.3
v 0.4 1.8 0.3
v 0.5 1.5 0.3
v 0.5 1.6 0.3
v 0.5 1.7 0.3
v 0.7 1.3 0.3
v 0.7 1.4 0.3
v 0.7 1.5 0.3
v 0.7 1.6 0.3
v 0.7 1.7 0.3
v 0.7 1.8 0.3
v 0.7 1.9 0.3
v 0.8 1.2 0.3
v 0.8 1.5 0.3
v 0.8 1.7 0.3
v 0.8 1.8 0.3
v 0.8 1.9 0.3
v 0.8 2 0.3
v -0.2 0 -0.1
v -0.2 2.1 -0.1
v -0.2 2.2 -0.1
v -0.1 0 -0.1
v -0.1 2.1 -0.1
v -0.1 2.2 -0.1
v 0.2 0.2 -0.1
v 0.2 0.3 -0.1
v 0.2 0.5 -0.1
v 0.2 0.7 -0.1
v 0.2 1 -0.1
v 0.2 1.2 -0.1
v 0.2 1.6 -0.1
v 0.2 1.7 -0.1
v 0.2 1.8 -0.1
v 0.3 0.2 -0.1
v 0.3 0.3 -0.1
v 0.3 0.5 -0.1
v 0.3 0.7 -0.1
v 0.3 1 -0.1
v 0.3 1.2 -0.1
v 0.3 1.6 -0.1
v 0.3 1.7 -0.1
v 0.3 1.8 -0.1
v -0.1 0 -0.2
v -0.1 2.1 -0.2
v -0.1 2.2 -0.2
v 0.2 0.2 -0.2
v 0.2 0.3 -0.2
v 0.2 0.5 -0.2
v 0.2 0.7 -0.2
v 0.2 1 -0.2
v 0.2 1.2 -0.2
v 0.2 1.6 -0.2
v 0.2 1.8 -0.2
v 0.3 0 -0.2
v 0.3 0.2 -0.2
v 0.3 0.3 -0.2
v 0.3 0.5 -0.2
v 0.3 0.7 -0.2
v 0.3 1 -0.2
v 0.3 1.2 -0.2
v 0.3 1.6 -0.2
v 0.3 1.8 -0.2
v 0.3 2.1 -0.2
v 0.3 2.2 -0.2
v -0.2 0 0.3
v 0 0 0.3
v 0.2 0 0.3
v -0.1 0 0.2
v 0 0 0.2
v 0.2 0 0.2
v 0.3 0 0.2
v 0.2 0 0
v 0.3 0 0
v -0.2 0 -0.1
v -0.1 0 -0.1
v 0.2 0 -0.1
v -0.1 0 -0.2
v 0.3 0 -0.2
v -0.2 0.3 0.3
v -0.1 0.3 0.3
v -0.2 0.3 0.2
v -0.1 0.3 0.2
v 0.2 0.3 -0.1
v 0.3 0.3 -0.1
v 0.2 0.3 -0.2
v 0.3 0.3 -0.2
v -0.2 0.7 0.3
v -0.1 0.7 0.3
v -0.2 0.7 0.2
v -0.1 0.7 0.2
v 0.2 0.7 -0.1
v 0.3 0.7 -0.1
v 0.2 0.7 -0.2
v 0.3 0.7 -0.2
v -0.7 1.2 0.4
v -0.6 1.2 0.4
v -0.3 1.2 0.4
v -0.2 1.2 0.4
v 0.8 1.2 0.4
v -0.7 1.2 0.3
v -0.6 1.2 0.3
v -0.3 1.2 0.3
v -0.2 1.2 0.3
v -0.1 1.2 0.3
v 0.1 1.2 0.3
v 0.2 1.2 0.3
v 0.8 1.2 0.3
v 0.2 1.2 -0.1
v 0.3 1.2 -0.1
v 0.2 1.2 -0.2
v 0.3 1.2 -0.2
v -0.8 1.3 0.4
v -0.7 1.3 0.4
v -0.8 1.3 0.3
v -0.7 1.3 0.3
v -0.2 1.3 0.3
v -0.1 1.3 0.3
v -0.2 1.3 0.2
v -0.1 1.3 0.2
v -0.9 1.4 0.4
v -0.8 1.4 0.4
v -0.9 1.4 0.3
v -0.8 1.4 0.3
v -1 1.5 0.4
v -0.9 1.5 0.4
v -1 1.5 0.3
v -0.9 1.5 0.3
v -0.2 1.7 0.3
v -0.1 1.7 0.3
v -0.2 1.7 0.2
v -0.1 1.7 0.2
v 0.2 1.8 -0.1
v 0.3 1.8 -0.1
v 0.2 1.8 -0.2
v 0.3 1.8 -0.2
v -0.2 0.2 0.3
v -0.1 0.2 0.3
v -0.2 0.2 0.2
v -0.1 0.2 0.2
v 0.2 0.2 -0.1
v 0.3 0.2 -0.1
v 0.2 0.2 -0.2
v 0.3 0.2 -0.2
v -0.2 0.5 0.3
v -0.1 0.5 0.3
v -0.2 0.5 0.2
v -0.1 0.5 0.2
v 0.2 0.5 -0.1
v 0.3 0.5 -0.1
v 0.2 0.5 -0.2
v 0.3 0.5 -0.2
v -0.2 0.9 0.3
v -0.1 0.9 0.3
v -0.2 0.9 0.2
v -0.1 0.9 0.2
v 0.2 1 -0.1
v 0.3 1 -0.1
v 0.2 1 -0.2
v 0.3 1 -0.2
v -0.2 1.5 0.3
v -0.1 1.5 0.3
v -0.2 1.5 0.2
v -0.1 1.5 0.2
v 0.2 1.6 -0.1
v 0.3 1.6 -0.1
v 0.2 1.6 -0.2
v 0.3 1.6 -0.2
v -1 1.7 0.4
v -0.9 1.7 0.4
v -1 1.7 0.3
v -0.9 1.7 0.3
v -0.9 1.8 0.4
v -0.8 1.8 0.4
v -0.9 1.8 0.3
v -0.8 1.8 0.3
v -0.8 1.9 0.4
v -0.7 1.9 0.4
v -0.8 1.9 0.3
v -0.7 1.9 0.3
v -0.7 2 0.4
v 0.8 2 0.4
v -0.7 2 0.3
v -0.2 2 0.3
v -0.1 2 0.3
v 0 2 0.3
v 0.1 2 0.3
v 0.2 2 0.3
v 0.8 2 0.3
v -0.2 2.2 0.3
v 0.2 2.2 0.3
v 0.2 2.2 0.2
v 0.3 2.2 0.2
v -0.2 2.2 -0.1
v -0.1 2.2 -0.1
v -0.1 2.2 -0.2
v 0.3 2.2 -0.2

# faces
f 3/1/1 2/1/1 1/1/1
f 4/1/1 2/1/1 3/1/1
f 5/6/1 4/6/1 3/6/1
f 6/6/1 4/6/1 5/6/1
f 9/5/1 8/5/1 7/5/1
f 10/5/1 8/5/1 9/5/1
f 13/6/1 12/6/1 11/6/1
f 14/6/1 12/6/1 13/6/1
f 17/1/1 16/1/1 15/1/1
f 18/1/1 16/1/1 17/1/1
f 21/6/1 20/6/1 19/6/1
f 22/6/1 20/6/1 21/6/1
f 25/4/1 24/4/1 23/4/1
f 26/4/1 24/4/1 25/4/1
f 29/6/1 28/6/1 27/6/1
f 30/6/1 28/6/1 29/6/1
f 33/5/1 32/5/1 31/5/1
f 34/5/1 32/5/1 33/5/1
f 36/5/1 32/5/1 34/5/1
f 37/5/1 36/5/1 35/5/1
f 38/5/1 32/5/1 36/5/1
f 38/5/1 36/5/1 37/5/1
f 40/5/1 32/5/1 38/5/1
f 41/5/1 40/5/1 39/5/1
f 42/5/1 32/5/1 40/5/1
f 42/5/1 40/5/1 41/5/1
f 44/5/1 32/5/1 42/5/1
f 45/5/1 44/5/1 43/5/1
f 46/5/1 44/5/1 45/5/1
f 47/5/1 32/5/1 44/5/1
f 47/5/1 44/5/1 46/5/1
f 49/5/1 32/5/1 47/5/1
f 50/5/1 49/5/1 48/5/1
f 51/5/1 49/5/1 50/5/1
f 52/5/1 49/5/1 51/5/1
f 53/5/1 49/5/1 52/5/1
f 54/5/1 32/5/1 49/5/1
f 54/5/1 49/5/1 53/5/1
f 55/6/1 54/6/1 53/6/1
f 56/6/1 54/6/1 55/6/1
f 61/5/1 60/5/1 59/5/1
f 62/5/1 60/5/1 61/5/1
f 65/1/1 64/1/1 63/1/1
f 66/1/1 64/1/1 65/1/1
f 69/1/1 68/1/1 67/1/1
f 70/1/1 68/1/1 69/1/1
f 71/4/1 70/4/1 69/4/1
f 72/4/1 70/4/1 71/4/1
f 75/4/1 74/4/1 73/4/1
f 76/4/1 74/4/1 75/4/1
f 77/4/1 74/4/1 76/4/1
f 78/5/1 58/5/1 57/5/1
f 79/5/1 58/5/1 78/5/1
f 80/6/1 79/6/1 78/6/1
f 81/6/1 79/6/1 80/6/1
f 84/5/2 85/5/2 86/5/2
f 86/5/2 85/5/2 87/5/2
f 88/5/2 89/5/2 90/5/2
f 90/5/2 89/5/2 91/5/2
f 82/4/2 83/4/2 94/4/2
f 92/5/2 93/5/2 95/5/2
f 95/5/2 93/5/2 96/5/2
f 94/4/2 83/4/2 97/4/2
f 97/4/2 83/4/2 98/4/2
f 99/5/2 100/5/2 101/5/2
f 98/4/2 83/4/2 102/4/2
f 101/5/2 100/5/2 103/5/2
f 103/5/2 100/5/2 104/5/2
f 102/4/2 83/4/2 105/4/2
f 105/4/2 83/4/2 106/4/2
f 106/4/2 83/4/2 107/4/2
f 107/4/2 83/4/2 108/4/2
f 107/6/2 108/6/2 109/6/2
f 109/6/2 108/6/2 110/6/2
f 112/5/2 113/5/2 114/5/2
f 114/5/2 113/5/2 115/5/2
f 111/4/2 112/4/2 116/4/2
f 112/5/2 114/5/2 117/5/2
f 116/4/2 112/4/2 117/4/2
f 117/5/2 114/5/2 118/5/2
f 116/2/2 117/2/2 120/2/2
f 118/5/2 119/5/2 120/5/2
f 117/5/2 118/5/2 120/5/2
f 120/5/2 119/5/2 121/5/2
f 120/1/2 121/1/2 122/1/2
f 121/5/2 119/5/2 122/5/2
f 122/5/2 119/5/2 123/5/2
f 111/4/2 116/4/2 124/4/2
f 116/2/2 120/2/2 124/2/2
f 120/1/2 122/1/2 125/1/2
f 124/2/2 120/2/2 125/2/2
f 125/1/2 122/1/2 126/1/2
f 111/4/2 124/4/2 128/4/2
f 124/4/2 125/4/2 128/4/2
f 125/1/2 126/1/2 129/1/2
f 128/4/2 125/4/2 129/4/2
f 126/5/2 127/5/2 130/5/2
f 129/1/2 126/1/2 130/1/2
f 128/1/2 129/1/2 130/1/2
f 130/5/2 127/5/2 131/5/2
f 128/1/2 130/1/2 132/1/2
f 132/1/2 130/1/2 133/1/2
f 128/1/2 132/1/2 135/1/2
f 132/4/2 133/4/2 135/4/2
f 133/5/2 134/5/2 136/5/2
f 135/4/2 133/4/2 136/4/2
f 135/2/2 136/2/2 137/2/2
f 136/5/2 134/5/2 137/5/2
f 137/5/2 134/5/2 138/5/2
f 128/1/2 135/1/2 139/1/2
f 135/2/2 137/2/2 139/2/2
f 139/2/2 137/2/2 140/2/2
f 139/4/2 140/4/2 141/4/2
f 111/4/2 128/4/2 143/4/2
f 128/1/2 139/1/2 144/1/2
f 143/4/2 128/4/2 144/4/2
f 139/4/2 141/4/2 145/4/2
f 144/1/2 139/1/2 145/1/2
f 141/5/2 142/5/2 146/5/2
f 145/4/2 141/4/2 146/4/2
f 146/5/2 142/5/2 147/5/2
f 144/6/2 145/6/2 148/6/2
f 143/6/2 144/6/2 148/6/2
f 146/6/2 147/6/2 148/6/2
f 145/6/2 146/6/2 148/6/2
f 148/6/2 147/6/2 149/6/2
f 150/5/2 151/5/2 152/5/2
f 152/5/2 151/5/2 153/5/2
f 152/1/2 153/1/2 154/1/2
f 154/1/2 153/1/2 155/1/2
f 154/2/2 155/2/2 156/2/2
f 156/2/2 155/2/2 157/2/2
f 156/5/2 157/5/2 158/5/2
f 158/5/2 157/5/2 159/5/2
f 158/6/2 159/6/2 160/6/2
f 160/6/2 159/6/2 161/6/2
f 166/1/3 163/1/3 162/1/3
f 167/6/3 164/6/3 163/6/3
f 167/1/3 163/1/3 166/1/3
f 168/6/3 164/6/3 167/6/3
f 171/5/3 166/5/3 165/5/3
f 172/6/3 169/6/3 168/6/3
f 172/1/3 167/1/3 166/1/3
f 172/1/3 168/1/3 167/1/3
f 173/6/3 169/6/3 172/6/3
f 176/1/3 171/1/3 170/1/3
f 177/5/3 166/5/3 171/5/3
f 177/1/3 171/1/3 176/1/3
f 178/1/3 172/1/3 166/1/3
f 178/5/3 166/5/3 177/5/3
f 178/1/3 173/1/3 172/1/3
f 179/1/3 173/1/3 178/1/3
f 180/6/3 174/6/3 173/6/3
f 180/1/3 173/1/3 179/1/3
f 181/6/3 174/6/3 180/6/3
f 183/4/3 176/4/3 175/4/3
f 184/1/3 177/1/3 176/1/3
f 184/4/3 176/4/3 183/4/3
f 184/1/3 178/1/3 177/1/3
f 185/1/3 178/1/3 184/1/3
f 186/4/3 179/4/3 178/4/3
f 186/1/3 178/1/3 185/1/3
f 187/1/3 180/1/3 179/1/3
f 187/4/3 179/4/3 186/4/3
f 188/1/3 180/1/3 187/1/3
f 189/4/3 185/4/3 184/4/3
f 189/1/3 186/1/3 185/1/3
f 189/1/3 187/1/3 186/1/3
f 190/1/3 187/1/3 189/1/3
f 191/4/3 188/4/3 187/4/3
f 191/1/3 187/1/3 190/1/3
f 192/1/3 180/1/3 188/1/3
f 192/4/3 188/4/3 191/4/3
f 193/2/3 181/2/3 180/2/3
f 193/1/3 180/1/3 192/1/3
f 194/5/3 184/5/3 183/5/3
f 195/4/3 189/4/3 184/4/3
f 195/5/3 184/5/3 194/5/3
f 196/5/3 190/5/3 189/5/3
f 196/4/3 189/4/3 195/4/3
f 197/4/3 195/4/3 194/4/3
f 198/1/3 196/1/3 195/1/3
f 198/4/3 195/4/3 197/4/3
f 199/4/3 191/4/3 190/4/3
f 199/4/3 192/4/3 191/4/3
f 199/5/3 190/5/3 196/5/3
f 199/4/3 193/4/3 192/4/3
f 200/4/3 193/4/3 199/4/3
f 201/2/3 181/2/3 193/2/3
f 201/4/3 193/4/3 200/4/3
f 202/6/3 182/6/3 181/6/3
f 202/2/3 181/2/3 201/2/3
f 203/1/3 196/1/3 198/1/3
f 203/5/3 198/5/3 197/5/3
f 204/5/3 199/5/3 196/5/3
f 204/1/3 196/1/3 203/1/3
f 205/2/3 200/2/3 199/2/3
f 205/5/3 199/5/3 204/5/3
f 206/4/3 201/4/3 200/4/3
f 206/4/3 202/4/3 201/4/3
f 207/6/3 182/6/3 202/6/3
f 207/4/3 202/4/3 206/4/3
f 208/2/3 200/2/3 205/2/3
f 208/1/3 205/1/3 204/1/3
f 209/4/3 206/4/3 200/4/3
f 209/2/3 200/2/3 208/2/3
f 210/4/3 206/4/3 209/4/3
f 211/3/3 207/3/3 206/3/3
f 211/4/3 206/4/3 210/4/3
f 212/6/3 182/6/3 207/6/3
f 212/3/3 207/3/3 211/3/3
f 213/4/3 211/4/3 210/4/3
f 213/2/3 212/2/3 211/2/3
f 214/6/3 182/6/3 212/6/3
f 214/2/3 212/2/3 213/2/3
f 215/4/3 204/4/3 203/4/3
f 215/5/3 203/5/3 197/5/3
f 216/1/3 208/1/3 204/1/3
f 216/4/3 204/4/3 215/4/3
f 217/4/3 209/4/3 208/4/3
f 217/1/3 208/1/3 216/1/3
f 218/1/3 210/1/3 209/1/3
f 218/4/3 209/4/3 217/4/3
f 219/4/3 213/4/3 210/4/3
f 219/1/3 210/1/3 218/1/3
f 220/3/3 214/3/3 213/3/3
f 220/4/3 213/4/3 219/4/3
f 221/6/3 182/6/3 214/6/3
f 221/3/3 214/3/3 220/3/3
f 222/1/3 218/1/3 217/1/3
f 222/1/3 217/1/3 216/1/3
f 222/1/3 220/1/3 219/1/3
f 222/2/3 216/2/3 215/2/3
f 222/1/3 219/1/3 218/1/3
f 223/1/3 220/1/3 222/1/3
f 224/1/3 220/1/3 223/1/3
f 225/1/3 220/1/3 224/1/3
f 226/2/3 221/2/3 220/2/3
f 226/1/3 220/1/3 225/1/3
f 227/6/3 182/6/3 221/6/3
f 227/2/3 221/2/3 226/2/3
f 228/5/3 215/5/3 197/5/3
f 228/2/3 222/2/3 215/2/3
f 229/5/3 223/5/3 222/5/3
f 229/2/3 222/2/3 228/2/3
f 230/1/3 224/1/3 223/1/3
f 230/5/3 223/5/3 229/5/3
f 231/4/3 225/4/3 224/4/3
f 231/1/3 224/1/3 230/1/3
f 232/1/3 226/1/3 225/1/3
f 232/4/3 225/4/3 231/4/3
f 233/4/3 227/4/3 226/4/3
f 233/1/3 226/1/3 232/1/3
f 234/4/3 231/4/3 230/4/3
f 234/5/3 230/5/3 229/5/3
f 234/4/3 233/4/3 232/4/3
f 234/4/3 232/4/3 231/4/3
f 235/4/3 233/4/3 234/4/3
f 236/4/3 233/4/3 235/4/3
f 237/4/3 229/4/3 228/4/3
f 237/5/3 228/5/3 197/5/3
f 238/5/3 234/5/3 229/5/3
f 238/4/3 229/4/3 237/4/3
f 239/2/3 235/2/3 234/2/3
f 239/5/3 234/5/3 238/5/3
f 240/1/3 236/1/3 235/1/3
f 240/2/3 235/2/3 239/2/3
f 241/4/3 233/4/3 236/4/3
f 241/1/3 236/1/3 240/1/3
f 242/4/3 227/4/3 233/4/3
f 242/4/3 233/4/3 241/4/3
f 243/6/3 182/6/3 227/6/3
f 243/4/3 227/4/3 242/4/3
f 244/5/3 239/5/3 238/5/3
f 244/5/3 237/5/3 197/5/3
f 244/5/3 238/5/3 237/5/3
f 245/1/3 241/1/3 240/1/3
f 245/5/3 239/5/3 244/5/3
f 245/1/3 240/1/3 239/1/3
f 246/2/3 242/2/3 241/2/3
f 246/1/3 241/1/3 245/1/3
f 247/5/3 243/5/3 242/5/3
f 247/2/3 242/2/3 246/2/3
f 248/6/3 182/6/3 243/6/3
f 248/5/3 243/5/3 247/5/3
f 249/6/3 182/6/3 248/6/3
f 259/5/3 251/5/3 250/5/3
f 260/5/3 253/5/3 252/5/3
f 261/5/3 253/5/3 260/5/3
f 262/5/3 253/5/3 261/5/3
f 263/5/3 255/5/3 254/5/3
f 264/5/3 255/5/3 263/5/3
f 266/5/3 257/5/3 256/5/3
f 267/6/3 258/6/3 257/6/3
f 267/5/3 257/5/3 266/5/3
f 268/5/3 259/5/3 250/5/3
f 268/5/3 260/5/3 259/5/3
f 268/5/3 261/5/3 260/5/3
f 269/5/3 261/5/3 268/5/3
f 270/1/3 262/1/3 261/1/3
f 270/5/3 261/5/3 269/5/3
f 270/1/3 265/1/3 264/1/3
f 270/1/3 264/1/3 263/1/3
f 270/1/3 263/1/3 262/1/3
f 271/1/3 265/1/3 270/1/3
f 272/1/3 265/1/3 271/1/3
f 273/4/3 267/4/3 266/4/3
f 274/6/3 258/6/3 267/6/3
f 274/4/3 267/4/3 273/4/3
f 275/4/3 269/4/3 268/4/3
f 275/2/3 270/2/3 269/2/3
f 275/2/3 271/2/3 270/2/3
f 276/4/3 272/4/3 271/4/3
f 276/2/3 271/2/3 275/2/3
f 277/1/3 265/1/3 272/1/3
f 277/4/3 272/4/3 276/4/3
f 278/1/3 265/1/3 277/1/3
f 279/1/3 274/1/3 273/1/3
f 280/6/3 258/6/3 274/6/3
f 280/1/3 274/1/3 279/1/3
f 281/4/3 276/4/3 275/4/3
f 281/4/3 278/4/3 277/4/3
f 281/4/3 275/4/3 268/4/3
f 281/4/3 277/4/3 276/4/3
f 282/4/3 278/4/3 281/4/3
f 283/4/3 280/4/3 279/4/3
f 284/6/3 258/6/3 280/6/3
f 284/4/3 280/4/3 283/4/3
f 285/6/3 258/6/3 284/6/3
f 294/5/3 287/5/3 286/5/3
f 295/5/3 287/5/3 294/5/3
f 296/5/3 289/5/3 288/5/3
f 297/5/3 289/5/3 296/5/3
f 298/5/3 291/5/3 290/5/3
f 299/5/3 291/5/3 298/5/3
f 300/5/3 291/5/3 299/5/3
f 301/5/3 293/5/3 292/5/3
f 302/5/3 293/5/3 301/5/3
f 306/4/3 304/4/3 303/4/3
f 307/6/3 305/6/3 304/6/3
f 307/4/3 304/4/3 306/4/3
f 308/6/3 305/6/3 307/6/3
f 309/1/4 310/1/4 313/1/4
f 310/6/4 311/6/4 314/6/4
f 313/1/4 310/1/4 314/1/4
f 314/6/4 311/6/4 315/6/4
f 312/5/4 313/5/4 318/5/4
f 315/6/4 316/6/4 319/6/4
f 313/1/4 314/1/4 319/1/4
f 314/1/4 315/1/4 319/1/4
f 319/6/4 316/6/4 320/6/4
f 317/1/4 318/1/4 323/1/4
f 318/5/4 313/5/4 324/5/4
f 323/1/4 318/1/4 324/1/4
f 313/1/4 319/1/4 325/1/4
f 324/5/4 313/5/4 325/5/4
f 319/1/4 320/1/4 325/1/4
f 325/1/4 320/1/4 326/1/4
f 320/6/4 321/6/4 327/6/4
f 326/1/4 320/1/4 327/1/4
f 327/6/4 321/6/4 328/6/4
f 322/4/4 323/4/4 330/4/4
f 323/1/4 324/1/4 331/1/4
f 330/4/4 323/4/4 331/4/4
f 324/1/4 325/1/4 331/1/4
f 331/1/4 325/1/4 332/1/4
f 325/4/4 326/4/4 333/4/4
f 332/1/4 325/1/4 333/1/4
f 326/1/4 327/1/4 334/1/4
f 333/4/4 326/4/4 334/4/4
f 334/1/4 327/1/4 335/1/4
f 331/4/4 332/4/4 336/4/4
f 332/1/4 333/1/4 336/1/4
f 333/1/4 334/1/4 336/1/4
f 336/1/4 334/1/4 337/1/4
f 334/4/4 335/4/4 338/4/4
f 337/1/4 334/1/4 338/1/4
f 335/1/4 327/1/4 339/1/4
f 338/4/4 335/4/4 339/4/4
f 327/2/4 328/2/4 340/2/4
f 339/1/4 327/1/4 340/1/4
f 330/5/4 331/5/4 341/5/4
f 331/4/4 336/4/4 342/4/4
f 341/5/4 331/5/4 342/5/4
f 336/5/4 337/5/4 343/5/4
f 342/4/4 336/4/4 343/4/4
f 341/4/4 342/4/4 344/4/4
f 342/1/4 343/1/4 345/1/4
f 344/4/4 342/4/4 345/4/4
f 343/5/4 337/5/4 346/5/4
f 345/1/4 343/1/4 346/1/4
f 337/4/4 338/4/4 347/4/4
f 346/5/4 337/5/4 347/5/4
f 338/4/4 339/4/4 347/4/4
f 339/4/4 340/4/4 347/4/4
f 347/4/4 340/4/4 348/4/4
f 348/4/4 340/4/4 349/4/4
f 340/2/4 328/2/4 350/2/4
f 349/4/4 340/4/4 350/4/4
f 328/6/4 329/6/4 351/6/4
f 350/2/4 328/2/4 351/2/4
f 351/6/4 329/6/4 352/6/4
f 344/5/4 345/5/4 353/5/4
f 353/5/4 345/5/4 354/5/4
f 347/2/4 348/2/4 355/2/4
f 348/4/4 349/4/4 356/4/4
f 355/2/4 348/2/4 356/2/4
f 356/4/4 349/4/4 357/4/4
f 359/2/4 360/2/4 364/2/4
f 360/1/4 361/1/4 364/1/4
f 364/1/4 361/1/4 365/1/4
f 365/1/4 361/1/4 366/1/4
f 366/1/4 361/1/4 367/1/4
f 361/2/4 362/2/4 368/2/4
f 367/1/4 361/1/4 368/1/4
f 362/6/4 363/6/4 369/6/4
f 368/2/4 362/2/4 369/2/4
f 358/5/4 359/5/4 370/5/4
f 359/2/4 364/2/4 370/2/4
f 364/5/4 365/5/4 371/5/4
f 370/2/4 364/2/4 371/2/4
f 365/1/4 366/1/4 372/1/4
f 371/5/4 365/5/4 372/5/4
f 366/4/4 367/4/4 373/4/4
f 372/1/4 366/1/4 373/1/4
f 367/1/4 368/1/4 374/1/4
f 373/4/4 367/4/4 374/4/4
f 368/4/4 369/4/4 375/4/4
f 374/1/4 368/1/4 375/1/4
f 372/4/4 373/4/4 376/4/4
f 371/5/4 372/5/4 376/5/4
f 374/4/4 375/4/4 376/4/4
f 373/4/4 374/4/4 376/4/4
f 376/4/4 375/4/4 377/4/4
f 377/4/4 375/4/4 378/4/4
f 370/4/4 371/4/4 379/4/4
f 358/5/4 370/5/4 379/5/4
f 371/5/4 376/5/4 380/5/4
f 379/4/4 371/4/4 380/4/4
f 376/2/4 377/2/4 381/2/4
f 380/5/4 376/5/4 381/5/4
f 377/1/4 378/1/4 382/1/4
f 381/2/4 377/2/4 382/2/4
f 378/4/4 375/4/4 383/4/4
f 382/1/4 378/1/4 383/1/4
f 375/4/4 369/4/4 384/4/4
f 383/4/4 375/4/4 384/4/4
f 369/6/4 363/6/4 385/6/4
f 384/4/4 369/4/4 385/4/4
f 380/5/4 381/5/4 386/5/4
f 358/5/4 379/5/4 386/5/4
f 379/5/4 380/5/4 386/5/4
f 382/1/4 383/1/4 387/1/4
f 386/5/4 381/5/4 387/5/4
f 381/1/4 382/1/4 387/1/4
f 383/2/4 384/2/4 388/2/4
f 387/1/4 383/1/4 388/1/4
f 384/5/4 385/5/4 389/5/4
f 388/2/4 384/2/4 389/2/4
f 385/6/4 363/6/4 390/6/4
f 389/5/4 385/5/4 390/5/4
f 390/6/4 363/6/4 391/6/4
f 392/5/4 393/5/4 395/5/4
f 393/6/4 394/6/4 396/6/4
f 395/5/4 393/5/4 396/5/4
f 396/6/4 394/6/4 397/6/4
f 398/5/4 399/5/4 407/5/4
f 407/5/4 399/5/4 408/5/4
f 400/1/4 401/1/4 409/1/4
f 409/1/4 401/1/4 410/1/4
f 402/1/4 403/1/4 411/1/4
f 411/1/4 403/1/4 412/1/4
f 404/2/4 405/2/4 413/2/4
f 405/4/4 406/4/4 414/4/4
f 413/2/4 405/2/4 414/2/4
f 414/4/4 406/4/4 415/4/4
f 416/5/4 417/5/4 419/5/4
f 419/5/4 417/5/4 420/5/4
f 420/5/4 417/5/4 421/5/4
f 421/5/4 417/5/4 422/5/4
f 422/5/4 417/5/4 423/5/4
f 423/5/4 417/5/4 424/5/4
f 424/5/4 417/5/4 425/5/4
f 425/5/4 417/5/4 426/5/4
f 416/5/4 419/5/4 427/5/4
f 427/5/4 419/5/4 428/5/4
f 420/5/4 421/5/4 429/5/4
f 429/5/4 421/5/4 430/5/4
f 422/5/4 423/5/4 431/5/4
f 431/5/4 423/5/4 432/5/4
f 424/5/4 425/5/4 433/5/4
f 433/5/4 425/5/4 434/5/4
f 426/5/4 417/5/4 435/5/4
f 417/6/4 418/6/4 436/6/4
f 435/5/4 417/5/4 436/5/4
f 436/6/4 418/6/4 437/6/4
f 441/5/5 439/5/5 438/5/5
f 442/4/5 440/4/5 439/4/5
f 442/5/5 439/5/5 441/5/5
f 443/4/5 440/4/5 442/4/5
f 445/4/5 442/4/5 441/4/5
f 445/4/5 444/4/5 443/4/5
f 445/4/5 443/4/5 442/4/5
f 446/4/5 444/4/5 445/4/5
f 447/5/5 441/5/5 438/5/5
f 448/4/5 445/4/5 441/4/5
f 448/5/5 441/5/5 447/5/5
f 449/5/5 446/5/5 445/5/5
f 449/4/5 445/4/5 448/4/5
f 450/5/5 449/5/5 448/5/5
f 451/5/5 446/5/5 449/5/5
f 451/5/5 449/5/5 450/5/5
f 454/5/5 453/5/5 452/5/5
f 455/5/5 453/5/5 454/5/5
f 458/5/5 457/5/5 456/5/5
f 459/5/5 457/5/5 458/5/5
f 462/5/5 461/5/5 460/5/5
f 463/5/5 461/5/5 462/5/5
f 466/5/5 465/5/5 464/5/5
f 467/5/5 465/5/5 466/5/5
f 473/4/5 469/4/5 468/4/5
f 474/5/5 470/5/5 469/5/5
f 474/4/5 469/4/5 473/4/5
f 475/4/5 471/4/5 470/4/5
f 475/5/5 470/5/5 474/5/5
f 476/5/5 472/5/5 471/5/5
f 476/4/5 471/4/5 475/4/5
f 477/5/5 472/5/5 476/5/5
f 478/5/5 472/5/5 477/5/5
f 479/5/5 472/5/5 478/5/5
f 480/5/5 472/5/5 479/5/5
f 483/5/5 482/5/5 481/5/5
f 484/5/5 482/5/5 483/5/5
f 487/1/5 486/1/5 485/1/5
f 488/1/5 486/1/5 487/1/5
f 491/5/5 490/5/5 489/5/5
f 492/5/5 490/5/5 491/5/5
f 495/5/5 494/5/5 493/5/5
f 496/5/5 494/5/5 495/5/5
f 499/1/5 498/1/5 497/1/5
f 500/1/5 498/1/5 499/1/5
f 503/5/5 502/5/5 501/5/5
f 504/5/5 502/5/5 503/5/5
f 507/5/5 506/5/5 505/5/5
f 508/5/5 506/5/5 507/5/5
f 509/5/6 510/5/6 511/5/6
f 511/5/6 510/5/6 512/5/6
f 513/5/6 514/5/6 515/5/6
f 515/5/6 514/5/6 516/5/6
f 517/5/6 518/5/6 519/5/6
f 519/5/6 518/5/6 520/5/6
f 521/5/6 522/5/6 523/5/6
f 523/5/6 522/5/6 524/5/6
f 525/5/6 526/5/6 527/5/6
f 527/5/6 526/5/6 528/5/6
f 529/5/6 530/5/6 531/5/6
f 531/5/6 530/5/6 532/5/6
f 533/5/6 534/5/6 535/5/6
f 535/5/6 534/5/6 536/5/6
f 537/5/6 538/5/6 539/5/6
f 539/5/6 538/5/6 540/5/6
f 541/6/6 542/6/6 543/6/6
f 543/6/6 542/6/6 544/6/6
f 545/6/6 546/6/6 547/6/6
f 547/6/6 546/6/6 548/6/6
f 549/6/6 550/6/6 551/6/6
f 551/6/6 550/6/6 552/6/6
f 553/6/6 554/6/6 555/6/6
f 555/6/6 554/6/6 556/6/6
f 556/6/6 554/6/6 557/6/6
f 557/6/6 554/6/6 558/6/6
f 558/6/6 554/6/6 559/6/6
f 559/6/6 554/6/6 560/6/6
f 560/6/6 554/6/6 561/6/6
f 562/6/6 563/6/6 564/6/6
f 562/6/6 564/6/6 566/6/6
f 564/6/6 565/6/6 566/6/6
f 566/6/6 565/6/6 567/6/6
f 567/6/6 565/6/6 568/6/6
f 568/6/6 565/6/6 569/6/6
