# MagicaVoxel @ Ephtracy

# group
o 

# material
mtllib Yeti_Hat-0.mtl
usemtl palette

# normals
vn -1 0 0
vn 1 0 0
vn 0 0 1
vn 0 0 -1
vn 0 -1 0
vn 0 1 0

# texcoords
vt 0.208984 0.5
vt 0.373047 0.5
vt 0.966797 0.5
vt 0.974609 0.5
vt 0.994141 0.5

# verts
v -0.5 2 0.3
v -0.5 2 -0.4
v -0.5 2.2 0.3
v -0.5 2.2 -0.4
v -0.4 2.2 0.2
v -0.4 2.2 -0.3
v -0.4 2.3 0.2
v -0.4 2.3 -0.3
v -0.4 2.7 0.2
v -0.4 2.7 -0.3
v 0.1 2.2 0.2
v 0.1 2.2 -0.3
v 0.1 2.3 0.2
v 0.1 2.3 -0.3
v 0.1 2.7 0.2
v 0.1 2.7 -0.3
v 0.2 2 0.3
v 0.2 2 -0.4
v 0.2 2.2 0.3
v 0.2 2.2 -0.4
v -0.5 2 0.3
v -0.5 2.2 0.3
v 0.2 2 0.3
v 0.2 2.2 0.3
v -0.4 2.2 0.2
v -0.4 2.3 0.2
v -0.4 2.7 0.2
v -0.2 2.2 0.2
v -0.2 2.3 0.2
v -0.1 2.2 0.2
v -0.1 2.3 0.2
v 0.1 2.2 0.2
v 0.1 2.3 0.2
v 0.1 2.7 0.2
v -0.4 2.2 -0.3
v -0.4 2.3 -0.3
v -0.4 2.7 -0.3
v 0.1 2.2 -0.3
v 0.1 2.3 -0.3
v 0.1 2.7 -0.3
v -0.5 2 -0.4
v -0.5 2.2 -0.4
v 0.2 2 -0.4
v 0.2 2.2 -0.4
v -0.5 2 0.3
v 0.2 2 0.3
v -0.5 2 -0.4
v 0.2 2 -0.4
v -0.5 2.2 0.3
v 0.2 2.2 0.3
v -0.4 2.2 0.2
v -0.2 2.2 0.2
v -0.1 2.2 0.2
v 0.1 2.2 0.2
v -0.4 2.2 -0.3
v 0.1 2.2 -0.3
v -0.5 2.2 -0.4
v 0.2 2.2 -0.4
v -0.4 2.7 0.2
v 0.1 2.7 0.2
v -0.4 2.7 -0.3
v 0.1 2.7 -0.3

# faces
f 3/5/1 2/5/1 1/5/1
f 4/5/1 2/5/1 3/5/1
f 7/1/1 6/1/1 5/1/1
f 8/1/1 6/1/1 7/1/1
f 9/5/1 8/5/1 7/5/1
f 10/5/1 8/5/1 9/5/1
f 11/1/2 12/1/2 13/1/2
f 13/1/2 12/1/2 14/1/2
f 13/5/2 14/5/2 15/5/2
f 15/5/2 14/5/2 16/5/2
f 17/5/2 18/5/2 19/5/2
f 19/5/2 18/5/2 20/5/2
f 23/5/3 22/5/3 21/5/3
f 24/5/3 22/5/3 23/5/3
f 28/1/3 26/1/3 25/1/3
f 29/5/3 27/5/3 26/5/3
f 29/1/3 26/1/3 28/1/3
f 30/4/3 29/4/3 28/4/3
f 31/5/3 27/5/3 29/5/3
f 31/4/3 29/4/3 30/4/3
f 32/1/3 31/1/3 30/1/3
f 33/5/3 27/5/3 31/5/3
f 33/1/3 31/1/3 32/1/3
f 34/5/3 27/5/3 33/5/3
f 35/1/4 36/1/4 38/1/4
f 36/5/4 37/5/4 39/5/4
f 38/1/4 36/1/4 39/1/4
f 39/5/4 37/5/4 40/5/4
f 41/5/4 42/5/4 43/5/4
f 43/5/4 42/5/4 44/5/4
f 47/5/5 46/5/5 45/5/5
f 48/5/5 46/5/5 47/5/5
f 49/5/6 50/5/6 51/5/6
f 51/5/6 50/5/6 52/5/6
f 52/5/6 50/5/6 53/5/6
f 53/5/6 50/5/6 54/5/6
f 49/5/6 51/5/6 55/5/6
f 54/5/6 50/5/6 56/5/6
f 49/5/6 55/5/6 57/5/6
f 55/5/6 56/5/6 57/5/6
f 56/5/6 50/5/6 58/5/6
f 57/5/6 56/5/6 58/5/6
f 59/5/6 60/5/6 61/5/6
f 61/5/6 60/5/6 62/5/6
