# MagicaVoxel @ Ephtracy

# group
o 

# material
mtllib Yeti_Black.mtl
usemtl palette

# normals
vn -1 0 0
vn 1 0 0
vn 0 0 1
vn 0 0 -1
vn 0 -1 0
vn 0 1 0

# texcoords
vt 0.181641 0.5
vt 0.232422 0.5
vt 0.271484 0.5
vt 0.369141 0.5
vt 0.537109 0.5
vt 0.552734 0.5
vt 0.826172 0.5
vt 0.888672 0.5
vt 0.958984 0.5
vt 0.966797 0.5
vt 0.978516 0.5
vt 0.986328 0.5
vt 0.990234 0.5
vt 0.994141 0.5

# verts
v -0.9 0.5 0.1
v -0.9 0.5 -2.98023e-08
v -0.9 0.5 -0.1
v -0.9 0.5 -0.2
v -0.9 0.5 -0.3
v -0.9 0.6 0.1
v -0.9 0.6 -2.98023e-08
v -0.9 0.6 -0.1
v -0.9 0.6 -0.2
v -0.9 0.6 -0.3
v -0.9 0.7 0.1
v -0.9 0.7 -0.3
v -0.9 1.2 0.1
v -0.9 1.2 -0.3
v -0.9 1.3 0.1
v -0.9 1.3 -0.3
v -0.9 1.4 0.1
v -0.9 1.4 -0.3
v -0.6 0 0.2
v -0.6 0 -2.98023e-08
v -0.6 0 -0.1
v -0.6 0 -0.3
v -0.6 0.1 0.2
v -0.6 0.1 0.1
v -0.6 0.1 -2.98023e-08
v -0.6 0.1 -0.1
v -0.6 0.2 0.1
v -0.6 0.2 -2.98023e-08
v -0.6 0.5 0.2
v -0.6 0.5 0.1
v -0.6 0.5 -0.3
v -0.6 0.5 -0.4
v -0.6 0.7 0.1
v -0.6 0.7 -0.3
v -0.6 0.8 0.1
v -0.6 0.8 -0.3
v -0.6 0.9 0.2
v -0.6 0.9 0.1
v -0.6 0.9 -0.3
v -0.6 0.9 -0.4
v -0.6 1 0.2
v -0.6 1 0.1
v -0.6 1 -0.3
v -0.6 1 -0.4
v -0.6 1.1 0.1
v -0.6 1.1 -0.3
v -0.6 1.2 0.1
v -0.6 1.2 -0.3
v -0.6 1.4 0.1
v -0.6 1.4 -0.3
v -0.6 1.9 0.2
v -0.6 1.9 0.1
v -0.6 1.9 -2.98023e-08
v -0.6 1.9 -0.4
v -0.6 2 0.1
v -0.6 2 -2.98023e-08
v -0.6 2.1 0.1
v -0.6 2.1 -2.98023e-08
v -0.5 1.3 0.3
v -0.5 1.3 0.2
v -0.5 1.3 -0.4
v -0.5 1.3 -0.5
v -0.5 1.9 0.3
v -0.5 1.9 0.2
v -0.5 1.9 0.1
v -0.5 1.9 -2.98023e-08
v -0.5 1.9 -0.4
v -0.5 1.9 -0.5
v -0.5 2 0.2
v -0.5 2 0.1
v -0.5 2 -2.98023e-08
v -0.5 2 -0.4
v -0.1 0 0.2
v -0.1 0 -2.98023e-08
v -0.1 0 -0.1
v -0.1 0 -0.3
v -0.1 0.1 0.2
v -0.1 0.1 0.1
v -0.1 0.1 -2.98023e-08
v -0.1 0.1 -0.1
v -0.1 0.2 0.1
v -0.1 0.2 -2.98023e-08
v -0.1 0.5 0.1
v -0.1 0.5 -0.3
v 0.1 2 0.1
v 0.1 2 -2.98023e-08
v 0.1 2.1 0.1
v 0.1 2.1 -2.98023e-08
v -0.4 2 0.1
v -0.4 2 -2.98023e-08
v -0.4 2.1 0.1
v -0.4 2.1 -2.98023e-08
v -0.2 0 0.2
v -0.2 0 0.1
v -0.2 0 -2.98023e-08
v -0.2 0 -0.1
v -0.2 0 -0.3
v -0.2 0.1 0.2
v -0.2 0.1 0.1
v -0.2 0.1 -2.98023e-08
v -0.2 0.1 -0.1
v -0.2 0.2 0.1
v -0.2 0.2 -2.98023e-08
v -0.2 0.5 0.1
v -0.2 0.5 -0.3
v 0.2 1.3 0.3
v 0.2 1.3 0.2
v 0.2 1.3 -0.4
v 0.2 1.3 -0.5
v 0.2 1.9 0.3
v 0.2 1.9 0.2
v 0.2 1.9 0.1
v 0.2 1.9 -2.98023e-08
v 0.2 1.9 -0.4
v 0.2 1.9 -0.5
v 0.2 2 0.2
v 0.2 2 0.1
v 0.2 2 -2.98023e-08
v 0.2 2 -0.4
v 0.3 0 0.2
v 0.3 0 0.1
v 0.3 0 -2.98023e-08
v 0.3 0 -0.1
v 0.3 0 -0.3
v 0.3 0.1 0.2
v 0.3 0.1 0.1
v 0.3 0.1 -2.98023e-08
v 0.3 0.1 -0.1
v 0.3 0.2 0.1
v 0.3 0.2 -2.98023e-08
v 0.3 0.5 0.2
v 0.3 0.5 0.1
v 0.3 0.5 -0.3
v 0.3 0.5 -0.4
v 0.3 0.7 0.1
v 0.3 0.7 -0.3
v 0.3 0.8 0.1
v 0.3 0.8 -0.3
v 0.3 1.1 0.1
v 0.3 1.1 -0.3
v 0.3 1.2 0.2
v 0.3 1.2 0.1
v 0.3 1.2 -0.3
v 0.3 1.2 -0.4
v 0.3 1.3 0.2
v 0.3 1.3 0.1
v 0.3 1.3 -0.3
v 0.3 1.3 -0.4
v 0.3 1.4 0.1
v 0.3 1.4 -0.3
v 0.3 1.9 0.2
v 0.3 1.9 0.1
v 0.3 1.9 -2.98023e-08
v 0.3 1.9 -0.4
v 0.3 2 0.1
v 0.3 2 -2.98023e-08
v 0.3 2.1 0.1
v 0.3 2.1 -2.98023e-08
v 0.6 0.5 0.1
v 0.6 0.5 -2.98023e-08
v 0.6 0.5 -0.1
v 0.6 0.5 -0.2
v 0.6 0.5 -0.3
v 0.6 0.6 0.1
v 0.6 0.6 -2.98023e-08
v 0.6 0.6 -0.1
v 0.6 0.6 -0.2
v 0.6 0.6 -0.3
v 0.6 0.7 0.1
v 0.6 0.7 -0.3
v 0.6 1.2 0.1
v 0.6 1.2 -0.3
v 0.6 1.3 0.1
v 0.6 1.3 -0.3
v 0.6 1.4 0.1
v 0.6 1.4 -0.3
v -0.5 1.3 0.3
v -0.5 1.9 0.3
v -0.3 1.6 0.3
v -0.3 1.8 0.3
v -0.2 1.6 0.3
v -0.2 1.8 0.3
v -0.1 1.6 0.3
v -0.1 1.8 0.3
v 0 1.6 0.3
v 0 1.8 0.3
v 0.2 1.3 0.3
v 0.2 1.9 0.3
v -0.6 0 0.2
v -0.6 0.1 0.2
v -0.6 0.5 0.2
v -0.6 0.9 0.2
v -0.6 1 0.2
v -0.6 1.9 0.2
v -0.5 0 0.2
v -0.5 0.1 0.2
v -0.5 0.8 0.2
v -0.5 0.9 0.2
v -0.5 1 0.2
v -0.5 1.3 0.2
v -0.5 1.9 0.2
v -0.5 2 0.2
v -0.4 0 0.2
v -0.4 0.1 0.2
v -0.3 0 0.2
v -0.3 0.1 0.2
v -0.2 0 0.2
v -0.2 0.1 0.2
v -0.2 0.8 0.2
v -0.2 0.9 0.2
v -0.2 1 0.2
v -0.1 0 0.2
v -0.1 0.1 0.2
v -0.1 0.9 0.2
v -0.1 1 0.2
v -0.1 1.1 0.2
v 0 0 0.2
v 0 0.1 0.2
v 0 1 0.2
v 0 1.1 0.2
v 0 1.2 0.2
v 0.1 0 0.2
v 0.1 0.1 0.2
v 0.2 0 0.2
v 0.2 0.1 0.2
v 0.2 1.1 0.2
v 0.2 1.2 0.2
v 0.2 1.3 0.2
v 0.2 1.9 0.2
v 0.2 2 0.2
v 0.3 0 0.2
v 0.3 0.1 0.2
v 0.3 0.5 0.2
v 0.3 1.2 0.2
v 0.3 1.3 0.2
v 0.3 1.9 0.2
v -0.9 0.5 0.1
v -0.9 0.6 0.1
v -0.9 0.7 0.1
v -0.9 1.2 0.1
v -0.9 1.3 0.1
v -0.9 1.4 0.1
v -0.8 0.5 0.1
v -0.8 0.6 0.1
v -0.8 0.7 0.1
v -0.8 0.8 0.1
v -0.8 1.1 0.1
v -0.8 1.2 0.1
v -0.8 1.3 0.1
v -0.7 0.5 0.1
v -0.7 0.6 0.1
v -0.6 0.1 0.1
v -0.6 0.2 0.1
v -0.6 0.5 0.1
v -0.6 0.7 0.1
v -0.6 0.8 0.1
v -0.6 0.9 0.1
v -0.6 1 0.1
v -0.6 1.1 0.1
v -0.6 1.2 0.1
v -0.6 1.4 0.1
v -0.6 1.9 0.1
v -0.6 2 0.1
v -0.6 2.1 0.1
v -0.5 0.1 0.1
v -0.5 1.9 0.1
v -0.5 2 0.1
v -0.5 2.1 0.1
v -0.4 0.1 0.1
v -0.4 2 0.1
v -0.4 2.1 0.1
v -0.3 0.1 0.1
v -0.2 0.1 0.1
v -0.2 0.2 0.1
v -0.2 0.5 0.1
v -0.1 0.1 0.1
v -0.1 0.2 0.1
v -0.1 0.5 0.1
v 0 0.1 0.1
v 0.1 0.1 0.1
v 0.1 2 0.1
v 0.1 2.1 0.1
v 0.2 0.1 0.1
v 0.2 1.9 0.1
v 0.2 2 0.1
v 0.2 2.1 0.1
v 0.3 0.1 0.1
v 0.3 0.2 0.1
v 0.3 0.5 0.1
v 0.3 0.7 0.1
v 0.3 0.8 0.1
v 0.3 1.1 0.1
v 0.3 1.2 0.1
v 0.3 1.3 0.1
v 0.3 1.4 0.1
v 0.3 1.9 0.1
v 0.3 2 0.1
v 0.3 2.1 0.1
v 0.4 0.5 0.1
v 0.4 0.6 0.1
v 0.5 0.5 0.1
v 0.5 0.6 0.1
v 0.5 0.7 0.1
v 0.5 0.8 0.1
v 0.5 1.1 0.1
v 0.5 1.2 0.1
v 0.5 1.3 0.1
v 0.6 0.5 0.1
v 0.6 0.6 0.1
v 0.6 0.7 0.1
v 0.6 1.2 0.1
v 0.6 1.3 0.1
v 0.6 1.4 0.1
v -0.6 1.9 -2.98023e-08
v -0.6 2 -2.98023e-08
v -0.6 2.1 -2.98023e-08
v -0.5 1.9 -2.98023e-08
v -0.5 2 -2.98023e-08
v -0.5 2.1 -2.98023e-08
v -0.4 2 -2.98023e-08
v -0.4 2.1 -2.98023e-08
v 0.1 2 -2.98023e-08
v 0.1 2.1 -2.98023e-08
v 0.2 1.9 -2.98023e-08
v 0.2 2 -2.98023e-08
v 0.2 2.1 -2.98023e-08
v 0.3 1.9 -2.98023e-08
v 0.3 2 -2.98023e-08
v 0.3 2.1 -2.98023e-08
v -0.9 0.5 -0.3
v -0.9 0.6 -0.3
v -0.9 0.7 -0.3
v -0.9 1.2 -0.3
v -0.9 1.3 -0.3
v -0.9 1.4 -0.3
v -0.8 0.5 -0.3
v -0.8 0.6 -0.3
v -0.8 0.7 -0.3
v -0.8 0.8 -0.3
v -0.8 1.1 -0.3
v -0.8 1.2 -0.3
v -0.8 1.3 -0.3
v -0.6 0 -0.3
v -0.6 0.5 -0.3
v -0.6 0.7 -0.3
v -0.6 0.8 -0.3
v -0.6 0.9 -0.3
v -0.6 1 -0.3
v -0.6 1.1 -0.3
v -0.6 1.2 -0.3
v -0.6 1.4 -0.3
v -0.2 0 -0.3
v -0.2 0.5 -0.3
v -0.1 0 -0.3
v -0.1 0.5 -0.3
v 0.3 0 -0.3
v 0.3 0.5 -0.3
v 0.3 0.7 -0.3
v 0.3 0.8 -0.3
v 0.3 1.1 -0.3
v 0.3 1.2 -0.3
v 0.3 1.3 -0.3
v 0.3 1.4 -0.3
v 0.5 0.5 -0.3
v 0.5 0.6 -0.3
v 0.5 0.7 -0.3
v 0.5 0.8 -0.3
v 0.5 1.1 -0.3
v 0.5 1.2 -0.3
v 0.5 1.3 -0.3
v 0.6 0.5 -0.3
v 0.6 0.6 -0.3
v 0.6 0.7 -0.3
v 0.6 1.2 -0.3
v 0.6 1.3 -0.3
v 0.6 1.4 -0.3
v -0.6 0.5 -0.4
v -0.6 0.9 -0.4
v -0.6 1 -0.4
v -0.6 1.9 -0.4
v -0.5 0.8 -0.4
v -0.5 0.9 -0.4
v -0.5 1 -0.4
v -0.5 1.3 -0.4
v -0.5 1.9 -0.4
v -0.5 2 -0.4
v -0.2 0.8 -0.4
v -0.2 0.9 -0.4
v -0.2 1 -0.4
v -0.1 0.9 -0.4
v -0.1 1 -0.4
v -0.1 1.1 -0.4
v 0 1 -0.4
v 0 1.1 -0.4
v 0 1.2 -0.4
v 0.2 1.1 -0.4
v 0.2 1.2 -0.4
v 0.2 1.3 -0.4
v 0.2 1.9 -0.4
v 0.2 2 -0.4
v 0.3 0.5 -0.4
v 0.3 1.2 -0.4
v 0.3 1.3 -0.4
v 0.3 1.9 -0.4
v -0.5 1.3 -0.5
v -0.5 1.9 -0.5
v 0.2 1.3 -0.5
v 0.2 1.9 -0.5
v -0.6 0 0.2
v -0.5 0 0.2
v -0.4 0 0.2
v -0.3 0 0.2
v -0.2 0 0.2
v -0.1 0 0.2
v 0 0 0.2
v 0.1 0 0.2
v 0.2 0 0.2
v 0.3 0 0.2
v -0.5 0 0.1
v -0.4 0 0.1
v -0.3 0 0.1
v -0.2 0 0.1
v 0 0 0.1
v 0.1 0 0.1
v 0.2 0 0.1
v 0.3 0 0.1
v -0.6 0 -2.98023e-08
v -0.2 0 -2.98023e-08
v -0.1 0 -2.98023e-08
v 0.3 0 -2.98023e-08
v -0.6 0 -0.1
v -0.2 0 -0.1
v -0.1 0 -0.1
v 0.3 0 -0.1
v -0.6 0 -0.3
v -0.2 0 -0.3
v -0.1 0 -0.3
v 0.3 0 -0.3
v -0.6 0.5 0.2
v 0.3 0.5 0.2
v -0.9 0.5 0.1
v -0.8 0.5 0.1
v -0.7 0.5 0.1
v -0.6 0.5 0.1
v -0.2 0.5 0.1
v -0.1 0.5 0.1
v 0.3 0.5 0.1
v 0.4 0.5 0.1
v 0.5 0.5 0.1
v 0.6 0.5 0.1
v -0.9 0.5 -2.98023e-08
v -0.8 0.5 -2.98023e-08
v -0.7 0.5 -2.98023e-08
v 0.4 0.5 -2.98023e-08
v 0.5 0.5 -2.98023e-08
v 0.6 0.5 -2.98023e-08
v -0.9 0.5 -0.1
v -0.8 0.5 -0.1
v 0.5 0.5 -0.1
v 0.6 0.5 -0.1
v -0.9 0.5 -0.2
v -0.8 0.5 -0.2
v 0.5 0.5 -0.2
v 0.6 0.5 -0.2
v -0.9 0.5 -0.3
v -0.8 0.5 -0.3
v -0.6 0.5 -0.3
v -0.2 0.5 -0.3
v -0.1 0.5 -0.3
v 0.3 0.5 -0.3
v 0.5 0.5 -0.3
v 0.6 0.5 -0.3
v -0.6 0.5 -0.4
v 0.3 0.5 -0.4
v -0.5 1.3 0.3
v 0.2 1.3 0.3
v -0.5 1.3 0.2
v 0.2 1.3 0.2
v -0.5 1.3 -0.4
v 0.2 1.3 -0.4
v -0.5 1.3 -0.5
v 0.2 1.3 -0.5
v -0.6 0.1 0.2
v -0.5 0.1 0.2
v -0.4 0.1 0.2
v -0.3 0.1 0.2
v -0.2 0.1 0.2
v -0.1 0.1 0.2
v 0 0.1 0.2
v 0.1 0.1 0.2
v 0.2 0.1 0.2
v 0.3 0.1 0.2
v -0.6 0.1 0.1
v -0.5 0.1 0.1
v -0.4 0.1 0.1
v -0.3 0.1 0.1
v -0.2 0.1 0.1
v -0.1 0.1 0.1
v 0 0.1 0.1
v 0.1 0.1 0.1
v 0.2 0.1 0.1
v 0.3 0.1 0.1
v -0.9 1.4 0.1
v -0.6 1.4 0.1
v 0.3 1.4 0.1
v 0.6 1.4 0.1
v -0.9 1.4 -0.3
v -0.6 1.4 -0.3
v 0.3 1.4 -0.3
v 0.6 1.4 -0.3
v -0.5 1.9 0.3
v 0.2 1.9 0.3
v -0.6 1.9 0.2
v -0.5 1.9 0.2
v 0.2 1.9 0.2
v 0.3 1.9 0.2
v -0.6 1.9 0.1
v -0.5 1.9 0.1
v 0.2 1.9 0.1
v 0.3 1.9 0.1
v -0.6 1.9 -2.98023e-08
v -0.5 1.9 -2.98023e-08
v 0.2 1.9 -2.98023e-08
v 0.3 1.9 -2.98023e-08
v -0.6 1.9 -0.4
v -0.5 1.9 -0.4
v 0.2 1.9 -0.4
v 0.3 1.9 -0.4
v -0.5 1.9 -0.5
v 0.2 1.9 -0.5
v -0.5 2 0.2
v 0.2 2 0.2
v -0.5 2 0.1
v -0.4 2 0.1
v 0.1 2 0.1
v 0.2 2 0.1
v -0.5 2 -2.98023e-08
v -0.4 2 -2.98023e-08
v 0.1 2 -2.98023e-08
v 0.2 2 -2.98023e-08
v -0.5 2 -0.4
v 0.2 2 -0.4
v -0.6 2.1 0.1
v -0.5 2.1 0.1
v -0.4 2.1 0.1
v 0.1 2.1 0.1
v 0.2 2.1 0.1
v 0.3 2.1 0.1
v -0.6 2.1 -2.98023e-08
v -0.5 2.1 -2.98023e-08
v -0.4 2.1 -2.98023e-08
v 0.1 2.1 -2.98023e-08
v 0.2 2.1 -2.98023e-08
v 0.3 2.1 -2.98023e-08

# faces
f 6/10/1 2/10/1 1/10/1
f 7/9/1 3/9/1 2/9/1
f 7/10/1 2/10/1 6/10/1
f 8/10/1 4/10/1 3/10/1
f 8/9/1 3/9/1 7/9/1
f 9/9/1 5/9/1 4/9/1
f 9/10/1 4/10/1 8/10/1
f 10/9/1 5/9/1 9/9/1
f 11/12/1 8/12/1 7/12/1
f 11/12/1 7/12/1 6/12/1
f 11/12/1 10/12/1 9/12/1
f 11/12/1 9/12/1 8/12/1
f 12/12/1 10/12/1 11/12/1
f 13/13/1 12/13/1 11/13/1
f 14/13/1 12/13/1 13/13/1
f 15/12/1 14/12/1 13/12/1
f 16/12/1 14/12/1 15/12/1
f 17/11/1 16/11/1 15/11/1
f 18/11/1 16/11/1 17/11/1
f 23/9/1 20/9/1 19/9/1
f 24/9/1 20/9/1 23/9/1
f 25/12/1 21/12/1 20/12/1
f 25/9/1 20/9/1 24/9/1
f 26/13/1 22/13/1 21/13/1
f 26/12/1 21/12/1 25/12/1
f 27/12/1 25/12/1 24/12/1
f 28/13/1 26/13/1 25/13/1
f 28/12/1 25/12/1 27/12/1
f 30/13/1 28/13/1 27/13/1
f 31/13/1 22/13/1 26/13/1
f 31/13/1 26/13/1 28/13/1
f 31/13/1 28/13/1 30/13/1
f 33/13/1 30/13/1 29/13/1
f 34/13/1 32/13/1 31/13/1
f 35/13/1 33/13/1 29/13/1
f 36/13/1 32/13/1 34/13/1
f 37/13/1 35/13/1 29/13/1
f 38/13/1 35/13/1 37/13/1
f 39/13/1 32/13/1 36/13/1
f 40/13/1 32/13/1 39/13/1
f 41/12/1 38/12/1 37/12/1
f 42/12/1 38/12/1 41/12/1
f 43/12/1 40/12/1 39/12/1
f 44/12/1 40/12/1 43/12/1
f 45/11/1 42/11/1 41/11/1
f 46/11/1 44/11/1 43/11/1
f 47/11/1 45/11/1 41/11/1
f 48/11/1 44/11/1 46/11/1
f 49/11/1 47/11/1 41/11/1
f 50/11/1 44/11/1 48/11/1
f 51/11/1 49/11/1 41/11/1
f 51/11/1 50/11/1 49/11/1
f 52/11/1 50/11/1 51/11/1
f 53/11/1 50/11/1 52/11/1
f 54/11/1 44/11/1 50/11/1
f 54/11/1 50/11/1 53/11/1
f 55/10/1 53/10/1 52/10/1
f 56/10/1 53/10/1 55/10/1
f 57/9/1 56/9/1 55/9/1
f 58/9/1 56/9/1 57/9/1
f 63/10/1 60/10/1 59/10/1
f 64/10/1 60/10/1 63/10/1
f 67/11/1 62/11/1 61/11/1
f 68/11/1 62/11/1 67/11/1
f 69/11/1 65/11/1 64/11/1
f 70/11/1 65/11/1 69/11/1
f 71/11/1 67/11/1 66/11/1
f 72/11/1 67/11/1 71/11/1
f 77/9/1 74/9/1 73/9/1
f 78/9/1 74/9/1 77/9/1
f 79/12/1 75/12/1 74/12/1
f 79/9/1 74/9/1 78/9/1
f 80/13/1 76/13/1 75/13/1
f 80/12/1 75/12/1 79/12/1
f 81/12/1 79/12/1 78/12/1
f 82/13/1 80/13/1 79/13/1
f 82/12/1 79/12/1 81/12/1
f 83/13/1 82/13/1 81/13/1
f 84/13/1 76/13/1 80/13/1
f 84/13/1 82/13/1 83/13/1
f 84/13/1 80/13/1 82/13/1
f 87/10/1 86/10/1 85/10/1
f 88/10/1 86/10/1 87/10/1
f 89/10/2 90/10/2 91/10/2
f 91/10/2 90/10/2 92/10/2
f 93/10/2 94/10/2 98/10/2
f 94/9/2 95/9/2 99/9/2
f 98/10/2 94/10/2 99/10/2
f 95/12/2 96/12/2 100/12/2
f 99/9/2 95/9/2 100/9/2
f 96/13/2 97/13/2 101/13/2
f 100/12/2 96/12/2 101/12/2
f 99/12/2 100/12/2 102/12/2
f 100/13/2 101/13/2 103/13/2
f 102/12/2 100/12/2 103/12/2
f 102/13/2 103/13/2 104/13/2
f 101/13/2 97/13/2 105/13/2
f 104/13/2 103/13/2 105/13/2
f 103/13/2 101/13/2 105/13/2
f 106/10/2 107/10/2 110/10/2
f 110/10/2 107/10/2 111/10/2
f 108/11/2 109/11/2 114/11/2
f 114/11/2 109/11/2 115/11/2
f 111/11/2 112/11/2 116/11/2
f 116/11/2 112/11/2 117/11/2
f 113/11/2 114/11/2 118/11/2
f 118/11/2 114/11/2 119/11/2
f 120/10/2 121/10/2 125/10/2
f 121/9/2 122/9/2 126/9/2
f 125/10/2 121/10/2 126/10/2
f 122/12/2 123/12/2 127/12/2
f 126/9/2 122/9/2 127/9/2
f 123/13/2 124/13/2 128/13/2
f 127/12/2 123/12/2 128/12/2
f 126/12/2 127/12/2 129/12/2
f 127/13/2 128/13/2 130/13/2
f 129/12/2 127/12/2 130/12/2
f 129/13/2 130/13/2 132/13/2
f 128/13/2 124/13/2 133/13/2
f 130/13/2 128/13/2 133/13/2
f 132/13/2 130/13/2 133/13/2
f 131/13/2 132/13/2 135/13/2
f 133/13/2 134/13/2 136/13/2
f 131/13/2 135/13/2 137/13/2
f 136/13/2 134/13/2 138/13/2
f 131/13/2 137/13/2 139/13/2
f 138/13/2 134/13/2 140/13/2
f 131/13/2 139/13/2 141/13/2
f 141/13/2 139/13/2 142/13/2
f 140/13/2 134/13/2 143/13/2
f 143/13/2 134/13/2 144/13/2
f 141/12/2 142/12/2 145/12/2
f 145/12/2 142/12/2 146/12/2
f 143/12/2 144/12/2 147/12/2
f 147/12/2 144/12/2 148/12/2
f 145/11/2 146/11/2 149/11/2
f 147/11/2 148/11/2 150/11/2
f 145/11/2 149/11/2 151/11/2
f 149/11/2 150/11/2 151/11/2
f 151/11/2 150/11/2 152/11/2
f 152/11/2 150/11/2 153/11/2
f 150/11/2 148/11/2 154/11/2
f 153/11/2 150/11/2 154/11/2
f 152/10/2 153/10/2 155/10/2
f 155/10/2 153/10/2 156/10/2
f 155/9/2 156/9/2 157/9/2
f 157/9/2 156/9/2 158/9/2
f 159/10/2 160/10/2 164/10/2
f 160/9/2 161/9/2 165/9/2
f 164/10/2 160/10/2 165/10/2
f 161/10/2 162/10/2 166/10/2
f 165/9/2 161/9/2 166/9/2
f 162/9/2 163/9/2 167/9/2
f 166/10/2 162/10/2 167/10/2
f 167/9/2 163/9/2 168/9/2
f 165/12/2 166/12/2 169/12/2
f 164/12/2 165/12/2 169/12/2
f 167/12/2 168/12/2 169/12/2
f 166/12/2 167/12/2 169/12/2
f 169/12/2 168/12/2 170/12/2
f 169/13/2 170/13/2 171/13/2
f 171/13/2 170/13/2 172/13/2
f 171/12/2 172/12/2 173/12/2
f 173/12/2 172/12/2 174/12/2
f 173/11/2 174/11/2 175/11/2
f 175/11/2 174/11/2 176/11/2
f 179/10/3 178/10/3 177/10/3
f 180/10/3 178/10/3 179/10/3
f 181/10/3 179/10/3 177/10/3
f 181/14/3 180/14/3 179/14/3
f 182/10/3 178/10/3 180/10/3
f 182/14/3 180/14/3 181/14/3
f 183/10/3 181/10/3 177/10/3
f 183/10/3 182/10/3 181/10/3
f 184/10/3 178/10/3 182/10/3
f 184/10/3 182/10/3 183/10/3
f 185/10/3 183/10/3 177/10/3
f 185/14/3 184/14/3 183/14/3
f 186/10/3 178/10/3 184/10/3
f 186/14/3 184/14/3 185/14/3
f 187/10/3 185/10/3 177/10/3
f 187/10/3 186/10/3 185/10/3
f 188/10/3 178/10/3 186/10/3
f 188/10/3 186/10/3 187/10/3
f 195/9/3 190/9/3 189/9/3
f 196/9/3 190/9/3 195/9/3
f 197/13/3 192/13/3 191/13/3
f 198/12/3 193/12/3 192/12/3
f 198/13/3 192/13/3 197/13/3
f 199/11/3 194/11/3 193/11/3
f 199/12/3 193/12/3 198/12/3
f 200/11/3 194/11/3 199/11/3
f 201/11/3 194/11/3 200/11/3
f 203/10/3 196/10/3 195/10/3
f 204/10/3 196/10/3 203/10/3
f 205/9/3 204/9/3 203/9/3
f 206/9/3 204/9/3 205/9/3
f 207/10/3 206/10/3 205/10/3
f 208/10/3 206/10/3 207/10/3
f 209/12/3 198/12/3 197/12/3
f 209/13/3 197/13/3 191/13/3
f 210/11/3 199/11/3 198/11/3
f 210/12/3 198/12/3 209/12/3
f 210/11/3 200/11/3 199/11/3
f 211/11/3 200/11/3 210/11/3
f 214/13/3 210/13/3 209/13/3
f 214/12/3 211/12/3 210/12/3
f 215/11/3 200/11/3 211/11/3
f 215/12/3 211/12/3 214/12/3
f 216/11/3 200/11/3 215/11/3
f 217/9/3 213/9/3 212/9/3
f 218/9/3 213/9/3 217/9/3
f 219/13/3 215/13/3 214/13/3
f 219/12/3 216/12/3 215/12/3
f 220/11/3 200/11/3 216/11/3
f 220/12/3 216/12/3 219/12/3
f 221/11/3 200/11/3 220/11/3
f 222/10/3 218/10/3 217/10/3
f 223/10/3 218/10/3 222/10/3
f 224/9/3 223/9/3 222/9/3
f 225/9/3 223/9/3 224/9/3
f 226/13/3 220/13/3 219/13/3
f 226/12/3 221/12/3 220/12/3
f 227/11/3 200/11/3 221/11/3
f 227/12/3 221/12/3 226/12/3
f 228/11/3 200/11/3 227/11/3
f 229/11/3 202/11/3 201/11/3
f 230/11/3 202/11/3 229/11/3
f 231/10/3 225/10/3 224/10/3
f 232/10/3 225/10/3 231/10/3
f 233/13/3 214/13/3 209/13/3
f 233/13/3 209/13/3 191/13/3
f 233/13/3 219/13/3 214/13/3
f 233/13/3 226/13/3 219/13/3
f 233/13/3 227/13/3 226/13/3
f 234/12/3 228/12/3 227/12/3
f 234/13/3 227/13/3 233/13/3
f 235/11/3 229/11/3 228/11/3
f 235/12/3 228/12/3 234/12/3
f 236/11/3 229/11/3 235/11/3
f 243/10/3 238/10/3 237/10/3
f 244/12/3 239/12/3 238/12/3
f 244/10/3 238/10/3 243/10/3
f 245/13/3 240/13/3 239/13/3
f 245/12/3 239/12/3 244/12/3
f 246/13/3 240/13/3 245/13/3
f 247/13/3 240/13/3 246/13/3
f 248/12/3 241/12/3 240/12/3
f 248/13/3 240/13/3 247/13/3
f 249/11/3 242/11/3 241/11/3
f 249/12/3 241/12/3 248/12/3
f 250/9/3 244/9/3 243/9/3
f 251/10/3 245/10/3 244/10/3
f 251/9/3 244/9/3 250/9/3
f 254/10/3 251/10/3 250/10/3
f 255/12/3 246/12/3 245/12/3
f 255/10/3 245/10/3 251/10/3
f 255/10/3 251/10/3 254/10/3
f 256/13/3 247/13/3 246/13/3
f 256/12/3 246/12/3 255/12/3
f 257/13/3 247/13/3 256/13/3
f 258/13/3 247/13/3 257/13/3
f 259/12/3 248/12/3 247/12/3
f 259/13/3 247/13/3 258/13/3
f 260/11/3 249/11/3 248/11/3
f 260/12/3 248/12/3 259/12/3
f 261/11/3 242/11/3 249/11/3
f 261/11/3 249/11/3 260/11/3
f 265/12/3 253/12/3 252/12/3
f 266/10/3 263/10/3 262/10/3
f 267/9/3 264/9/3 263/9/3
f 267/10/3 263/10/3 266/10/3
f 268/9/3 264/9/3 267/9/3
f 269/12/3 253/12/3 265/12/3
f 270/10/3 268/10/3 267/10/3
f 271/10/3 268/10/3 270/10/3
f 272/12/3 253/12/3 269/12/3
f 273/12/3 253/12/3 272/12/3
f 274/13/3 254/13/3 253/13/3
f 274/12/3 253/12/3 273/12/3
f 275/13/3 254/13/3 274/13/3
f 279/12/3 277/12/3 276/12/3
f 280/12/3 277/12/3 279/12/3
f 283/12/3 277/12/3 280/12/3
f 285/10/3 282/10/3 281/10/3
f 286/10/3 282/10/3 285/10/3
f 287/12/3 277/12/3 283/12/3
f 288/13/3 278/13/3 277/13/3
f 288/12/3 277/12/3 287/12/3
f 289/13/3 278/13/3 288/13/3
f 296/10/3 285/10/3 284/10/3
f 297/9/3 286/9/3 285/9/3
f 297/10/3 285/10/3 296/10/3
f 298/9/3 286/9/3 297/9/3
f 299/10/3 290/10/3 289/10/3
f 300/10/3 290/10/3 299/10/3
f 301/9/3 300/9/3 299/9/3
f 302/10/3 290/10/3 300/10/3
f 302/9/3 300/9/3 301/9/3
f 303/12/3 291/12/3 290/12/3
f 303/10/3 290/10/3 302/10/3
f 304/13/3 292/13/3 291/13/3
f 304/12/3 291/12/3 303/12/3
f 305/12/3 293/12/3 292/12/3
f 305/13/3 292/13/3 304/13/3
f 306/11/3 295/11/3 294/11/3
f 306/12/3 293/12/3 305/12/3
f 306/11/3 294/11/3 293/11/3
f 307/11/3 295/11/3 306/11/3
f 308/10/3 302/10/3 301/10/3
f 309/12/3 303/12/3 302/12/3
f 309/10/3 302/10/3 308/10/3
f 310/13/3 305/13/3 304/13/3
f 310/12/3 303/12/3 309/12/3
f 310/13/3 304/13/3 303/13/3
f 310/13/3 306/13/3 305/13/3
f 311/12/3 307/12/3 306/12/3
f 311/13/3 306/13/3 310/13/3
f 312/11/3 295/11/3 307/11/3
f 312/12/3 307/12/3 311/12/3
f 313/11/3 295/11/3 312/11/3
f 314/10/4 315/10/4 317/10/4
f 315/9/4 316/9/4 318/9/4
f 317/10/4 315/10/4 318/10/4
f 318/9/4 316/9/4 319/9/4
f 318/10/4 319/10/4 320/10/4
f 320/10/4 319/10/4 321/10/4
f 322/10/4 323/10/4 325/10/4
f 325/10/4 323/10/4 326/10/4
f 324/10/4 325/10/4 327/10/4
f 325/9/4 326/9/4 328/9/4
f 327/10/4 325/10/4 328/10/4
f 328/9/4 326/9/4 329/9/4
f 330/9/4 331/9/4 336/9/4
f 331/12/4 332/12/4 337/12/4
f 336/9/4 331/9/4 337/9/4
f 332/13/4 333/13/4 338/13/4
f 337/12/4 332/12/4 338/12/4
f 338/13/4 333/13/4 339/13/4
f 339/13/4 333/13/4 340/13/4
f 333/12/4 334/12/4 341/12/4
f 340/13/4 333/13/4 341/13/4
f 334/11/4 335/11/4 342/11/4
f 341/12/4 334/12/4 342/12/4
f 336/10/4 337/10/4 344/10/4
f 337/10/4 338/10/4 344/10/4
f 338/12/4 339/12/4 345/12/4
f 344/10/4 338/10/4 345/10/4
f 339/13/4 340/13/4 346/13/4
f 345/12/4 339/12/4 346/12/4
f 346/13/4 340/13/4 347/13/4
f 347/13/4 340/13/4 348/13/4
f 340/12/4 341/12/4 349/12/4
f 348/13/4 340/13/4 349/13/4
f 341/11/4 342/11/4 350/11/4
f 349/12/4 341/12/4 350/12/4
f 342/11/4 335/11/4 351/11/4
f 350/11/4 342/11/4 351/11/4
f 343/13/4 344/13/4 352/13/4
f 352/13/4 344/13/4 353/13/4
f 354/13/4 355/13/4 356/13/4
f 356/13/4 355/13/4 357/13/4
f 357/10/4 358/10/4 364/10/4
f 364/10/4 358/10/4 365/10/4
f 358/12/4 359/12/4 366/12/4
f 365/10/4 358/10/4 366/10/4
f 359/13/4 360/13/4 367/13/4
f 366/12/4 359/12/4 367/12/4
f 360/12/4 361/12/4 368/12/4
f 367/13/4 360/13/4 368/13/4
f 362/11/4 363/11/4 369/11/4
f 368/12/4 361/12/4 369/12/4
f 361/11/4 362/11/4 369/11/4
f 369/11/4 363/11/4 370/11/4
f 364/9/4 365/9/4 371/9/4
f 365/12/4 366/12/4 372/12/4
f 371/9/4 365/9/4 372/9/4
f 367/13/4 368/13/4 373/13/4
f 372/12/4 366/12/4 373/12/4
f 366/13/4 367/13/4 373/13/4
f 368/13/4 369/13/4 373/13/4
f 369/12/4 370/12/4 374/12/4
f 373/13/4 369/13/4 374/13/4
f 370/11/4 363/11/4 375/11/4
f 374/12/4 370/12/4 375/12/4
f 375/11/4 363/11/4 376/11/4
f 377/13/4 378/13/4 381/13/4
f 378/12/4 379/12/4 382/12/4
f 381/13/4 378/13/4 382/13/4
f 379/11/4 380/11/4 383/11/4
f 382/12/4 379/12/4 383/12/4
f 383/11/4 380/11/4 384/11/4
f 384/11/4 380/11/4 385/11/4
f 381/12/4 382/12/4 387/12/4
f 377/13/4 381/13/4 387/13/4
f 383/11/4 384/11/4 388/11/4
f 387/12/4 382/12/4 388/12/4
f 382/11/4 383/11/4 388/11/4
f 388/11/4 384/11/4 389/11/4
f 387/13/4 388/13/4 390/13/4
f 388/12/4 389/12/4 390/12/4
f 389/11/4 384/11/4 391/11/4
f 390/12/4 389/12/4 391/12/4
f 391/11/4 384/11/4 392/11/4
f 390/13/4 391/13/4 393/13/4
f 391/12/4 392/12/4 393/12/4
f 392/11/4 384/11/4 394/11/4
f 393/12/4 392/12/4 394/12/4
f 394/11/4 384/11/4 395/11/4
f 393/13/4 394/13/4 396/13/4
f 394/12/4 395/12/4 396/12/4
f 395/11/4 384/11/4 397/11/4
f 396/12/4 395/12/4 397/12/4
f 397/11/4 384/11/4 398/11/4
f 385/11/4 386/11/4 399/11/4
f 399/11/4 386/11/4 400/11/4
f 377/13/4 387/13/4 401/13/4
f 387/13/4 390/13/4 401/13/4
f 390/13/4 393/13/4 401/13/4
f 393/13/4 396/13/4 401/13/4
f 396/13/4 397/13/4 401/13/4
f 397/12/4 398/12/4 402/12/4
f 401/13/4 397/13/4 402/13/4
f 398/11/4 399/11/4 403/11/4
f 402/12/4 398/12/4 403/12/4
f 403/11/4 399/11/4 404/11/4
f 405/11/4 406/11/4 407/11/4
f 407/11/4 406/11/4 408/11/4
f 419/9/5 410/9/5 409/9/5
f 419/10/5 411/10/5 410/10/5
f 420/9/5 412/9/5 411/9/5
f 420/10/5 411/10/5 419/10/5
f 421/10/5 413/10/5 412/10/5
f 421/9/5 412/9/5 420/9/5
f 422/10/5 413/10/5 421/10/5
f 423/9/5 415/9/5 414/9/5
f 423/10/5 416/10/5 415/10/5
f 424/9/5 417/9/5 416/9/5
f 424/10/5 416/10/5 423/10/5
f 425/10/5 418/10/5 417/10/5
f 425/9/5 417/9/5 424/9/5
f 426/10/5 418/10/5 425/10/5
f 427/9/5 419/9/5 409/9/5
f 427/9/5 420/9/5 419/9/5
f 427/9/5 422/9/5 421/9/5
f 427/9/5 421/9/5 420/9/5
f 428/9/5 422/9/5 427/9/5
f 429/9/5 424/9/5 423/9/5
f 429/9/5 423/9/5 414/9/5
f 429/9/5 426/9/5 425/9/5
f 429/9/5 425/9/5 424/9/5
f 430/9/5 426/9/5 429/9/5
f 431/12/5 428/12/5 427/12/5
f 432/12/5 428/12/5 431/12/5
f 433/12/5 430/12/5 429/12/5
f 434/12/5 430/12/5 433/12/5
f 435/13/5 432/13/5 431/13/5
f 436/13/5 432/13/5 435/13/5
f 437/13/5 434/13/5 433/13/5
f 438/13/5 434/13/5 437/13/5
f 444/13/5 440/13/5 439/13/5
f 445/13/5 440/13/5 444/13/5
f 446/13/5 440/13/5 445/13/5
f 447/13/5 440/13/5 446/13/5
f 451/10/5 442/10/5 441/10/5
f 452/9/5 443/9/5 442/9/5
f 452/10/5 442/10/5 451/10/5
f 453/10/5 444/10/5 443/10/5
f 453/9/5 443/9/5 452/9/5
f 454/9/5 449/9/5 448/9/5
f 454/10/5 448/10/5 447/10/5
f 455/10/5 450/10/5 449/10/5
f 455/9/5 449/9/5 454/9/5
f 456/10/5 450/10/5 455/10/5
f 457/9/5 452/9/5 451/9/5
f 458/10/5 453/10/5 452/10/5
f 458/9/5 452/9/5 457/9/5
f 459/10/5 455/10/5 454/10/5
f 459/9/5 456/9/5 455/9/5
f 460/9/5 456/9/5 459/9/5
f 461/10/5 458/10/5 457/10/5
f 462/10/5 453/10/5 458/10/5
f 462/10/5 458/10/5 461/10/5
f 463/10/5 459/10/5 454/10/5
f 463/10/5 460/10/5 459/10/5
f 464/10/5 460/10/5 463/10/5
f 465/9/5 462/9/5 461/9/5
f 466/10/5 453/10/5 462/10/5
f 466/9/5 462/9/5 465/9/5
f 467/10/5 444/10/5 453/10/5
f 467/10/5 453/10/5 466/10/5
f 468/13/5 446/13/5 445/13/5
f 469/13/5 446/13/5 468/13/5
f 470/10/5 454/10/5 447/10/5
f 470/10/5 463/10/5 454/10/5
f 471/9/5 464/9/5 463/9/5
f 471/10/5 463/10/5 470/10/5
f 472/9/5 464/9/5 471/9/5
f 473/13/5 469/13/5 468/13/5
f 473/13/5 468/13/5 467/13/5
f 473/13/5 470/13/5 469/13/5
f 474/13/5 470/13/5 473/13/5
f 477/10/5 476/10/5 475/10/5
f 478/10/5 476/10/5 477/10/5
f 481/11/5 480/11/5 479/11/5
f 482/11/5 480/11/5 481/11/5
f 483/9/6 484/9/6 493/9/6
f 484/10/6 485/10/6 494/10/6
f 493/9/6 484/9/6 494/9/6
f 485/9/6 486/9/6 495/9/6
f 494/10/6 485/10/6 495/10/6
f 486/10/6 487/10/6 496/10/6
f 495/9/6 486/9/6 496/9/6
f 496/10/6 487/10/6 497/10/6
f 488/9/6 489/9/6 498/9/6
f 489/10/6 490/10/6 499/10/6
f 498/9/6 489/9/6 499/9/6
f 490/9/6 491/9/6 500/9/6
f 499/10/6 490/10/6 500/10/6
f 491/10/6 492/10/6 501/10/6
f 500/9/6 491/9/6 501/9/6
f 501/10/6 492/10/6 502/10/6
f 503/11/6 504/11/6 507/11/6
f 507/11/6 504/11/6 508/11/6
f 505/11/6 506/11/6 509/11/6
f 509/11/6 506/11/6 510/11/6
f 511/10/6 512/10/6 514/10/6
f 514/10/6 512/10/6 515/10/6
f 513/11/6 514/11/6 517/11/6
f 517/11/6 514/11/6 518/11/6
f 515/11/6 516/11/6 519/11/6
f 519/11/6 516/11/6 520/11/6
f 521/11/6 522/11/6 525/11/6
f 525/11/6 522/11/6 526/11/6
f 523/11/6 524/11/6 527/11/6
f 527/11/6 524/11/6 528/11/6
f 526/11/6 527/11/6 529/11/6
f 529/11/6 527/11/6 530/11/6
f 531/11/6 532/11/6 533/11/6
f 533/11/6 532/11/6 534/11/6
f 534/11/6 532/11/6 535/11/6
f 535/11/6 532/11/6 536/11/6
f 534/11/6 535/11/6 538/11/6
f 538/11/6 535/11/6 539/11/6
f 537/11/6 538/11/6 541/11/6
f 539/11/6 540/11/6 541/11/6
f 538/11/6 539/11/6 541/11/6
f 541/11/6 540/11/6 542/11/6
f 543/9/6 544/9/6 549/9/6
f 544/10/6 545/10/6 550/10/6
f 549/9/6 544/9/6 550/9/6
f 550/10/6 545/10/6 551/10/6
f 546/10/6 547/10/6 552/10/6
f 547/9/6 548/9/6 553/9/6
f 552/10/6 547/10/6 553/10/6
f 553/9/6 548/9/6 554/9/6
