# MagicaVoxel @ Ephtracy

# group
o 

# material
mtllib Yeti_GoldBlue.mtl
usemtl palette

# normals
vn -1 0 0
vn 1 0 0
vn 0 0 1
vn 0 0 -1
vn 0 -1 0
vn 0 1 0

# texcoords
vt 0.232422 0.5
vt 0.369141 0.5
vt 0.373047 0.5
vt 0.537109 0.5
vt 0.826172 0.5
vt 0.830078 0.5
vt 0.869141 0.5
vt 0.958984 0.5
vt 0.966797 0.5
vt 0.994141 0.5

# verts
v -0.9 0.5 0.1
v -0.9 0.5 -2.98023e-08
v -0.9 0.5 -0.1
v -0.9 0.5 -0.2
v -0.9 0.5 -0.3
v -0.9 0.6 0.1
v -0.9 0.6 -2.98023e-08
v -0.9 0.6 -0.1
v -0.9 0.6 -0.2
v -0.9 0.6 -0.3
v -0.9 0.7 0.1
v -0.9 0.7 -0.3
v -0.9 1.2 0.1
v -0.9 1.2 -0.3
v -0.9 1.3 0.1
v -0.9 1.3 -0.3
v -0.9 1.4 0.1
v -0.9 1.4 -0.3
v -0.6 0 0.2
v -0.6 0 -2.98023e-08
v -0.6 0 -0.1
v -0.6 0 -0.3
v -0.6 0.1 0.2
v -0.6 0.1 0.1
v -0.6 0.1 -2.98023e-08
v -0.6 0.1 -0.1
v -0.6 0.2 0.1
v -0.6 0.2 -2.98023e-08
v -0.6 0.5 0.2
v -0.6 0.5 0.1
v -0.6 0.5 -0.3
v -0.6 0.5 -0.4
v -0.6 0.7 0.1
v -0.6 0.7 -0.3
v -0.6 0.8 0.1
v -0.6 0.8 -0.3
v -0.6 0.9 0.2
v -0.6 0.9 0.1
v -0.6 0.9 -0.3
v -0.6 0.9 -0.4
v -0.6 1 0.2
v -0.6 1 0.1
v -0.6 1 -0.3
v -0.6 1 -0.4
v -0.6 1.1 0.1
v -0.6 1.1 -0.3
v -0.6 1.2 0.1
v -0.6 1.2 -0.3
v -0.6 1.4 0.1
v -0.6 1.4 -0.3
v -0.6 1.9 0.2
v -0.6 1.9 0.1
v -0.6 1.9 -2.98023e-08
v -0.6 1.9 -0.4
v -0.6 2 0.1
v -0.6 2 -2.98023e-08
v -0.6 2.1 0.1
v -0.6 2.1 -2.98023e-08
v -0.5 1.3 0.3
v -0.5 1.3 0.2
v -0.5 1.3 -0.4
v -0.5 1.3 -0.5
v -0.5 1.9 0.3
v -0.5 1.9 0.2
v -0.5 1.9 0.1
v -0.5 1.9 -2.98023e-08
v -0.5 1.9 -0.4
v -0.5 1.9 -0.5
v -0.5 2 0.2
v -0.5 2 0.1
v -0.5 2 -2.98023e-08
v -0.5 2 -0.4
v -0.1 0 0.2
v -0.1 0 -2.98023e-08
v -0.1 0 -0.1
v -0.1 0 -0.3
v -0.1 0.1 0.2
v -0.1 0.1 0.1
v -0.1 0.1 -2.98023e-08
v -0.1 0.1 -0.1
v -0.1 0.2 0.1
v -0.1 0.2 -2.98023e-08
v -0.1 0.5 0.1
v -0.1 0.5 -0.3
v 0.1 2 0.1
v 0.1 2 -2.98023e-08
v 0.1 2.1 0.1
v 0.1 2.1 -2.98023e-08
v -0.4 2 0.1
v -0.4 2 -2.98023e-08
v -0.4 2.1 0.1
v -0.4 2.1 -2.98023e-08
v -0.2 0 0.2
v -0.2 0 0.1
v -0.2 0 -2.98023e-08
v -0.2 0 -0.1
v -0.2 0 -0.3
v -0.2 0.1 0.2
v -0.2 0.1 0.1
v -0.2 0.1 -2.98023e-08
v -0.2 0.1 -0.1
v -0.2 0.2 0.1
v -0.2 0.2 -2.98023e-08
v -0.2 0.5 0.1
v -0.2 0.5 -0.3
v 0.2 1.3 0.3
v 0.2 1.3 0.2
v 0.2 1.3 -0.4
v 0.2 1.3 -0.5
v 0.2 1.9 0.3
v 0.2 1.9 0.2
v 0.2 1.9 0.1
v 0.2 1.9 -2.98023e-08
v 0.2 1.9 -0.4
v 0.2 1.9 -0.5
v 0.2 2 0.2
v 0.2 2 0.1
v 0.2 2 -2.98023e-08
v 0.2 2 -0.4
v 0.3 0 0.2
v 0.3 0 0.1
v 0.3 0 -2.98023e-08
v 0.3 0 -0.1
v 0.3 0 -0.3
v 0.3 0.1 0.2
v 0.3 0.1 0.1
v 0.3 0.1 -2.98023e-08
v 0.3 0.1 -0.1
v 0.3 0.2 0.1
v 0.3 0.2 -2.98023e-08
v 0.3 0.5 0.2
v 0.3 0.5 0.1
v 0.3 0.5 -0.3
v 0.3 0.5 -0.4
v 0.3 0.7 0.1
v 0.3 0.7 -0.3
v 0.3 0.8 0.1
v 0.3 0.8 -0.3
v 0.3 1.1 0.1
v 0.3 1.1 -0.3
v 0.3 1.2 0.2
v 0.3 1.2 0.1
v 0.3 1.2 -0.3
v 0.3 1.2 -0.4
v 0.3 1.3 0.2
v 0.3 1.3 0.1
v 0.3 1.3 -0.3
v 0.3 1.3 -0.4
v 0.3 1.4 0.1
v 0.3 1.4 -0.3
v 0.3 1.9 0.2
v 0.3 1.9 0.1
v 0.3 1.9 -2.98023e-08
v 0.3 1.9 -0.4
v 0.3 2 0.1
v 0.3 2 -2.98023e-08
v 0.3 2.1 0.1
v 0.3 2.1 -2.98023e-08
v 0.6 0.5 0.1
v 0.6 0.5 -2.98023e-08
v 0.6 0.5 -0.1
v 0.6 0.5 -0.2
v 0.6 0.5 -0.3
v 0.6 0.6 0.1
v 0.6 0.6 -2.98023e-08
v 0.6 0.6 -0.1
v 0.6 0.6 -0.2
v 0.6 0.6 -0.3
v 0.6 0.7 0.1
v 0.6 0.7 -0.3
v 0.6 1.2 0.1
v 0.6 1.2 -0.3
v 0.6 1.3 0.1
v 0.6 1.3 -0.3
v 0.6 1.4 0.1
v 0.6 1.4 -0.3
v -0.5 1.3 0.3
v -0.5 1.9 0.3
v -0.3 1.6 0.3
v -0.3 1.8 0.3
v -0.2 1.6 0.3
v -0.2 1.8 0.3
v -0.1 1.6 0.3
v -0.1 1.8 0.3
v 0 1.6 0.3
v 0 1.8 0.3
v 0.2 1.3 0.3
v 0.2 1.9 0.3
v -0.6 0 0.2
v -0.6 0.1 0.2
v -0.6 0.5 0.2
v -0.6 0.9 0.2
v -0.6 1 0.2
v -0.6 1.9 0.2
v -0.5 0 0.2
v -0.5 0.1 0.2
v -0.5 0.8 0.2
v -0.5 0.9 0.2
v -0.5 1 0.2
v -0.5 1.3 0.2
v -0.5 1.9 0.2
v -0.5 2 0.2
v -0.4 0 0.2
v -0.4 0.1 0.2
v -0.3 0 0.2
v -0.3 0.1 0.2
v -0.2 0 0.2
v -0.2 0.1 0.2
v -0.2 0.8 0.2
v -0.2 0.9 0.2
v -0.2 1 0.2
v -0.1 0 0.2
v -0.1 0.1 0.2
v -0.1 0.9 0.2
v -0.1 1 0.2
v -0.1 1.1 0.2
v 0 0 0.2
v 0 0.1 0.2
v 0 1 0.2
v 0 1.1 0.2
v 0 1.2 0.2
v 0.1 0 0.2
v 0.1 0.1 0.2
v 0.2 0 0.2
v 0.2 0.1 0.2
v 0.2 1.1 0.2
v 0.2 1.2 0.2
v 0.2 1.3 0.2
v 0.2 1.9 0.2
v 0.2 2 0.2
v 0.3 0 0.2
v 0.3 0.1 0.2
v 0.3 0.5 0.2
v 0.3 1.2 0.2
v 0.3 1.3 0.2
v 0.3 1.9 0.2
v -0.9 0.5 0.1
v -0.9 0.6 0.1
v -0.9 0.7 0.1
v -0.9 1.2 0.1
v -0.9 1.3 0.1
v -0.9 1.4 0.1
v -0.8 0.5 0.1
v -0.8 0.6 0.1
v -0.8 0.7 0.1
v -0.8 0.8 0.1
v -0.8 1.1 0.1
v -0.8 1.2 0.1
v -0.8 1.3 0.1
v -0.7 0.5 0.1
v -0.7 0.6 0.1
v -0.6 0.1 0.1
v -0.6 0.2 0.1
v -0.6 0.5 0.1
v -0.6 0.7 0.1
v -0.6 0.8 0.1
v -0.6 0.9 0.1
v -0.6 1 0.1
v -0.6 1.1 0.1
v -0.6 1.2 0.1
v -0.6 1.4 0.1
v -0.6 1.9 0.1
v -0.6 2 0.1
v -0.6 2.1 0.1
v -0.5 0.1 0.1
v -0.5 1.9 0.1
v -0.5 2 0.1
v -0.5 2.1 0.1
v -0.4 0.1 0.1
v -0.4 2 0.1
v -0.4 2.1 0.1
v -0.3 0.1 0.1
v -0.2 0.1 0.1
v -0.2 0.2 0.1
v -0.2 0.5 0.1
v -0.1 0.1 0.1
v -0.1 0.2 0.1
v -0.1 0.5 0.1
v 0 0.1 0.1
v 0.1 0.1 0.1
v 0.1 2 0.1
v 0.1 2.1 0.1
v 0.2 0.1 0.1
v 0.2 1.9 0.1
v 0.2 2 0.1
v 0.2 2.1 0.1
v 0.3 0.1 0.1
v 0.3 0.2 0.1
v 0.3 0.5 0.1
v 0.3 0.7 0.1
v 0.3 0.8 0.1
v 0.3 1.1 0.1
v 0.3 1.2 0.1
v 0.3 1.3 0.1
v 0.3 1.4 0.1
v 0.3 1.9 0.1
v 0.3 2 0.1
v 0.3 2.1 0.1
v 0.4 0.5 0.1
v 0.4 0.6 0.1
v 0.5 0.5 0.1
v 0.5 0.6 0.1
v 0.5 0.7 0.1
v 0.5 0.8 0.1
v 0.5 1.1 0.1
v 0.5 1.2 0.1
v 0.5 1.3 0.1
v 0.6 0.5 0.1
v 0.6 0.6 0.1
v 0.6 0.7 0.1
v 0.6 1.2 0.1
v 0.6 1.3 0.1
v 0.6 1.4 0.1
v -0.6 1.9 -2.98023e-08
v -0.6 2 -2.98023e-08
v -0.6 2.1 -2.98023e-08
v -0.5 1.9 -2.98023e-08
v -0.5 2 -2.98023e-08
v -0.5 2.1 -2.98023e-08
v -0.4 2 -2.98023e-08
v -0.4 2.1 -2.98023e-08
v 0.1 2 -2.98023e-08
v 0.1 2.1 -2.98023e-08
v 0.2 1.9 -2.98023e-08
v 0.2 2 -2.98023e-08
v 0.2 2.1 -2.98023e-08
v 0.3 1.9 -2.98023e-08
v 0.3 2 -2.98023e-08
v 0.3 2.1 -2.98023e-08
v -0.9 0.5 -0.3
v -0.9 0.6 -0.3
v -0.9 0.7 -0.3
v -0.9 1.2 -0.3
v -0.9 1.3 -0.3
v -0.9 1.4 -0.3
v -0.8 0.5 -0.3
v -0.8 0.6 -0.3
v -0.8 0.7 -0.3
v -0.8 0.8 -0.3
v -0.8 1.1 -0.3
v -0.8 1.2 -0.3
v -0.8 1.3 -0.3
v -0.6 0 -0.3
v -0.6 0.5 -0.3
v -0.6 0.7 -0.3
v -0.6 0.8 -0.3
v -0.6 0.9 -0.3
v -0.6 1 -0.3
v -0.6 1.1 -0.3
v -0.6 1.2 -0.3
v -0.6 1.4 -0.3
v -0.2 0 -0.3
v -0.2 0.5 -0.3
v -0.1 0 -0.3
v -0.1 0.5 -0.3
v 0.3 0 -0.3
v 0.3 0.5 -0.3
v 0.3 0.7 -0.3
v 0.3 0.8 -0.3
v 0.3 1.1 -0.3
v 0.3 1.2 -0.3
v 0.3 1.3 -0.3
v 0.3 1.4 -0.3
v 0.5 0.5 -0.3
v 0.5 0.6 -0.3
v 0.5 0.7 -0.3
v 0.5 0.8 -0.3
v 0.5 1.1 -0.3
v 0.5 1.2 -0.3
v 0.5 1.3 -0.3
v 0.6 0.5 -0.3
v 0.6 0.6 -0.3
v 0.6 0.7 -0.3
v 0.6 1.2 -0.3
v 0.6 1.3 -0.3
v 0.6 1.4 -0.3
v -0.6 0.5 -0.4
v -0.6 0.9 -0.4
v -0.6 1 -0.4
v -0.6 1.9 -0.4
v -0.5 0.8 -0.4
v -0.5 0.9 -0.4
v -0.5 1 -0.4
v -0.5 1.3 -0.4
v -0.5 1.9 -0.4
v -0.5 2 -0.4
v -0.2 0.8 -0.4
v -0.2 0.9 -0.4
v -0.2 1 -0.4
v -0.1 0.9 -0.4
v -0.1 1 -0.4
v -0.1 1.1 -0.4
v 0 1 -0.4
v 0 1.1 -0.4
v 0 1.2 -0.4
v 0.2 1.1 -0.4
v 0.2 1.2 -0.4
v 0.2 1.3 -0.4
v 0.2 1.9 -0.4
v 0.2 2 -0.4
v 0.3 0.5 -0.4
v 0.3 1.2 -0.4
v 0.3 1.3 -0.4
v 0.3 1.9 -0.4
v -0.5 1.3 -0.5
v -0.5 1.9 -0.5
v 0.2 1.3 -0.5
v 0.2 1.9 -0.5
v -0.6 0 0.2
v -0.5 0 0.2
v -0.4 0 0.2
v -0.3 0 0.2
v -0.2 0 0.2
v -0.1 0 0.2
v 0 0 0.2
v 0.1 0 0.2
v 0.2 0 0.2
v 0.3 0 0.2
v -0.5 0 0.1
v -0.4 0 0.1
v -0.3 0 0.1
v -0.2 0 0.1
v 0 0 0.1
v 0.1 0 0.1
v 0.2 0 0.1
v 0.3 0 0.1
v -0.6 0 -2.98023e-08
v -0.2 0 -2.98023e-08
v -0.1 0 -2.98023e-08
v 0.3 0 -2.98023e-08
v -0.6 0 -0.1
v -0.2 0 -0.1
v -0.1 0 -0.1
v 0.3 0 -0.1
v -0.6 0 -0.3
v -0.2 0 -0.3
v -0.1 0 -0.3
v 0.3 0 -0.3
v -0.6 0.5 0.2
v 0.3 0.5 0.2
v -0.9 0.5 0.1
v -0.8 0.5 0.1
v -0.7 0.5 0.1
v -0.6 0.5 0.1
v -0.2 0.5 0.1
v -0.1 0.5 0.1
v 0.3 0.5 0.1
v 0.4 0.5 0.1
v 0.5 0.5 0.1
v 0.6 0.5 0.1
v -0.9 0.5 -2.98023e-08
v -0.8 0.5 -2.98023e-08
v -0.7 0.5 -2.98023e-08
v 0.4 0.5 -2.98023e-08
v 0.5 0.5 -2.98023e-08
v 0.6 0.5 -2.98023e-08
v -0.9 0.5 -0.1
v -0.8 0.5 -0.1
v 0.5 0.5 -0.1
v 0.6 0.5 -0.1
v -0.9 0.5 -0.2
v -0.8 0.5 -0.2
v 0.5 0.5 -0.2
v 0.6 0.5 -0.2
v -0.9 0.5 -0.3
v -0.8 0.5 -0.3
v -0.6 0.5 -0.3
v -0.2 0.5 -0.3
v -0.1 0.5 -0.3
v 0.3 0.5 -0.3
v 0.5 0.5 -0.3
v 0.6 0.5 -0.3
v -0.6 0.5 -0.4
v 0.3 0.5 -0.4
v -0.5 1.3 0.3
v 0.2 1.3 0.3
v -0.5 1.3 0.2
v 0.2 1.3 0.2
v -0.5 1.3 -0.4
v 0.2 1.3 -0.4
v -0.5 1.3 -0.5
v 0.2 1.3 -0.5
v -0.6 0.1 0.2
v -0.5 0.1 0.2
v -0.4 0.1 0.2
v -0.3 0.1 0.2
v -0.2 0.1 0.2
v -0.1 0.1 0.2
v 0 0.1 0.2
v 0.1 0.1 0.2
v 0.2 0.1 0.2
v 0.3 0.1 0.2
v -0.6 0.1 0.1
v -0.5 0.1 0.1
v -0.4 0.1 0.1
v -0.3 0.1 0.1
v -0.2 0.1 0.1
v -0.1 0.1 0.1
v 0 0.1 0.1
v 0.1 0.1 0.1
v 0.2 0.1 0.1
v 0.3 0.1 0.1
v -0.9 1.4 0.1
v -0.6 1.4 0.1
v 0.3 1.4 0.1
v 0.6 1.4 0.1
v -0.9 1.4 -0.3
v -0.6 1.4 -0.3
v 0.3 1.4 -0.3
v 0.6 1.4 -0.3
v -0.5 1.9 0.3
v 0.2 1.9 0.3
v -0.6 1.9 0.2
v -0.5 1.9 0.2
v 0.2 1.9 0.2
v 0.3 1.9 0.2
v -0.6 1.9 0.1
v -0.5 1.9 0.1
v 0.2 1.9 0.1
v 0.3 1.9 0.1
v -0.6 1.9 -2.98023e-08
v -0.5 1.9 -2.98023e-08
v 0.2 1.9 -2.98023e-08
v 0.3 1.9 -2.98023e-08
v -0.6 1.9 -0.4
v -0.5 1.9 -0.4
v 0.2 1.9 -0.4
v 0.3 1.9 -0.4
v -0.5 1.9 -0.5
v 0.2 1.9 -0.5
v -0.5 2 0.2
v 0.2 2 0.2
v -0.5 2 0.1
v -0.4 2 0.1
v 0.1 2 0.1
v 0.2 2 0.1
v -0.5 2 -2.98023e-08
v -0.4 2 -2.98023e-08
v 0.1 2 -2.98023e-08
v 0.2 2 -2.98023e-08
v -0.5 2 -0.4
v 0.2 2 -0.4
v -0.6 2.1 0.1
v -0.5 2.1 0.1
v -0.4 2.1 0.1
v 0.1 2.1 0.1
v 0.2 2.1 0.1
v 0.3 2.1 0.1
v -0.6 2.1 -2.98023e-08
v -0.5 2.1 -2.98023e-08
v -0.4 2.1 -2.98023e-08
v 0.1 2.1 -2.98023e-08
v 0.2 2.1 -2.98023e-08
v 0.3 2.1 -2.98023e-08

# faces
f 6/9/1 2/9/1 1/9/1
f 7/8/1 3/8/1 2/8/1
f 7/9/1 2/9/1 6/9/1
f 8/9/1 4/9/1 3/9/1
f 8/8/1 3/8/1 7/8/1
f 9/8/1 5/8/1 4/8/1
f 9/9/1 4/9/1 8/9/1
f 10/8/1 5/8/1 9/8/1
f 11/6/1 8/6/1 7/6/1
f 11/6/1 7/6/1 6/6/1
f 11/6/1 10/6/1 9/6/1
f 11/6/1 9/6/1 8/6/1
f 12/6/1 10/6/1 11/6/1
f 13/3/1 12/3/1 11/3/1
f 14/3/1 12/3/1 13/3/1
f 15/6/1 14/6/1 13/6/1
f 16/6/1 14/6/1 15/6/1
f 17/5/1 16/5/1 15/5/1
f 18/5/1 16/5/1 17/5/1
f 23/8/1 20/8/1 19/8/1
f 24/8/1 20/8/1 23/8/1
f 25/6/1 21/6/1 20/6/1
f 25/8/1 20/8/1 24/8/1
f 26/3/1 22/3/1 21/3/1
f 26/6/1 21/6/1 25/6/1
f 27/6/1 25/6/1 24/6/1
f 28/3/1 26/3/1 25/3/1
f 28/6/1 25/6/1 27/6/1
f 30/3/1 28/3/1 27/3/1
f 31/3/1 22/3/1 26/3/1
f 31/3/1 26/3/1 28/3/1
f 31/3/1 28/3/1 30/3/1
f 33/3/1 30/3/1 29/3/1
f 34/3/1 32/3/1 31/3/1
f 35/3/1 33/3/1 29/3/1
f 36/3/1 32/3/1 34/3/1
f 37/3/1 35/3/1 29/3/1
f 38/3/1 35/3/1 37/3/1
f 39/3/1 32/3/1 36/3/1
f 40/3/1 32/3/1 39/3/1
f 41/6/1 38/6/1 37/6/1
f 42/6/1 38/6/1 41/6/1
f 43/6/1 40/6/1 39/6/1
f 44/6/1 40/6/1 43/6/1
f 45/5/1 42/5/1 41/5/1
f 46/5/1 44/5/1 43/5/1
f 47/5/1 45/5/1 41/5/1
f 48/5/1 44/5/1 46/5/1
f 49/5/1 47/5/1 41/5/1
f 50/5/1 44/5/1 48/5/1
f 51/5/1 49/5/1 41/5/1
f 51/5/1 50/5/1 49/5/1
f 52/5/1 50/5/1 51/5/1
f 53/5/1 50/5/1 52/5/1
f 54/5/1 44/5/1 50/5/1
f 54/5/1 50/5/1 53/5/1
f 55/9/1 53/9/1 52/9/1
f 56/9/1 53/9/1 55/9/1
f 57/8/1 56/8/1 55/8/1
f 58/8/1 56/8/1 57/8/1
f 63/9/1 60/9/1 59/9/1
f 64/9/1 60/9/1 63/9/1
f 67/5/1 62/5/1 61/5/1
f 68/5/1 62/5/1 67/5/1
f 69/5/1 65/5/1 64/5/1
f 70/5/1 65/5/1 69/5/1
f 71/5/1 67/5/1 66/5/1
f 72/5/1 67/5/1 71/5/1
f 77/8/1 74/8/1 73/8/1
f 78/8/1 74/8/1 77/8/1
f 79/6/1 75/6/1 74/6/1
f 79/8/1 74/8/1 78/8/1
f 80/3/1 76/3/1 75/3/1
f 80/6/1 75/6/1 79/6/1
f 81/6/1 79/6/1 78/6/1
f 82/3/1 80/3/1 79/3/1
f 82/6/1 79/6/1 81/6/1
f 83/3/1 82/3/1 81/3/1
f 84/3/1 76/3/1 80/3/1
f 84/3/1 82/3/1 83/3/1
f 84/3/1 80/3/1 82/3/1
f 87/9/1 86/9/1 85/9/1
f 88/9/1 86/9/1 87/9/1
f 89/9/2 90/9/2 91/9/2
f 91/9/2 90/9/2 92/9/2
f 93/9/2 94/9/2 98/9/2
f 94/8/2 95/8/2 99/8/2
f 98/9/2 94/9/2 99/9/2
f 95/6/2 96/6/2 100/6/2
f 99/8/2 95/8/2 100/8/2
f 96/3/2 97/3/2 101/3/2
f 100/6/2 96/6/2 101/6/2
f 99/6/2 100/6/2 102/6/2
f 100/3/2 101/3/2 103/3/2
f 102/6/2 100/6/2 103/6/2
f 102/3/2 103/3/2 104/3/2
f 101/3/2 97/3/2 105/3/2
f 104/3/2 103/3/2 105/3/2
f 103/3/2 101/3/2 105/3/2
f 106/9/2 107/9/2 110/9/2
f 110/9/2 107/9/2 111/9/2
f 108/5/2 109/5/2 114/5/2
f 114/5/2 109/5/2 115/5/2
f 111/5/2 112/5/2 116/5/2
f 116/5/2 112/5/2 117/5/2
f 113/5/2 114/5/2 118/5/2
f 118/5/2 114/5/2 119/5/2
f 120/9/2 121/9/2 125/9/2
f 121/8/2 122/8/2 126/8/2
f 125/9/2 121/9/2 126/9/2
f 122/6/2 123/6/2 127/6/2
f 126/8/2 122/8/2 127/8/2
f 123/3/2 124/3/2 128/3/2
f 127/6/2 123/6/2 128/6/2
f 126/6/2 127/6/2 129/6/2
f 127/3/2 128/3/2 130/3/2
f 129/6/2 127/6/2 130/6/2
f 129/3/2 130/3/2 132/3/2
f 128/3/2 124/3/2 133/3/2
f 130/3/2 128/3/2 133/3/2
f 132/3/2 130/3/2 133/3/2
f 131/3/2 132/3/2 135/3/2
f 133/3/2 134/3/2 136/3/2
f 131/3/2 135/3/2 137/3/2
f 136/3/2 134/3/2 138/3/2
f 131/3/2 137/3/2 139/3/2
f 138/3/2 134/3/2 140/3/2
f 131/3/2 139/3/2 141/3/2
f 141/3/2 139/3/2 142/3/2
f 140/3/2 134/3/2 143/3/2
f 143/3/2 134/3/2 144/3/2
f 141/6/2 142/6/2 145/6/2
f 145/6/2 142/6/2 146/6/2
f 143/6/2 144/6/2 147/6/2
f 147/6/2 144/6/2 148/6/2
f 145/5/2 146/5/2 149/5/2
f 147/5/2 148/5/2 150/5/2
f 145/5/2 149/5/2 151/5/2
f 149/5/2 150/5/2 151/5/2
f 151/5/2 150/5/2 152/5/2
f 152/5/2 150/5/2 153/5/2
f 150/5/2 148/5/2 154/5/2
f 153/5/2 150/5/2 154/5/2
f 152/9/2 153/9/2 155/9/2
f 155/9/2 153/9/2 156/9/2
f 155/8/2 156/8/2 157/8/2
f 157/8/2 156/8/2 158/8/2
f 159/9/2 160/9/2 164/9/2
f 160/8/2 161/8/2 165/8/2
f 164/9/2 160/9/2 165/9/2
f 161/9/2 162/9/2 166/9/2
f 165/8/2 161/8/2 166/8/2
f 162/8/2 163/8/2 167/8/2
f 166/9/2 162/9/2 167/9/2
f 167/8/2 163/8/2 168/8/2
f 165/6/2 166/6/2 169/6/2
f 164/6/2 165/6/2 169/6/2
f 167/6/2 168/6/2 169/6/2
f 166/6/2 167/6/2 169/6/2
f 169/6/2 168/6/2 170/6/2
f 169/3/2 170/3/2 171/3/2
f 171/3/2 170/3/2 172/3/2
f 171/6/2 172/6/2 173/6/2
f 173/6/2 172/6/2 174/6/2
f 173/5/2 174/5/2 175/5/2
f 175/5/2 174/5/2 176/5/2
f 179/9/3 178/9/3 177/9/3
f 180/9/3 178/9/3 179/9/3
f 181/9/3 179/9/3 177/9/3
f 181/10/3 180/10/3 179/10/3
f 182/9/3 178/9/3 180/9/3
f 182/10/3 180/10/3 181/10/3
f 183/9/3 181/9/3 177/9/3
f 183/9/3 182/9/3 181/9/3
f 184/9/3 178/9/3 182/9/3
f 184/9/3 182/9/3 183/9/3
f 185/9/3 183/9/3 177/9/3
f 185/10/3 184/10/3 183/10/3
f 186/9/3 178/9/3 184/9/3
f 186/10/3 184/10/3 185/10/3
f 187/9/3 185/9/3 177/9/3
f 187/9/3 186/9/3 185/9/3
f 188/9/3 178/9/3 186/9/3
f 188/9/3 186/9/3 187/9/3
f 195/8/3 190/8/3 189/8/3
f 196/8/3 190/8/3 195/8/3
f 197/3/3 192/3/3 191/3/3
f 198/6/3 193/6/3 192/6/3
f 198/3/3 192/3/3 197/3/3
f 199/5/3 194/5/3 193/5/3
f 199/6/3 193/6/3 198/6/3
f 200/5/3 194/5/3 199/5/3
f 201/5/3 194/5/3 200/5/3
f 203/9/3 196/9/3 195/9/3
f 204/9/3 196/9/3 203/9/3
f 205/8/3 204/8/3 203/8/3
f 206/8/3 204/8/3 205/8/3
f 207/9/3 206/9/3 205/9/3
f 208/9/3 206/9/3 207/9/3
f 209/6/3 198/6/3 197/6/3
f 209/3/3 197/3/3 191/3/3
f 210/5/3 199/5/3 198/5/3
f 210/6/3 198/6/3 209/6/3
f 210/5/3 200/5/3 199/5/3
f 211/5/3 200/5/3 210/5/3
f 214/3/3 210/3/3 209/3/3
f 214/6/3 211/6/3 210/6/3
f 215/5/3 200/5/3 211/5/3
f 215/6/3 211/6/3 214/6/3
f 216/5/3 200/5/3 215/5/3
f 217/8/3 213/8/3 212/8/3
f 218/8/3 213/8/3 217/8/3
f 219/3/3 215/3/3 214/3/3
f 219/6/3 216/6/3 215/6/3
f 220/5/3 200/5/3 216/5/3
f 220/6/3 216/6/3 219/6/3
f 221/5/3 200/5/3 220/5/3
f 222/9/3 218/9/3 217/9/3
f 223/9/3 218/9/3 222/9/3
f 224/8/3 223/8/3 222/8/3
f 225/8/3 223/8/3 224/8/3
f 226/3/3 220/3/3 219/3/3
f 226/6/3 221/6/3 220/6/3
f 227/5/3 200/5/3 221/5/3
f 227/6/3 221/6/3 226/6/3
f 228/5/3 200/5/3 227/5/3
f 229/5/3 202/5/3 201/5/3
f 230/5/3 202/5/3 229/5/3
f 231/9/3 225/9/3 224/9/3
f 232/9/3 225/9/3 231/9/3
f 233/3/3 214/3/3 209/3/3
f 233/3/3 209/3/3 191/3/3
f 233/3/3 219/3/3 214/3/3
f 233/3/3 226/3/3 219/3/3
f 233/3/3 227/3/3 226/3/3
f 234/6/3 228/6/3 227/6/3
f 234/3/3 227/3/3 233/3/3
f 235/5/3 229/5/3 228/5/3
f 235/6/3 228/6/3 234/6/3
f 236/5/3 229/5/3 235/5/3
f 243/9/3 238/9/3 237/9/3
f 244/6/3 239/6/3 238/6/3
f 244/9/3 238/9/3 243/9/3
f 245/3/3 240/3/3 239/3/3
f 245/6/3 239/6/3 244/6/3
f 246/3/3 240/3/3 245/3/3
f 247/3/3 240/3/3 246/3/3
f 248/6/3 241/6/3 240/6/3
f 248/3/3 240/3/3 247/3/3
f 249/5/3 242/5/3 241/5/3
f 249/6/3 241/6/3 248/6/3
f 250/8/3 244/8/3 243/8/3
f 251/9/3 245/9/3 244/9/3
f 251/8/3 244/8/3 250/8/3
f 254/9/3 251/9/3 250/9/3
f 255/6/3 246/6/3 245/6/3
f 255/9/3 245/9/3 251/9/3
f 255/9/3 251/9/3 254/9/3
f 256/3/3 247/3/3 246/3/3
f 256/6/3 246/6/3 255/6/3
f 257/3/3 247/3/3 256/3/3
f 258/3/3 247/3/3 257/3/3
f 259/6/3 248/6/3 247/6/3
f 259/3/3 247/3/3 258/3/3
f 260/5/3 249/5/3 248/5/3
f 260/6/3 248/6/3 259/6/3
f 261/5/3 242/5/3 249/5/3
f 261/5/3 249/5/3 260/5/3
f 265/6/3 253/6/3 252/6/3
f 266/9/3 263/9/3 262/9/3
f 267/8/3 264/8/3 263/8/3
f 267/9/3 263/9/3 266/9/3
f 268/8/3 264/8/3 267/8/3
f 269/6/3 253/6/3 265/6/3
f 270/9/3 268/9/3 267/9/3
f 271/9/3 268/9/3 270/9/3
f 272/6/3 253/6/3 269/6/3
f 273/6/3 253/6/3 272/6/3
f 274/3/3 254/3/3 253/3/3
f 274/6/3 253/6/3 273/6/3
f 275/3/3 254/3/3 274/3/3
f 279/6/3 277/6/3 276/6/3
f 280/6/3 277/6/3 279/6/3
f 283/6/3 277/6/3 280/6/3
f 285/9/3 282/9/3 281/9/3
f 286/9/3 282/9/3 285/9/3
f 287/6/3 277/6/3 283/6/3
f 288/3/3 278/3/3 277/3/3
f 288/6/3 277/6/3 287/6/3
f 289/3/3 278/3/3 288/3/3
f 296/9/3 285/9/3 284/9/3
f 297/8/3 286/8/3 285/8/3
f 297/9/3 285/9/3 296/9/3
f 298/8/3 286/8/3 297/8/3
f 299/9/3 290/9/3 289/9/3
f 300/9/3 290/9/3 299/9/3
f 301/8/3 300/8/3 299/8/3
f 302/9/3 290/9/3 300/9/3
f 302/8/3 300/8/3 301/8/3
f 303/6/3 291/6/3 290/6/3
f 303/9/3 290/9/3 302/9/3
f 304/3/3 292/3/3 291/3/3
f 304/6/3 291/6/3 303/6/3
f 305/6/3 293/6/3 292/6/3
f 305/3/3 292/3/3 304/3/3
f 306/5/3 295/5/3 294/5/3
f 306/6/3 293/6/3 305/6/3
f 306/5/3 294/5/3 293/5/3
f 307/5/3 295/5/3 306/5/3
f 308/9/3 302/9/3 301/9/3
f 309/6/3 303/6/3 302/6/3
f 309/9/3 302/9/3 308/9/3
f 310/3/3 305/3/3 304/3/3
f 310/6/3 303/6/3 309/6/3
f 310/3/3 304/3/3 303/3/3
f 310/3/3 306/3/3 305/3/3
f 311/6/3 307/6/3 306/6/3
f 311/3/3 306/3/3 310/3/3
f 312/5/3 295/5/3 307/5/3
f 312/6/3 307/6/3 311/6/3
f 313/5/3 295/5/3 312/5/3
f 314/9/4 315/9/4 317/9/4
f 315/8/4 316/8/4 318/8/4
f 317/9/4 315/9/4 318/9/4
f 318/8/4 316/8/4 319/8/4
f 318/9/4 319/9/4 320/9/4
f 320/9/4 319/9/4 321/9/4
f 322/9/4 323/9/4 325/9/4
f 325/9/4 323/9/4 326/9/4
f 324/9/4 325/9/4 327/9/4
f 325/8/4 326/8/4 328/8/4
f 327/9/4 325/9/4 328/9/4
f 328/8/4 326/8/4 329/8/4
f 330/8/4 331/8/4 336/8/4
f 331/6/4 332/6/4 337/6/4
f 336/8/4 331/8/4 337/8/4
f 332/3/4 333/3/4 338/3/4
f 337/6/4 332/6/4 338/6/4
f 338/3/4 333/3/4 339/3/4
f 339/3/4 333/3/4 340/3/4
f 333/6/4 334/6/4 341/6/4
f 340/3/4 333/3/4 341/3/4
f 334/5/4 335/5/4 342/5/4
f 341/6/4 334/6/4 342/6/4
f 336/9/4 337/9/4 344/9/4
f 337/9/4 338/9/4 344/9/4
f 338/6/4 339/6/4 345/6/4
f 344/9/4 338/9/4 345/9/4
f 339/3/4 340/3/4 346/3/4
f 345/6/4 339/6/4 346/6/4
f 346/3/4 340/3/4 347/3/4
f 347/3/4 340/3/4 348/3/4
f 340/6/4 341/6/4 349/6/4
f 348/3/4 340/3/4 349/3/4
f 341/5/4 342/5/4 350/5/4
f 349/6/4 341/6/4 350/6/4
f 342/5/4 335/5/4 351/5/4
f 350/5/4 342/5/4 351/5/4
f 343/3/4 344/3/4 352/3/4
f 352/3/4 344/3/4 353/3/4
f 354/3/4 355/3/4 356/3/4
f 356/3/4 355/3/4 357/3/4
f 357/9/4 358/9/4 364/9/4
f 364/9/4 358/9/4 365/9/4
f 358/6/4 359/6/4 366/6/4
f 365/9/4 358/9/4 366/9/4
f 359/3/4 360/3/4 367/3/4
f 366/6/4 359/6/4 367/6/4
f 360/6/4 361/6/4 368/6/4
f 367/3/4 360/3/4 368/3/4
f 362/5/4 363/5/4 369/5/4
f 368/6/4 361/6/4 369/6/4
f 361/5/4 362/5/4 369/5/4
f 369/5/4 363/5/4 370/5/4
f 364/8/4 365/8/4 371/8/4
f 365/6/4 366/6/4 372/6/4
f 371/8/4 365/8/4 372/8/4
f 367/3/4 368/3/4 373/3/4
f 372/6/4 366/6/4 373/6/4
f 366/3/4 367/3/4 373/3/4
f 368/3/4 369/3/4 373/3/4
f 369/6/4 370/6/4 374/6/4
f 373/3/4 369/3/4 374/3/4
f 370/5/4 363/5/4 375/5/4
f 374/6/4 370/6/4 375/6/4
f 375/5/4 363/5/4 376/5/4
f 377/3/4 378/3/4 381/3/4
f 378/6/4 379/6/4 382/6/4
f 381/3/4 378/3/4 382/3/4
f 379/5/4 380/5/4 383/5/4
f 382/6/4 379/6/4 383/6/4
f 383/5/4 380/5/4 384/5/4
f 384/5/4 380/5/4 385/5/4
f 381/6/4 382/6/4 387/6/4
f 377/3/4 381/3/4 387/3/4
f 383/5/4 384/5/4 388/5/4
f 387/6/4 382/6/4 388/6/4
f 382/5/4 383/5/4 388/5/4
f 388/5/4 384/5/4 389/5/4
f 387/3/4 388/3/4 390/3/4
f 388/6/4 389/6/4 390/6/4
f 389/5/4 384/5/4 391/5/4
f 390/6/4 389/6/4 391/6/4
f 391/5/4 384/5/4 392/5/4
f 390/3/4 391/3/4 393/3/4
f 391/6/4 392/6/4 393/6/4
f 392/5/4 384/5/4 394/5/4
f 393/6/4 392/6/4 394/6/4
f 394/5/4 384/5/4 395/5/4
f 393/3/4 394/3/4 396/3/4
f 394/6/4 395/6/4 396/6/4
f 395/5/4 384/5/4 397/5/4
f 396/6/4 395/6/4 397/6/4
f 397/5/4 384/5/4 398/5/4
f 385/5/4 386/5/4 399/5/4
f 399/5/4 386/5/4 400/5/4
f 377/3/4 387/3/4 401/3/4
f 387/3/4 390/3/4 401/3/4
f 390/3/4 393/3/4 401/3/4
f 393/3/4 396/3/4 401/3/4
f 396/3/4 397/3/4 401/3/4
f 397/6/4 398/6/4 402/6/4
f 401/3/4 397/3/4 402/3/4
f 398/5/4 399/5/4 403/5/4
f 402/6/4 398/6/4 403/6/4
f 403/5/4 399/5/4 404/5/4
f 405/5/4 406/5/4 407/5/4
f 407/5/4 406/5/4 408/5/4
f 419/8/5 410/8/5 409/8/5
f 419/9/5 411/9/5 410/9/5
f 420/8/5 412/8/5 411/8/5
f 420/9/5 411/9/5 419/9/5
f 421/9/5 413/9/5 412/9/5
f 421/8/5 412/8/5 420/8/5
f 422/9/5 413/9/5 421/9/5
f 423/8/5 415/8/5 414/8/5
f 423/9/5 416/9/5 415/9/5
f 424/8/5 417/8/5 416/8/5
f 424/9/5 416/9/5 423/9/5
f 425/9/5 418/9/5 417/9/5
f 425/8/5 417/8/5 424/8/5
f 426/9/5 418/9/5 425/9/5
f 427/8/5 419/8/5 409/8/5
f 427/8/5 420/8/5 419/8/5
f 427/8/5 422/8/5 421/8/5
f 427/8/5 421/8/5 420/8/5
f 428/8/5 422/8/5 427/8/5
f 429/8/5 424/8/5 423/8/5
f 429/8/5 423/8/5 414/8/5
f 429/8/5 426/8/5 425/8/5
f 429/8/5 425/8/5 424/8/5
f 430/8/5 426/8/5 429/8/5
f 431/6/5 428/6/5 427/6/5
f 432/6/5 428/6/5 431/6/5
f 433/6/5 430/6/5 429/6/5
f 434/6/5 430/6/5 433/6/5
f 435/3/5 432/3/5 431/3/5
f 436/3/5 432/3/5 435/3/5
f 437/3/5 434/3/5 433/3/5
f 438/3/5 434/3/5 437/3/5
f 444/3/5 440/3/5 439/3/5
f 445/3/5 440/3/5 444/3/5
f 446/3/5 440/3/5 445/3/5
f 447/3/5 440/3/5 446/3/5
f 451/9/5 442/9/5 441/9/5
f 452/8/5 443/8/5 442/8/5
f 452/9/5 442/9/5 451/9/5
f 453/9/5 444/9/5 443/9/5
f 453/8/5 443/8/5 452/8/5
f 454/8/5 449/8/5 448/8/5
f 454/9/5 448/9/5 447/9/5
f 455/9/5 450/9/5 449/9/5
f 455/8/5 449/8/5 454/8/5
f 456/9/5 450/9/5 455/9/5
f 457/8/5 452/8/5 451/8/5
f 458/9/5 453/9/5 452/9/5
f 458/8/5 452/8/5 457/8/5
f 459/9/5 455/9/5 454/9/5
f 459/8/5 456/8/5 455/8/5
f 460/8/5 456/8/5 459/8/5
f 461/9/5 458/9/5 457/9/5
f 462/9/5 453/9/5 458/9/5
f 462/9/5 458/9/5 461/9/5
f 463/9/5 459/9/5 454/9/5
f 463/9/5 460/9/5 459/9/5
f 464/9/5 460/9/5 463/9/5
f 465/8/5 462/8/5 461/8/5
f 466/9/5 453/9/5 462/9/5
f 466/8/5 462/8/5 465/8/5
f 467/9/5 444/9/5 453/9/5
f 467/9/5 453/9/5 466/9/5
f 468/3/5 446/3/5 445/3/5
f 469/3/5 446/3/5 468/3/5
f 470/9/5 454/9/5 447/9/5
f 470/9/5 463/9/5 454/9/5
f 471/8/5 464/8/5 463/8/5
f 471/9/5 463/9/5 470/9/5
f 472/8/5 464/8/5 471/8/5
f 473/3/5 469/3/5 468/3/5
f 473/3/5 468/3/5 467/3/5
f 473/3/5 470/3/5 469/3/5
f 474/3/5 470/3/5 473/3/5
f 477/9/5 476/9/5 475/9/5
f 478/9/5 476/9/5 477/9/5
f 481/5/5 480/5/5 479/5/5
f 482/5/5 480/5/5 481/5/5
f 483/8/6 484/8/6 493/8/6
f 484/9/6 485/9/6 494/9/6
f 493/8/6 484/8/6 494/8/6
f 485/8/6 486/8/6 495/8/6
f 494/9/6 485/9/6 495/9/6
f 486/9/6 487/9/6 496/9/6
f 495/8/6 486/8/6 496/8/6
f 496/9/6 487/9/6 497/9/6
f 488/8/6 489/8/6 498/8/6
f 489/9/6 490/9/6 499/9/6
f 498/8/6 489/8/6 499/8/6
f 490/8/6 491/8/6 500/8/6
f 499/9/6 490/9/6 500/9/6
f 491/9/6 492/9/6 501/9/6
f 500/8/6 491/8/6 501/8/6
f 501/9/6 492/9/6 502/9/6
f 503/5/6 504/5/6 507/5/6
f 507/5/6 504/5/6 508/5/6
f 505/5/6 506/5/6 509/5/6
f 509/5/6 506/5/6 510/5/6
f 511/9/6 512/9/6 514/9/6
f 514/9/6 512/9/6 515/9/6
f 513/5/6 514/5/6 517/5/6
f 517/5/6 514/5/6 518/5/6
f 515/5/6 516/5/6 519/5/6
f 519/5/6 516/5/6 520/5/6
f 521/5/6 522/5/6 525/5/6
f 525/5/6 522/5/6 526/5/6
f 523/5/6 524/5/6 527/5/6
f 527/5/6 524/5/6 528/5/6
f 526/5/6 527/5/6 529/5/6
f 529/5/6 527/5/6 530/5/6
f 531/5/6 532/5/6 533/5/6
f 533/5/6 532/5/6 534/5/6
f 534/5/6 532/5/6 535/5/6
f 535/5/6 532/5/6 536/5/6
f 534/5/6 535/5/6 538/5/6
f 538/5/6 535/5/6 539/5/6
f 537/5/6 538/5/6 541/5/6
f 539/5/6 540/5/6 541/5/6
f 538/5/6 539/5/6 541/5/6
f 541/5/6 540/5/6 542/5/6
f 543/8/6 544/8/6 549/8/6
f 544/9/6 545/9/6 550/9/6
f 549/8/6 544/8/6 550/8/6
f 550/9/6 545/9/6 551/9/6
f 546/9/6 547/9/6 552/9/6
f 547/8/6 548/8/6 553/8/6
f 552/9/6 547/9/6 553/9/6
f 553/8/6 548/8/6 554/8/6
