# MagicaVoxel @ Ephtracy

# group
o 

# material
mtllib Yeti_Evil.mtl
usemtl palette

# normals
vn -1 0 0
vn 1 0 0
vn 0 0 1
vn 0 0 -1
vn 0 -1 0
vn 0 1 0

# texcoords
vt 0.232422 0.5
vt 0.369141 0.5
vt 0.537109 0.5
vt 0.552734 0.5
vt 0.841797 0.5
vt 0.849609 0.5
vt 0.888672 0.5
vt 0.958984 0.5
vt 0.966797 0.5
vt 0.986328 0.5
vt 0.990234 0.5

# verts
v -0.9 0.5 0.1
v -0.9 0.5 -2.98023e-08
v -0.9 0.5 -0.1
v -0.9 0.5 -0.2
v -0.9 0.5 -0.3
v -0.9 0.6 0.1
v -0.9 0.6 -2.98023e-08
v -0.9 0.6 -0.1
v -0.9 0.6 -0.2
v -0.9 0.6 -0.3
v -0.9 0.7 0.1
v -0.9 0.7 -0.3
v -0.9 1.2 0.1
v -0.9 1.2 -0.3
v -0.9 1.3 0.1
v -0.9 1.3 -0.3
v -0.9 1.4 0.1
v -0.9 1.4 -0.3
v -0.6 0 0.2
v -0.6 0 -2.98023e-08
v -0.6 0 -0.1
v -0.6 0 -0.3
v -0.6 0.1 0.2
v -0.6 0.1 0.1
v -0.6 0.1 -2.98023e-08
v -0.6 0.1 -0.1
v -0.6 0.2 0.1
v -0.6 0.2 -2.98023e-08
v -0.6 0.5 0.2
v -0.6 0.5 0.1
v -0.6 0.5 -0.3
v -0.6 0.5 -0.4
v -0.6 0.7 0.1
v -0.6 0.7 -0.3
v -0.6 0.8 0.1
v -0.6 0.8 -0.3
v -0.6 0.9 0.2
v -0.6 0.9 0.1
v -0.6 0.9 -0.3
v -0.6 0.9 -0.4
v -0.6 1 0.2
v -0.6 1 0.1
v -0.6 1 -0.3
v -0.6 1 -0.4
v -0.6 1.1 0.1
v -0.6 1.1 -0.3
v -0.6 1.2 0.1
v -0.6 1.2 -0.3
v -0.6 1.4 0.1
v -0.6 1.4 -0.3
v -0.6 1.9 0.2
v -0.6 1.9 0.1
v -0.6 1.9 -2.98023e-08
v -0.6 1.9 -0.4
v -0.6 2 0.1
v -0.6 2 -2.98023e-08
v -0.6 2.1 0.1
v -0.6 2.1 -2.98023e-08
v -0.5 1.3 0.3
v -0.5 1.3 0.2
v -0.5 1.3 -0.4
v -0.5 1.3 -0.5
v -0.5 1.9 0.3
v -0.5 1.9 0.2
v -0.5 1.9 0.1
v -0.5 1.9 -2.98023e-08
v -0.5 1.9 -0.4
v -0.5 1.9 -0.5
v -0.5 2 0.2
v -0.5 2 0.1
v -0.5 2 -2.98023e-08
v -0.5 2 -0.4
v -0.1 0 0.2
v -0.1 0 -2.98023e-08
v -0.1 0 -0.1
v -0.1 0 -0.3
v -0.1 0.1 0.2
v -0.1 0.1 0.1
v -0.1 0.1 -2.98023e-08
v -0.1 0.1 -0.1
v -0.1 0.2 0.1
v -0.1 0.2 -2.98023e-08
v -0.1 0.5 0.1
v -0.1 0.5 -0.3
v 0.1 2 0.1
v 0.1 2 -2.98023e-08
v 0.1 2.1 0.1
v 0.1 2.1 -2.98023e-08
v -0.4 2 0.1
v -0.4 2 -2.98023e-08
v -0.4 2.1 0.1
v -0.4 2.1 -2.98023e-08
v -0.2 0 0.2
v -0.2 0 0.1
v -0.2 0 -2.98023e-08
v -0.2 0 -0.1
v -0.2 0 -0.3
v -0.2 0.1 0.2
v -0.2 0.1 0.1
v -0.2 0.1 -2.98023e-08
v -0.2 0.1 -0.1
v -0.2 0.2 0.1
v -0.2 0.2 -2.98023e-08
v -0.2 0.5 0.1
v -0.2 0.5 -0.3
v 0.2 1.3 0.3
v 0.2 1.3 0.2
v 0.2 1.3 -0.4
v 0.2 1.3 -0.5
v 0.2 1.9 0.3
v 0.2 1.9 0.2
v 0.2 1.9 0.1
v 0.2 1.9 -2.98023e-08
v 0.2 1.9 -0.4
v 0.2 1.9 -0.5
v 0.2 2 0.2
v 0.2 2 0.1
v 0.2 2 -2.98023e-08
v 0.2 2 -0.4
v 0.3 0 0.2
v 0.3 0 0.1
v 0.3 0 -2.98023e-08
v 0.3 0 -0.1
v 0.3 0 -0.3
v 0.3 0.1 0.2
v 0.3 0.1 0.1
v 0.3 0.1 -2.98023e-08
v 0.3 0.1 -0.1
v 0.3 0.2 0.1
v 0.3 0.2 -2.98023e-08
v 0.3 0.5 0.2
v 0.3 0.5 0.1
v 0.3 0.5 -0.3
v 0.3 0.5 -0.4
v 0.3 0.7 0.1
v 0.3 0.7 -0.3
v 0.3 0.8 0.1
v 0.3 0.8 -0.3
v 0.3 1.1 0.1
v 0.3 1.1 -0.3
v 0.3 1.2 0.2
v 0.3 1.2 0.1
v 0.3 1.2 -0.3
v 0.3 1.2 -0.4
v 0.3 1.3 0.2
v 0.3 1.3 0.1
v 0.3 1.3 -0.3
v 0.3 1.3 -0.4
v 0.3 1.4 0.1
v 0.3 1.4 -0.3
v 0.3 1.9 0.2
v 0.3 1.9 0.1
v 0.3 1.9 -2.98023e-08
v 0.3 1.9 -0.4
v 0.3 2 0.1
v 0.3 2 -2.98023e-08
v 0.3 2.1 0.1
v 0.3 2.1 -2.98023e-08
v 0.6 0.5 0.1
v 0.6 0.5 -2.98023e-08
v 0.6 0.5 -0.1
v 0.6 0.5 -0.2
v 0.6 0.5 -0.3
v 0.6 0.6 0.1
v 0.6 0.6 -2.98023e-08
v 0.6 0.6 -0.1
v 0.6 0.6 -0.2
v 0.6 0.6 -0.3
v 0.6 0.7 0.1
v 0.6 0.7 -0.3
v 0.6 1.2 0.1
v 0.6 1.2 -0.3
v 0.6 1.3 0.1
v 0.6 1.3 -0.3
v 0.6 1.4 0.1
v 0.6 1.4 -0.3
v -0.5 1.3 0.3
v -0.5 1.9 0.3
v -0.3 1.6 0.3
v -0.3 1.8 0.3
v -0.2 1.6 0.3
v -0.2 1.8 0.3
v -0.1 1.6 0.3
v -0.1 1.8 0.3
v 0 1.6 0.3
v 0 1.8 0.3
v 0.2 1.3 0.3
v 0.2 1.9 0.3
v -0.6 0 0.2
v -0.6 0.1 0.2
v -0.6 0.5 0.2
v -0.6 0.9 0.2
v -0.6 1 0.2
v -0.6 1.9 0.2
v -0.5 0 0.2
v -0.5 0.1 0.2
v -0.5 0.8 0.2
v -0.5 0.9 0.2
v -0.5 1 0.2
v -0.5 1.3 0.2
v -0.5 1.9 0.2
v -0.5 2 0.2
v -0.4 0 0.2
v -0.4 0.1 0.2
v -0.3 0 0.2
v -0.3 0.1 0.2
v -0.2 0 0.2
v -0.2 0.1 0.2
v -0.2 0.8 0.2
v -0.2 0.9 0.2
v -0.2 1 0.2
v -0.1 0 0.2
v -0.1 0.1 0.2
v -0.1 0.9 0.2
v -0.1 1 0.2
v -0.1 1.1 0.2
v 0 0 0.2
v 0 0.1 0.2
v 0 1 0.2
v 0 1.1 0.2
v 0 1.2 0.2
v 0.1 0 0.2
v 0.1 0.1 0.2
v 0.2 0 0.2
v 0.2 0.1 0.2
v 0.2 1.1 0.2
v 0.2 1.2 0.2
v 0.2 1.3 0.2
v 0.2 1.9 0.2
v 0.2 2 0.2
v 0.3 0 0.2
v 0.3 0.1 0.2
v 0.3 0.5 0.2
v 0.3 1.2 0.2
v 0.3 1.3 0.2
v 0.3 1.9 0.2
v -0.9 0.5 0.1
v -0.9 0.6 0.1
v -0.9 0.7 0.1
v -0.9 1.2 0.1
v -0.9 1.3 0.1
v -0.9 1.4 0.1
v -0.8 0.5 0.1
v -0.8 0.6 0.1
v -0.8 0.7 0.1
v -0.8 0.8 0.1
v -0.8 1.1 0.1
v -0.8 1.2 0.1
v -0.8 1.3 0.1
v -0.7 0.5 0.1
v -0.7 0.6 0.1
v -0.6 0.1 0.1
v -0.6 0.2 0.1
v -0.6 0.5 0.1
v -0.6 0.7 0.1
v -0.6 0.8 0.1
v -0.6 0.9 0.1
v -0.6 1 0.1
v -0.6 1.1 0.1
v -0.6 1.2 0.1
v -0.6 1.4 0.1
v -0.6 1.9 0.1
v -0.6 2 0.1
v -0.6 2.1 0.1
v -0.5 0.1 0.1
v -0.5 1.9 0.1
v -0.5 2 0.1
v -0.5 2.1 0.1
v -0.4 0.1 0.1
v -0.4 2 0.1
v -0.4 2.1 0.1
v -0.3 0.1 0.1
v -0.2 0.1 0.1
v -0.2 0.2 0.1
v -0.2 0.5 0.1
v -0.1 0.1 0.1
v -0.1 0.2 0.1
v -0.1 0.5 0.1
v 0 0.1 0.1
v 0.1 0.1 0.1
v 0.1 2 0.1
v 0.1 2.1 0.1
v 0.2 0.1 0.1
v 0.2 1.9 0.1
v 0.2 2 0.1
v 0.2 2.1 0.1
v 0.3 0.1 0.1
v 0.3 0.2 0.1
v 0.3 0.5 0.1
v 0.3 0.7 0.1
v 0.3 0.8 0.1
v 0.3 1.1 0.1
v 0.3 1.2 0.1
v 0.3 1.3 0.1
v 0.3 1.4 0.1
v 0.3 1.9 0.1
v 0.3 2 0.1
v 0.3 2.1 0.1
v 0.4 0.5 0.1
v 0.4 0.6 0.1
v 0.5 0.5 0.1
v 0.5 0.6 0.1
v 0.5 0.7 0.1
v 0.5 0.8 0.1
v 0.5 1.1 0.1
v 0.5 1.2 0.1
v 0.5 1.3 0.1
v 0.6 0.5 0.1
v 0.6 0.6 0.1
v 0.6 0.7 0.1
v 0.6 1.2 0.1
v 0.6 1.3 0.1
v 0.6 1.4 0.1
v -0.6 1.9 -2.98023e-08
v -0.6 2 -2.98023e-08
v -0.6 2.1 -2.98023e-08
v -0.5 1.9 -2.98023e-08
v -0.5 2 -2.98023e-08
v -0.5 2.1 -2.98023e-08
v -0.4 2 -2.98023e-08
v -0.4 2.1 -2.98023e-08
v 0.1 2 -2.98023e-08
v 0.1 2.1 -2.98023e-08
v 0.2 1.9 -2.98023e-08
v 0.2 2 -2.98023e-08
v 0.2 2.1 -2.98023e-08
v 0.3 1.9 -2.98023e-08
v 0.3 2 -2.98023e-08
v 0.3 2.1 -2.98023e-08
v -0.9 0.5 -0.3
v -0.9 0.6 -0.3
v -0.9 0.7 -0.3
v -0.9 1.2 -0.3
v -0.9 1.3 -0.3
v -0.9 1.4 -0.3
v -0.8 0.5 -0.3
v -0.8 0.6 -0.3
v -0.8 0.7 -0.3
v -0.8 0.8 -0.3
v -0.8 1.1 -0.3
v -0.8 1.2 -0.3
v -0.8 1.3 -0.3
v -0.6 0 -0.3
v -0.6 0.5 -0.3
v -0.6 0.7 -0.3
v -0.6 0.8 -0.3
v -0.6 0.9 -0.3
v -0.6 1 -0.3
v -0.6 1.1 -0.3
v -0.6 1.2 -0.3
v -0.6 1.4 -0.3
v -0.2 0 -0.3
v -0.2 0.5 -0.3
v -0.1 0 -0.3
v -0.1 0.5 -0.3
v 0.3 0 -0.3
v 0.3 0.5 -0.3
v 0.3 0.7 -0.3
v 0.3 0.8 -0.3
v 0.3 1.1 -0.3
v 0.3 1.2 -0.3
v 0.3 1.3 -0.3
v 0.3 1.4 -0.3
v 0.5 0.5 -0.3
v 0.5 0.6 -0.3
v 0.5 0.7 -0.3
v 0.5 0.8 -0.3
v 0.5 1.1 -0.3
v 0.5 1.2 -0.3
v 0.5 1.3 -0.3
v 0.6 0.5 -0.3
v 0.6 0.6 -0.3
v 0.6 0.7 -0.3
v 0.6 1.2 -0.3
v 0.6 1.3 -0.3
v 0.6 1.4 -0.3
v -0.6 0.5 -0.4
v -0.6 0.9 -0.4
v -0.6 1 -0.4
v -0.6 1.9 -0.4
v -0.5 0.8 -0.4
v -0.5 0.9 -0.4
v -0.5 1 -0.4
v -0.5 1.3 -0.4
v -0.5 1.9 -0.4
v -0.5 2 -0.4
v -0.2 0.8 -0.4
v -0.2 0.9 -0.4
v -0.2 1 -0.4
v -0.1 0.9 -0.4
v -0.1 1 -0.4
v -0.1 1.1 -0.4
v 0 1 -0.4
v 0 1.1 -0.4
v 0 1.2 -0.4
v 0.2 1.1 -0.4
v 0.2 1.2 -0.4
v 0.2 1.3 -0.4
v 0.2 1.9 -0.4
v 0.2 2 -0.4
v 0.3 0.5 -0.4
v 0.3 1.2 -0.4
v 0.3 1.3 -0.4
v 0.3 1.9 -0.4
v -0.5 1.3 -0.5
v -0.5 1.9 -0.5
v 0.2 1.3 -0.5
v 0.2 1.9 -0.5
v -0.6 0 0.2
v -0.5 0 0.2
v -0.4 0 0.2
v -0.3 0 0.2
v -0.2 0 0.2
v -0.1 0 0.2
v 0 0 0.2
v 0.1 0 0.2
v 0.2 0 0.2
v 0.3 0 0.2
v -0.5 0 0.1
v -0.4 0 0.1
v -0.3 0 0.1
v -0.2 0 0.1
v 0 0 0.1
v 0.1 0 0.1
v 0.2 0 0.1
v 0.3 0 0.1
v -0.6 0 -2.98023e-08
v -0.2 0 -2.98023e-08
v -0.1 0 -2.98023e-08
v 0.3 0 -2.98023e-08
v -0.6 0 -0.1
v -0.2 0 -0.1
v -0.1 0 -0.1
v 0.3 0 -0.1
v -0.6 0 -0.3
v -0.2 0 -0.3
v -0.1 0 -0.3
v 0.3 0 -0.3
v -0.6 0.5 0.2
v 0.3 0.5 0.2
v -0.9 0.5 0.1
v -0.8 0.5 0.1
v -0.7 0.5 0.1
v -0.6 0.5 0.1
v -0.2 0.5 0.1
v -0.1 0.5 0.1
v 0.3 0.5 0.1
v 0.4 0.5 0.1
v 0.5 0.5 0.1
v 0.6 0.5 0.1
v -0.9 0.5 -2.98023e-08
v -0.8 0.5 -2.98023e-08
v -0.7 0.5 -2.98023e-08
v 0.4 0.5 -2.98023e-08
v 0.5 0.5 -2.98023e-08
v 0.6 0.5 -2.98023e-08
v -0.9 0.5 -0.1
v -0.8 0.5 -0.1
v 0.5 0.5 -0.1
v 0.6 0.5 -0.1
v -0.9 0.5 -0.2
v -0.8 0.5 -0.2
v 0.5 0.5 -0.2
v 0.6 0.5 -0.2
v -0.9 0.5 -0.3
v -0.8 0.5 -0.3
v -0.6 0.5 -0.3
v -0.2 0.5 -0.3
v -0.1 0.5 -0.3
v 0.3 0.5 -0.3
v 0.5 0.5 -0.3
v 0.6 0.5 -0.3
v -0.6 0.5 -0.4
v 0.3 0.5 -0.4
v -0.5 1.3 0.3
v 0.2 1.3 0.3
v -0.5 1.3 0.2
v 0.2 1.3 0.2
v -0.5 1.3 -0.4
v 0.2 1.3 -0.4
v -0.5 1.3 -0.5
v 0.2 1.3 -0.5
v -0.6 0.1 0.2
v -0.5 0.1 0.2
v -0.4 0.1 0.2
v -0.3 0.1 0.2
v -0.2 0.1 0.2
v -0.1 0.1 0.2
v 0 0.1 0.2
v 0.1 0.1 0.2
v 0.2 0.1 0.2
v 0.3 0.1 0.2
v -0.6 0.1 0.1
v -0.5 0.1 0.1
v -0.4 0.1 0.1
v -0.3 0.1 0.1
v -0.2 0.1 0.1
v -0.1 0.1 0.1
v 0 0.1 0.1
v 0.1 0.1 0.1
v 0.2 0.1 0.1
v 0.3 0.1 0.1
v -0.9 1.4 0.1
v -0.6 1.4 0.1
v 0.3 1.4 0.1
v 0.6 1.4 0.1
v -0.9 1.4 -0.3
v -0.6 1.4 -0.3
v 0.3 1.4 -0.3
v 0.6 1.4 -0.3
v -0.5 1.9 0.3
v 0.2 1.9 0.3
v -0.6 1.9 0.2
v -0.5 1.9 0.2
v 0.2 1.9 0.2
v 0.3 1.9 0.2
v -0.6 1.9 0.1
v -0.5 1.9 0.1
v 0.2 1.9 0.1
v 0.3 1.9 0.1
v -0.6 1.9 -2.98023e-08
v -0.5 1.9 -2.98023e-08
v 0.2 1.9 -2.98023e-08
v 0.3 1.9 -2.98023e-08
v -0.6 1.9 -0.4
v -0.5 1.9 -0.4
v 0.2 1.9 -0.4
v 0.3 1.9 -0.4
v -0.5 1.9 -0.5
v 0.2 1.9 -0.5
v -0.5 2 0.2
v 0.2 2 0.2
v -0.5 2 0.1
v -0.4 2 0.1
v 0.1 2 0.1
v 0.2 2 0.1
v -0.5 2 -2.98023e-08
v -0.4 2 -2.98023e-08
v 0.1 2 -2.98023e-08
v 0.2 2 -2.98023e-08
v -0.5 2 -0.4
v 0.2 2 -0.4
v -0.6 2.1 0.1
v -0.5 2.1 0.1
v -0.4 2.1 0.1
v 0.1 2.1 0.1
v 0.2 2.1 0.1
v 0.3 2.1 0.1
v -0.6 2.1 -2.98023e-08
v -0.5 2.1 -2.98023e-08
v -0.4 2.1 -2.98023e-08
v 0.1 2.1 -2.98023e-08
v 0.2 2.1 -2.98023e-08
v 0.3 2.1 -2.98023e-08

# faces
f 6/9/1 2/9/1 1/9/1
f 7/8/1 3/8/1 2/8/1
f 7/9/1 2/9/1 6/9/1
f 8/9/1 4/9/1 3/9/1
f 8/8/1 3/8/1 7/8/1
f 9/8/1 5/8/1 4/8/1
f 9/9/1 4/9/1 8/9/1
f 10/8/1 5/8/1 9/8/1
f 11/10/1 8/10/1 7/10/1
f 11/10/1 7/10/1 6/10/1
f 11/10/1 10/10/1 9/10/1
f 11/10/1 9/10/1 8/10/1
f 12/10/1 10/10/1 11/10/1
f 13/6/1 12/6/1 11/6/1
f 14/6/1 12/6/1 13/6/1
f 15/10/1 14/10/1 13/10/1
f 16/10/1 14/10/1 15/10/1
f 17/11/1 16/11/1 15/11/1
f 18/11/1 16/11/1 17/11/1
f 23/8/1 20/8/1 19/8/1
f 24/8/1 20/8/1 23/8/1
f 25/10/1 21/10/1 20/10/1
f 25/8/1 20/8/1 24/8/1
f 26/6/1 22/6/1 21/6/1
f 26/10/1 21/10/1 25/10/1
f 27/10/1 25/10/1 24/10/1
f 28/6/1 26/6/1 25/6/1
f 28/10/1 25/10/1 27/10/1
f 30/6/1 28/6/1 27/6/1
f 31/6/1 22/6/1 26/6/1
f 31/6/1 26/6/1 28/6/1
f 31/6/1 28/6/1 30/6/1
f 33/6/1 30/6/1 29/6/1
f 34/6/1 32/6/1 31/6/1
f 35/6/1 33/6/1 29/6/1
f 36/6/1 32/6/1 34/6/1
f 37/6/1 35/6/1 29/6/1
f 38/6/1 35/6/1 37/6/1
f 39/6/1 32/6/1 36/6/1
f 40/6/1 32/6/1 39/6/1
f 41/10/1 38/10/1 37/10/1
f 42/10/1 38/10/1 41/10/1
f 43/10/1 40/10/1 39/10/1
f 44/10/1 40/10/1 43/10/1
f 45/11/1 42/11/1 41/11/1
f 46/11/1 44/11/1 43/11/1
f 47/11/1 45/11/1 41/11/1
f 48/11/1 44/11/1 46/11/1
f 49/11/1 47/11/1 41/11/1
f 50/11/1 44/11/1 48/11/1
f 51/11/1 49/11/1 41/11/1
f 51/11/1 50/11/1 49/11/1
f 52/11/1 50/11/1 51/11/1
f 53/11/1 50/11/1 52/11/1
f 54/11/1 44/11/1 50/11/1
f 54/11/1 50/11/1 53/11/1
f 55/9/1 53/9/1 52/9/1
f 56/9/1 53/9/1 55/9/1
f 57/8/1 56/8/1 55/8/1
f 58/8/1 56/8/1 57/8/1
f 63/9/1 60/9/1 59/9/1
f 64/9/1 60/9/1 63/9/1
f 67/11/1 62/11/1 61/11/1
f 68/11/1 62/11/1 67/11/1
f 69/11/1 65/11/1 64/11/1
f 70/11/1 65/11/1 69/11/1
f 71/11/1 67/11/1 66/11/1
f 72/11/1 67/11/1 71/11/1
f 77/8/1 74/8/1 73/8/1
f 78/8/1 74/8/1 77/8/1
f 79/10/1 75/10/1 74/10/1
f 79/8/1 74/8/1 78/8/1
f 80/6/1 76/6/1 75/6/1
f 80/10/1 75/10/1 79/10/1
f 81/10/1 79/10/1 78/10/1
f 82/6/1 80/6/1 79/6/1
f 82/10/1 79/10/1 81/10/1
f 83/6/1 82/6/1 81/6/1
f 84/6/1 76/6/1 80/6/1
f 84/6/1 82/6/1 83/6/1
f 84/6/1 80/6/1 82/6/1
f 87/9/1 86/9/1 85/9/1
f 88/9/1 86/9/1 87/9/1
f 89/9/2 90/9/2 91/9/2
f 91/9/2 90/9/2 92/9/2
f 93/9/2 94/9/2 98/9/2
f 94/8/2 95/8/2 99/8/2
f 98/9/2 94/9/2 99/9/2
f 95/10/2 96/10/2 100/10/2
f 99/8/2 95/8/2 100/8/2
f 96/6/2 97/6/2 101/6/2
f 100/10/2 96/10/2 101/10/2
f 99/10/2 100/10/2 102/10/2
f 100/6/2 101/6/2 103/6/2
f 102/10/2 100/10/2 103/10/2
f 102/6/2 103/6/2 104/6/2
f 101/6/2 97/6/2 105/6/2
f 104/6/2 103/6/2 105/6/2
f 103/6/2 101/6/2 105/6/2
f 106/9/2 107/9/2 110/9/2
f 110/9/2 107/9/2 111/9/2
f 108/11/2 109/11/2 114/11/2
f 114/11/2 109/11/2 115/11/2
f 111/11/2 112/11/2 116/11/2
f 116/11/2 112/11/2 117/11/2
f 113/11/2 114/11/2 118/11/2
f 118/11/2 114/11/2 119/11/2
f 120/9/2 121/9/2 125/9/2
f 121/8/2 122/8/2 126/8/2
f 125/9/2 121/9/2 126/9/2
f 122/10/2 123/10/2 127/10/2
f 126/8/2 122/8/2 127/8/2
f 123/6/2 124/6/2 128/6/2
f 127/10/2 123/10/2 128/10/2
f 126/10/2 127/10/2 129/10/2
f 127/6/2 128/6/2 130/6/2
f 129/10/2 127/10/2 130/10/2
f 129/6/2 130/6/2 132/6/2
f 128/6/2 124/6/2 133/6/2
f 130/6/2 128/6/2 133/6/2
f 132/6/2 130/6/2 133/6/2
f 131/6/2 132/6/2 135/6/2
f 133/6/2 134/6/2 136/6/2
f 131/6/2 135/6/2 137/6/2
f 136/6/2 134/6/2 138/6/2
f 131/6/2 137/6/2 139/6/2
f 138/6/2 134/6/2 140/6/2
f 131/6/2 139/6/2 141/6/2
f 141/6/2 139/6/2 142/6/2
f 140/6/2 134/6/2 143/6/2
f 143/6/2 134/6/2 144/6/2
f 141/10/2 142/10/2 145/10/2
f 145/10/2 142/10/2 146/10/2
f 143/10/2 144/10/2 147/10/2
f 147/10/2 144/10/2 148/10/2
f 145/11/2 146/11/2 149/11/2
f 147/11/2 148/11/2 150/11/2
f 145/11/2 149/11/2 151/11/2
f 149/11/2 150/11/2 151/11/2
f 151/11/2 150/11/2 152/11/2
f 152/11/2 150/11/2 153/11/2
f 150/11/2 148/11/2 154/11/2
f 153/11/2 150/11/2 154/11/2
f 152/9/2 153/9/2 155/9/2
f 155/9/2 153/9/2 156/9/2
f 155/8/2 156/8/2 157/8/2
f 157/8/2 156/8/2 158/8/2
f 159/9/2 160/9/2 164/9/2
f 160/8/2 161/8/2 165/8/2
f 164/9/2 160/9/2 165/9/2
f 161/9/2 162/9/2 166/9/2
f 165/8/2 161/8/2 166/8/2
f 162/8/2 163/8/2 167/8/2
f 166/9/2 162/9/2 167/9/2
f 167/8/2 163/8/2 168/8/2
f 165/10/2 166/10/2 169/10/2
f 164/10/2 165/10/2 169/10/2
f 167/10/2 168/10/2 169/10/2
f 166/10/2 167/10/2 169/10/2
f 169/10/2 168/10/2 170/10/2
f 169/6/2 170/6/2 171/6/2
f 171/6/2 170/6/2 172/6/2
f 171/10/2 172/10/2 173/10/2
f 173/10/2 172/10/2 174/10/2
f 173/11/2 174/11/2 175/11/2
f 175/11/2 174/11/2 176/11/2
f 179/9/3 178/9/3 177/9/3
f 180/9/3 178/9/3 179/9/3
f 181/9/3 179/9/3 177/9/3
f 181/5/3 180/5/3 179/5/3
f 182/9/3 178/9/3 180/9/3
f 182/5/3 180/5/3 181/5/3
f 183/9/3 181/9/3 177/9/3
f 183/9/3 182/9/3 181/9/3
f 184/9/3 178/9/3 182/9/3
f 184/9/3 182/9/3 183/9/3
f 185/9/3 183/9/3 177/9/3
f 185/5/3 184/5/3 183/5/3
f 186/9/3 178/9/3 184/9/3
f 186/5/3 184/5/3 185/5/3
f 187/9/3 185/9/3 177/9/3
f 187/9/3 186/9/3 185/9/3
f 188/9/3 178/9/3 186/9/3
f 188/9/3 186/9/3 187/9/3
f 195/8/3 190/8/3 189/8/3
f 196/8/3 190/8/3 195/8/3
f 197/6/3 192/6/3 191/6/3
f 198/10/3 193/10/3 192/10/3
f 198/6/3 192/6/3 197/6/3
f 199/11/3 194/11/3 193/11/3
f 199/10/3 193/10/3 198/10/3
f 200/11/3 194/11/3 199/11/3
f 201/11/3 194/11/3 200/11/3
f 203/9/3 196/9/3 195/9/3
f 204/9/3 196/9/3 203/9/3
f 205/8/3 204/8/3 203/8/3
f 206/8/3 204/8/3 205/8/3
f 207/9/3 206/9/3 205/9/3
f 208/9/3 206/9/3 207/9/3
f 209/10/3 198/10/3 197/10/3
f 209/6/3 197/6/3 191/6/3
f 210/11/3 199/11/3 198/11/3
f 210/10/3 198/10/3 209/10/3
f 210/11/3 200/11/3 199/11/3
f 211/11/3 200/11/3 210/11/3
f 214/6/3 210/6/3 209/6/3
f 214/10/3 211/10/3 210/10/3
f 215/11/3 200/11/3 211/11/3
f 215/10/3 211/10/3 214/10/3
f 216/11/3 200/11/3 215/11/3
f 217/8/3 213/8/3 212/8/3
f 218/8/3 213/8/3 217/8/3
f 219/6/3 215/6/3 214/6/3
f 219/10/3 216/10/3 215/10/3
f 220/11/3 200/11/3 216/11/3
f 220/10/3 216/10/3 219/10/3
f 221/11/3 200/11/3 220/11/3
f 222/9/3 218/9/3 217/9/3
f 223/9/3 218/9/3 222/9/3
f 224/8/3 223/8/3 222/8/3
f 225/8/3 223/8/3 224/8/3
f 226/6/3 220/6/3 219/6/3
f 226/10/3 221/10/3 220/10/3
f 227/11/3 200/11/3 221/11/3
f 227/10/3 221/10/3 226/10/3
f 228/11/3 200/11/3 227/11/3
f 229/11/3 202/11/3 201/11/3
f 230/11/3 202/11/3 229/11/3
f 231/9/3 225/9/3 224/9/3
f 232/9/3 225/9/3 231/9/3
f 233/6/3 214/6/3 209/6/3
f 233/6/3 209/6/3 191/6/3
f 233/6/3 219/6/3 214/6/3
f 233/6/3 226/6/3 219/6/3
f 233/6/3 227/6/3 226/6/3
f 234/10/3 228/10/3 227/10/3
f 234/6/3 227/6/3 233/6/3
f 235/11/3 229/11/3 228/11/3
f 235/10/3 228/10/3 234/10/3
f 236/11/3 229/11/3 235/11/3
f 243/9/3 238/9/3 237/9/3
f 244/10/3 239/10/3 238/10/3
f 244/9/3 238/9/3 243/9/3
f 245/6/3 240/6/3 239/6/3
f 245/10/3 239/10/3 244/10/3
f 246/6/3 240/6/3 245/6/3
f 247/6/3 240/6/3 246/6/3
f 248/10/3 241/10/3 240/10/3
f 248/6/3 240/6/3 247/6/3
f 249/11/3 242/11/3 241/11/3
f 249/10/3 241/10/3 248/10/3
f 250/8/3 244/8/3 243/8/3
f 251/9/3 245/9/3 244/9/3
f 251/8/3 244/8/3 250/8/3
f 254/9/3 251/9/3 250/9/3
f 255/10/3 246/10/3 245/10/3
f 255/9/3 245/9/3 251/9/3
f 255/9/3 251/9/3 254/9/3
f 256/6/3 247/6/3 246/6/3
f 256/10/3 246/10/3 255/10/3
f 257/6/3 247/6/3 256/6/3
f 258/6/3 247/6/3 257/6/3
f 259/10/3 248/10/3 247/10/3
f 259/6/3 247/6/3 258/6/3
f 260/11/3 249/11/3 248/11/3
f 260/10/3 248/10/3 259/10/3
f 261/11/3 242/11/3 249/11/3
f 261/11/3 249/11/3 260/11/3
f 265/10/3 253/10/3 252/10/3
f 266/9/3 263/9/3 262/9/3
f 267/8/3 264/8/3 263/8/3
f 267/9/3 263/9/3 266/9/3
f 268/8/3 264/8/3 267/8/3
f 269/10/3 253/10/3 265/10/3
f 270/9/3 268/9/3 267/9/3
f 271/9/3 268/9/3 270/9/3
f 272/10/3 253/10/3 269/10/3
f 273/10/3 253/10/3 272/10/3
f 274/6/3 254/6/3 253/6/3
f 274/10/3 253/10/3 273/10/3
f 275/6/3 254/6/3 274/6/3
f 279/10/3 277/10/3 276/10/3
f 280/10/3 277/10/3 279/10/3
f 283/10/3 277/10/3 280/10/3
f 285/9/3 282/9/3 281/9/3
f 286/9/3 282/9/3 285/9/3
f 287/10/3 277/10/3 283/10/3
f 288/6/3 278/6/3 277/6/3
f 288/10/3 277/10/3 287/10/3
f 289/6/3 278/6/3 288/6/3
f 296/9/3 285/9/3 284/9/3
f 297/8/3 286/8/3 285/8/3
f 297/9/3 285/9/3 296/9/3
f 298/8/3 286/8/3 297/8/3
f 299/9/3 290/9/3 289/9/3
f 300/9/3 290/9/3 299/9/3
f 301/8/3 300/8/3 299/8/3
f 302/9/3 290/9/3 300/9/3
f 302/8/3 300/8/3 301/8/3
f 303/10/3 291/10/3 290/10/3
f 303/9/3 290/9/3 302/9/3
f 304/6/3 292/6/3 291/6/3
f 304/10/3 291/10/3 303/10/3
f 305/10/3 293/10/3 292/10/3
f 305/6/3 292/6/3 304/6/3
f 306/11/3 295/11/3 294/11/3
f 306/10/3 293/10/3 305/10/3
f 306/11/3 294/11/3 293/11/3
f 307/11/3 295/11/3 306/11/3
f 308/9/3 302/9/3 301/9/3
f 309/10/3 303/10/3 302/10/3
f 309/9/3 302/9/3 308/9/3
f 310/6/3 305/6/3 304/6/3
f 310/10/3 303/10/3 309/10/3
f 310/6/3 304/6/3 303/6/3
f 310/6/3 306/6/3 305/6/3
f 311/10/3 307/10/3 306/10/3
f 311/6/3 306/6/3 310/6/3
f 312/11/3 295/11/3 307/11/3
f 312/10/3 307/10/3 311/10/3
f 313/11/3 295/11/3 312/11/3
f 314/9/4 315/9/4 317/9/4
f 315/8/4 316/8/4 318/8/4
f 317/9/4 315/9/4 318/9/4
f 318/8/4 316/8/4 319/8/4
f 318/9/4 319/9/4 320/9/4
f 320/9/4 319/9/4 321/9/4
f 322/9/4 323/9/4 325/9/4
f 325/9/4 323/9/4 326/9/4
f 324/9/4 325/9/4 327/9/4
f 325/8/4 326/8/4 328/8/4
f 327/9/4 325/9/4 328/9/4
f 328/8/4 326/8/4 329/8/4
f 330/8/4 331/8/4 336/8/4
f 331/10/4 332/10/4 337/10/4
f 336/8/4 331/8/4 337/8/4
f 332/6/4 333/6/4 338/6/4
f 337/10/4 332/10/4 338/10/4
f 338/6/4 333/6/4 339/6/4
f 339/6/4 333/6/4 340/6/4
f 333/10/4 334/10/4 341/10/4
f 340/6/4 333/6/4 341/6/4
f 334/11/4 335/11/4 342/11/4
f 341/10/4 334/10/4 342/10/4
f 336/9/4 337/9/4 344/9/4
f 337/9/4 338/9/4 344/9/4
f 338/10/4 339/10/4 345/10/4
f 344/9/4 338/9/4 345/9/4
f 339/6/4 340/6/4 346/6/4
f 345/10/4 339/10/4 346/10/4
f 346/6/4 340/6/4 347/6/4
f 347/6/4 340/6/4 348/6/4
f 340/10/4 341/10/4 349/10/4
f 348/6/4 340/6/4 349/6/4
f 341/11/4 342/11/4 350/11/4
f 349/10/4 341/10/4 350/10/4
f 342/11/4 335/11/4 351/11/4
f 350/11/4 342/11/4 351/11/4
f 343/6/4 344/6/4 352/6/4
f 352/6/4 344/6/4 353/6/4
f 354/6/4 355/6/4 356/6/4
f 356/6/4 355/6/4 357/6/4
f 357/9/4 358/9/4 364/9/4
f 364/9/4 358/9/4 365/9/4
f 358/10/4 359/10/4 366/10/4
f 365/9/4 358/9/4 366/9/4
f 359/6/4 360/6/4 367/6/4
f 366/10/4 359/10/4 367/10/4
f 360/10/4 361/10/4 368/10/4
f 367/6/4 360/6/4 368/6/4
f 362/11/4 363/11/4 369/11/4
f 368/10/4 361/10/4 369/10/4
f 361/11/4 362/11/4 369/11/4
f 369/11/4 363/11/4 370/11/4
f 364/8/4 365/8/4 371/8/4
f 365/10/4 366/10/4 372/10/4
f 371/8/4 365/8/4 372/8/4
f 367/6/4 368/6/4 373/6/4
f 372/10/4 366/10/4 373/10/4
f 366/6/4 367/6/4 373/6/4
f 368/6/4 369/6/4 373/6/4
f 369/10/4 370/10/4 374/10/4
f 373/6/4 369/6/4 374/6/4
f 370/11/4 363/11/4 375/11/4
f 374/10/4 370/10/4 375/10/4
f 375/11/4 363/11/4 376/11/4
f 377/6/4 378/6/4 381/6/4
f 378/10/4 379/10/4 382/10/4
f 381/6/4 378/6/4 382/6/4
f 379/11/4 380/11/4 383/11/4
f 382/10/4 379/10/4 383/10/4
f 383/11/4 380/11/4 384/11/4
f 384/11/4 380/11/4 385/11/4
f 381/10/4 382/10/4 387/10/4
f 377/6/4 381/6/4 387/6/4
f 383/11/4 384/11/4 388/11/4
f 387/10/4 382/10/4 388/10/4
f 382/11/4 383/11/4 388/11/4
f 388/11/4 384/11/4 389/11/4
f 387/6/4 388/6/4 390/6/4
f 388/10/4 389/10/4 390/10/4
f 389/11/4 384/11/4 391/11/4
f 390/10/4 389/10/4 391/10/4
f 391/11/4 384/11/4 392/11/4
f 390/6/4 391/6/4 393/6/4
f 391/10/4 392/10/4 393/10/4
f 392/11/4 384/11/4 394/11/4
f 393/10/4 392/10/4 394/10/4
f 394/11/4 384/11/4 395/11/4
f 393/6/4 394/6/4 396/6/4
f 394/10/4 395/10/4 396/10/4
f 395/11/4 384/11/4 397/11/4
f 396/10/4 395/10/4 397/10/4
f 397/11/4 384/11/4 398/11/4
f 385/11/4 386/11/4 399/11/4
f 399/11/4 386/11/4 400/11/4
f 377/6/4 387/6/4 401/6/4
f 387/6/4 390/6/4 401/6/4
f 390/6/4 393/6/4 401/6/4
f 393/6/4 396/6/4 401/6/4
f 396/6/4 397/6/4 401/6/4
f 397/10/4 398/10/4 402/10/4
f 401/6/4 397/6/4 402/6/4
f 398/11/4 399/11/4 403/11/4
f 402/10/4 398/10/4 403/10/4
f 403/11/4 399/11/4 404/11/4
f 405/11/4 406/11/4 407/11/4
f 407/11/4 406/11/4 408/11/4
f 419/8/5 410/8/5 409/8/5
f 419/9/5 411/9/5 410/9/5
f 420/8/5 412/8/5 411/8/5
f 420/9/5 411/9/5 419/9/5
f 421/9/5 413/9/5 412/9/5
f 421/8/5 412/8/5 420/8/5
f 422/9/5 413/9/5 421/9/5
f 423/8/5 415/8/5 414/8/5
f 423/9/5 416/9/5 415/9/5
f 424/8/5 417/8/5 416/8/5
f 424/9/5 416/9/5 423/9/5
f 425/9/5 418/9/5 417/9/5
f 425/8/5 417/8/5 424/8/5
f 426/9/5 418/9/5 425/9/5
f 427/8/5 419/8/5 409/8/5
f 427/8/5 420/8/5 419/8/5
f 427/8/5 422/8/5 421/8/5
f 427/8/5 421/8/5 420/8/5
f 428/8/5 422/8/5 427/8/5
f 429/8/5 424/8/5 423/8/5
f 429/8/5 423/8/5 414/8/5
f 429/8/5 426/8/5 425/8/5
f 429/8/5 425/8/5 424/8/5
f 430/8/5 426/8/5 429/8/5
f 431/10/5 428/10/5 427/10/5
f 432/10/5 428/10/5 431/10/5
f 433/10/5 430/10/5 429/10/5
f 434/10/5 430/10/5 433/10/5
f 435/6/5 432/6/5 431/6/5
f 436/6/5 432/6/5 435/6/5
f 437/6/5 434/6/5 433/6/5
f 438/6/5 434/6/5 437/6/5
f 444/6/5 440/6/5 439/6/5
f 445/6/5 440/6/5 444/6/5
f 446/6/5 440/6/5 445/6/5
f 447/6/5 440/6/5 446/6/5
f 451/9/5 442/9/5 441/9/5
f 452/8/5 443/8/5 442/8/5
f 452/9/5 442/9/5 451/9/5
f 453/9/5 444/9/5 443/9/5
f 453/8/5 443/8/5 452/8/5
f 454/8/5 449/8/5 448/8/5
f 454/9/5 448/9/5 447/9/5
f 455/9/5 450/9/5 449/9/5
f 455/8/5 449/8/5 454/8/5
f 456/9/5 450/9/5 455/9/5
f 457/8/5 452/8/5 451/8/5
f 458/9/5 453/9/5 452/9/5
f 458/8/5 452/8/5 457/8/5
f 459/9/5 455/9/5 454/9/5
f 459/8/5 456/8/5 455/8/5
f 460/8/5 456/8/5 459/8/5
f 461/9/5 458/9/5 457/9/5
f 462/9/5 453/9/5 458/9/5
f 462/9/5 458/9/5 461/9/5
f 463/9/5 459/9/5 454/9/5
f 463/9/5 460/9/5 459/9/5
f 464/9/5 460/9/5 463/9/5
f 465/8/5 462/8/5 461/8/5
f 466/9/5 453/9/5 462/9/5
f 466/8/5 462/8/5 465/8/5
f 467/9/5 444/9/5 453/9/5
f 467/9/5 453/9/5 466/9/5
f 468/6/5 446/6/5 445/6/5
f 469/6/5 446/6/5 468/6/5
f 470/9/5 454/9/5 447/9/5
f 470/9/5 463/9/5 454/9/5
f 471/8/5 464/8/5 463/8/5
f 471/9/5 463/9/5 470/9/5
f 472/8/5 464/8/5 471/8/5
f 473/6/5 469/6/5 468/6/5
f 473/6/5 468/6/5 467/6/5
f 473/6/5 470/6/5 469/6/5
f 474/6/5 470/6/5 473/6/5
f 477/9/5 476/9/5 475/9/5
f 478/9/5 476/9/5 477/9/5
f 481/11/5 480/11/5 479/11/5
f 482/11/5 480/11/5 481/11/5
f 483/8/6 484/8/6 493/8/6
f 484/9/6 485/9/6 494/9/6
f 493/8/6 484/8/6 494/8/6
f 485/8/6 486/8/6 495/8/6
f 494/9/6 485/9/6 495/9/6
f 486/9/6 487/9/6 496/9/6
f 495/8/6 486/8/6 496/8/6
f 496/9/6 487/9/6 497/9/6
f 488/8/6 489/8/6 498/8/6
f 489/9/6 490/9/6 499/9/6
f 498/8/6 489/8/6 499/8/6
f 490/8/6 491/8/6 500/8/6
f 499/9/6 490/9/6 500/9/6
f 491/9/6 492/9/6 501/9/6
f 500/8/6 491/8/6 501/8/6
f 501/9/6 492/9/6 502/9/6
f 503/11/6 504/11/6 507/11/6
f 507/11/6 504/11/6 508/11/6
f 505/11/6 506/11/6 509/11/6
f 509/11/6 506/11/6 510/11/6
f 511/9/6 512/9/6 514/9/6
f 514/9/6 512/9/6 515/9/6
f 513/11/6 514/11/6 517/11/6
f 517/11/6 514/11/6 518/11/6
f 515/11/6 516/11/6 519/11/6
f 519/11/6 516/11/6 520/11/6
f 521/11/6 522/11/6 525/11/6
f 525/11/6 522/11/6 526/11/6
f 523/11/6 524/11/6 527/11/6
f 527/11/6 524/11/6 528/11/6
f 526/11/6 527/11/6 529/11/6
f 529/11/6 527/11/6 530/11/6
f 531/11/6 532/11/6 533/11/6
f 533/11/6 532/11/6 534/11/6
f 534/11/6 532/11/6 535/11/6
f 535/11/6 532/11/6 536/11/6
f 534/11/6 535/11/6 538/11/6
f 538/11/6 535/11/6 539/11/6
f 537/11/6 538/11/6 541/11/6
f 539/11/6 540/11/6 541/11/6
f 538/11/6 539/11/6 541/11/6
f 541/11/6 540/11/6 542/11/6
f 543/8/6 544/8/6 549/8/6
f 544/9/6 545/9/6 550/9/6
f 549/8/6 544/8/6 550/8/6
f 550/9/6 545/9/6 551/9/6
f 546/9/6 547/9/6 552/9/6
f 547/8/6 548/8/6 553/8/6
f 552/9/6 547/9/6 553/9/6
f 553/8/6 548/8/6 554/8/6
