# MagicaVoxel @ Ephtracy

# group
o 

# material
mtllib Yeti_Melon.mtl
usemtl palette

# normals
vn -1 0 0
vn 1 0 0
vn 0 0 1
vn 0 0 -1
vn 0 -1 0
vn 0 1 0

# texcoords
vt 0.0605469 0.5
vt 0.0917969 0.5
vt 0.232422 0.5
vt 0.369141 0.5
vt 0.537109 0.5
vt 0.830078 0.5
vt 0.845703 0.5
vt 0.849609 0.5
vt 0.884766 0.5
vt 0.888672 0.5
vt 0.958984 0.5
vt 0.966797 0.5
vt 0.990234 0.5
vt 0.994141 0.5

# verts
v -0.9 0.5 0.1
v -0.9 0.5 -2.98023e-08
v -0.9 0.5 -0.1
v -0.9 0.5 -0.2
v -0.9 0.5 -0.3
v -0.9 0.6 0.1
v -0.9 0.6 -2.98023e-08
v -0.9 0.6 -0.1
v -0.9 0.6 -0.2
v -0.9 0.6 -0.3
v -0.9 0.7 0.1
v -0.9 0.7 -0.3
v -0.9 1.2 0.1
v -0.9 1.2 -0.3
v -0.9 1.3 0.1
v -0.9 1.3 -0.3
v -0.9 1.4 0.1
v -0.9 1.4 -0.3
v -0.6 0 0.2
v -0.6 0 -2.98023e-08
v -0.6 0 -0.1
v -0.6 0 -0.3
v -0.6 0.1 0.2
v -0.6 0.1 0.1
v -0.6 0.1 -2.98023e-08
v -0.6 0.1 -0.1
v -0.6 0.2 0.1
v -0.6 0.2 -2.98023e-08
v -0.6 0.5 0.2
v -0.6 0.5 0.1
v -0.6 0.5 -0.3
v -0.6 0.5 -0.4
v -0.6 0.7 0.1
v -0.6 0.7 -0.3
v -0.6 0.8 0.1
v -0.6 0.8 -0.3
v -0.6 0.9 0.2
v -0.6 0.9 0.1
v -0.6 0.9 -0.3
v -0.6 0.9 -0.4
v -0.6 1 0.2
v -0.6 1 0.1
v -0.6 1 -0.3
v -0.6 1 -0.4
v -0.6 1.1 0.1
v -0.6 1.1 -0.3
v -0.6 1.2 0.1
v -0.6 1.2 -0.3
v -0.6 1.4 0.1
v -0.6 1.4 -0.3
v -0.6 1.9 0.2
v -0.6 1.9 0.1
v -0.6 1.9 -2.98023e-08
v -0.6 1.9 -0.4
v -0.6 2 0.1
v -0.6 2 -2.98023e-08
v -0.6 2.1 0.1
v -0.6 2.1 -2.98023e-08
v -0.5 1.3 0.3
v -0.5 1.3 0.2
v -0.5 1.3 -0.4
v -0.5 1.3 -0.5
v -0.5 1.9 0.3
v -0.5 1.9 0.2
v -0.5 1.9 0.1
v -0.5 1.9 -2.98023e-08
v -0.5 1.9 -0.4
v -0.5 1.9 -0.5
v -0.5 2 0.2
v -0.5 2 0.1
v -0.5 2 -2.98023e-08
v -0.5 2 -0.4
v -0.1 0 0.2
v -0.1 0 -2.98023e-08
v -0.1 0 -0.1
v -0.1 0 -0.3
v -0.1 0.1 0.2
v -0.1 0.1 0.1
v -0.1 0.1 -2.98023e-08
v -0.1 0.1 -0.1
v -0.1 0.2 0.1
v -0.1 0.2 -2.98023e-08
v -0.1 0.5 0.1
v -0.1 0.5 -0.3
v 0.1 2 0.1
v 0.1 2 -2.98023e-08
v 0.1 2.1 0.1
v 0.1 2.1 -2.98023e-08
v -0.4 2 0.1
v -0.4 2 -2.98023e-08
v -0.4 2.1 0.1
v -0.4 2.1 -2.98023e-08
v -0.2 0 0.2
v -0.2 0 0.1
v -0.2 0 -2.98023e-08
v -0.2 0 -0.1
v -0.2 0 -0.3
v -0.2 0.1 0.2
v -0.2 0.1 0.1
v -0.2 0.1 -2.98023e-08
v -0.2 0.1 -0.1
v -0.2 0.2 0.1
v -0.2 0.2 -2.98023e-08
v -0.2 0.5 0.1
v -0.2 0.5 -0.3
v 0.2 1.3 0.3
v 0.2 1.3 0.2
v 0.2 1.3 -0.4
v 0.2 1.3 -0.5
v 0.2 1.9 0.3
v 0.2 1.9 0.2
v 0.2 1.9 0.1
v 0.2 1.9 -2.98023e-08
v 0.2 1.9 -0.4
v 0.2 1.9 -0.5
v 0.2 2 0.2
v 0.2 2 0.1
v 0.2 2 -2.98023e-08
v 0.2 2 -0.4
v 0.3 0 0.2
v 0.3 0 0.1
v 0.3 0 -2.98023e-08
v 0.3 0 -0.1
v 0.3 0 -0.3
v 0.3 0.1 0.2
v 0.3 0.1 0.1
v 0.3 0.1 -2.98023e-08
v 0.3 0.1 -0.1
v 0.3 0.2 0.1
v 0.3 0.2 -2.98023e-08
v 0.3 0.5 0.2
v 0.3 0.5 0.1
v 0.3 0.5 -0.3
v 0.3 0.5 -0.4
v 0.3 0.7 0.1
v 0.3 0.7 -0.3
v 0.3 0.8 0.1
v 0.3 0.8 -0.3
v 0.3 1.1 0.1
v 0.3 1.1 -0.3
v 0.3 1.2 0.2
v 0.3 1.2 0.1
v 0.3 1.2 -0.3
v 0.3 1.2 -0.4
v 0.3 1.3 0.2
v 0.3 1.3 0.1
v 0.3 1.3 -0.3
v 0.3 1.3 -0.4
v 0.3 1.4 0.1
v 0.3 1.4 -0.3
v 0.3 1.9 0.2
v 0.3 1.9 0.1
v 0.3 1.9 -2.98023e-08
v 0.3 1.9 -0.4
v 0.3 2 0.1
v 0.3 2 -2.98023e-08
v 0.3 2.1 0.1
v 0.3 2.1 -2.98023e-08
v 0.6 0.5 0.1
v 0.6 0.5 -2.98023e-08
v 0.6 0.5 -0.1
v 0.6 0.5 -0.2
v 0.6 0.5 -0.3
v 0.6 0.6 0.1
v 0.6 0.6 -2.98023e-08
v 0.6 0.6 -0.1
v 0.6 0.6 -0.2
v 0.6 0.6 -0.3
v 0.6 0.7 0.1
v 0.6 0.7 -0.3
v 0.6 1.2 0.1
v 0.6 1.2 -0.3
v 0.6 1.3 0.1
v 0.6 1.3 -0.3
v 0.6 1.4 0.1
v 0.6 1.4 -0.3
v -0.5 1.3 0.3
v -0.5 1.9 0.3
v -0.3 1.6 0.3
v -0.3 1.8 0.3
v -0.2 1.6 0.3
v -0.2 1.8 0.3
v -0.1 1.6 0.3
v -0.1 1.8 0.3
v 0 1.6 0.3
v 0 1.8 0.3
v 0.2 1.3 0.3
v 0.2 1.9 0.3
v -0.6 0 0.2
v -0.6 0.1 0.2
v -0.6 0.5 0.2
v -0.6 0.9 0.2
v -0.6 1 0.2
v -0.6 1.9 0.2
v -0.5 0 0.2
v -0.5 0.1 0.2
v -0.5 0.8 0.2
v -0.5 0.9 0.2
v -0.5 1 0.2
v -0.5 1.3 0.2
v -0.5 1.9 0.2
v -0.5 2 0.2
v -0.4 0 0.2
v -0.4 0.1 0.2
v -0.3 0 0.2
v -0.3 0.1 0.2
v -0.2 0 0.2
v -0.2 0.1 0.2
v -0.2 0.8 0.2
v -0.2 0.9 0.2
v -0.2 1 0.2
v -0.1 0 0.2
v -0.1 0.1 0.2
v -0.1 0.9 0.2
v -0.1 1 0.2
v -0.1 1.1 0.2
v 0 0 0.2
v 0 0.1 0.2
v 0 1 0.2
v 0 1.1 0.2
v 0 1.2 0.2
v 0.1 0 0.2
v 0.1 0.1 0.2
v 0.2 0 0.2
v 0.2 0.1 0.2
v 0.2 1.1 0.2
v 0.2 1.2 0.2
v 0.2 1.3 0.2
v 0.2 1.9 0.2
v 0.2 2 0.2
v 0.3 0 0.2
v 0.3 0.1 0.2
v 0.3 0.5 0.2
v 0.3 1.2 0.2
v 0.3 1.3 0.2
v 0.3 1.9 0.2
v -0.9 0.5 0.1
v -0.9 0.6 0.1
v -0.9 0.7 0.1
v -0.9 1.2 0.1
v -0.9 1.3 0.1
v -0.9 1.4 0.1
v -0.8 0.5 0.1
v -0.8 0.6 0.1
v -0.8 0.7 0.1
v -0.8 0.8 0.1
v -0.8 1.1 0.1
v -0.8 1.2 0.1
v -0.8 1.3 0.1
v -0.7 0.5 0.1
v -0.7 0.6 0.1
v -0.6 0.1 0.1
v -0.6 0.2 0.1
v -0.6 0.5 0.1
v -0.6 0.7 0.1
v -0.6 0.8 0.1
v -0.6 0.9 0.1
v -0.6 1 0.1
v -0.6 1.1 0.1
v -0.6 1.2 0.1
v -0.6 1.4 0.1
v -0.6 1.9 0.1
v -0.6 2 0.1
v -0.6 2.1 0.1
v -0.5 0.1 0.1
v -0.5 1.9 0.1
v -0.5 2 0.1
v -0.5 2.1 0.1
v -0.4 0.1 0.1
v -0.4 2 0.1
v -0.4 2.1 0.1
v -0.3 0.1 0.1
v -0.2 0.1 0.1
v -0.2 0.2 0.1
v -0.2 0.5 0.1
v -0.1 0.1 0.1
v -0.1 0.2 0.1
v -0.1 0.5 0.1
v 0 0.1 0.1
v 0.1 0.1 0.1
v 0.1 2 0.1
v 0.1 2.1 0.1
v 0.2 0.1 0.1
v 0.2 1.9 0.1
v 0.2 2 0.1
v 0.2 2.1 0.1
v 0.3 0.1 0.1
v 0.3 0.2 0.1
v 0.3 0.5 0.1
v 0.3 0.7 0.1
v 0.3 0.8 0.1
v 0.3 1.1 0.1
v 0.3 1.2 0.1
v 0.3 1.3 0.1
v 0.3 1.4 0.1
v 0.3 1.9 0.1
v 0.3 2 0.1
v 0.3 2.1 0.1
v 0.4 0.5 0.1
v 0.4 0.6 0.1
v 0.5 0.5 0.1
v 0.5 0.6 0.1
v 0.5 0.7 0.1
v 0.5 0.8 0.1
v 0.5 1.1 0.1
v 0.5 1.2 0.1
v 0.5 1.3 0.1
v 0.6 0.5 0.1
v 0.6 0.6 0.1
v 0.6 0.7 0.1
v 0.6 1.2 0.1
v 0.6 1.3 0.1
v 0.6 1.4 0.1
v -0.6 1.9 -2.98023e-08
v -0.6 2 -2.98023e-08
v -0.6 2.1 -2.98023e-08
v -0.5 1.9 -2.98023e-08
v -0.5 2 -2.98023e-08
v -0.5 2.1 -2.98023e-08
v -0.4 2 -2.98023e-08
v -0.4 2.1 -2.98023e-08
v 0.1 2 -2.98023e-08
v 0.1 2.1 -2.98023e-08
v 0.2 1.9 -2.98023e-08
v 0.2 2 -2.98023e-08
v 0.2 2.1 -2.98023e-08
v 0.3 1.9 -2.98023e-08
v 0.3 2 -2.98023e-08
v 0.3 2.1 -2.98023e-08
v -0.9 0.5 -0.3
v -0.9 0.6 -0.3
v -0.9 0.7 -0.3
v -0.9 1.2 -0.3
v -0.9 1.3 -0.3
v -0.9 1.4 -0.3
v -0.8 0.5 -0.3
v -0.8 0.6 -0.3
v -0.8 0.7 -0.3
v -0.8 0.8 -0.3
v -0.8 1.1 -0.3
v -0.8 1.2 -0.3
v -0.8 1.3 -0.3
v -0.6 0 -0.3
v -0.6 0.5 -0.3
v -0.6 0.7 -0.3
v -0.6 0.8 -0.3
v -0.6 0.9 -0.3
v -0.6 1 -0.3
v -0.6 1.1 -0.3
v -0.6 1.2 -0.3
v -0.6 1.4 -0.3
v -0.2 0 -0.3
v -0.2 0.5 -0.3
v -0.1 0 -0.3
v -0.1 0.5 -0.3
v 0.3 0 -0.3
v 0.3 0.5 -0.3
v 0.3 0.7 -0.3
v 0.3 0.8 -0.3
v 0.3 1.1 -0.3
v 0.3 1.2 -0.3
v 0.3 1.3 -0.3
v 0.3 1.4 -0.3
v 0.5 0.5 -0.3
v 0.5 0.6 -0.3
v 0.5 0.7 -0.3
v 0.5 0.8 -0.3
v 0.5 1.1 -0.3
v 0.5 1.2 -0.3
v 0.5 1.3 -0.3
v 0.6 0.5 -0.3
v 0.6 0.6 -0.3
v 0.6 0.7 -0.3
v 0.6 1.2 -0.3
v 0.6 1.3 -0.3
v 0.6 1.4 -0.3
v -0.6 0.5 -0.4
v -0.6 0.9 -0.4
v -0.6 1 -0.4
v -0.6 1.9 -0.4
v -0.5 0.8 -0.4
v -0.5 0.9 -0.4
v -0.5 1 -0.4
v -0.5 1.3 -0.4
v -0.5 1.9 -0.4
v -0.5 2 -0.4
v -0.2 0.8 -0.4
v -0.2 0.9 -0.4
v -0.2 1 -0.4
v -0.1 0.9 -0.4
v -0.1 1 -0.4
v -0.1 1.1 -0.4
v 0 1 -0.4
v 0 1.1 -0.4
v 0 1.2 -0.4
v 0.2 1.1 -0.4
v 0.2 1.2 -0.4
v 0.2 1.3 -0.4
v 0.2 1.9 -0.4
v 0.2 2 -0.4
v 0.3 0.5 -0.4
v 0.3 1.2 -0.4
v 0.3 1.3 -0.4
v 0.3 1.9 -0.4
v -0.5 1.3 -0.5
v -0.5 1.9 -0.5
v 0.2 1.3 -0.5
v 0.2 1.9 -0.5
v -0.6 0 0.2
v -0.5 0 0.2
v -0.4 0 0.2
v -0.3 0 0.2
v -0.2 0 0.2
v -0.1 0 0.2
v 0 0 0.2
v 0.1 0 0.2
v 0.2 0 0.2
v 0.3 0 0.2
v -0.5 0 0.1
v -0.4 0 0.1
v -0.3 0 0.1
v -0.2 0 0.1
v 0 0 0.1
v 0.1 0 0.1
v 0.2 0 0.1
v 0.3 0 0.1
v -0.6 0 -2.98023e-08
v -0.2 0 -2.98023e-08
v -0.1 0 -2.98023e-08
v 0.3 0 -2.98023e-08
v -0.6 0 -0.1
v -0.2 0 -0.1
v -0.1 0 -0.1
v 0.3 0 -0.1
v -0.6 0 -0.3
v -0.2 0 -0.3
v -0.1 0 -0.3
v 0.3 0 -0.3
v -0.6 0.5 0.2
v 0.3 0.5 0.2
v -0.9 0.5 0.1
v -0.8 0.5 0.1
v -0.7 0.5 0.1
v -0.6 0.5 0.1
v -0.2 0.5 0.1
v -0.1 0.5 0.1
v 0.3 0.5 0.1
v 0.4 0.5 0.1
v 0.5 0.5 0.1
v 0.6 0.5 0.1
v -0.9 0.5 -2.98023e-08
v -0.8 0.5 -2.98023e-08
v -0.7 0.5 -2.98023e-08
v 0.4 0.5 -2.98023e-08
v 0.5 0.5 -2.98023e-08
v 0.6 0.5 -2.98023e-08
v -0.9 0.5 -0.1
v -0.8 0.5 -0.1
v 0.5 0.5 -0.1
v 0.6 0.5 -0.1
v -0.9 0.5 -0.2
v -0.8 0.5 -0.2
v 0.5 0.5 -0.2
v 0.6 0.5 -0.2
v -0.9 0.5 -0.3
v -0.8 0.5 -0.3
v -0.6 0.5 -0.3
v -0.2 0.5 -0.3
v -0.1 0.5 -0.3
v 0.3 0.5 -0.3
v 0.5 0.5 -0.3
v 0.6 0.5 -0.3
v -0.6 0.5 -0.4
v 0.3 0.5 -0.4
v -0.5 1.3 0.3
v 0.2 1.3 0.3
v -0.5 1.3 0.2
v 0.2 1.3 0.2
v -0.5 1.3 -0.4
v 0.2 1.3 -0.4
v -0.5 1.3 -0.5
v 0.2 1.3 -0.5
v -0.6 0.1 0.2
v -0.5 0.1 0.2
v -0.4 0.1 0.2
v -0.3 0.1 0.2
v -0.2 0.1 0.2
v -0.1 0.1 0.2
v 0 0.1 0.2
v 0.1 0.1 0.2
v 0.2 0.1 0.2
v 0.3 0.1 0.2
v -0.6 0.1 0.1
v -0.5 0.1 0.1
v -0.4 0.1 0.1
v -0.3 0.1 0.1
v -0.2 0.1 0.1
v -0.1 0.1 0.1
v 0 0.1 0.1
v 0.1 0.1 0.1
v 0.2 0.1 0.1
v 0.3 0.1 0.1
v -0.9 1.4 0.1
v -0.6 1.4 0.1
v 0.3 1.4 0.1
v 0.6 1.4 0.1
v -0.9 1.4 -0.3
v -0.6 1.4 -0.3
v 0.3 1.4 -0.3
v 0.6 1.4 -0.3
v -0.5 1.9 0.3
v 0.2 1.9 0.3
v -0.6 1.9 0.2
v -0.5 1.9 0.2
v 0.2 1.9 0.2
v 0.3 1.9 0.2
v -0.6 1.9 0.1
v -0.5 1.9 0.1
v 0.2 1.9 0.1
v 0.3 1.9 0.1
v -0.6 1.9 -2.98023e-08
v -0.5 1.9 -2.98023e-08
v 0.2 1.9 -2.98023e-08
v 0.3 1.9 -2.98023e-08
v -0.6 1.9 -0.4
v -0.5 1.9 -0.4
v 0.2 1.9 -0.4
v 0.3 1.9 -0.4
v -0.5 1.9 -0.5
v 0.2 1.9 -0.5
v -0.5 2 0.2
v 0.2 2 0.2
v -0.5 2 0.1
v -0.4 2 0.1
v 0.1 2 0.1
v 0.2 2 0.1
v -0.5 2 -2.98023e-08
v -0.4 2 -2.98023e-08
v 0.1 2 -2.98023e-08
v 0.2 2 -2.98023e-08
v -0.5 2 -0.4
v 0.2 2 -0.4
v -0.6 2.1 0.1
v -0.5 2.1 0.1
v -0.4 2.1 0.1
v 0.1 2.1 0.1
v 0.2 2.1 0.1
v 0.3 2.1 0.1
v -0.6 2.1 -2.98023e-08
v -0.5 2.1 -2.98023e-08
v -0.4 2.1 -2.98023e-08
v 0.1 2.1 -2.98023e-08
v 0.2 2.1 -2.98023e-08
v 0.3 2.1 -2.98023e-08

# faces
f 6/12/1 2/12/1 1/12/1
f 7/11/1 3/11/1 2/11/1
f 7/12/1 2/12/1 6/12/1
f 8/12/1 4/12/1 3/12/1
f 8/11/1 3/11/1 7/11/1
f 9/11/1 5/11/1 4/11/1
f 9/12/1 4/12/1 8/12/1
f 10/11/1 5/11/1 9/11/1
f 11/1/1 8/1/1 7/1/1
f 11/1/1 7/1/1 6/1/1
f 11/1/1 10/1/1 9/1/1
f 11/1/1 9/1/1 8/1/1
f 12/1/1 10/1/1 11/1/1
f 13/2/1 12/2/1 11/2/1
f 14/2/1 12/2/1 13/2/1
f 15/1/1 14/1/1 13/1/1
f 16/1/1 14/1/1 15/1/1
f 17/9/1 16/9/1 15/9/1
f 18/9/1 16/9/1 17/9/1
f 23/11/1 20/11/1 19/11/1
f 24/11/1 20/11/1 23/11/1
f 25/1/1 21/1/1 20/1/1
f 25/11/1 20/11/1 24/11/1
f 26/2/1 22/2/1 21/2/1
f 26/1/1 21/1/1 25/1/1
f 27/1/1 25/1/1 24/1/1
f 28/2/1 26/2/1 25/2/1
f 28/1/1 25/1/1 27/1/1
f 30/2/1 28/2/1 27/2/1
f 31/2/1 22/2/1 26/2/1
f 31/2/1 26/2/1 28/2/1
f 31/2/1 28/2/1 30/2/1
f 33/2/1 30/2/1 29/2/1
f 34/2/1 32/2/1 31/2/1
f 35/2/1 33/2/1 29/2/1
f 36/2/1 32/2/1 34/2/1
f 37/2/1 35/2/1 29/2/1
f 38/2/1 35/2/1 37/2/1
f 39/2/1 32/2/1 36/2/1
f 40/2/1 32/2/1 39/2/1
f 41/1/1 38/1/1 37/1/1
f 42/1/1 38/1/1 41/1/1
f 43/1/1 40/1/1 39/1/1
f 44/1/1 40/1/1 43/1/1
f 45/9/1 42/9/1 41/9/1
f 46/9/1 44/9/1 43/9/1
f 47/9/1 45/9/1 41/9/1
f 48/9/1 44/9/1 46/9/1
f 49/9/1 47/9/1 41/9/1
f 50/9/1 44/9/1 48/9/1
f 51/9/1 49/9/1 41/9/1
f 51/9/1 50/9/1 49/9/1
f 52/9/1 50/9/1 51/9/1
f 53/9/1 50/9/1 52/9/1
f 54/9/1 44/9/1 50/9/1
f 54/9/1 50/9/1 53/9/1
f 55/12/1 53/12/1 52/12/1
f 56/12/1 53/12/1 55/12/1
f 57/11/1 56/11/1 55/11/1
f 58/11/1 56/11/1 57/11/1
f 63/12/1 60/12/1 59/12/1
f 64/12/1 60/12/1 63/12/1
f 67/9/1 62/9/1 61/9/1
f 68/9/1 62/9/1 67/9/1
f 69/9/1 65/9/1 64/9/1
f 70/9/1 65/9/1 69/9/1
f 71/9/1 67/9/1 66/9/1
f 72/9/1 67/9/1 71/9/1
f 77/11/1 74/11/1 73/11/1
f 78/11/1 74/11/1 77/11/1
f 79/1/1 75/1/1 74/1/1
f 79/11/1 74/11/1 78/11/1
f 80/2/1 76/2/1 75/2/1
f 80/1/1 75/1/1 79/1/1
f 81/1/1 79/1/1 78/1/1
f 82/2/1 80/2/1 79/2/1
f 82/1/1 79/1/1 81/1/1
f 83/2/1 82/2/1 81/2/1
f 84/2/1 76/2/1 80/2/1
f 84/2/1 82/2/1 83/2/1
f 84/2/1 80/2/1 82/2/1
f 87/12/1 86/12/1 85/12/1
f 88/12/1 86/12/1 87/12/1
f 89/12/2 90/12/2 91/12/2
f 91/12/2 90/12/2 92/12/2
f 93/12/2 94/12/2 98/12/2
f 94/11/2 95/11/2 99/11/2
f 98/12/2 94/12/2 99/12/2
f 95/1/2 96/1/2 100/1/2
f 99/11/2 95/11/2 100/11/2
f 96/2/2 97/2/2 101/2/2
f 100/1/2 96/1/2 101/1/2
f 99/1/2 100/1/2 102/1/2
f 100/2/2 101/2/2 103/2/2
f 102/1/2 100/1/2 103/1/2
f 102/2/2 103/2/2 104/2/2
f 101/2/2 97/2/2 105/2/2
f 104/2/2 103/2/2 105/2/2
f 103/2/2 101/2/2 105/2/2
f 106/12/2 107/12/2 110/12/2
f 110/12/2 107/12/2 111/12/2
f 108/9/2 109/9/2 114/9/2
f 114/9/2 109/9/2 115/9/2
f 111/9/2 112/9/2 116/9/2
f 116/9/2 112/9/2 117/9/2
f 113/9/2 114/9/2 118/9/2
f 118/9/2 114/9/2 119/9/2
f 120/12/2 121/12/2 125/12/2
f 121/11/2 122/11/2 126/11/2
f 125/12/2 121/12/2 126/12/2
f 122/1/2 123/1/2 127/1/2
f 126/11/2 122/11/2 127/11/2
f 123/2/2 124/2/2 128/2/2
f 127/1/2 123/1/2 128/1/2
f 126/1/2 127/1/2 129/1/2
f 127/2/2 128/2/2 130/2/2
f 129/1/2 127/1/2 130/1/2
f 129/2/2 130/2/2 132/2/2
f 128/2/2 124/2/2 133/2/2
f 130/2/2 128/2/2 133/2/2
f 132/2/2 130/2/2 133/2/2
f 131/2/2 132/2/2 135/2/2
f 133/2/2 134/2/2 136/2/2
f 131/2/2 135/2/2 137/2/2
f 136/2/2 134/2/2 138/2/2
f 131/2/2 137/2/2 139/2/2
f 138/2/2 134/2/2 140/2/2
f 131/2/2 139/2/2 141/2/2
f 141/2/2 139/2/2 142/2/2
f 140/2/2 134/2/2 143/2/2
f 143/2/2 134/2/2 144/2/2
f 141/1/2 142/1/2 145/1/2
f 145/1/2 142/1/2 146/1/2
f 143/1/2 144/1/2 147/1/2
f 147/1/2 144/1/2 148/1/2
f 145/9/2 146/9/2 149/9/2
f 147/9/2 148/9/2 150/9/2
f 145/9/2 149/9/2 151/9/2
f 149/9/2 150/9/2 151/9/2
f 151/9/2 150/9/2 152/9/2
f 152/9/2 150/9/2 153/9/2
f 150/9/2 148/9/2 154/9/2
f 153/9/2 150/9/2 154/9/2
f 152/12/2 153/12/2 155/12/2
f 155/12/2 153/12/2 156/12/2
f 155/11/2 156/11/2 157/11/2
f 157/11/2 156/11/2 158/11/2
f 159/12/2 160/12/2 164/12/2
f 160/11/2 161/11/2 165/11/2
f 164/12/2 160/12/2 165/12/2
f 161/12/2 162/12/2 166/12/2
f 165/11/2 161/11/2 166/11/2
f 162/11/2 163/11/2 167/11/2
f 166/12/2 162/12/2 167/12/2
f 167/11/2 163/11/2 168/11/2
f 165/1/2 166/1/2 169/1/2
f 164/1/2 165/1/2 169/1/2
f 167/1/2 168/1/2 169/1/2
f 166/1/2 167/1/2 169/1/2
f 169/1/2 168/1/2 170/1/2
f 169/2/2 170/2/2 171/2/2
f 171/2/2 170/2/2 172/2/2
f 171/1/2 172/1/2 173/1/2
f 173/1/2 172/1/2 174/1/2
f 173/9/2 174/9/2 175/9/2
f 175/9/2 174/9/2 176/9/2
f 179/12/3 178/12/3 177/12/3
f 180/12/3 178/12/3 179/12/3
f 181/12/3 179/12/3 177/12/3
f 181/14/3 180/14/3 179/14/3
f 182/12/3 178/12/3 180/12/3
f 182/14/3 180/14/3 181/14/3
f 183/12/3 181/12/3 177/12/3
f 183/12/3 182/12/3 181/12/3
f 184/12/3 178/12/3 182/12/3
f 184/12/3 182/12/3 183/12/3
f 185/12/3 183/12/3 177/12/3
f 185/14/3 184/14/3 183/14/3
f 186/12/3 178/12/3 184/12/3
f 186/14/3 184/14/3 185/14/3
f 187/12/3 185/12/3 177/12/3
f 187/12/3 186/12/3 185/12/3
f 188/12/3 178/12/3 186/12/3
f 188/12/3 186/12/3 187/12/3
f 195/11/3 190/11/3 189/11/3
f 196/11/3 190/11/3 195/11/3
f 197/2/3 192/2/3 191/2/3
f 198/1/3 193/1/3 192/1/3
f 198/2/3 192/2/3 197/2/3
f 199/9/3 194/9/3 193/9/3
f 199/1/3 193/1/3 198/1/3
f 200/9/3 194/9/3 199/9/3
f 201/9/3 194/9/3 200/9/3
f 203/12/3 196/12/3 195/12/3
f 204/12/3 196/12/3 203/12/3
f 205/11/3 204/11/3 203/11/3
f 206/11/3 204/11/3 205/11/3
f 207/12/3 206/12/3 205/12/3
f 208/12/3 206/12/3 207/12/3
f 209/1/3 198/1/3 197/1/3
f 209/2/3 197/2/3 191/2/3
f 210/9/3 199/9/3 198/9/3
f 210/1/3 198/1/3 209/1/3
f 210/9/3 200/9/3 199/9/3
f 211/9/3 200/9/3 210/9/3
f 214/2/3 210/2/3 209/2/3
f 214/1/3 211/1/3 210/1/3
f 215/9/3 200/9/3 211/9/3
f 215/1/3 211/1/3 214/1/3
f 216/9/3 200/9/3 215/9/3
f 217/11/3 213/11/3 212/11/3
f 218/11/3 213/11/3 217/11/3
f 219/2/3 215/2/3 214/2/3
f 219/1/3 216/1/3 215/1/3
f 220/9/3 200/9/3 216/9/3
f 220/1/3 216/1/3 219/1/3
f 221/9/3 200/9/3 220/9/3
f 222/12/3 218/12/3 217/12/3
f 223/12/3 218/12/3 222/12/3
f 224/11/3 223/11/3 222/11/3
f 225/11/3 223/11/3 224/11/3
f 226/2/3 220/2/3 219/2/3
f 226/1/3 221/1/3 220/1/3
f 227/9/3 200/9/3 221/9/3
f 227/1/3 221/1/3 226/1/3
f 228/9/3 200/9/3 227/9/3
f 229/9/3 202/9/3 201/9/3
f 230/9/3 202/9/3 229/9/3
f 231/12/3 225/12/3 224/12/3
f 232/12/3 225/12/3 231/12/3
f 233/2/3 214/2/3 209/2/3
f 233/2/3 209/2/3 191/2/3
f 233/2/3 219/2/3 214/2/3
f 233/2/3 226/2/3 219/2/3
f 233/2/3 227/2/3 226/2/3
f 234/1/3 228/1/3 227/1/3
f 234/2/3 227/2/3 233/2/3
f 235/9/3 229/9/3 228/9/3
f 235/1/3 228/1/3 234/1/3
f 236/9/3 229/9/3 235/9/3
f 243/12/3 238/12/3 237/12/3
f 244/1/3 239/1/3 238/1/3
f 244/12/3 238/12/3 243/12/3
f 245/2/3 240/2/3 239/2/3
f 245/1/3 239/1/3 244/1/3
f 246/2/3 240/2/3 245/2/3
f 247/2/3 240/2/3 246/2/3
f 248/1/3 241/1/3 240/1/3
f 248/2/3 240/2/3 247/2/3
f 249/9/3 242/9/3 241/9/3
f 249/1/3 241/1/3 248/1/3
f 250/11/3 244/11/3 243/11/3
f 251/12/3 245/12/3 244/12/3
f 251/11/3 244/11/3 250/11/3
f 254/12/3 251/12/3 250/12/3
f 255/1/3 246/1/3 245/1/3
f 255/12/3 245/12/3 251/12/3
f 255/12/3 251/12/3 254/12/3
f 256/2/3 247/2/3 246/2/3
f 256/1/3 246/1/3 255/1/3
f 257/2/3 247/2/3 256/2/3
f 258/2/3 247/2/3 257/2/3
f 259/1/3 248/1/3 247/1/3
f 259/2/3 247/2/3 258/2/3
f 260/9/3 249/9/3 248/9/3
f 260/1/3 248/1/3 259/1/3
f 261/9/3 242/9/3 249/9/3
f 261/9/3 249/9/3 260/9/3
f 265/1/3 253/1/3 252/1/3
f 266/12/3 263/12/3 262/12/3
f 267/11/3 264/11/3 263/11/3
f 267/12/3 263/12/3 266/12/3
f 268/11/3 264/11/3 267/11/3
f 269/1/3 253/1/3 265/1/3
f 270/12/3 268/12/3 267/12/3
f 271/12/3 268/12/3 270/12/3
f 272/1/3 253/1/3 269/1/3
f 273/1/3 253/1/3 272/1/3
f 274/2/3 254/2/3 253/2/3
f 274/1/3 253/1/3 273/1/3
f 275/2/3 254/2/3 274/2/3
f 279/1/3 277/1/3 276/1/3
f 280/1/3 277/1/3 279/1/3
f 283/1/3 277/1/3 280/1/3
f 285/12/3 282/12/3 281/12/3
f 286/12/3 282/12/3 285/12/3
f 287/1/3 277/1/3 283/1/3
f 288/2/3 278/2/3 277/2/3
f 288/1/3 277/1/3 287/1/3
f 289/2/3 278/2/3 288/2/3
f 296/12/3 285/12/3 284/12/3
f 297/11/3 286/11/3 285/11/3
f 297/12/3 285/12/3 296/12/3
f 298/11/3 286/11/3 297/11/3
f 299/12/3 290/12/3 289/12/3
f 300/12/3 290/12/3 299/12/3
f 301/11/3 300/11/3 299/11/3
f 302/12/3 290/12/3 300/12/3
f 302/11/3 300/11/3 301/11/3
f 303/1/3 291/1/3 290/1/3
f 303/12/3 290/12/3 302/12/3
f 304/2/3 292/2/3 291/2/3
f 304/1/3 291/1/3 303/1/3
f 305/1/3 293/1/3 292/1/3
f 305/2/3 292/2/3 304/2/3
f 306/9/3 295/9/3 294/9/3
f 306/1/3 293/1/3 305/1/3
f 306/9/3 294/9/3 293/9/3
f 307/9/3 295/9/3 306/9/3
f 308/12/3 302/12/3 301/12/3
f 309/1/3 303/1/3 302/1/3
f 309/12/3 302/12/3 308/12/3
f 310/2/3 305/2/3 304/2/3
f 310/1/3 303/1/3 309/1/3
f 310/2/3 304/2/3 303/2/3
f 310/2/3 306/2/3 305/2/3
f 311/1/3 307/1/3 306/1/3
f 311/2/3 306/2/3 310/2/3
f 312/9/3 295/9/3 307/9/3
f 312/1/3 307/1/3 311/1/3
f 313/9/3 295/9/3 312/9/3
f 314/12/4 315/12/4 317/12/4
f 315/11/4 316/11/4 318/11/4
f 317/12/4 315/12/4 318/12/4
f 318/11/4 316/11/4 319/11/4
f 318/12/4 319/12/4 320/12/4
f 320/12/4 319/12/4 321/12/4
f 322/12/4 323/12/4 325/12/4
f 325/12/4 323/12/4 326/12/4
f 324/12/4 325/12/4 327/12/4
f 325/11/4 326/11/4 328/11/4
f 327/12/4 325/12/4 328/12/4
f 328/11/4 326/11/4 329/11/4
f 330/11/4 331/11/4 336/11/4
f 331/1/4 332/1/4 337/1/4
f 336/11/4 331/11/4 337/11/4
f 332/2/4 333/2/4 338/2/4
f 337/1/4 332/1/4 338/1/4
f 338/2/4 333/2/4 339/2/4
f 339/2/4 333/2/4 340/2/4
f 333/1/4 334/1/4 341/1/4
f 340/2/4 333/2/4 341/2/4
f 334/9/4 335/9/4 342/9/4
f 341/1/4 334/1/4 342/1/4
f 336/12/4 337/12/4 344/12/4
f 337/12/4 338/12/4 344/12/4
f 338/1/4 339/1/4 345/1/4
f 344/12/4 338/12/4 345/12/4
f 339/2/4 340/2/4 346/2/4
f 345/1/4 339/1/4 346/1/4
f 346/2/4 340/2/4 347/2/4
f 347/2/4 340/2/4 348/2/4
f 340/1/4 341/1/4 349/1/4
f 348/2/4 340/2/4 349/2/4
f 341/9/4 342/9/4 350/9/4
f 349/1/4 341/1/4 350/1/4
f 342/9/4 335/9/4 351/9/4
f 350/9/4 342/9/4 351/9/4
f 343/2/4 344/2/4 352/2/4
f 352/2/4 344/2/4 353/2/4
f 354/2/4 355/2/4 356/2/4
f 356/2/4 355/2/4 357/2/4
f 357/12/4 358/12/4 364/12/4
f 364/12/4 358/12/4 365/12/4
f 358/1/4 359/1/4 366/1/4
f 365/12/4 358/12/4 366/12/4
f 359/2/4 360/2/4 367/2/4
f 366/1/4 359/1/4 367/1/4
f 360/1/4 361/1/4 368/1/4
f 367/2/4 360/2/4 368/2/4
f 362/9/4 363/9/4 369/9/4
f 368/1/4 361/1/4 369/1/4
f 361/9/4 362/9/4 369/9/4
f 369/9/4 363/9/4 370/9/4
f 364/11/4 365/11/4 371/11/4
f 365/1/4 366/1/4 372/1/4
f 371/11/4 365/11/4 372/11/4
f 367/2/4 368/2/4 373/2/4
f 372/1/4 366/1/4 373/1/4
f 366/2/4 367/2/4 373/2/4
f 368/2/4 369/2/4 373/2/4
f 369/1/4 370/1/4 374/1/4
f 373/2/4 369/2/4 374/2/4
f 370/9/4 363/9/4 375/9/4
f 374/1/4 370/1/4 375/1/4
f 375/9/4 363/9/4 376/9/4
f 377/2/4 378/2/4 381/2/4
f 378/1/4 379/1/4 382/1/4
f 381/2/4 378/2/4 382/2/4
f 379/9/4 380/9/4 383/9/4
f 382/1/4 379/1/4 383/1/4
f 383/9/4 380/9/4 384/9/4
f 384/9/4 380/9/4 385/9/4
f 381/1/4 382/1/4 387/1/4
f 377/2/4 381/2/4 387/2/4
f 383/9/4 384/9/4 388/9/4
f 387/1/4 382/1/4 388/1/4
f 382/9/4 383/9/4 388/9/4
f 388/9/4 384/9/4 389/9/4
f 387/2/4 388/2/4 390/2/4
f 388/1/4 389/1/4 390/1/4
f 389/9/4 384/9/4 391/9/4
f 390/1/4 389/1/4 391/1/4
f 391/9/4 384/9/4 392/9/4
f 390/2/4 391/2/4 393/2/4
f 391/1/4 392/1/4 393/1/4
f 392/9/4 384/9/4 394/9/4
f 393/1/4 392/1/4 394/1/4
f 394/9/4 384/9/4 395/9/4
f 393/2/4 394/2/4 396/2/4
f 394/1/4 395/1/4 396/1/4
f 395/9/4 384/9/4 397/9/4
f 396/1/4 395/1/4 397/1/4
f 397/9/4 384/9/4 398/9/4
f 385/9/4 386/9/4 399/9/4
f 399/9/4 386/9/4 400/9/4
f 377/2/4 387/2/4 401/2/4
f 387/2/4 390/2/4 401/2/4
f 390/2/4 393/2/4 401/2/4
f 393/2/4 396/2/4 401/2/4
f 396/2/4 397/2/4 401/2/4
f 397/1/4 398/1/4 402/1/4
f 401/2/4 397/2/4 402/2/4
f 398/9/4 399/9/4 403/9/4
f 402/1/4 398/1/4 403/1/4
f 403/9/4 399/9/4 404/9/4
f 405/9/4 406/9/4 407/9/4
f 407/9/4 406/9/4 408/9/4
f 419/11/5 410/11/5 409/11/5
f 419/12/5 411/12/5 410/12/5
f 420/11/5 412/11/5 411/11/5
f 420/12/5 411/12/5 419/12/5
f 421/12/5 413/12/5 412/12/5
f 421/11/5 412/11/5 420/11/5
f 422/12/5 413/12/5 421/12/5
f 423/11/5 415/11/5 414/11/5
f 423/12/5 416/12/5 415/12/5
f 424/11/5 417/11/5 416/11/5
f 424/12/5 416/12/5 423/12/5
f 425/12/5 418/12/5 417/12/5
f 425/11/5 417/11/5 424/11/5
f 426/12/5 418/12/5 425/12/5
f 427/11/5 419/11/5 409/11/5
f 427/11/5 420/11/5 419/11/5
f 427/11/5 422/11/5 421/11/5
f 427/11/5 421/11/5 420/11/5
f 428/11/5 422/11/5 427/11/5
f 429/11/5 424/11/5 423/11/5
f 429/11/5 423/11/5 414/11/5
f 429/11/5 426/11/5 425/11/5
f 429/11/5 425/11/5 424/11/5
f 430/11/5 426/11/5 429/11/5
f 431/1/5 428/1/5 427/1/5
f 432/1/5 428/1/5 431/1/5
f 433/1/5 430/1/5 429/1/5
f 434/1/5 430/1/5 433/1/5
f 435/2/5 432/2/5 431/2/5
f 436/2/5 432/2/5 435/2/5
f 437/2/5 434/2/5 433/2/5
f 438/2/5 434/2/5 437/2/5
f 444/2/5 440/2/5 439/2/5
f 445/2/5 440/2/5 444/2/5
f 446/2/5 440/2/5 445/2/5
f 447/2/5 440/2/5 446/2/5
f 451/12/5 442/12/5 441/12/5
f 452/11/5 443/11/5 442/11/5
f 452/12/5 442/12/5 451/12/5
f 453/12/5 444/12/5 443/12/5
f 453/11/5 443/11/5 452/11/5
f 454/11/5 449/11/5 448/11/5
f 454/12/5 448/12/5 447/12/5
f 455/12/5 450/12/5 449/12/5
f 455/11/5 449/11/5 454/11/5
f 456/12/5 450/12/5 455/12/5
f 457/11/5 452/11/5 451/11/5
f 458/12/5 453/12/5 452/12/5
f 458/11/5 452/11/5 457/11/5
f 459/12/5 455/12/5 454/12/5
f 459/11/5 456/11/5 455/11/5
f 460/11/5 456/11/5 459/11/5
f 461/12/5 458/12/5 457/12/5
f 462/12/5 453/12/5 458/12/5
f 462/12/5 458/12/5 461/12/5
f 463/12/5 459/12/5 454/12/5
f 463/12/5 460/12/5 459/12/5
f 464/12/5 460/12/5 463/12/5
f 465/11/5 462/11/5 461/11/5
f 466/12/5 453/12/5 462/12/5
f 466/11/5 462/11/5 465/11/5
f 467/12/5 444/12/5 453/12/5
f 467/12/5 453/12/5 466/12/5
f 468/2/5 446/2/5 445/2/5
f 469/2/5 446/2/5 468/2/5
f 470/12/5 454/12/5 447/12/5
f 470/12/5 463/12/5 454/12/5
f 471/11/5 464/11/5 463/11/5
f 471/12/5 463/12/5 470/12/5
f 472/11/5 464/11/5 471/11/5
f 473/2/5 469/2/5 468/2/5
f 473/2/5 468/2/5 467/2/5
f 473/2/5 470/2/5 469/2/5
f 474/2/5 470/2/5 473/2/5
f 477/12/5 476/12/5 475/12/5
f 478/12/5 476/12/5 477/12/5
f 481/9/5 480/9/5 479/9/5
f 482/9/5 480/9/5 481/9/5
f 483/11/6 484/11/6 493/11/6
f 484/12/6 485/12/6 494/12/6
f 493/11/6 484/11/6 494/11/6
f 485/11/6 486/11/6 495/11/6
f 494/12/6 485/12/6 495/12/6
f 486/12/6 487/12/6 496/12/6
f 495/11/6 486/11/6 496/11/6
f 496/12/6 487/12/6 497/12/6
f 488/11/6 489/11/6 498/11/6
f 489/12/6 490/12/6 499/12/6
f 498/11/6 489/11/6 499/11/6
f 490/11/6 491/11/6 500/11/6
f 499/12/6 490/12/6 500/12/6
f 491/12/6 492/12/6 501/12/6
f 500/11/6 491/11/6 501/11/6
f 501/12/6 492/12/6 502/12/6
f 503/9/6 504/9/6 507/9/6
f 507/9/6 504/9/6 508/9/6
f 505/9/6 506/9/6 509/9/6
f 509/9/6 506/9/6 510/9/6
f 511/12/6 512/12/6 514/12/6
f 514/12/6 512/12/6 515/12/6
f 513/9/6 514/9/6 517/9/6
f 517/9/6 514/9/6 518/9/6
f 515/9/6 516/9/6 519/9/6
f 519/9/6 516/9/6 520/9/6
f 521/9/6 522/9/6 525/9/6
f 525/9/6 522/9/6 526/9/6
f 523/9/6 524/9/6 527/9/6
f 527/9/6 524/9/6 528/9/6
f 526/9/6 527/9/6 529/9/6
f 529/9/6 527/9/6 530/9/6
f 531/9/6 532/9/6 533/9/6
f 533/9/6 532/9/6 534/9/6
f 534/9/6 532/9/6 535/9/6
f 535/9/6 532/9/6 536/9/6
f 534/9/6 535/9/6 538/9/6
f 538/9/6 535/9/6 539/9/6
f 537/9/6 538/9/6 541/9/6
f 539/9/6 540/9/6 541/9/6
f 538/9/6 539/9/6 541/9/6
f 541/9/6 540/9/6 542/9/6
f 543/11/6 544/11/6 549/11/6
f 544/12/6 545/12/6 550/12/6
f 549/11/6 544/11/6 550/11/6
f 550/12/6 545/12/6 551/12/6
f 546/12/6 547/12/6 552/12/6
f 547/11/6 548/11/6 553/11/6
f 552/12/6 547/12/6 553/12/6
f 553/11/6 548/11/6 554/11/6
