# MagicaVoxel @ Ephtracy

# group
o 

# material
mtllib Yeti_Red.mtl
usemtl palette

# normals
vn -1 0 0
vn 1 0 0
vn 0 0 1
vn 0 0 -1
vn 0 -1 0
vn 0 1 0

# texcoords
vt 0.232422 0.5
vt 0.369141 0.5
vt 0.537109 0.5
vt 0.849609 0.5
vt 0.861328 0.5
vt 0.869141 0.5
vt 0.958984 0.5
vt 0.966797 0.5
vt 0.994141 0.5

# verts
v -0.9 0.5 0.1
v -0.9 0.5 -2.98023e-08
v -0.9 0.5 -0.1
v -0.9 0.5 -0.2
v -0.9 0.5 -0.3
v -0.9 0.6 0.1
v -0.9 0.6 -2.98023e-08
v -0.9 0.6 -0.1
v -0.9 0.6 -0.2
v -0.9 0.6 -0.3
v -0.9 0.7 0.1
v -0.9 0.7 -0.3
v -0.9 1.2 0.1
v -0.9 1.2 -0.3
v -0.9 1.3 0.1
v -0.9 1.3 -0.3
v -0.9 1.4 0.1
v -0.9 1.4 -0.3
v -0.6 0 0.2
v -0.6 0 -2.98023e-08
v -0.6 0 -0.1
v -0.6 0 -0.3
v -0.6 0.1 0.2
v -0.6 0.1 0.1
v -0.6 0.1 -2.98023e-08
v -0.6 0.1 -0.1
v -0.6 0.2 0.1
v -0.6 0.2 -2.98023e-08
v -0.6 0.5 0.2
v -0.6 0.5 0.1
v -0.6 0.5 -0.3
v -0.6 0.5 -0.4
v -0.6 0.7 0.1
v -0.6 0.7 -0.3
v -0.6 0.8 0.1
v -0.6 0.8 -0.3
v -0.6 0.9 0.2
v -0.6 0.9 0.1
v -0.6 0.9 -0.3
v -0.6 0.9 -0.4
v -0.6 1 0.2
v -0.6 1 0.1
v -0.6 1 -0.3
v -0.6 1 -0.4
v -0.6 1.1 0.1
v -0.6 1.1 -0.3
v -0.6 1.2 0.1
v -0.6 1.2 -0.3
v -0.6 1.4 0.1
v -0.6 1.4 -0.3
v -0.6 1.9 0.2
v -0.6 1.9 0.1
v -0.6 1.9 -2.98023e-08
v -0.6 1.9 -0.4
v -0.6 2 0.1
v -0.6 2 -2.98023e-08
v -0.6 2.1 0.1
v -0.6 2.1 -2.98023e-08
v -0.5 1.3 0.3
v -0.5 1.3 0.2
v -0.5 1.3 -0.4
v -0.5 1.3 -0.5
v -0.5 1.9 0.3
v -0.5 1.9 0.2
v -0.5 1.9 0.1
v -0.5 1.9 -2.98023e-08
v -0.5 1.9 -0.4
v -0.5 1.9 -0.5
v -0.5 2 0.2
v -0.5 2 0.1
v -0.5 2 -2.98023e-08
v -0.5 2 -0.4
v -0.1 0 0.2
v -0.1 0 -2.98023e-08
v -0.1 0 -0.1
v -0.1 0 -0.3
v -0.1 0.1 0.2
v -0.1 0.1 0.1
v -0.1 0.1 -2.98023e-08
v -0.1 0.1 -0.1
v -0.1 0.2 0.1
v -0.1 0.2 -2.98023e-08
v -0.1 0.5 0.1
v -0.1 0.5 -0.3
v 0.1 2 0.1
v 0.1 2 -2.98023e-08
v 0.1 2.1 0.1
v 0.1 2.1 -2.98023e-08
v -0.4 2 0.1
v -0.4 2 -2.98023e-08
v -0.4 2.1 0.1
v -0.4 2.1 -2.98023e-08
v -0.2 0 0.2
v -0.2 0 0.1
v -0.2 0 -2.98023e-08
v -0.2 0 -0.1
v -0.2 0 -0.3
v -0.2 0.1 0.2
v -0.2 0.1 0.1
v -0.2 0.1 -2.98023e-08
v -0.2 0.1 -0.1
v -0.2 0.2 0.1
v -0.2 0.2 -2.98023e-08
v -0.2 0.5 0.1
v -0.2 0.5 -0.3
v 0.2 1.3 0.3
v 0.2 1.3 0.2
v 0.2 1.3 -0.4
v 0.2 1.3 -0.5
v 0.2 1.9 0.3
v 0.2 1.9 0.2
v 0.2 1.9 0.1
v 0.2 1.9 -2.98023e-08
v 0.2 1.9 -0.4
v 0.2 1.9 -0.5
v 0.2 2 0.2
v 0.2 2 0.1
v 0.2 2 -2.98023e-08
v 0.2 2 -0.4
v 0.3 0 0.2
v 0.3 0 0.1
v 0.3 0 -2.98023e-08
v 0.3 0 -0.1
v 0.3 0 -0.3
v 0.3 0.1 0.2
v 0.3 0.1 0.1
v 0.3 0.1 -2.98023e-08
v 0.3 0.1 -0.1
v 0.3 0.2 0.1
v 0.3 0.2 -2.98023e-08
v 0.3 0.5 0.2
v 0.3 0.5 0.1
v 0.3 0.5 -0.3
v 0.3 0.5 -0.4
v 0.3 0.7 0.1
v 0.3 0.7 -0.3
v 0.3 0.8 0.1
v 0.3 0.8 -0.3
v 0.3 1.1 0.1
v 0.3 1.1 -0.3
v 0.3 1.2 0.2
v 0.3 1.2 0.1
v 0.3 1.2 -0.3
v 0.3 1.2 -0.4
v 0.3 1.3 0.2
v 0.3 1.3 0.1
v 0.3 1.3 -0.3
v 0.3 1.3 -0.4
v 0.3 1.4 0.1
v 0.3 1.4 -0.3
v 0.3 1.9 0.2
v 0.3 1.9 0.1
v 0.3 1.9 -2.98023e-08
v 0.3 1.9 -0.4
v 0.3 2 0.1
v 0.3 2 -2.98023e-08
v 0.3 2.1 0.1
v 0.3 2.1 -2.98023e-08
v 0.6 0.5 0.1
v 0.6 0.5 -2.98023e-08
v 0.6 0.5 -0.1
v 0.6 0.5 -0.2
v 0.6 0.5 -0.3
v 0.6 0.6 0.1
v 0.6 0.6 -2.98023e-08
v 0.6 0.6 -0.1
v 0.6 0.6 -0.2
v 0.6 0.6 -0.3
v 0.6 0.7 0.1
v 0.6 0.7 -0.3
v 0.6 1.2 0.1
v 0.6 1.2 -0.3
v 0.6 1.3 0.1
v 0.6 1.3 -0.3
v 0.6 1.4 0.1
v 0.6 1.4 -0.3
v -0.5 1.3 0.3
v -0.5 1.9 0.3
v -0.3 1.6 0.3
v -0.3 1.8 0.3
v -0.2 1.6 0.3
v -0.2 1.8 0.3
v -0.1 1.6 0.3
v -0.1 1.8 0.3
v 0 1.6 0.3
v 0 1.8 0.3
v 0.2 1.3 0.3
v 0.2 1.9 0.3
v -0.6 0 0.2
v -0.6 0.1 0.2
v -0.6 0.5 0.2
v -0.6 0.9 0.2
v -0.6 1 0.2
v -0.6 1.9 0.2
v -0.5 0 0.2
v -0.5 0.1 0.2
v -0.5 0.8 0.2
v -0.5 0.9 0.2
v -0.5 1 0.2
v -0.5 1.3 0.2
v -0.5 1.9 0.2
v -0.5 2 0.2
v -0.4 0 0.2
v -0.4 0.1 0.2
v -0.3 0 0.2
v -0.3 0.1 0.2
v -0.2 0 0.2
v -0.2 0.1 0.2
v -0.2 0.8 0.2
v -0.2 0.9 0.2
v -0.2 1 0.2
v -0.1 0 0.2
v -0.1 0.1 0.2
v -0.1 0.9 0.2
v -0.1 1 0.2
v -0.1 1.1 0.2
v 0 0 0.2
v 0 0.1 0.2
v 0 1 0.2
v 0 1.1 0.2
v 0 1.2 0.2
v 0.1 0 0.2
v 0.1 0.1 0.2
v 0.2 0 0.2
v 0.2 0.1 0.2
v 0.2 1.1 0.2
v 0.2 1.2 0.2
v 0.2 1.3 0.2
v 0.2 1.9 0.2
v 0.2 2 0.2
v 0.3 0 0.2
v 0.3 0.1 0.2
v 0.3 0.5 0.2
v 0.3 1.2 0.2
v 0.3 1.3 0.2
v 0.3 1.9 0.2
v -0.9 0.5 0.1
v -0.9 0.6 0.1
v -0.9 0.7 0.1
v -0.9 1.2 0.1
v -0.9 1.3 0.1
v -0.9 1.4 0.1
v -0.8 0.5 0.1
v -0.8 0.6 0.1
v -0.8 0.7 0.1
v -0.8 0.8 0.1
v -0.8 1.1 0.1
v -0.8 1.2 0.1
v -0.8 1.3 0.1
v -0.7 0.5 0.1
v -0.7 0.6 0.1
v -0.6 0.1 0.1
v -0.6 0.2 0.1
v -0.6 0.5 0.1
v -0.6 0.7 0.1
v -0.6 0.8 0.1
v -0.6 0.9 0.1
v -0.6 1 0.1
v -0.6 1.1 0.1
v -0.6 1.2 0.1
v -0.6 1.4 0.1
v -0.6 1.9 0.1
v -0.6 2 0.1
v -0.6 2.1 0.1
v -0.5 0.1 0.1
v -0.5 1.9 0.1
v -0.5 2 0.1
v -0.5 2.1 0.1
v -0.4 0.1 0.1
v -0.4 2 0.1
v -0.4 2.1 0.1
v -0.3 0.1 0.1
v -0.2 0.1 0.1
v -0.2 0.2 0.1
v -0.2 0.5 0.1
v -0.1 0.1 0.1
v -0.1 0.2 0.1
v -0.1 0.5 0.1
v 0 0.1 0.1
v 0.1 0.1 0.1
v 0.1 2 0.1
v 0.1 2.1 0.1
v 0.2 0.1 0.1
v 0.2 1.9 0.1
v 0.2 2 0.1
v 0.2 2.1 0.1
v 0.3 0.1 0.1
v 0.3 0.2 0.1
v 0.3 0.5 0.1
v 0.3 0.7 0.1
v 0.3 0.8 0.1
v 0.3 1.1 0.1
v 0.3 1.2 0.1
v 0.3 1.3 0.1
v 0.3 1.4 0.1
v 0.3 1.9 0.1
v 0.3 2 0.1
v 0.3 2.1 0.1
v 0.4 0.5 0.1
v 0.4 0.6 0.1
v 0.5 0.5 0.1
v 0.5 0.6 0.1
v 0.5 0.7 0.1
v 0.5 0.8 0.1
v 0.5 1.1 0.1
v 0.5 1.2 0.1
v 0.5 1.3 0.1
v 0.6 0.5 0.1
v 0.6 0.6 0.1
v 0.6 0.7 0.1
v 0.6 1.2 0.1
v 0.6 1.3 0.1
v 0.6 1.4 0.1
v -0.6 1.9 -2.98023e-08
v -0.6 2 -2.98023e-08
v -0.6 2.1 -2.98023e-08
v -0.5 1.9 -2.98023e-08
v -0.5 2 -2.98023e-08
v -0.5 2.1 -2.98023e-08
v -0.4 2 -2.98023e-08
v -0.4 2.1 -2.98023e-08
v 0.1 2 -2.98023e-08
v 0.1 2.1 -2.98023e-08
v 0.2 1.9 -2.98023e-08
v 0.2 2 -2.98023e-08
v 0.2 2.1 -2.98023e-08
v 0.3 1.9 -2.98023e-08
v 0.3 2 -2.98023e-08
v 0.3 2.1 -2.98023e-08
v -0.9 0.5 -0.3
v -0.9 0.6 -0.3
v -0.9 0.7 -0.3
v -0.9 1.2 -0.3
v -0.9 1.3 -0.3
v -0.9 1.4 -0.3
v -0.8 0.5 -0.3
v -0.8 0.6 -0.3
v -0.8 0.7 -0.3
v -0.8 0.8 -0.3
v -0.8 1.1 -0.3
v -0.8 1.2 -0.3
v -0.8 1.3 -0.3
v -0.6 0 -0.3
v -0.6 0.5 -0.3
v -0.6 0.7 -0.3
v -0.6 0.8 -0.3
v -0.6 0.9 -0.3
v -0.6 1 -0.3
v -0.6 1.1 -0.3
v -0.6 1.2 -0.3
v -0.6 1.4 -0.3
v -0.2 0 -0.3
v -0.2 0.5 -0.3
v -0.1 0 -0.3
v -0.1 0.5 -0.3
v 0.3 0 -0.3
v 0.3 0.5 -0.3
v 0.3 0.7 -0.3
v 0.3 0.8 -0.3
v 0.3 1.1 -0.3
v 0.3 1.2 -0.3
v 0.3 1.3 -0.3
v 0.3 1.4 -0.3
v 0.5 0.5 -0.3
v 0.5 0.6 -0.3
v 0.5 0.7 -0.3
v 0.5 0.8 -0.3
v 0.5 1.1 -0.3
v 0.5 1.2 -0.3
v 0.5 1.3 -0.3
v 0.6 0.5 -0.3
v 0.6 0.6 -0.3
v 0.6 0.7 -0.3
v 0.6 1.2 -0.3
v 0.6 1.3 -0.3
v 0.6 1.4 -0.3
v -0.6 0.5 -0.4
v -0.6 0.9 -0.4
v -0.6 1 -0.4
v -0.6 1.9 -0.4
v -0.5 0.8 -0.4
v -0.5 0.9 -0.4
v -0.5 1 -0.4
v -0.5 1.3 -0.4
v -0.5 1.9 -0.4
v -0.5 2 -0.4
v -0.2 0.8 -0.4
v -0.2 0.9 -0.4
v -0.2 1 -0.4
v -0.1 0.9 -0.4
v -0.1 1 -0.4
v -0.1 1.1 -0.4
v 0 1 -0.4
v 0 1.1 -0.4
v 0 1.2 -0.4
v 0.2 1.1 -0.4
v 0.2 1.2 -0.4
v 0.2 1.3 -0.4
v 0.2 1.9 -0.4
v 0.2 2 -0.4
v 0.3 0.5 -0.4
v 0.3 1.2 -0.4
v 0.3 1.3 -0.4
v 0.3 1.9 -0.4
v -0.5 1.3 -0.5
v -0.5 1.9 -0.5
v 0.2 1.3 -0.5
v 0.2 1.9 -0.5
v -0.6 0 0.2
v -0.5 0 0.2
v -0.4 0 0.2
v -0.3 0 0.2
v -0.2 0 0.2
v -0.1 0 0.2
v 0 0 0.2
v 0.1 0 0.2
v 0.2 0 0.2
v 0.3 0 0.2
v -0.5 0 0.1
v -0.4 0 0.1
v -0.3 0 0.1
v -0.2 0 0.1
v 0 0 0.1
v 0.1 0 0.1
v 0.2 0 0.1
v 0.3 0 0.1
v -0.6 0 -2.98023e-08
v -0.2 0 -2.98023e-08
v -0.1 0 -2.98023e-08
v 0.3 0 -2.98023e-08
v -0.6 0 -0.1
v -0.2 0 -0.1
v -0.1 0 -0.1
v 0.3 0 -0.1
v -0.6 0 -0.3
v -0.2 0 -0.3
v -0.1 0 -0.3
v 0.3 0 -0.3
v -0.6 0.5 0.2
v 0.3 0.5 0.2
v -0.9 0.5 0.1
v -0.8 0.5 0.1
v -0.7 0.5 0.1
v -0.6 0.5 0.1
v -0.2 0.5 0.1
v -0.1 0.5 0.1
v 0.3 0.5 0.1
v 0.4 0.5 0.1
v 0.5 0.5 0.1
v 0.6 0.5 0.1
v -0.9 0.5 -2.98023e-08
v -0.8 0.5 -2.98023e-08
v -0.7 0.5 -2.98023e-08
v 0.4 0.5 -2.98023e-08
v 0.5 0.5 -2.98023e-08
v 0.6 0.5 -2.98023e-08
v -0.9 0.5 -0.1
v -0.8 0.5 -0.1
v 0.5 0.5 -0.1
v 0.6 0.5 -0.1
v -0.9 0.5 -0.2
v -0.8 0.5 -0.2
v 0.5 0.5 -0.2
v 0.6 0.5 -0.2
v -0.9 0.5 -0.3
v -0.8 0.5 -0.3
v -0.6 0.5 -0.3
v -0.2 0.5 -0.3
v -0.1 0.5 -0.3
v 0.3 0.5 -0.3
v 0.5 0.5 -0.3
v 0.6 0.5 -0.3
v -0.6 0.5 -0.4
v 0.3 0.5 -0.4
v -0.5 1.3 0.3
v 0.2 1.3 0.3
v -0.5 1.3 0.2
v 0.2 1.3 0.2
v -0.5 1.3 -0.4
v 0.2 1.3 -0.4
v -0.5 1.3 -0.5
v 0.2 1.3 -0.5
v -0.6 0.1 0.2
v -0.5 0.1 0.2
v -0.4 0.1 0.2
v -0.3 0.1 0.2
v -0.2 0.1 0.2
v -0.1 0.1 0.2
v 0 0.1 0.2
v 0.1 0.1 0.2
v 0.2 0.1 0.2
v 0.3 0.1 0.2
v -0.6 0.1 0.1
v -0.5 0.1 0.1
v -0.4 0.1 0.1
v -0.3 0.1 0.1
v -0.2 0.1 0.1
v -0.1 0.1 0.1
v 0 0.1 0.1
v 0.1 0.1 0.1
v 0.2 0.1 0.1
v 0.3 0.1 0.1
v -0.9 1.4 0.1
v -0.6 1.4 0.1
v 0.3 1.4 0.1
v 0.6 1.4 0.1
v -0.9 1.4 -0.3
v -0.6 1.4 -0.3
v 0.3 1.4 -0.3
v 0.6 1.4 -0.3
v -0.5 1.9 0.3
v 0.2 1.9 0.3
v -0.6 1.9 0.2
v -0.5 1.9 0.2
v 0.2 1.9 0.2
v 0.3 1.9 0.2
v -0.6 1.9 0.1
v -0.5 1.9 0.1
v 0.2 1.9 0.1
v 0.3 1.9 0.1
v -0.6 1.9 -2.98023e-08
v -0.5 1.9 -2.98023e-08
v 0.2 1.9 -2.98023e-08
v 0.3 1.9 -2.98023e-08
v -0.6 1.9 -0.4
v -0.5 1.9 -0.4
v 0.2 1.9 -0.4
v 0.3 1.9 -0.4
v -0.5 1.9 -0.5
v 0.2 1.9 -0.5
v -0.5 2 0.2
v 0.2 2 0.2
v -0.5 2 0.1
v -0.4 2 0.1
v 0.1 2 0.1
v 0.2 2 0.1
v -0.5 2 -2.98023e-08
v -0.4 2 -2.98023e-08
v 0.1 2 -2.98023e-08
v 0.2 2 -2.98023e-08
v -0.5 2 -0.4
v 0.2 2 -0.4
v -0.6 2.1 0.1
v -0.5 2.1 0.1
v -0.4 2.1 0.1
v 0.1 2.1 0.1
v 0.2 2.1 0.1
v 0.3 2.1 0.1
v -0.6 2.1 -2.98023e-08
v -0.5 2.1 -2.98023e-08
v -0.4 2.1 -2.98023e-08
v 0.1 2.1 -2.98023e-08
v 0.2 2.1 -2.98023e-08
v 0.3 2.1 -2.98023e-08

# faces
f 6/8/1 2/8/1 1/8/1
f 7/7/1 3/7/1 2/7/1
f 7/8/1 2/8/1 6/8/1
f 8/8/1 4/8/1 3/8/1
f 8/7/1 3/7/1 7/7/1
f 9/7/1 5/7/1 4/7/1
f 9/8/1 4/8/1 8/8/1
f 10/7/1 5/7/1 9/7/1
f 11/5/1 8/5/1 7/5/1
f 11/5/1 7/5/1 6/5/1
f 11/5/1 10/5/1 9/5/1
f 11/5/1 9/5/1 8/5/1
f 12/5/1 10/5/1 11/5/1
f 13/6/1 12/6/1 11/6/1
f 14/6/1 12/6/1 13/6/1
f 15/5/1 14/5/1 13/5/1
f 16/5/1 14/5/1 15/5/1
f 17/4/1 16/4/1 15/4/1
f 18/4/1 16/4/1 17/4/1
f 23/7/1 20/7/1 19/7/1
f 24/7/1 20/7/1 23/7/1
f 25/5/1 21/5/1 20/5/1
f 25/7/1 20/7/1 24/7/1
f 26/6/1 22/6/1 21/6/1
f 26/5/1 21/5/1 25/5/1
f 27/5/1 25/5/1 24/5/1
f 28/6/1 26/6/1 25/6/1
f 28/5/1 25/5/1 27/5/1
f 30/6/1 28/6/1 27/6/1
f 31/6/1 22/6/1 26/6/1
f 31/6/1 26/6/1 28/6/1
f 31/6/1 28/6/1 30/6/1
f 33/6/1 30/6/1 29/6/1
f 34/6/1 32/6/1 31/6/1
f 35/6/1 33/6/1 29/6/1
f 36/6/1 32/6/1 34/6/1
f 37/6/1 35/6/1 29/6/1
f 38/6/1 35/6/1 37/6/1
f 39/6/1 32/6/1 36/6/1
f 40/6/1 32/6/1 39/6/1
f 41/5/1 38/5/1 37/5/1
f 42/5/1 38/5/1 41/5/1
f 43/5/1 40/5/1 39/5/1
f 44/5/1 40/5/1 43/5/1
f 45/4/1 42/4/1 41/4/1
f 46/4/1 44/4/1 43/4/1
f 47/4/1 45/4/1 41/4/1
f 48/4/1 44/4/1 46/4/1
f 49/4/1 47/4/1 41/4/1
f 50/4/1 44/4/1 48/4/1
f 51/4/1 49/4/1 41/4/1
f 51/4/1 50/4/1 49/4/1
f 52/4/1 50/4/1 51/4/1
f 53/4/1 50/4/1 52/4/1
f 54/4/1 44/4/1 50/4/1
f 54/4/1 50/4/1 53/4/1
f 55/8/1 53/8/1 52/8/1
f 56/8/1 53/8/1 55/8/1
f 57/7/1 56/7/1 55/7/1
f 58/7/1 56/7/1 57/7/1
f 63/8/1 60/8/1 59/8/1
f 64/8/1 60/8/1 63/8/1
f 67/4/1 62/4/1 61/4/1
f 68/4/1 62/4/1 67/4/1
f 69/4/1 65/4/1 64/4/1
f 70/4/1 65/4/1 69/4/1
f 71/4/1 67/4/1 66/4/1
f 72/4/1 67/4/1 71/4/1
f 77/7/1 74/7/1 73/7/1
f 78/7/1 74/7/1 77/7/1
f 79/5/1 75/5/1 74/5/1
f 79/7/1 74/7/1 78/7/1
f 80/6/1 76/6/1 75/6/1
f 80/5/1 75/5/1 79/5/1
f 81/5/1 79/5/1 78/5/1
f 82/6/1 80/6/1 79/6/1
f 82/5/1 79/5/1 81/5/1
f 83/6/1 82/6/1 81/6/1
f 84/6/1 76/6/1 80/6/1
f 84/6/1 82/6/1 83/6/1
f 84/6/1 80/6/1 82/6/1
f 87/8/1 86/8/1 85/8/1
f 88/8/1 86/8/1 87/8/1
f 89/8/2 90/8/2 91/8/2
f 91/8/2 90/8/2 92/8/2
f 93/8/2 94/8/2 98/8/2
f 94/7/2 95/7/2 99/7/2
f 98/8/2 94/8/2 99/8/2
f 95/5/2 96/5/2 100/5/2
f 99/7/2 95/7/2 100/7/2
f 96/6/2 97/6/2 101/6/2
f 100/5/2 96/5/2 101/5/2
f 99/5/2 100/5/2 102/5/2
f 100/6/2 101/6/2 103/6/2
f 102/5/2 100/5/2 103/5/2
f 102/6/2 103/6/2 104/6/2
f 101/6/2 97/6/2 105/6/2
f 104/6/2 103/6/2 105/6/2
f 103/6/2 101/6/2 105/6/2
f 106/8/2 107/8/2 110/8/2
f 110/8/2 107/8/2 111/8/2
f 108/4/2 109/4/2 114/4/2
f 114/4/2 109/4/2 115/4/2
f 111/4/2 112/4/2 116/4/2
f 116/4/2 112/4/2 117/4/2
f 113/4/2 114/4/2 118/4/2
f 118/4/2 114/4/2 119/4/2
f 120/8/2 121/8/2 125/8/2
f 121/7/2 122/7/2 126/7/2
f 125/8/2 121/8/2 126/8/2
f 122/5/2 123/5/2 127/5/2
f 126/7/2 122/7/2 127/7/2
f 123/6/2 124/6/2 128/6/2
f 127/5/2 123/5/2 128/5/2
f 126/5/2 127/5/2 129/5/2
f 127/6/2 128/6/2 130/6/2
f 129/5/2 127/5/2 130/5/2
f 129/6/2 130/6/2 132/6/2
f 128/6/2 124/6/2 133/6/2
f 130/6/2 128/6/2 133/6/2
f 132/6/2 130/6/2 133/6/2
f 131/6/2 132/6/2 135/6/2
f 133/6/2 134/6/2 136/6/2
f 131/6/2 135/6/2 137/6/2
f 136/6/2 134/6/2 138/6/2
f 131/6/2 137/6/2 139/6/2
f 138/6/2 134/6/2 140/6/2
f 131/6/2 139/6/2 141/6/2
f 141/6/2 139/6/2 142/6/2
f 140/6/2 134/6/2 143/6/2
f 143/6/2 134/6/2 144/6/2
f 141/5/2 142/5/2 145/5/2
f 145/5/2 142/5/2 146/5/2
f 143/5/2 144/5/2 147/5/2
f 147/5/2 144/5/2 148/5/2
f 145/4/2 146/4/2 149/4/2
f 147/4/2 148/4/2 150/4/2
f 145/4/2 149/4/2 151/4/2
f 149/4/2 150/4/2 151/4/2
f 151/4/2 150/4/2 152/4/2
f 152/4/2 150/4/2 153/4/2
f 150/4/2 148/4/2 154/4/2
f 153/4/2 150/4/2 154/4/2
f 152/8/2 153/8/2 155/8/2
f 155/8/2 153/8/2 156/8/2
f 155/7/2 156/7/2 157/7/2
f 157/7/2 156/7/2 158/7/2
f 159/8/2 160/8/2 164/8/2
f 160/7/2 161/7/2 165/7/2
f 164/8/2 160/8/2 165/8/2
f 161/8/2 162/8/2 166/8/2
f 165/7/2 161/7/2 166/7/2
f 162/7/2 163/7/2 167/7/2
f 166/8/2 162/8/2 167/8/2
f 167/7/2 163/7/2 168/7/2
f 165/5/2 166/5/2 169/5/2
f 164/5/2 165/5/2 169/5/2
f 167/5/2 168/5/2 169/5/2
f 166/5/2 167/5/2 169/5/2
f 169/5/2 168/5/2 170/5/2
f 169/6/2 170/6/2 171/6/2
f 171/6/2 170/6/2 172/6/2
f 171/5/2 172/5/2 173/5/2
f 173/5/2 172/5/2 174/5/2
f 173/4/2 174/4/2 175/4/2
f 175/4/2 174/4/2 176/4/2
f 179/8/3 178/8/3 177/8/3
f 180/8/3 178/8/3 179/8/3
f 181/8/3 179/8/3 177/8/3
f 181/9/3 180/9/3 179/9/3
f 182/8/3 178/8/3 180/8/3
f 182/9/3 180/9/3 181/9/3
f 183/8/3 181/8/3 177/8/3
f 183/8/3 182/8/3 181/8/3
f 184/8/3 178/8/3 182/8/3
f 184/8/3 182/8/3 183/8/3
f 185/8/3 183/8/3 177/8/3
f 185/9/3 184/9/3 183/9/3
f 186/8/3 178/8/3 184/8/3
f 186/9/3 184/9/3 185/9/3
f 187/8/3 185/8/3 177/8/3
f 187/8/3 186/8/3 185/8/3
f 188/8/3 178/8/3 186/8/3
f 188/8/3 186/8/3 187/8/3
f 195/7/3 190/7/3 189/7/3
f 196/7/3 190/7/3 195/7/3
f 197/6/3 192/6/3 191/6/3
f 198/5/3 193/5/3 192/5/3
f 198/6/3 192/6/3 197/6/3
f 199/4/3 194/4/3 193/4/3
f 199/5/3 193/5/3 198/5/3
f 200/4/3 194/4/3 199/4/3
f 201/4/3 194/4/3 200/4/3
f 203/8/3 196/8/3 195/8/3
f 204/8/3 196/8/3 203/8/3
f 205/7/3 204/7/3 203/7/3
f 206/7/3 204/7/3 205/7/3
f 207/8/3 206/8/3 205/8/3
f 208/8/3 206/8/3 207/8/3
f 209/5/3 198/5/3 197/5/3
f 209/6/3 197/6/3 191/6/3
f 210/4/3 199/4/3 198/4/3
f 210/5/3 198/5/3 209/5/3
f 210/4/3 200/4/3 199/4/3
f 211/4/3 200/4/3 210/4/3
f 214/6/3 210/6/3 209/6/3
f 214/5/3 211/5/3 210/5/3
f 215/4/3 200/4/3 211/4/3
f 215/5/3 211/5/3 214/5/3
f 216/4/3 200/4/3 215/4/3
f 217/7/3 213/7/3 212/7/3
f 218/7/3 213/7/3 217/7/3
f 219/6/3 215/6/3 214/6/3
f 219/5/3 216/5/3 215/5/3
f 220/4/3 200/4/3 216/4/3
f 220/5/3 216/5/3 219/5/3
f 221/4/3 200/4/3 220/4/3
f 222/8/3 218/8/3 217/8/3
f 223/8/3 218/8/3 222/8/3
f 224/7/3 223/7/3 222/7/3
f 225/7/3 223/7/3 224/7/3
f 226/6/3 220/6/3 219/6/3
f 226/5/3 221/5/3 220/5/3
f 227/4/3 200/4/3 221/4/3
f 227/5/3 221/5/3 226/5/3
f 228/4/3 200/4/3 227/4/3
f 229/4/3 202/4/3 201/4/3
f 230/4/3 202/4/3 229/4/3
f 231/8/3 225/8/3 224/8/3
f 232/8/3 225/8/3 231/8/3
f 233/6/3 214/6/3 209/6/3
f 233/6/3 209/6/3 191/6/3
f 233/6/3 219/6/3 214/6/3
f 233/6/3 226/6/3 219/6/3
f 233/6/3 227/6/3 226/6/3
f 234/5/3 228/5/3 227/5/3
f 234/6/3 227/6/3 233/6/3
f 235/4/3 229/4/3 228/4/3
f 235/5/3 228/5/3 234/5/3
f 236/4/3 229/4/3 235/4/3
f 243/8/3 238/8/3 237/8/3
f 244/5/3 239/5/3 238/5/3
f 244/8/3 238/8/3 243/8/3
f 245/6/3 240/6/3 239/6/3
f 245/5/3 239/5/3 244/5/3
f 246/6/3 240/6/3 245/6/3
f 247/6/3 240/6/3 246/6/3
f 248/5/3 241/5/3 240/5/3
f 248/6/3 240/6/3 247/6/3
f 249/4/3 242/4/3 241/4/3
f 249/5/3 241/5/3 248/5/3
f 250/7/3 244/7/3 243/7/3
f 251/8/3 245/8/3 244/8/3
f 251/7/3 244/7/3 250/7/3
f 254/8/3 251/8/3 250/8/3
f 255/5/3 246/5/3 245/5/3
f 255/8/3 245/8/3 251/8/3
f 255/8/3 251/8/3 254/8/3
f 256/6/3 247/6/3 246/6/3
f 256/5/3 246/5/3 255/5/3
f 257/6/3 247/6/3 256/6/3
f 258/6/3 247/6/3 257/6/3
f 259/5/3 248/5/3 247/5/3
f 259/6/3 247/6/3 258/6/3
f 260/4/3 249/4/3 248/4/3
f 260/5/3 248/5/3 259/5/3
f 261/4/3 242/4/3 249/4/3
f 261/4/3 249/4/3 260/4/3
f 265/5/3 253/5/3 252/5/3
f 266/8/3 263/8/3 262/8/3
f 267/7/3 264/7/3 263/7/3
f 267/8/3 263/8/3 266/8/3
f 268/7/3 264/7/3 267/7/3
f 269/5/3 253/5/3 265/5/3
f 270/8/3 268/8/3 267/8/3
f 271/8/3 268/8/3 270/8/3
f 272/5/3 253/5/3 269/5/3
f 273/5/3 253/5/3 272/5/3
f 274/6/3 254/6/3 253/6/3
f 274/5/3 253/5/3 273/5/3
f 275/6/3 254/6/3 274/6/3
f 279/5/3 277/5/3 276/5/3
f 280/5/3 277/5/3 279/5/3
f 283/5/3 277/5/3 280/5/3
f 285/8/3 282/8/3 281/8/3
f 286/8/3 282/8/3 285/8/3
f 287/5/3 277/5/3 283/5/3
f 288/6/3 278/6/3 277/6/3
f 288/5/3 277/5/3 287/5/3
f 289/6/3 278/6/3 288/6/3
f 296/8/3 285/8/3 284/8/3
f 297/7/3 286/7/3 285/7/3
f 297/8/3 285/8/3 296/8/3
f 298/7/3 286/7/3 297/7/3
f 299/8/3 290/8/3 289/8/3
f 300/8/3 290/8/3 299/8/3
f 301/7/3 300/7/3 299/7/3
f 302/8/3 290/8/3 300/8/3
f 302/7/3 300/7/3 301/7/3
f 303/5/3 291/5/3 290/5/3
f 303/8/3 290/8/3 302/8/3
f 304/6/3 292/6/3 291/6/3
f 304/5/3 291/5/3 303/5/3
f 305/5/3 293/5/3 292/5/3
f 305/6/3 292/6/3 304/6/3
f 306/4/3 295/4/3 294/4/3
f 306/5/3 293/5/3 305/5/3
f 306/4/3 294/4/3 293/4/3
f 307/4/3 295/4/3 306/4/3
f 308/8/3 302/8/3 301/8/3
f 309/5/3 303/5/3 302/5/3
f 309/8/3 302/8/3 308/8/3
f 310/6/3 305/6/3 304/6/3
f 310/5/3 303/5/3 309/5/3
f 310/6/3 304/6/3 303/6/3
f 310/6/3 306/6/3 305/6/3
f 311/5/3 307/5/3 306/5/3
f 311/6/3 306/6/3 310/6/3
f 312/4/3 295/4/3 307/4/3
f 312/5/3 307/5/3 311/5/3
f 313/4/3 295/4/3 312/4/3
f 314/8/4 315/8/4 317/8/4
f 315/7/4 316/7/4 318/7/4
f 317/8/4 315/8/4 318/8/4
f 318/7/4 316/7/4 319/7/4
f 318/8/4 319/8/4 320/8/4
f 320/8/4 319/8/4 321/8/4
f 322/8/4 323/8/4 325/8/4
f 325/8/4 323/8/4 326/8/4
f 324/8/4 325/8/4 327/8/4
f 325/7/4 326/7/4 328/7/4
f 327/8/4 325/8/4 328/8/4
f 328/7/4 326/7/4 329/7/4
f 330/7/4 331/7/4 336/7/4
f 331/5/4 332/5/4 337/5/4
f 336/7/4 331/7/4 337/7/4
f 332/6/4 333/6/4 338/6/4
f 337/5/4 332/5/4 338/5/4
f 338/6/4 333/6/4 339/6/4
f 339/6/4 333/6/4 340/6/4
f 333/5/4 334/5/4 341/5/4
f 340/6/4 333/6/4 341/6/4
f 334/4/4 335/4/4 342/4/4
f 341/5/4 334/5/4 342/5/4
f 336/8/4 337/8/4 344/8/4
f 337/8/4 338/8/4 344/8/4
f 338/5/4 339/5/4 345/5/4
f 344/8/4 338/8/4 345/8/4
f 339/6/4 340/6/4 346/6/4
f 345/5/4 339/5/4 346/5/4
f 346/6/4 340/6/4 347/6/4
f 347/6/4 340/6/4 348/6/4
f 340/5/4 341/5/4 349/5/4
f 348/6/4 340/6/4 349/6/4
f 341/4/4 342/4/4 350/4/4
f 349/5/4 341/5/4 350/5/4
f 342/4/4 335/4/4 351/4/4
f 350/4/4 342/4/4 351/4/4
f 343/6/4 344/6/4 352/6/4
f 352/6/4 344/6/4 353/6/4
f 354/6/4 355/6/4 356/6/4
f 356/6/4 355/6/4 357/6/4
f 357/8/4 358/8/4 364/8/4
f 364/8/4 358/8/4 365/8/4
f 358/5/4 359/5/4 366/5/4
f 365/8/4 358/8/4 366/8/4
f 359/6/4 360/6/4 367/6/4
f 366/5/4 359/5/4 367/5/4
f 360/5/4 361/5/4 368/5/4
f 367/6/4 360/6/4 368/6/4
f 362/4/4 363/4/4 369/4/4
f 368/5/4 361/5/4 369/5/4
f 361/4/4 362/4/4 369/4/4
f 369/4/4 363/4/4 370/4/4
f 364/7/4 365/7/4 371/7/4
f 365/5/4 366/5/4 372/5/4
f 371/7/4 365/7/4 372/7/4
f 367/6/4 368/6/4 373/6/4
f 372/5/4 366/5/4 373/5/4
f 366/6/4 367/6/4 373/6/4
f 368/6/4 369/6/4 373/6/4
f 369/5/4 370/5/4 374/5/4
f 373/6/4 369/6/4 374/6/4
f 370/4/4 363/4/4 375/4/4
f 374/5/4 370/5/4 375/5/4
f 375/4/4 363/4/4 376/4/4
f 377/6/4 378/6/4 381/6/4
f 378/5/4 379/5/4 382/5/4
f 381/6/4 378/6/4 382/6/4
f 379/4/4 380/4/4 383/4/4
f 382/5/4 379/5/4 383/5/4
f 383/4/4 380/4/4 384/4/4
f 384/4/4 380/4/4 385/4/4
f 381/5/4 382/5/4 387/5/4
f 377/6/4 381/6/4 387/6/4
f 383/4/4 384/4/4 388/4/4
f 387/5/4 382/5/4 388/5/4
f 382/4/4 383/4/4 388/4/4
f 388/4/4 384/4/4 389/4/4
f 387/6/4 388/6/4 390/6/4
f 388/5/4 389/5/4 390/5/4
f 389/4/4 384/4/4 391/4/4
f 390/5/4 389/5/4 391/5/4
f 391/4/4 384/4/4 392/4/4
f 390/6/4 391/6/4 393/6/4
f 391/5/4 392/5/4 393/5/4
f 392/4/4 384/4/4 394/4/4
f 393/5/4 392/5/4 394/5/4
f 394/4/4 384/4/4 395/4/4
f 393/6/4 394/6/4 396/6/4
f 394/5/4 395/5/4 396/5/4
f 395/4/4 384/4/4 397/4/4
f 396/5/4 395/5/4 397/5/4
f 397/4/4 384/4/4 398/4/4
f 385/4/4 386/4/4 399/4/4
f 399/4/4 386/4/4 400/4/4
f 377/6/4 387/6/4 401/6/4
f 387/6/4 390/6/4 401/6/4
f 390/6/4 393/6/4 401/6/4
f 393/6/4 396/6/4 401/6/4
f 396/6/4 397/6/4 401/6/4
f 397/5/4 398/5/4 402/5/4
f 401/6/4 397/6/4 402/6/4
f 398/4/4 399/4/4 403/4/4
f 402/5/4 398/5/4 403/5/4
f 403/4/4 399/4/4 404/4/4
f 405/4/4 406/4/4 407/4/4
f 407/4/4 406/4/4 408/4/4
f 419/7/5 410/7/5 409/7/5
f 419/8/5 411/8/5 410/8/5
f 420/7/5 412/7/5 411/7/5
f 420/8/5 411/8/5 419/8/5
f 421/8/5 413/8/5 412/8/5
f 421/7/5 412/7/5 420/7/5
f 422/8/5 413/8/5 421/8/5
f 423/7/5 415/7/5 414/7/5
f 423/8/5 416/8/5 415/8/5
f 424/7/5 417/7/5 416/7/5
f 424/8/5 416/8/5 423/8/5
f 425/8/5 418/8/5 417/8/5
f 425/7/5 417/7/5 424/7/5
f 426/8/5 418/8/5 425/8/5
f 427/7/5 419/7/5 409/7/5
f 427/7/5 420/7/5 419/7/5
f 427/7/5 422/7/5 421/7/5
f 427/7/5 421/7/5 420/7/5
f 428/7/5 422/7/5 427/7/5
f 429/7/5 424/7/5 423/7/5
f 429/7/5 423/7/5 414/7/5
f 429/7/5 426/7/5 425/7/5
f 429/7/5 425/7/5 424/7/5
f 430/7/5 426/7/5 429/7/5
f 431/5/5 428/5/5 427/5/5
f 432/5/5 428/5/5 431/5/5
f 433/5/5 430/5/5 429/5/5
f 434/5/5 430/5/5 433/5/5
f 435/6/5 432/6/5 431/6/5
f 436/6/5 432/6/5 435/6/5
f 437/6/5 434/6/5 433/6/5
f 438/6/5 434/6/5 437/6/5
f 444/6/5 440/6/5 439/6/5
f 445/6/5 440/6/5 444/6/5
f 446/6/5 440/6/5 445/6/5
f 447/6/5 440/6/5 446/6/5
f 451/8/5 442/8/5 441/8/5
f 452/7/5 443/7/5 442/7/5
f 452/8/5 442/8/5 451/8/5
f 453/8/5 444/8/5 443/8/5
f 453/7/5 443/7/5 452/7/5
f 454/7/5 449/7/5 448/7/5
f 454/8/5 448/8/5 447/8/5
f 455/8/5 450/8/5 449/8/5
f 455/7/5 449/7/5 454/7/5
f 456/8/5 450/8/5 455/8/5
f 457/7/5 452/7/5 451/7/5
f 458/8/5 453/8/5 452/8/5
f 458/7/5 452/7/5 457/7/5
f 459/8/5 455/8/5 454/8/5
f 459/7/5 456/7/5 455/7/5
f 460/7/5 456/7/5 459/7/5
f 461/8/5 458/8/5 457/8/5
f 462/8/5 453/8/5 458/8/5
f 462/8/5 458/8/5 461/8/5
f 463/8/5 459/8/5 454/8/5
f 463/8/5 460/8/5 459/8/5
f 464/8/5 460/8/5 463/8/5
f 465/7/5 462/7/5 461/7/5
f 466/8/5 453/8/5 462/8/5
f 466/7/5 462/7/5 465/7/5
f 467/8/5 444/8/5 453/8/5
f 467/8/5 453/8/5 466/8/5
f 468/6/5 446/6/5 445/6/5
f 469/6/5 446/6/5 468/6/5
f 470/8/5 454/8/5 447/8/5
f 470/8/5 463/8/5 454/8/5
f 471/7/5 464/7/5 463/7/5
f 471/8/5 463/8/5 470/8/5
f 472/7/5 464/7/5 471/7/5
f 473/6/5 469/6/5 468/6/5
f 473/6/5 468/6/5 467/6/5
f 473/6/5 470/6/5 469/6/5
f 474/6/5 470/6/5 473/6/5
f 477/8/5 476/8/5 475/8/5
f 478/8/5 476/8/5 477/8/5
f 481/4/5 480/4/5 479/4/5
f 482/4/5 480/4/5 481/4/5
f 483/7/6 484/7/6 493/7/6
f 484/8/6 485/8/6 494/8/6
f 493/7/6 484/7/6 494/7/6
f 485/7/6 486/7/6 495/7/6
f 494/8/6 485/8/6 495/8/6
f 486/8/6 487/8/6 496/8/6
f 495/7/6 486/7/6 496/7/6
f 496/8/6 487/8/6 497/8/6
f 488/7/6 489/7/6 498/7/6
f 489/8/6 490/8/6 499/8/6
f 498/7/6 489/7/6 499/7/6
f 490/7/6 491/7/6 500/7/6
f 499/8/6 490/8/6 500/8/6
f 491/8/6 492/8/6 501/8/6
f 500/7/6 491/7/6 501/7/6
f 501/8/6 492/8/6 502/8/6
f 503/4/6 504/4/6 507/4/6
f 507/4/6 504/4/6 508/4/6
f 505/4/6 506/4/6 509/4/6
f 509/4/6 506/4/6 510/4/6
f 511/8/6 512/8/6 514/8/6
f 514/8/6 512/8/6 515/8/6
f 513/4/6 514/4/6 517/4/6
f 517/4/6 514/4/6 518/4/6
f 515/4/6 516/4/6 519/4/6
f 519/4/6 516/4/6 520/4/6
f 521/4/6 522/4/6 525/4/6
f 525/4/6 522/4/6 526/4/6
f 523/4/6 524/4/6 527/4/6
f 527/4/6 524/4/6 528/4/6
f 526/4/6 527/4/6 529/4/6
f 529/4/6 527/4/6 530/4/6
f 531/4/6 532/4/6 533/4/6
f 533/4/6 532/4/6 534/4/6
f 534/4/6 532/4/6 535/4/6
f 535/4/6 532/4/6 536/4/6
f 534/4/6 535/4/6 538/4/6
f 538/4/6 535/4/6 539/4/6
f 537/4/6 538/4/6 541/4/6
f 539/4/6 540/4/6 541/4/6
f 538/4/6 539/4/6 541/4/6
f 541/4/6 540/4/6 542/4/6
f 543/7/6 544/7/6 549/7/6
f 544/8/6 545/8/6 550/8/6
f 549/7/6 544/7/6 550/7/6
f 550/8/6 545/8/6 551/8/6
f 546/8/6 547/8/6 552/8/6
f 547/7/6 548/7/6 553/7/6
f 552/8/6 547/8/6 553/8/6
f 553/7/6 548/7/6 554/7/6
