# MagicaVoxel @ Ephtracy

# group
o 

# material
mtllib Yeti_YellowGreen.mtl
usemtl palette

# normals
vn -1 0 0
vn 1 0 0
vn 0 0 1
vn 0 0 -1
vn 0 -1 0
vn 0 1 0

# texcoords
vt 0.181641 0.5
vt 0.208984 0.5
vt 0.232422 0.5
vt 0.369141 0.5
vt 0.537109 0.5
vt 0.826172 0.5
vt 0.869141 0.5
vt 0.904297 0.5
vt 0.958984 0.5
vt 0.966797 0.5
vt 0.994141 0.5

# verts
v -0.9 0.5 0.1
v -0.9 0.5 -2.98023e-08
v -0.9 0.5 -0.1
v -0.9 0.5 -0.2
v -0.9 0.5 -0.3
v -0.9 0.6 0.1
v -0.9 0.6 -2.98023e-08
v -0.9 0.6 -0.1
v -0.9 0.6 -0.2
v -0.9 0.6 -0.3
v -0.9 0.7 0.1
v -0.9 0.7 -0.3
v -0.9 1.2 0.1
v -0.9 1.2 -0.3
v -0.9 1.3 0.1
v -0.9 1.3 -0.3
v -0.9 1.4 0.1
v -0.9 1.4 -0.3
v -0.6 0 0.2
v -0.6 0 -2.98023e-08
v -0.6 0 -0.1
v -0.6 0 -0.3
v -0.6 0.1 0.2
v -0.6 0.1 0.1
v -0.6 0.1 -2.98023e-08
v -0.6 0.1 -0.1
v -0.6 0.2 0.1
v -0.6 0.2 -2.98023e-08
v -0.6 0.5 0.2
v -0.6 0.5 0.1
v -0.6 0.5 -0.3
v -0.6 0.5 -0.4
v -0.6 0.7 0.1
v -0.6 0.7 -0.3
v -0.6 0.8 0.1
v -0.6 0.8 -0.3
v -0.6 0.9 0.2
v -0.6 0.9 0.1
v -0.6 0.9 -0.3
v -0.6 0.9 -0.4
v -0.6 1 0.2
v -0.6 1 0.1
v -0.6 1 -0.3
v -0.6 1 -0.4
v -0.6 1.1 0.1
v -0.6 1.1 -0.3
v -0.6 1.2 0.1
v -0.6 1.2 -0.3
v -0.6 1.4 0.1
v -0.6 1.4 -0.3
v -0.6 1.9 0.2
v -0.6 1.9 0.1
v -0.6 1.9 -2.98023e-08
v -0.6 1.9 -0.4
v -0.6 2 0.1
v -0.6 2 -2.98023e-08
v -0.6 2.1 0.1
v -0.6 2.1 -2.98023e-08
v -0.5 1.3 0.3
v -0.5 1.3 0.2
v -0.5 1.3 -0.4
v -0.5 1.3 -0.5
v -0.5 1.9 0.3
v -0.5 1.9 0.2
v -0.5 1.9 0.1
v -0.5 1.9 -2.98023e-08
v -0.5 1.9 -0.4
v -0.5 1.9 -0.5
v -0.5 2 0.2
v -0.5 2 0.1
v -0.5 2 -2.98023e-08
v -0.5 2 -0.4
v -0.1 0 0.2
v -0.1 0 -2.98023e-08
v -0.1 0 -0.1
v -0.1 0 -0.3
v -0.1 0.1 0.2
v -0.1 0.1 0.1
v -0.1 0.1 -2.98023e-08
v -0.1 0.1 -0.1
v -0.1 0.2 0.1
v -0.1 0.2 -2.98023e-08
v -0.1 0.5 0.1
v -0.1 0.5 -0.3
v 0.1 2 0.1
v 0.1 2 -2.98023e-08
v 0.1 2.1 0.1
v 0.1 2.1 -2.98023e-08
v -0.4 2 0.1
v -0.4 2 -2.98023e-08
v -0.4 2.1 0.1
v -0.4 2.1 -2.98023e-08
v -0.2 0 0.2
v -0.2 0 0.1
v -0.2 0 -2.98023e-08
v -0.2 0 -0.1
v -0.2 0 -0.3
v -0.2 0.1 0.2
v -0.2 0.1 0.1
v -0.2 0.1 -2.98023e-08
v -0.2 0.1 -0.1
v -0.2 0.2 0.1
v -0.2 0.2 -2.98023e-08
v -0.2 0.5 0.1
v -0.2 0.5 -0.3
v 0.2 1.3 0.3
v 0.2 1.3 0.2
v 0.2 1.3 -0.4
v 0.2 1.3 -0.5
v 0.2 1.9 0.3
v 0.2 1.9 0.2
v 0.2 1.9 0.1
v 0.2 1.9 -2.98023e-08
v 0.2 1.9 -0.4
v 0.2 1.9 -0.5
v 0.2 2 0.2
v 0.2 2 0.1
v 0.2 2 -2.98023e-08
v 0.2 2 -0.4
v 0.3 0 0.2
v 0.3 0 0.1
v 0.3 0 -2.98023e-08
v 0.3 0 -0.1
v 0.3 0 -0.3
v 0.3 0.1 0.2
v 0.3 0.1 0.1
v 0.3 0.1 -2.98023e-08
v 0.3 0.1 -0.1
v 0.3 0.2 0.1
v 0.3 0.2 -2.98023e-08
v 0.3 0.5 0.2
v 0.3 0.5 0.1
v 0.3 0.5 -0.3
v 0.3 0.5 -0.4
v 0.3 0.7 0.1
v 0.3 0.7 -0.3
v 0.3 0.8 0.1
v 0.3 0.8 -0.3
v 0.3 1.1 0.1
v 0.3 1.1 -0.3
v 0.3 1.2 0.2
v 0.3 1.2 0.1
v 0.3 1.2 -0.3
v 0.3 1.2 -0.4
v 0.3 1.3 0.2
v 0.3 1.3 0.1
v 0.3 1.3 -0.3
v 0.3 1.3 -0.4
v 0.3 1.4 0.1
v 0.3 1.4 -0.3
v 0.3 1.9 0.2
v 0.3 1.9 0.1
v 0.3 1.9 -2.98023e-08
v 0.3 1.9 -0.4
v 0.3 2 0.1
v 0.3 2 -2.98023e-08
v 0.3 2.1 0.1
v 0.3 2.1 -2.98023e-08
v 0.6 0.5 0.1
v 0.6 0.5 -2.98023e-08
v 0.6 0.5 -0.1
v 0.6 0.5 -0.2
v 0.6 0.5 -0.3
v 0.6 0.6 0.1
v 0.6 0.6 -2.98023e-08
v 0.6 0.6 -0.1
v 0.6 0.6 -0.2
v 0.6 0.6 -0.3
v 0.6 0.7 0.1
v 0.6 0.7 -0.3
v 0.6 1.2 0.1
v 0.6 1.2 -0.3
v 0.6 1.3 0.1
v 0.6 1.3 -0.3
v 0.6 1.4 0.1
v 0.6 1.4 -0.3
v -0.5 1.3 0.3
v -0.5 1.9 0.3
v -0.3 1.6 0.3
v -0.3 1.8 0.3
v -0.2 1.6 0.3
v -0.2 1.8 0.3
v -0.1 1.6 0.3
v -0.1 1.8 0.3
v 0 1.6 0.3
v 0 1.8 0.3
v 0.2 1.3 0.3
v 0.2 1.9 0.3
v -0.6 0 0.2
v -0.6 0.1 0.2
v -0.6 0.5 0.2
v -0.6 0.9 0.2
v -0.6 1 0.2
v -0.6 1.9 0.2
v -0.5 0 0.2
v -0.5 0.1 0.2
v -0.5 0.8 0.2
v -0.5 0.9 0.2
v -0.5 1 0.2
v -0.5 1.3 0.2
v -0.5 1.9 0.2
v -0.5 2 0.2
v -0.4 0 0.2
v -0.4 0.1 0.2
v -0.3 0 0.2
v -0.3 0.1 0.2
v -0.2 0 0.2
v -0.2 0.1 0.2
v -0.2 0.8 0.2
v -0.2 0.9 0.2
v -0.2 1 0.2
v -0.1 0 0.2
v -0.1 0.1 0.2
v -0.1 0.9 0.2
v -0.1 1 0.2
v -0.1 1.1 0.2
v 0 0 0.2
v 0 0.1 0.2
v 0 1 0.2
v 0 1.1 0.2
v 0 1.2 0.2
v 0.1 0 0.2
v 0.1 0.1 0.2
v 0.2 0 0.2
v 0.2 0.1 0.2
v 0.2 1.1 0.2
v 0.2 1.2 0.2
v 0.2 1.3 0.2
v 0.2 1.9 0.2
v 0.2 2 0.2
v 0.3 0 0.2
v 0.3 0.1 0.2
v 0.3 0.5 0.2
v 0.3 1.2 0.2
v 0.3 1.3 0.2
v 0.3 1.9 0.2
v -0.9 0.5 0.1
v -0.9 0.6 0.1
v -0.9 0.7 0.1
v -0.9 1.2 0.1
v -0.9 1.3 0.1
v -0.9 1.4 0.1
v -0.8 0.5 0.1
v -0.8 0.6 0.1
v -0.8 0.7 0.1
v -0.8 0.8 0.1
v -0.8 1.1 0.1
v -0.8 1.2 0.1
v -0.8 1.3 0.1
v -0.7 0.5 0.1
v -0.7 0.6 0.1
v -0.6 0.1 0.1
v -0.6 0.2 0.1
v -0.6 0.5 0.1
v -0.6 0.7 0.1
v -0.6 0.8 0.1
v -0.6 0.9 0.1
v -0.6 1 0.1
v -0.6 1.1 0.1
v -0.6 1.2 0.1
v -0.6 1.4 0.1
v -0.6 1.9 0.1
v -0.6 2 0.1
v -0.6 2.1 0.1
v -0.5 0.1 0.1
v -0.5 1.9 0.1
v -0.5 2 0.1
v -0.5 2.1 0.1
v -0.4 0.1 0.1
v -0.4 2 0.1
v -0.4 2.1 0.1
v -0.3 0.1 0.1
v -0.2 0.1 0.1
v -0.2 0.2 0.1
v -0.2 0.5 0.1
v -0.1 0.1 0.1
v -0.1 0.2 0.1
v -0.1 0.5 0.1
v 0 0.1 0.1
v 0.1 0.1 0.1
v 0.1 2 0.1
v 0.1 2.1 0.1
v 0.2 0.1 0.1
v 0.2 1.9 0.1
v 0.2 2 0.1
v 0.2 2.1 0.1
v 0.3 0.1 0.1
v 0.3 0.2 0.1
v 0.3 0.5 0.1
v 0.3 0.7 0.1
v 0.3 0.8 0.1
v 0.3 1.1 0.1
v 0.3 1.2 0.1
v 0.3 1.3 0.1
v 0.3 1.4 0.1
v 0.3 1.9 0.1
v 0.3 2 0.1
v 0.3 2.1 0.1
v 0.4 0.5 0.1
v 0.4 0.6 0.1
v 0.5 0.5 0.1
v 0.5 0.6 0.1
v 0.5 0.7 0.1
v 0.5 0.8 0.1
v 0.5 1.1 0.1
v 0.5 1.2 0.1
v 0.5 1.3 0.1
v 0.6 0.5 0.1
v 0.6 0.6 0.1
v 0.6 0.7 0.1
v 0.6 1.2 0.1
v 0.6 1.3 0.1
v 0.6 1.4 0.1
v -0.6 1.9 -2.98023e-08
v -0.6 2 -2.98023e-08
v -0.6 2.1 -2.98023e-08
v -0.5 1.9 -2.98023e-08
v -0.5 2 -2.98023e-08
v -0.5 2.1 -2.98023e-08
v -0.4 2 -2.98023e-08
v -0.4 2.1 -2.98023e-08
v 0.1 2 -2.98023e-08
v 0.1 2.1 -2.98023e-08
v 0.2 1.9 -2.98023e-08
v 0.2 2 -2.98023e-08
v 0.2 2.1 -2.98023e-08
v 0.3 1.9 -2.98023e-08
v 0.3 2 -2.98023e-08
v 0.3 2.1 -2.98023e-08
v -0.9 0.5 -0.3
v -0.9 0.6 -0.3
v -0.9 0.7 -0.3
v -0.9 1.2 -0.3
v -0.9 1.3 -0.3
v -0.9 1.4 -0.3
v -0.8 0.5 -0.3
v -0.8 0.6 -0.3
v -0.8 0.7 -0.3
v -0.8 0.8 -0.3
v -0.8 1.1 -0.3
v -0.8 1.2 -0.3
v -0.8 1.3 -0.3
v -0.6 0 -0.3
v -0.6 0.5 -0.3
v -0.6 0.7 -0.3
v -0.6 0.8 -0.3
v -0.6 0.9 -0.3
v -0.6 1 -0.3
v -0.6 1.1 -0.3
v -0.6 1.2 -0.3
v -0.6 1.4 -0.3
v -0.2 0 -0.3
v -0.2 0.5 -0.3
v -0.1 0 -0.3
v -0.1 0.5 -0.3
v 0.3 0 -0.3
v 0.3 0.5 -0.3
v 0.3 0.7 -0.3
v 0.3 0.8 -0.3
v 0.3 1.1 -0.3
v 0.3 1.2 -0.3
v 0.3 1.3 -0.3
v 0.3 1.4 -0.3
v 0.5 0.5 -0.3
v 0.5 0.6 -0.3
v 0.5 0.7 -0.3
v 0.5 0.8 -0.3
v 0.5 1.1 -0.3
v 0.5 1.2 -0.3
v 0.5 1.3 -0.3
v 0.6 0.5 -0.3
v 0.6 0.6 -0.3
v 0.6 0.7 -0.3
v 0.6 1.2 -0.3
v 0.6 1.3 -0.3
v 0.6 1.4 -0.3
v -0.6 0.5 -0.4
v -0.6 0.9 -0.4
v -0.6 1 -0.4
v -0.6 1.9 -0.4
v -0.5 0.8 -0.4
v -0.5 0.9 -0.4
v -0.5 1 -0.4
v -0.5 1.3 -0.4
v -0.5 1.9 -0.4
v -0.5 2 -0.4
v -0.2 0.8 -0.4
v -0.2 0.9 -0.4
v -0.2 1 -0.4
v -0.1 0.9 -0.4
v -0.1 1 -0.4
v -0.1 1.1 -0.4
v 0 1 -0.4
v 0 1.1 -0.4
v 0 1.2 -0.4
v 0.2 1.1 -0.4
v 0.2 1.2 -0.4
v 0.2 1.3 -0.4
v 0.2 1.9 -0.4
v 0.2 2 -0.4
v 0.3 0.5 -0.4
v 0.3 1.2 -0.4
v 0.3 1.3 -0.4
v 0.3 1.9 -0.4
v -0.5 1.3 -0.5
v -0.5 1.9 -0.5
v 0.2 1.3 -0.5
v 0.2 1.9 -0.5
v -0.6 0 0.2
v -0.5 0 0.2
v -0.4 0 0.2
v -0.3 0 0.2
v -0.2 0 0.2
v -0.1 0 0.2
v 0 0 0.2
v 0.1 0 0.2
v 0.2 0 0.2
v 0.3 0 0.2
v -0.5 0 0.1
v -0.4 0 0.1
v -0.3 0 0.1
v -0.2 0 0.1
v 0 0 0.1
v 0.1 0 0.1
v 0.2 0 0.1
v 0.3 0 0.1
v -0.6 0 -2.98023e-08
v -0.2 0 -2.98023e-08
v -0.1 0 -2.98023e-08
v 0.3 0 -2.98023e-08
v -0.6 0 -0.1
v -0.2 0 -0.1
v -0.1 0 -0.1
v 0.3 0 -0.1
v -0.6 0 -0.3
v -0.2 0 -0.3
v -0.1 0 -0.3
v 0.3 0 -0.3
v -0.6 0.5 0.2
v 0.3 0.5 0.2
v -0.9 0.5 0.1
v -0.8 0.5 0.1
v -0.7 0.5 0.1
v -0.6 0.5 0.1
v -0.2 0.5 0.1
v -0.1 0.5 0.1
v 0.3 0.5 0.1
v 0.4 0.5 0.1
v 0.5 0.5 0.1
v 0.6 0.5 0.1
v -0.9 0.5 -2.98023e-08
v -0.8 0.5 -2.98023e-08
v -0.7 0.5 -2.98023e-08
v 0.4 0.5 -2.98023e-08
v 0.5 0.5 -2.98023e-08
v 0.6 0.5 -2.98023e-08
v -0.9 0.5 -0.1
v -0.8 0.5 -0.1
v 0.5 0.5 -0.1
v 0.6 0.5 -0.1
v -0.9 0.5 -0.2
v -0.8 0.5 -0.2
v 0.5 0.5 -0.2
v 0.6 0.5 -0.2
v -0.9 0.5 -0.3
v -0.8 0.5 -0.3
v -0.6 0.5 -0.3
v -0.2 0.5 -0.3
v -0.1 0.5 -0.3
v 0.3 0.5 -0.3
v 0.5 0.5 -0.3
v 0.6 0.5 -0.3
v -0.6 0.5 -0.4
v 0.3 0.5 -0.4
v -0.5 1.3 0.3
v 0.2 1.3 0.3
v -0.5 1.3 0.2
v 0.2 1.3 0.2
v -0.5 1.3 -0.4
v 0.2 1.3 -0.4
v -0.5 1.3 -0.5
v 0.2 1.3 -0.5
v -0.6 0.1 0.2
v -0.5 0.1 0.2
v -0.4 0.1 0.2
v -0.3 0.1 0.2
v -0.2 0.1 0.2
v -0.1 0.1 0.2
v 0 0.1 0.2
v 0.1 0.1 0.2
v 0.2 0.1 0.2
v 0.3 0.1 0.2
v -0.6 0.1 0.1
v -0.5 0.1 0.1
v -0.4 0.1 0.1
v -0.3 0.1 0.1
v -0.2 0.1 0.1
v -0.1 0.1 0.1
v 0 0.1 0.1
v 0.1 0.1 0.1
v 0.2 0.1 0.1
v 0.3 0.1 0.1
v -0.9 1.4 0.1
v -0.6 1.4 0.1
v 0.3 1.4 0.1
v 0.6 1.4 0.1
v -0.9 1.4 -0.3
v -0.6 1.4 -0.3
v 0.3 1.4 -0.3
v 0.6 1.4 -0.3
v -0.5 1.9 0.3
v 0.2 1.9 0.3
v -0.6 1.9 0.2
v -0.5 1.9 0.2
v 0.2 1.9 0.2
v 0.3 1.9 0.2
v -0.6 1.9 0.1
v -0.5 1.9 0.1
v 0.2 1.9 0.1
v 0.3 1.9 0.1
v -0.6 1.9 -2.98023e-08
v -0.5 1.9 -2.98023e-08
v 0.2 1.9 -2.98023e-08
v 0.3 1.9 -2.98023e-08
v -0.6 1.9 -0.4
v -0.5 1.9 -0.4
v 0.2 1.9 -0.4
v 0.3 1.9 -0.4
v -0.5 1.9 -0.5
v 0.2 1.9 -0.5
v -0.5 2 0.2
v 0.2 2 0.2
v -0.5 2 0.1
v -0.4 2 0.1
v 0.1 2 0.1
v 0.2 2 0.1
v -0.5 2 -2.98023e-08
v -0.4 2 -2.98023e-08
v 0.1 2 -2.98023e-08
v 0.2 2 -2.98023e-08
v -0.5 2 -0.4
v 0.2 2 -0.4
v -0.6 2.1 0.1
v -0.5 2.1 0.1
v -0.4 2.1 0.1
v 0.1 2.1 0.1
v 0.2 2.1 0.1
v 0.3 2.1 0.1
v -0.6 2.1 -2.98023e-08
v -0.5 2.1 -2.98023e-08
v -0.4 2.1 -2.98023e-08
v 0.1 2.1 -2.98023e-08
v 0.2 2.1 -2.98023e-08
v 0.3 2.1 -2.98023e-08

# faces
f 6/10/1 2/10/1 1/10/1
f 7/9/1 3/9/1 2/9/1
f 7/10/1 2/10/1 6/10/1
f 8/10/1 4/10/1 3/10/1
f 8/9/1 3/9/1 7/9/1
f 9/9/1 5/9/1 4/9/1
f 9/10/1 4/10/1 8/10/1
f 10/9/1 5/9/1 9/9/1
f 11/2/1 8/2/1 7/2/1
f 11/2/1 7/2/1 6/2/1
f 11/2/1 10/2/1 9/2/1
f 11/2/1 9/2/1 8/2/1
f 12/2/1 10/2/1 11/2/1
f 13/8/1 12/8/1 11/8/1
f 14/8/1 12/8/1 13/8/1
f 15/2/1 14/2/1 13/2/1
f 16/2/1 14/2/1 15/2/1
f 17/1/1 16/1/1 15/1/1
f 18/1/1 16/1/1 17/1/1
f 23/9/1 20/9/1 19/9/1
f 24/9/1 20/9/1 23/9/1
f 25/2/1 21/2/1 20/2/1
f 25/9/1 20/9/1 24/9/1
f 26/8/1 22/8/1 21/8/1
f 26/2/1 21/2/1 25/2/1
f 27/2/1 25/2/1 24/2/1
f 28/8/1 26/8/1 25/8/1
f 28/2/1 25/2/1 27/2/1
f 30/8/1 28/8/1 27/8/1
f 31/8/1 22/8/1 26/8/1
f 31/8/1 26/8/1 28/8/1
f 31/8/1 28/8/1 30/8/1
f 33/8/1 30/8/1 29/8/1
f 34/8/1 32/8/1 31/8/1
f 35/8/1 33/8/1 29/8/1
f 36/8/1 32/8/1 34/8/1
f 37/8/1 35/8/1 29/8/1
f 38/8/1 35/8/1 37/8/1
f 39/8/1 32/8/1 36/8/1
f 40/8/1 32/8/1 39/8/1
f 41/2/1 38/2/1 37/2/1
f 42/2/1 38/2/1 41/2/1
f 43/2/1 40/2/1 39/2/1
f 44/2/1 40/2/1 43/2/1
f 45/1/1 42/1/1 41/1/1
f 46/1/1 44/1/1 43/1/1
f 47/1/1 45/1/1 41/1/1
f 48/1/1 44/1/1 46/1/1
f 49/1/1 47/1/1 41/1/1
f 50/1/1 44/1/1 48/1/1
f 51/1/1 49/1/1 41/1/1
f 51/1/1 50/1/1 49/1/1
f 52/1/1 50/1/1 51/1/1
f 53/1/1 50/1/1 52/1/1
f 54/1/1 44/1/1 50/1/1
f 54/1/1 50/1/1 53/1/1
f 55/10/1 53/10/1 52/10/1
f 56/10/1 53/10/1 55/10/1
f 57/9/1 56/9/1 55/9/1
f 58/9/1 56/9/1 57/9/1
f 63/10/1 60/10/1 59/10/1
f 64/10/1 60/10/1 63/10/1
f 67/1/1 62/1/1 61/1/1
f 68/1/1 62/1/1 67/1/1
f 69/1/1 65/1/1 64/1/1
f 70/1/1 65/1/1 69/1/1
f 71/1/1 67/1/1 66/1/1
f 72/1/1 67/1/1 71/1/1
f 77/9/1 74/9/1 73/9/1
f 78/9/1 74/9/1 77/9/1
f 79/2/1 75/2/1 74/2/1
f 79/9/1 74/9/1 78/9/1
f 80/8/1 76/8/1 75/8/1
f 80/2/1 75/2/1 79/2/1
f 81/2/1 79/2/1 78/2/1
f 82/8/1 80/8/1 79/8/1
f 82/2/1 79/2/1 81/2/1
f 83/8/1 82/8/1 81/8/1
f 84/8/1 76/8/1 80/8/1
f 84/8/1 82/8/1 83/8/1
f 84/8/1 80/8/1 82/8/1
f 87/10/1 86/10/1 85/10/1
f 88/10/1 86/10/1 87/10/1
f 89/10/2 90/10/2 91/10/2
f 91/10/2 90/10/2 92/10/2
f 93/10/2 94/10/2 98/10/2
f 94/9/2 95/9/2 99/9/2
f 98/10/2 94/10/2 99/10/2
f 95/2/2 96/2/2 100/2/2
f 99/9/2 95/9/2 100/9/2
f 96/8/2 97/8/2 101/8/2
f 100/2/2 96/2/2 101/2/2
f 99/2/2 100/2/2 102/2/2
f 100/8/2 101/8/2 103/8/2
f 102/2/2 100/2/2 103/2/2
f 102/8/2 103/8/2 104/8/2
f 101/8/2 97/8/2 105/8/2
f 104/8/2 103/8/2 105/8/2
f 103/8/2 101/8/2 105/8/2
f 106/10/2 107/10/2 110/10/2
f 110/10/2 107/10/2 111/10/2
f 108/1/2 109/1/2 114/1/2
f 114/1/2 109/1/2 115/1/2
f 111/1/2 112/1/2 116/1/2
f 116/1/2 112/1/2 117/1/2
f 113/1/2 114/1/2 118/1/2
f 118/1/2 114/1/2 119/1/2
f 120/10/2 121/10/2 125/10/2
f 121/9/2 122/9/2 126/9/2
f 125/10/2 121/10/2 126/10/2
f 122/2/2 123/2/2 127/2/2
f 126/9/2 122/9/2 127/9/2
f 123/8/2 124/8/2 128/8/2
f 127/2/2 123/2/2 128/2/2
f 126/2/2 127/2/2 129/2/2
f 127/8/2 128/8/2 130/8/2
f 129/2/2 127/2/2 130/2/2
f 129/8/2 130/8/2 132/8/2
f 128/8/2 124/8/2 133/8/2
f 130/8/2 128/8/2 133/8/2
f 132/8/2 130/8/2 133/8/2
f 131/8/2 132/8/2 135/8/2
f 133/8/2 134/8/2 136/8/2
f 131/8/2 135/8/2 137/8/2
f 136/8/2 134/8/2 138/8/2
f 131/8/2 137/8/2 139/8/2
f 138/8/2 134/8/2 140/8/2
f 131/8/2 139/8/2 141/8/2
f 141/8/2 139/8/2 142/8/2
f 140/8/2 134/8/2 143/8/2
f 143/8/2 134/8/2 144/8/2
f 141/2/2 142/2/2 145/2/2
f 145/2/2 142/2/2 146/2/2
f 143/2/2 144/2/2 147/2/2
f 147/2/2 144/2/2 148/2/2
f 145/1/2 146/1/2 149/1/2
f 147/1/2 148/1/2 150/1/2
f 145/1/2 149/1/2 151/1/2
f 149/1/2 150/1/2 151/1/2
f 151/1/2 150/1/2 152/1/2
f 152/1/2 150/1/2 153/1/2
f 150/1/2 148/1/2 154/1/2
f 153/1/2 150/1/2 154/1/2
f 152/10/2 153/10/2 155/10/2
f 155/10/2 153/10/2 156/10/2
f 155/9/2 156/9/2 157/9/2
f 157/9/2 156/9/2 158/9/2
f 159/10/2 160/10/2 164/10/2
f 160/9/2 161/9/2 165/9/2
f 164/10/2 160/10/2 165/10/2
f 161/10/2 162/10/2 166/10/2
f 165/9/2 161/9/2 166/9/2
f 162/9/2 163/9/2 167/9/2
f 166/10/2 162/10/2 167/10/2
f 167/9/2 163/9/2 168/9/2
f 165/2/2 166/2/2 169/2/2
f 164/2/2 165/2/2 169/2/2
f 167/2/2 168/2/2 169/2/2
f 166/2/2 167/2/2 169/2/2
f 169/2/2 168/2/2 170/2/2
f 169/8/2 170/8/2 171/8/2
f 171/8/2 170/8/2 172/8/2
f 171/2/2 172/2/2 173/2/2
f 173/2/2 172/2/2 174/2/2
f 173/1/2 174/1/2 175/1/2
f 175/1/2 174/1/2 176/1/2
f 179/10/3 178/10/3 177/10/3
f 180/10/3 178/10/3 179/10/3
f 181/10/3 179/10/3 177/10/3
f 181/11/3 180/11/3 179/11/3
f 182/10/3 178/10/3 180/10/3
f 182/11/3 180/11/3 181/11/3
f 183/10/3 181/10/3 177/10/3
f 183/10/3 182/10/3 181/10/3
f 184/10/3 178/10/3 182/10/3
f 184/10/3 182/10/3 183/10/3
f 185/10/3 183/10/3 177/10/3
f 185/11/3 184/11/3 183/11/3
f 186/10/3 178/10/3 184/10/3
f 186/11/3 184/11/3 185/11/3
f 187/10/3 185/10/3 177/10/3
f 187/10/3 186/10/3 185/10/3
f 188/10/3 178/10/3 186/10/3
f 188/10/3 186/10/3 187/10/3
f 195/9/3 190/9/3 189/9/3
f 196/9/3 190/9/3 195/9/3
f 197/8/3 192/8/3 191/8/3
f 198/2/3 193/2/3 192/2/3
f 198/8/3 192/8/3 197/8/3
f 199/1/3 194/1/3 193/1/3
f 199/2/3 193/2/3 198/2/3
f 200/1/3 194/1/3 199/1/3
f 201/1/3 194/1/3 200/1/3
f 203/10/3 196/10/3 195/10/3
f 204/10/3 196/10/3 203/10/3
f 205/9/3 204/9/3 203/9/3
f 206/9/3 204/9/3 205/9/3
f 207/10/3 206/10/3 205/10/3
f 208/10/3 206/10/3 207/10/3
f 209/2/3 198/2/3 197/2/3
f 209/8/3 197/8/3 191/8/3
f 210/1/3 199/1/3 198/1/3
f 210/2/3 198/2/3 209/2/3
f 210/1/3 200/1/3 199/1/3
f 211/1/3 200/1/3 210/1/3
f 214/8/3 210/8/3 209/8/3
f 214/2/3 211/2/3 210/2/3
f 215/1/3 200/1/3 211/1/3
f 215/2/3 211/2/3 214/2/3
f 216/1/3 200/1/3 215/1/3
f 217/9/3 213/9/3 212/9/3
f 218/9/3 213/9/3 217/9/3
f 219/8/3 215/8/3 214/8/3
f 219/2/3 216/2/3 215/2/3
f 220/1/3 200/1/3 216/1/3
f 220/2/3 216/2/3 219/2/3
f 221/1/3 200/1/3 220/1/3
f 222/10/3 218/10/3 217/10/3
f 223/10/3 218/10/3 222/10/3
f 224/9/3 223/9/3 222/9/3
f 225/9/3 223/9/3 224/9/3
f 226/8/3 220/8/3 219/8/3
f 226/2/3 221/2/3 220/2/3
f 227/1/3 200/1/3 221/1/3
f 227/2/3 221/2/3 226/2/3
f 228/1/3 200/1/3 227/1/3
f 229/1/3 202/1/3 201/1/3
f 230/1/3 202/1/3 229/1/3
f 231/10/3 225/10/3 224/10/3
f 232/10/3 225/10/3 231/10/3
f 233/8/3 214/8/3 209/8/3
f 233/8/3 209/8/3 191/8/3
f 233/8/3 219/8/3 214/8/3
f 233/8/3 226/8/3 219/8/3
f 233/8/3 227/8/3 226/8/3
f 234/2/3 228/2/3 227/2/3
f 234/8/3 227/8/3 233/8/3
f 235/1/3 229/1/3 228/1/3
f 235/2/3 228/2/3 234/2/3
f 236/1/3 229/1/3 235/1/3
f 243/10/3 238/10/3 237/10/3
f 244/2/3 239/2/3 238/2/3
f 244/10/3 238/10/3 243/10/3
f 245/8/3 240/8/3 239/8/3
f 245/2/3 239/2/3 244/2/3
f 246/8/3 240/8/3 245/8/3
f 247/8/3 240/8/3 246/8/3
f 248/2/3 241/2/3 240/2/3
f 248/8/3 240/8/3 247/8/3
f 249/1/3 242/1/3 241/1/3
f 249/2/3 241/2/3 248/2/3
f 250/9/3 244/9/3 243/9/3
f 251/10/3 245/10/3 244/10/3
f 251/9/3 244/9/3 250/9/3
f 254/10/3 251/10/3 250/10/3
f 255/2/3 246/2/3 245/2/3
f 255/10/3 245/10/3 251/10/3
f 255/10/3 251/10/3 254/10/3
f 256/8/3 247/8/3 246/8/3
f 256/2/3 246/2/3 255/2/3
f 257/8/3 247/8/3 256/8/3
f 258/8/3 247/8/3 257/8/3
f 259/2/3 248/2/3 247/2/3
f 259/8/3 247/8/3 258/8/3
f 260/1/3 249/1/3 248/1/3
f 260/2/3 248/2/3 259/2/3
f 261/1/3 242/1/3 249/1/3
f 261/1/3 249/1/3 260/1/3
f 265/2/3 253/2/3 252/2/3
f 266/10/3 263/10/3 262/10/3
f 267/9/3 264/9/3 263/9/3
f 267/10/3 263/10/3 266/10/3
f 268/9/3 264/9/3 267/9/3
f 269/2/3 253/2/3 265/2/3
f 270/10/3 268/10/3 267/10/3
f 271/10/3 268/10/3 270/10/3
f 272/2/3 253/2/3 269/2/3
f 273/2/3 253/2/3 272/2/3
f 274/8/3 254/8/3 253/8/3
f 274/2/3 253/2/3 273/2/3
f 275/8/3 254/8/3 274/8/3
f 279/2/3 277/2/3 276/2/3
f 280/2/3 277/2/3 279/2/3
f 283/2/3 277/2/3 280/2/3
f 285/10/3 282/10/3 281/10/3
f 286/10/3 282/10/3 285/10/3
f 287/2/3 277/2/3 283/2/3
f 288/8/3 278/8/3 277/8/3
f 288/2/3 277/2/3 287/2/3
f 289/8/3 278/8/3 288/8/3
f 296/10/3 285/10/3 284/10/3
f 297/9/3 286/9/3 285/9/3
f 297/10/3 285/10/3 296/10/3
f 298/9/3 286/9/3 297/9/3
f 299/10/3 290/10/3 289/10/3
f 300/10/3 290/10/3 299/10/3
f 301/9/3 300/9/3 299/9/3
f 302/10/3 290/10/3 300/10/3
f 302/9/3 300/9/3 301/9/3
f 303/2/3 291/2/3 290/2/3
f 303/10/3 290/10/3 302/10/3
f 304/8/3 292/8/3 291/8/3
f 304/2/3 291/2/3 303/2/3
f 305/2/3 293/2/3 292/2/3
f 305/8/3 292/8/3 304/8/3
f 306/1/3 295/1/3 294/1/3
f 306/2/3 293/2/3 305/2/3
f 306/1/3 294/1/3 293/1/3
f 307/1/3 295/1/3 306/1/3
f 308/10/3 302/10/3 301/10/3
f 309/2/3 303/2/3 302/2/3
f 309/10/3 302/10/3 308/10/3
f 310/8/3 305/8/3 304/8/3
f 310/2/3 303/2/3 309/2/3
f 310/8/3 304/8/3 303/8/3
f 310/8/3 306/8/3 305/8/3
f 311/2/3 307/2/3 306/2/3
f 311/8/3 306/8/3 310/8/3
f 312/1/3 295/1/3 307/1/3
f 312/2/3 307/2/3 311/2/3
f 313/1/3 295/1/3 312/1/3
f 314/10/4 315/10/4 317/10/4
f 315/9/4 316/9/4 318/9/4
f 317/10/4 315/10/4 318/10/4
f 318/9/4 316/9/4 319/9/4
f 318/10/4 319/10/4 320/10/4
f 320/10/4 319/10/4 321/10/4
f 322/10/4 323/10/4 325/10/4
f 325/10/4 323/10/4 326/10/4
f 324/10/4 325/10/4 327/10/4
f 325/9/4 326/9/4 328/9/4
f 327/10/4 325/10/4 328/10/4
f 328/9/4 326/9/4 329/9/4
f 330/9/4 331/9/4 336/9/4
f 331/2/4 332/2/4 337/2/4
f 336/9/4 331/9/4 337/9/4
f 332/8/4 333/8/4 338/8/4
f 337/2/4 332/2/4 338/2/4
f 338/8/4 333/8/4 339/8/4
f 339/8/4 333/8/4 340/8/4
f 333/2/4 334/2/4 341/2/4
f 340/8/4 333/8/4 341/8/4
f 334/1/4 335/1/4 342/1/4
f 341/2/4 334/2/4 342/2/4
f 336/10/4 337/10/4 344/10/4
f 337/10/4 338/10/4 344/10/4
f 338/2/4 339/2/4 345/2/4
f 344/10/4 338/10/4 345/10/4
f 339/8/4 340/8/4 346/8/4
f 345/2/4 339/2/4 346/2/4
f 346/8/4 340/8/4 347/8/4
f 347/8/4 340/8/4 348/8/4
f 340/2/4 341/2/4 349/2/4
f 348/8/4 340/8/4 349/8/4
f 341/1/4 342/1/4 350/1/4
f 349/2/4 341/2/4 350/2/4
f 342/1/4 335/1/4 351/1/4
f 350/1/4 342/1/4 351/1/4
f 343/8/4 344/8/4 352/8/4
f 352/8/4 344/8/4 353/8/4
f 354/8/4 355/8/4 356/8/4
f 356/8/4 355/8/4 357/8/4
f 357/10/4 358/10/4 364/10/4
f 364/10/4 358/10/4 365/10/4
f 358/2/4 359/2/4 366/2/4
f 365/10/4 358/10/4 366/10/4
f 359/8/4 360/8/4 367/8/4
f 366/2/4 359/2/4 367/2/4
f 360/2/4 361/2/4 368/2/4
f 367/8/4 360/8/4 368/8/4
f 362/1/4 363/1/4 369/1/4
f 368/2/4 361/2/4 369/2/4
f 361/1/4 362/1/4 369/1/4
f 369/1/4 363/1/4 370/1/4
f 364/9/4 365/9/4 371/9/4
f 365/2/4 366/2/4 372/2/4
f 371/9/4 365/9/4 372/9/4
f 367/8/4 368/8/4 373/8/4
f 372/2/4 366/2/4 373/2/4
f 366/8/4 367/8/4 373/8/4
f 368/8/4 369/8/4 373/8/4
f 369/2/4 370/2/4 374/2/4
f 373/8/4 369/8/4 374/8/4
f 370/1/4 363/1/4 375/1/4
f 374/2/4 370/2/4 375/2/4
f 375/1/4 363/1/4 376/1/4
f 377/8/4 378/8/4 381/8/4
f 378/2/4 379/2/4 382/2/4
f 381/8/4 378/8/4 382/8/4
f 379/1/4 380/1/4 383/1/4
f 382/2/4 379/2/4 383/2/4
f 383/1/4 380/1/4 384/1/4
f 384/1/4 380/1/4 385/1/4
f 381/2/4 382/2/4 387/2/4
f 377/8/4 381/8/4 387/8/4
f 383/1/4 384/1/4 388/1/4
f 387/2/4 382/2/4 388/2/4
f 382/1/4 383/1/4 388/1/4
f 388/1/4 384/1/4 389/1/4
f 387/8/4 388/8/4 390/8/4
f 388/2/4 389/2/4 390/2/4
f 389/1/4 384/1/4 391/1/4
f 390/2/4 389/2/4 391/2/4
f 391/1/4 384/1/4 392/1/4
f 390/8/4 391/8/4 393/8/4
f 391/2/4 392/2/4 393/2/4
f 392/1/4 384/1/4 394/1/4
f 393/2/4 392/2/4 394/2/4
f 394/1/4 384/1/4 395/1/4
f 393/8/4 394/8/4 396/8/4
f 394/2/4 395/2/4 396/2/4
f 395/1/4 384/1/4 397/1/4
f 396/2/4 395/2/4 397/2/4
f 397/1/4 384/1/4 398/1/4
f 385/1/4 386/1/4 399/1/4
f 399/1/4 386/1/4 400/1/4
f 377/8/4 387/8/4 401/8/4
f 387/8/4 390/8/4 401/8/4
f 390/8/4 393/8/4 401/8/4
f 393/8/4 396/8/4 401/8/4
f 396/8/4 397/8/4 401/8/4
f 397/2/4 398/2/4 402/2/4
f 401/8/4 397/8/4 402/8/4
f 398/1/4 399/1/4 403/1/4
f 402/2/4 398/2/4 403/2/4
f 403/1/4 399/1/4 404/1/4
f 405/1/4 406/1/4 407/1/4
f 407/1/4 406/1/4 408/1/4
f 419/9/5 410/9/5 409/9/5
f 419/10/5 411/10/5 410/10/5
f 420/9/5 412/9/5 411/9/5
f 420/10/5 411/10/5 419/10/5
f 421/10/5 413/10/5 412/10/5
f 421/9/5 412/9/5 420/9/5
f 422/10/5 413/10/5 421/10/5
f 423/9/5 415/9/5 414/9/5
f 423/10/5 416/10/5 415/10/5
f 424/9/5 417/9/5 416/9/5
f 424/10/5 416/10/5 423/10/5
f 425/10/5 418/10/5 417/10/5
f 425/9/5 417/9/5 424/9/5
f 426/10/5 418/10/5 425/10/5
f 427/9/5 419/9/5 409/9/5
f 427/9/5 420/9/5 419/9/5
f 427/9/5 422/9/5 421/9/5
f 427/9/5 421/9/5 420/9/5
f 428/9/5 422/9/5 427/9/5
f 429/9/5 424/9/5 423/9/5
f 429/9/5 423/9/5 414/9/5
f 429/9/5 426/9/5 425/9/5
f 429/9/5 425/9/5 424/9/5
f 430/9/5 426/9/5 429/9/5
f 431/2/5 428/2/5 427/2/5
f 432/2/5 428/2/5 431/2/5
f 433/2/5 430/2/5 429/2/5
f 434/2/5 430/2/5 433/2/5
f 435/8/5 432/8/5 431/8/5
f 436/8/5 432/8/5 435/8/5
f 437/8/5 434/8/5 433/8/5
f 438/8/5 434/8/5 437/8/5
f 444/8/5 440/8/5 439/8/5
f 445/8/5 440/8/5 444/8/5
f 446/8/5 440/8/5 445/8/5
f 447/8/5 440/8/5 446/8/5
f 451/10/5 442/10/5 441/10/5
f 452/9/5 443/9/5 442/9/5
f 452/10/5 442/10/5 451/10/5
f 453/10/5 444/10/5 443/10/5
f 453/9/5 443/9/5 452/9/5
f 454/9/5 449/9/5 448/9/5
f 454/10/5 448/10/5 447/10/5
f 455/10/5 450/10/5 449/10/5
f 455/9/5 449/9/5 454/9/5
f 456/10/5 450/10/5 455/10/5
f 457/9/5 452/9/5 451/9/5
f 458/10/5 453/10/5 452/10/5
f 458/9/5 452/9/5 457/9/5
f 459/10/5 455/10/5 454/10/5
f 459/9/5 456/9/5 455/9/5
f 460/9/5 456/9/5 459/9/5
f 461/10/5 458/10/5 457/10/5
f 462/10/5 453/10/5 458/10/5
f 462/10/5 458/10/5 461/10/5
f 463/10/5 459/10/5 454/10/5
f 463/10/5 460/10/5 459/10/5
f 464/10/5 460/10/5 463/10/5
f 465/9/5 462/9/5 461/9/5
f 466/10/5 453/10/5 462/10/5
f 466/9/5 462/9/5 465/9/5
f 467/10/5 444/10/5 453/10/5
f 467/10/5 453/10/5 466/10/5
f 468/8/5 446/8/5 445/8/5
f 469/8/5 446/8/5 468/8/5
f 470/10/5 454/10/5 447/10/5
f 470/10/5 463/10/5 454/10/5
f 471/9/5 464/9/5 463/9/5
f 471/10/5 463/10/5 470/10/5
f 472/9/5 464/9/5 471/9/5
f 473/8/5 469/8/5 468/8/5
f 473/8/5 468/8/5 467/8/5
f 473/8/5 470/8/5 469/8/5
f 474/8/5 470/8/5 473/8/5
f 477/10/5 476/10/5 475/10/5
f 478/10/5 476/10/5 477/10/5
f 481/1/5 480/1/5 479/1/5
f 482/1/5 480/1/5 481/1/5
f 483/9/6 484/9/6 493/9/6
f 484/10/6 485/10/6 494/10/6
f 493/9/6 484/9/6 494/9/6
f 485/9/6 486/9/6 495/9/6
f 494/10/6 485/10/6 495/10/6
f 486/10/6 487/10/6 496/10/6
f 495/9/6 486/9/6 496/9/6
f 496/10/6 487/10/6 497/10/6
f 488/9/6 489/9/6 498/9/6
f 489/10/6 490/10/6 499/10/6
f 498/9/6 489/9/6 499/9/6
f 490/9/6 491/9/6 500/9/6
f 499/10/6 490/10/6 500/10/6
f 491/10/6 492/10/6 501/10/6
f 500/9/6 491/9/6 501/9/6
f 501/10/6 492/10/6 502/10/6
f 503/1/6 504/1/6 507/1/6
f 507/1/6 504/1/6 508/1/6
f 505/1/6 506/1/6 509/1/6
f 509/1/6 506/1/6 510/1/6
f 511/10/6 512/10/6 514/10/6
f 514/10/6 512/10/6 515/10/6
f 513/1/6 514/1/6 517/1/6
f 517/1/6 514/1/6 518/1/6
f 515/1/6 516/1/6 519/1/6
f 519/1/6 516/1/6 520/1/6
f 521/1/6 522/1/6 525/1/6
f 525/1/6 522/1/6 526/1/6
f 523/1/6 524/1/6 527/1/6
f 527/1/6 524/1/6 528/1/6
f 526/1/6 527/1/6 529/1/6
f 529/1/6 527/1/6 530/1/6
f 531/1/6 532/1/6 533/1/6
f 533/1/6 532/1/6 534/1/6
f 534/1/6 532/1/6 535/1/6
f 535/1/6 532/1/6 536/1/6
f 534/1/6 535/1/6 538/1/6
f 538/1/6 535/1/6 539/1/6
f 537/1/6 538/1/6 541/1/6
f 539/1/6 540/1/6 541/1/6
f 538/1/6 539/1/6 541/1/6
f 541/1/6 540/1/6 542/1/6
f 543/9/6 544/9/6 549/9/6
f 544/10/6 545/10/6 550/10/6
f 549/9/6 544/9/6 550/9/6
f 550/10/6 545/10/6 551/10/6
f 546/10/6 547/10/6 552/10/6
f 547/9/6 548/9/6 553/9/6
f 552/10/6 547/10/6 553/10/6
f 553/9/6 548/9/6 554/9/6
