# MagicaVoxel @ Ephtracy

# group
o 

# material
mtllib Yeti_Smash.mtl
usemtl palette

# normals
vn -1 0 0
vn 1 0 0
vn 0 0 1
vn 0 0 -1
vn 0 -1 0
vn 0 1 0

# texcoords
vt 0.181641 0.5
vt 0.232422 0.5
vt 0.369141 0.5
vt 0.404297 0.5
vt 0.537109 0.5
vt 0.826172 0.5
vt 0.888672 0.5
vt 0.896484 0.5
vt 0.904297 0.5
vt 0.958984 0.5
vt 0.966797 0.5
vt 0.994141 0.5

# verts
v -0.9 0.5 0.1
v -0.9 0.5 -2.98023e-08
v -0.9 0.5 -0.1
v -0.9 0.5 -0.2
v -0.9 0.5 -0.3
v -0.9 0.6 0.1
v -0.9 0.6 -2.98023e-08
v -0.9 0.6 -0.1
v -0.9 0.6 -0.2
v -0.9 0.6 -0.3
v -0.9 0.7 0.1
v -0.9 0.7 -0.3
v -0.9 1.2 0.1
v -0.9 1.2 -0.3
v -0.9 1.3 0.1
v -0.9 1.3 -0.3
v -0.9 1.4 0.1
v -0.9 1.4 -0.3
v -0.6 0 0.2
v -0.6 0 -2.98023e-08
v -0.6 0 -0.1
v -0.6 0 -0.3
v -0.6 0.1 0.2
v -0.6 0.1 0.1
v -0.6 0.1 -2.98023e-08
v -0.6 0.1 -0.1
v -0.6 0.2 0.1
v -0.6 0.2 -2.98023e-08
v -0.6 0.5 0.2
v -0.6 0.5 0.1
v -0.6 0.5 -0.3
v -0.6 0.5 -0.4
v -0.6 0.7 0.1
v -0.6 0.7 -0.3
v -0.6 0.8 0.1
v -0.6 0.8 -0.3
v -0.6 0.9 0.2
v -0.6 0.9 0.1
v -0.6 0.9 -0.3
v -0.6 0.9 -0.4
v -0.6 1 0.2
v -0.6 1 0.1
v -0.6 1 -0.3
v -0.6 1 -0.4
v -0.6 1.1 0.1
v -0.6 1.1 -0.3
v -0.6 1.2 0.1
v -0.6 1.2 -0.3
v -0.6 1.4 0.1
v -0.6 1.4 -0.3
v -0.6 1.9 0.2
v -0.6 1.9 0.1
v -0.6 1.9 -2.98023e-08
v -0.6 1.9 -0.4
v -0.6 2 0.1
v -0.6 2 -2.98023e-08
v -0.6 2.1 0.1
v -0.6 2.1 -2.98023e-08
v -0.5 1.3 0.3
v -0.5 1.3 0.2
v -0.5 1.3 -0.4
v -0.5 1.3 -0.5
v -0.5 1.9 0.3
v -0.5 1.9 0.2
v -0.5 1.9 0.1
v -0.5 1.9 -2.98023e-08
v -0.5 1.9 -0.4
v -0.5 1.9 -0.5
v -0.5 2 0.2
v -0.5 2 0.1
v -0.5 2 -2.98023e-08
v -0.5 2 -0.4
v -0.1 0 0.2
v -0.1 0 -2.98023e-08
v -0.1 0 -0.1
v -0.1 0 -0.3
v -0.1 0.1 0.2
v -0.1 0.1 0.1
v -0.1 0.1 -2.98023e-08
v -0.1 0.1 -0.1
v -0.1 0.2 0.1
v -0.1 0.2 -2.98023e-08
v -0.1 0.5 0.1
v -0.1 0.5 -0.3
v 0.1 2 0.1
v 0.1 2 -2.98023e-08
v 0.1 2.1 0.1
v 0.1 2.1 -2.98023e-08
v -0.4 2 0.1
v -0.4 2 -2.98023e-08
v -0.4 2.1 0.1
v -0.4 2.1 -2.98023e-08
v -0.2 0 0.2
v -0.2 0 0.1
v -0.2 0 -2.98023e-08
v -0.2 0 -0.1
v -0.2 0 -0.3
v -0.2 0.1 0.2
v -0.2 0.1 0.1
v -0.2 0.1 -2.98023e-08
v -0.2 0.1 -0.1
v -0.2 0.2 0.1
v -0.2 0.2 -2.98023e-08
v -0.2 0.5 0.1
v -0.2 0.5 -0.3
v 0.2 1.3 0.3
v 0.2 1.3 0.2
v 0.2 1.3 -0.4
v 0.2 1.3 -0.5
v 0.2 1.9 0.3
v 0.2 1.9 0.2
v 0.2 1.9 0.1
v 0.2 1.9 -2.98023e-08
v 0.2 1.9 -0.4
v 0.2 1.9 -0.5
v 0.2 2 0.2
v 0.2 2 0.1
v 0.2 2 -2.98023e-08
v 0.2 2 -0.4
v 0.3 0 0.2
v 0.3 0 0.1
v 0.3 0 -2.98023e-08
v 0.3 0 -0.1
v 0.3 0 -0.3
v 0.3 0.1 0.2
v 0.3 0.1 0.1
v 0.3 0.1 -2.98023e-08
v 0.3 0.1 -0.1
v 0.3 0.2 0.1
v 0.3 0.2 -2.98023e-08
v 0.3 0.5 0.2
v 0.3 0.5 0.1
v 0.3 0.5 -0.3
v 0.3 0.5 -0.4
v 0.3 0.7 0.1
v 0.3 0.7 -0.3
v 0.3 0.8 0.1
v 0.3 0.8 -0.3
v 0.3 1.1 0.1
v 0.3 1.1 -0.3
v 0.3 1.2 0.2
v 0.3 1.2 0.1
v 0.3 1.2 -0.3
v 0.3 1.2 -0.4
v 0.3 1.3 0.2
v 0.3 1.3 0.1
v 0.3 1.3 -0.3
v 0.3 1.3 -0.4
v 0.3 1.4 0.1
v 0.3 1.4 -0.3
v 0.3 1.9 0.2
v 0.3 1.9 0.1
v 0.3 1.9 -2.98023e-08
v 0.3 1.9 -0.4
v 0.3 2 0.1
v 0.3 2 -2.98023e-08
v 0.3 2.1 0.1
v 0.3 2.1 -2.98023e-08
v 0.6 0.5 0.1
v 0.6 0.5 -2.98023e-08
v 0.6 0.5 -0.1
v 0.6 0.5 -0.2
v 0.6 0.5 -0.3
v 0.6 0.6 0.1
v 0.6 0.6 -2.98023e-08
v 0.6 0.6 -0.1
v 0.6 0.6 -0.2
v 0.6 0.6 -0.3
v 0.6 0.7 0.1
v 0.6 0.7 -0.3
v 0.6 1.2 0.1
v 0.6 1.2 -0.3
v 0.6 1.3 0.1
v 0.6 1.3 -0.3
v 0.6 1.4 0.1
v 0.6 1.4 -0.3
v -0.5 1.3 0.3
v -0.5 1.9 0.3
v -0.3 1.6 0.3
v -0.3 1.8 0.3
v -0.2 1.6 0.3
v -0.2 1.8 0.3
v -0.1 1.6 0.3
v -0.1 1.8 0.3
v 0 1.6 0.3
v 0 1.8 0.3
v 0.2 1.3 0.3
v 0.2 1.9 0.3
v -0.6 0 0.2
v -0.6 0.1 0.2
v -0.6 0.5 0.2
v -0.6 0.9 0.2
v -0.6 1 0.2
v -0.6 1.9 0.2
v -0.5 0 0.2
v -0.5 0.1 0.2
v -0.5 0.8 0.2
v -0.5 0.9 0.2
v -0.5 1 0.2
v -0.5 1.3 0.2
v -0.5 1.9 0.2
v -0.5 2 0.2
v -0.4 0 0.2
v -0.4 0.1 0.2
v -0.3 0 0.2
v -0.3 0.1 0.2
v -0.2 0 0.2
v -0.2 0.1 0.2
v -0.2 0.8 0.2
v -0.2 0.9 0.2
v -0.2 1 0.2
v -0.1 0 0.2
v -0.1 0.1 0.2
v -0.1 0.9 0.2
v -0.1 1 0.2
v -0.1 1.1 0.2
v 0 0 0.2
v 0 0.1 0.2
v 0 1 0.2
v 0 1.1 0.2
v 0 1.2 0.2
v 0.1 0 0.2
v 0.1 0.1 0.2
v 0.2 0 0.2
v 0.2 0.1 0.2
v 0.2 1.1 0.2
v 0.2 1.2 0.2
v 0.2 1.3 0.2
v 0.2 1.9 0.2
v 0.2 2 0.2
v 0.3 0 0.2
v 0.3 0.1 0.2
v 0.3 0.5 0.2
v 0.3 1.2 0.2
v 0.3 1.3 0.2
v 0.3 1.9 0.2
v -0.9 0.5 0.1
v -0.9 0.6 0.1
v -0.9 0.7 0.1
v -0.9 1.2 0.1
v -0.9 1.3 0.1
v -0.9 1.4 0.1
v -0.8 0.5 0.1
v -0.8 0.6 0.1
v -0.8 0.7 0.1
v -0.8 0.8 0.1
v -0.8 1.1 0.1
v -0.8 1.2 0.1
v -0.8 1.3 0.1
v -0.7 0.5 0.1
v -0.7 0.6 0.1
v -0.6 0.1 0.1
v -0.6 0.2 0.1
v -0.6 0.5 0.1
v -0.6 0.7 0.1
v -0.6 0.8 0.1
v -0.6 0.9 0.1
v -0.6 1 0.1
v -0.6 1.1 0.1
v -0.6 1.2 0.1
v -0.6 1.4 0.1
v -0.6 1.9 0.1
v -0.6 2 0.1
v -0.6 2.1 0.1
v -0.5 0.1 0.1
v -0.5 1.9 0.1
v -0.5 2 0.1
v -0.5 2.1 0.1
v -0.4 0.1 0.1
v -0.4 2 0.1
v -0.4 2.1 0.1
v -0.3 0.1 0.1
v -0.2 0.1 0.1
v -0.2 0.2 0.1
v -0.2 0.5 0.1
v -0.1 0.1 0.1
v -0.1 0.2 0.1
v -0.1 0.5 0.1
v 0 0.1 0.1
v 0.1 0.1 0.1
v 0.1 2 0.1
v 0.1 2.1 0.1
v 0.2 0.1 0.1
v 0.2 1.9 0.1
v 0.2 2 0.1
v 0.2 2.1 0.1
v 0.3 0.1 0.1
v 0.3 0.2 0.1
v 0.3 0.5 0.1
v 0.3 0.7 0.1
v 0.3 0.8 0.1
v 0.3 1.1 0.1
v 0.3 1.2 0.1
v 0.3 1.3 0.1
v 0.3 1.4 0.1
v 0.3 1.9 0.1
v 0.3 2 0.1
v 0.3 2.1 0.1
v 0.4 0.5 0.1
v 0.4 0.6 0.1
v 0.5 0.5 0.1
v 0.5 0.6 0.1
v 0.5 0.7 0.1
v 0.5 0.8 0.1
v 0.5 1.1 0.1
v 0.5 1.2 0.1
v 0.5 1.3 0.1
v 0.6 0.5 0.1
v 0.6 0.6 0.1
v 0.6 0.7 0.1
v 0.6 1.2 0.1
v 0.6 1.3 0.1
v 0.6 1.4 0.1
v -0.6 1.9 -2.98023e-08
v -0.6 2 -2.98023e-08
v -0.6 2.1 -2.98023e-08
v -0.5 1.9 -2.98023e-08
v -0.5 2 -2.98023e-08
v -0.5 2.1 -2.98023e-08
v -0.4 2 -2.98023e-08
v -0.4 2.1 -2.98023e-08
v 0.1 2 -2.98023e-08
v 0.1 2.1 -2.98023e-08
v 0.2 1.9 -2.98023e-08
v 0.2 2 -2.98023e-08
v 0.2 2.1 -2.98023e-08
v 0.3 1.9 -2.98023e-08
v 0.3 2 -2.98023e-08
v 0.3 2.1 -2.98023e-08
v -0.9 0.5 -0.3
v -0.9 0.6 -0.3
v -0.9 0.7 -0.3
v -0.9 1.2 -0.3
v -0.9 1.3 -0.3
v -0.9 1.4 -0.3
v -0.8 0.5 -0.3
v -0.8 0.6 -0.3
v -0.8 0.7 -0.3
v -0.8 0.8 -0.3
v -0.8 1.1 -0.3
v -0.8 1.2 -0.3
v -0.8 1.3 -0.3
v -0.6 0 -0.3
v -0.6 0.5 -0.3
v -0.6 0.7 -0.3
v -0.6 0.8 -0.3
v -0.6 0.9 -0.3
v -0.6 1 -0.3
v -0.6 1.1 -0.3
v -0.6 1.2 -0.3
v -0.6 1.4 -0.3
v -0.2 0 -0.3
v -0.2 0.5 -0.3
v -0.1 0 -0.3
v -0.1 0.5 -0.3
v 0.3 0 -0.3
v 0.3 0.5 -0.3
v 0.3 0.7 -0.3
v 0.3 0.8 -0.3
v 0.3 1.1 -0.3
v 0.3 1.2 -0.3
v 0.3 1.3 -0.3
v 0.3 1.4 -0.3
v 0.5 0.5 -0.3
v 0.5 0.6 -0.3
v 0.5 0.7 -0.3
v 0.5 0.8 -0.3
v 0.5 1.1 -0.3
v 0.5 1.2 -0.3
v 0.5 1.3 -0.3
v 0.6 0.5 -0.3
v 0.6 0.6 -0.3
v 0.6 0.7 -0.3
v 0.6 1.2 -0.3
v 0.6 1.3 -0.3
v 0.6 1.4 -0.3
v -0.6 0.5 -0.4
v -0.6 0.9 -0.4
v -0.6 1 -0.4
v -0.6 1.9 -0.4
v -0.5 0.8 -0.4
v -0.5 0.9 -0.4
v -0.5 1 -0.4
v -0.5 1.3 -0.4
v -0.5 1.9 -0.4
v -0.5 2 -0.4
v -0.2 0.8 -0.4
v -0.2 0.9 -0.4
v -0.2 1 -0.4
v -0.1 0.9 -0.4
v -0.1 1 -0.4
v -0.1 1.1 -0.4
v 0 1 -0.4
v 0 1.1 -0.4
v 0 1.2 -0.4
v 0.2 1.1 -0.4
v 0.2 1.2 -0.4
v 0.2 1.3 -0.4
v 0.2 1.9 -0.4
v 0.2 2 -0.4
v 0.3 0.5 -0.4
v 0.3 1.2 -0.4
v 0.3 1.3 -0.4
v 0.3 1.9 -0.4
v -0.5 1.3 -0.5
v -0.5 1.9 -0.5
v 0.2 1.3 -0.5
v 0.2 1.9 -0.5
v -0.6 0 0.2
v -0.5 0 0.2
v -0.4 0 0.2
v -0.3 0 0.2
v -0.2 0 0.2
v -0.1 0 0.2
v 0 0 0.2
v 0.1 0 0.2
v 0.2 0 0.2
v 0.3 0 0.2
v -0.5 0 0.1
v -0.4 0 0.1
v -0.3 0 0.1
v -0.2 0 0.1
v 0 0 0.1
v 0.1 0 0.1
v 0.2 0 0.1
v 0.3 0 0.1
v -0.6 0 -2.98023e-08
v -0.2 0 -2.98023e-08
v -0.1 0 -2.98023e-08
v 0.3 0 -2.98023e-08
v -0.6 0 -0.1
v -0.2 0 -0.1
v -0.1 0 -0.1
v 0.3 0 -0.1
v -0.6 0 -0.3
v -0.2 0 -0.3
v -0.1 0 -0.3
v 0.3 0 -0.3
v -0.6 0.5 0.2
v 0.3 0.5 0.2
v -0.9 0.5 0.1
v -0.8 0.5 0.1
v -0.7 0.5 0.1
v -0.6 0.5 0.1
v -0.2 0.5 0.1
v -0.1 0.5 0.1
v 0.3 0.5 0.1
v 0.4 0.5 0.1
v 0.5 0.5 0.1
v 0.6 0.5 0.1
v -0.9 0.5 -2.98023e-08
v -0.8 0.5 -2.98023e-08
v -0.7 0.5 -2.98023e-08
v 0.4 0.5 -2.98023e-08
v 0.5 0.5 -2.98023e-08
v 0.6 0.5 -2.98023e-08
v -0.9 0.5 -0.1
v -0.8 0.5 -0.1
v 0.5 0.5 -0.1
v 0.6 0.5 -0.1
v -0.9 0.5 -0.2
v -0.8 0.5 -0.2
v 0.5 0.5 -0.2
v 0.6 0.5 -0.2
v -0.9 0.5 -0.3
v -0.8 0.5 -0.3
v -0.6 0.5 -0.3
v -0.2 0.5 -0.3
v -0.1 0.5 -0.3
v 0.3 0.5 -0.3
v 0.5 0.5 -0.3
v 0.6 0.5 -0.3
v -0.6 0.5 -0.4
v 0.3 0.5 -0.4
v -0.5 1.3 0.3
v 0.2 1.3 0.3
v -0.5 1.3 0.2
v 0.2 1.3 0.2
v -0.5 1.3 -0.4
v 0.2 1.3 -0.4
v -0.5 1.3 -0.5
v 0.2 1.3 -0.5
v -0.6 0.1 0.2
v -0.5 0.1 0.2
v -0.4 0.1 0.2
v -0.3 0.1 0.2
v -0.2 0.1 0.2
v -0.1 0.1 0.2
v 0 0.1 0.2
v 0.1 0.1 0.2
v 0.2 0.1 0.2
v 0.3 0.1 0.2
v -0.6 0.1 0.1
v -0.5 0.1 0.1
v -0.4 0.1 0.1
v -0.3 0.1 0.1
v -0.2 0.1 0.1
v -0.1 0.1 0.1
v 0 0.1 0.1
v 0.1 0.1 0.1
v 0.2 0.1 0.1
v 0.3 0.1 0.1
v -0.9 1.4 0.1
v -0.6 1.4 0.1
v 0.3 1.4 0.1
v 0.6 1.4 0.1
v -0.9 1.4 -0.3
v -0.6 1.4 -0.3
v 0.3 1.4 -0.3
v 0.6 1.4 -0.3
v -0.5 1.9 0.3
v 0.2 1.9 0.3
v -0.6 1.9 0.2
v -0.5 1.9 0.2
v 0.2 1.9 0.2
v 0.3 1.9 0.2
v -0.6 1.9 0.1
v -0.5 1.9 0.1
v 0.2 1.9 0.1
v 0.3 1.9 0.1
v -0.6 1.9 -2.98023e-08
v -0.5 1.9 -2.98023e-08
v 0.2 1.9 -2.98023e-08
v 0.3 1.9 -2.98023e-08
v -0.6 1.9 -0.4
v -0.5 1.9 -0.4
v 0.2 1.9 -0.4
v 0.3 1.9 -0.4
v -0.5 1.9 -0.5
v 0.2 1.9 -0.5
v -0.5 2 0.2
v 0.2 2 0.2
v -0.5 2 0.1
v -0.4 2 0.1
v 0.1 2 0.1
v 0.2 2 0.1
v -0.5 2 -2.98023e-08
v -0.4 2 -2.98023e-08
v 0.1 2 -2.98023e-08
v 0.2 2 -2.98023e-08
v -0.5 2 -0.4
v 0.2 2 -0.4
v -0.6 2.1 0.1
v -0.5 2.1 0.1
v -0.4 2.1 0.1
v 0.1 2.1 0.1
v 0.2 2.1 0.1
v 0.3 2.1 0.1
v -0.6 2.1 -2.98023e-08
v -0.5 2.1 -2.98023e-08
v -0.4 2.1 -2.98023e-08
v 0.1 2.1 -2.98023e-08
v 0.2 2.1 -2.98023e-08
v 0.3 2.1 -2.98023e-08

# faces
f 6/11/1 2/11/1 1/11/1
f 7/10/1 3/10/1 2/10/1
f 7/11/1 2/11/1 6/11/1
f 8/11/1 4/11/1 3/11/1
f 8/10/1 3/10/1 7/10/1
f 9/10/1 5/10/1 4/10/1
f 9/11/1 4/11/1 8/11/1
f 10/10/1 5/10/1 9/10/1
f 11/8/1 8/8/1 7/8/1
f 11/8/1 7/8/1 6/8/1
f 11/8/1 10/8/1 9/8/1
f 11/8/1 9/8/1 8/8/1
f 12/8/1 10/8/1 11/8/1
f 13/4/1 12/4/1 11/4/1
f 14/4/1 12/4/1 13/4/1
f 15/8/1 14/8/1 13/8/1
f 16/8/1 14/8/1 15/8/1
f 17/7/1 16/7/1 15/7/1
f 18/7/1 16/7/1 17/7/1
f 23/10/1 20/10/1 19/10/1
f 24/10/1 20/10/1 23/10/1
f 25/8/1 21/8/1 20/8/1
f 25/10/1 20/10/1 24/10/1
f 26/4/1 22/4/1 21/4/1
f 26/8/1 21/8/1 25/8/1
f 27/8/1 25/8/1 24/8/1
f 28/4/1 26/4/1 25/4/1
f 28/8/1 25/8/1 27/8/1
f 30/4/1 28/4/1 27/4/1
f 31/4/1 22/4/1 26/4/1
f 31/4/1 26/4/1 28/4/1
f 31/4/1 28/4/1 30/4/1
f 33/4/1 30/4/1 29/4/1
f 34/4/1 32/4/1 31/4/1
f 35/4/1 33/4/1 29/4/1
f 36/4/1 32/4/1 34/4/1
f 37/4/1 35/4/1 29/4/1
f 38/4/1 35/4/1 37/4/1
f 39/4/1 32/4/1 36/4/1
f 40/4/1 32/4/1 39/4/1
f 41/8/1 38/8/1 37/8/1
f 42/8/1 38/8/1 41/8/1
f 43/8/1 40/8/1 39/8/1
f 44/8/1 40/8/1 43/8/1
f 45/7/1 42/7/1 41/7/1
f 46/7/1 44/7/1 43/7/1
f 47/7/1 45/7/1 41/7/1
f 48/7/1 44/7/1 46/7/1
f 49/7/1 47/7/1 41/7/1
f 50/7/1 44/7/1 48/7/1
f 51/7/1 49/7/1 41/7/1
f 51/7/1 50/7/1 49/7/1
f 52/7/1 50/7/1 51/7/1
f 53/7/1 50/7/1 52/7/1
f 54/7/1 44/7/1 50/7/1
f 54/7/1 50/7/1 53/7/1
f 55/11/1 53/11/1 52/11/1
f 56/11/1 53/11/1 55/11/1
f 57/10/1 56/10/1 55/10/1
f 58/10/1 56/10/1 57/10/1
f 63/11/1 60/11/1 59/11/1
f 64/11/1 60/11/1 63/11/1
f 67/7/1 62/7/1 61/7/1
f 68/7/1 62/7/1 67/7/1
f 69/7/1 65/7/1 64/7/1
f 70/7/1 65/7/1 69/7/1
f 71/7/1 67/7/1 66/7/1
f 72/7/1 67/7/1 71/7/1
f 77/10/1 74/10/1 73/10/1
f 78/10/1 74/10/1 77/10/1
f 79/8/1 75/8/1 74/8/1
f 79/10/1 74/10/1 78/10/1
f 80/4/1 76/4/1 75/4/1
f 80/8/1 75/8/1 79/8/1
f 81/8/1 79/8/1 78/8/1
f 82/4/1 80/4/1 79/4/1
f 82/8/1 79/8/1 81/8/1
f 83/4/1 82/4/1 81/4/1
f 84/4/1 76/4/1 80/4/1
f 84/4/1 82/4/1 83/4/1
f 84/4/1 80/4/1 82/4/1
f 87/11/1 86/11/1 85/11/1
f 88/11/1 86/11/1 87/11/1
f 89/11/2 90/11/2 91/11/2
f 91/11/2 90/11/2 92/11/2
f 93/11/2 94/11/2 98/11/2
f 94/10/2 95/10/2 99/10/2
f 98/11/2 94/11/2 99/11/2
f 95/8/2 96/8/2 100/8/2
f 99/10/2 95/10/2 100/10/2
f 96/4/2 97/4/2 101/4/2
f 100/8/2 96/8/2 101/8/2
f 99/8/2 100/8/2 102/8/2
f 100/4/2 101/4/2 103/4/2
f 102/8/2 100/8/2 103/8/2
f 102/4/2 103/4/2 104/4/2
f 101/4/2 97/4/2 105/4/2
f 104/4/2 103/4/2 105/4/2
f 103/4/2 101/4/2 105/4/2
f 106/11/2 107/11/2 110/11/2
f 110/11/2 107/11/2 111/11/2
f 108/7/2 109/7/2 114/7/2
f 114/7/2 109/7/2 115/7/2
f 111/7/2 112/7/2 116/7/2
f 116/7/2 112/7/2 117/7/2
f 113/7/2 114/7/2 118/7/2
f 118/7/2 114/7/2 119/7/2
f 120/11/2 121/11/2 125/11/2
f 121/10/2 122/10/2 126/10/2
f 125/11/2 121/11/2 126/11/2
f 122/8/2 123/8/2 127/8/2
f 126/10/2 122/10/2 127/10/2
f 123/4/2 124/4/2 128/4/2
f 127/8/2 123/8/2 128/8/2
f 126/8/2 127/8/2 129/8/2
f 127/4/2 128/4/2 130/4/2
f 129/8/2 127/8/2 130/8/2
f 129/4/2 130/4/2 132/4/2
f 128/4/2 124/4/2 133/4/2
f 130/4/2 128/4/2 133/4/2
f 132/4/2 130/4/2 133/4/2
f 131/4/2 132/4/2 135/4/2
f 133/4/2 134/4/2 136/4/2
f 131/4/2 135/4/2 137/4/2
f 136/4/2 134/4/2 138/4/2
f 131/4/2 137/4/2 139/4/2
f 138/4/2 134/4/2 140/4/2
f 131/4/2 139/4/2 141/4/2
f 141/4/2 139/4/2 142/4/2
f 140/4/2 134/4/2 143/4/2
f 143/4/2 134/4/2 144/4/2
f 141/8/2 142/8/2 145/8/2
f 145/8/2 142/8/2 146/8/2
f 143/8/2 144/8/2 147/8/2
f 147/8/2 144/8/2 148/8/2
f 145/7/2 146/7/2 149/7/2
f 147/7/2 148/7/2 150/7/2
f 145/7/2 149/7/2 151/7/2
f 149/7/2 150/7/2 151/7/2
f 151/7/2 150/7/2 152/7/2
f 152/7/2 150/7/2 153/7/2
f 150/7/2 148/7/2 154/7/2
f 153/7/2 150/7/2 154/7/2
f 152/11/2 153/11/2 155/11/2
f 155/11/2 153/11/2 156/11/2
f 155/10/2 156/10/2 157/10/2
f 157/10/2 156/10/2 158/10/2
f 159/11/2 160/11/2 164/11/2
f 160/10/2 161/10/2 165/10/2
f 164/11/2 160/11/2 165/11/2
f 161/11/2 162/11/2 166/11/2
f 165/10/2 161/10/2 166/10/2
f 162/10/2 163/10/2 167/10/2
f 166/11/2 162/11/2 167/11/2
f 167/10/2 163/10/2 168/10/2
f 165/8/2 166/8/2 169/8/2
f 164/8/2 165/8/2 169/8/2
f 167/8/2 168/8/2 169/8/2
f 166/8/2 167/8/2 169/8/2
f 169/8/2 168/8/2 170/8/2
f 169/4/2 170/4/2 171/4/2
f 171/4/2 170/4/2 172/4/2
f 171/8/2 172/8/2 173/8/2
f 173/8/2 172/8/2 174/8/2
f 173/7/2 174/7/2 175/7/2
f 175/7/2 174/7/2 176/7/2
f 179/11/3 178/11/3 177/11/3
f 180/11/3 178/11/3 179/11/3
f 181/11/3 179/11/3 177/11/3
f 181/12/3 180/12/3 179/12/3
f 182/11/3 178/11/3 180/11/3
f 182/12/3 180/12/3 181/12/3
f 183/11/3 181/11/3 177/11/3
f 183/11/3 182/11/3 181/11/3
f 184/11/3 178/11/3 182/11/3
f 184/11/3 182/11/3 183/11/3
f 185/11/3 183/11/3 177/11/3
f 185/12/3 184/12/3 183/12/3
f 186/11/3 178/11/3 184/11/3
f 186/12/3 184/12/3 185/12/3
f 187/11/3 185/11/3 177/11/3
f 187/11/3 186/11/3 185/11/3
f 188/11/3 178/11/3 186/11/3
f 188/11/3 186/11/3 187/11/3
f 195/10/3 190/10/3 189/10/3
f 196/10/3 190/10/3 195/10/3
f 197/4/3 192/4/3 191/4/3
f 198/8/3 193/8/3 192/8/3
f 198/4/3 192/4/3 197/4/3
f 199/7/3 194/7/3 193/7/3
f 199/8/3 193/8/3 198/8/3
f 200/7/3 194/7/3 199/7/3
f 201/7/3 194/7/3 200/7/3
f 203/11/3 196/11/3 195/11/3
f 204/11/3 196/11/3 203/11/3
f 205/10/3 204/10/3 203/10/3
f 206/10/3 204/10/3 205/10/3
f 207/11/3 206/11/3 205/11/3
f 208/11/3 206/11/3 207/11/3
f 209/8/3 198/8/3 197/8/3
f 209/4/3 197/4/3 191/4/3
f 210/7/3 199/7/3 198/7/3
f 210/8/3 198/8/3 209/8/3
f 210/7/3 200/7/3 199/7/3
f 211/7/3 200/7/3 210/7/3
f 214/4/3 210/4/3 209/4/3
f 214/8/3 211/8/3 210/8/3
f 215/7/3 200/7/3 211/7/3
f 215/8/3 211/8/3 214/8/3
f 216/7/3 200/7/3 215/7/3
f 217/10/3 213/10/3 212/10/3
f 218/10/3 213/10/3 217/10/3
f 219/4/3 215/4/3 214/4/3
f 219/8/3 216/8/3 215/8/3
f 220/7/3 200/7/3 216/7/3
f 220/8/3 216/8/3 219/8/3
f 221/7/3 200/7/3 220/7/3
f 222/11/3 218/11/3 217/11/3
f 223/11/3 218/11/3 222/11/3
f 224/10/3 223/10/3 222/10/3
f 225/10/3 223/10/3 224/10/3
f 226/4/3 220/4/3 219/4/3
f 226/8/3 221/8/3 220/8/3
f 227/7/3 200/7/3 221/7/3
f 227/8/3 221/8/3 226/8/3
f 228/7/3 200/7/3 227/7/3
f 229/7/3 202/7/3 201/7/3
f 230/7/3 202/7/3 229/7/3
f 231/11/3 225/11/3 224/11/3
f 232/11/3 225/11/3 231/11/3
f 233/4/3 214/4/3 209/4/3
f 233/4/3 209/4/3 191/4/3
f 233/4/3 219/4/3 214/4/3
f 233/4/3 226/4/3 219/4/3
f 233/4/3 227/4/3 226/4/3
f 234/8/3 228/8/3 227/8/3
f 234/4/3 227/4/3 233/4/3
f 235/7/3 229/7/3 228/7/3
f 235/8/3 228/8/3 234/8/3
f 236/7/3 229/7/3 235/7/3
f 243/11/3 238/11/3 237/11/3
f 244/8/3 239/8/3 238/8/3
f 244/11/3 238/11/3 243/11/3
f 245/4/3 240/4/3 239/4/3
f 245/8/3 239/8/3 244/8/3
f 246/4/3 240/4/3 245/4/3
f 247/4/3 240/4/3 246/4/3
f 248/8/3 241/8/3 240/8/3
f 248/4/3 240/4/3 247/4/3
f 249/7/3 242/7/3 241/7/3
f 249/8/3 241/8/3 248/8/3
f 250/10/3 244/10/3 243/10/3
f 251/11/3 245/11/3 244/11/3
f 251/10/3 244/10/3 250/10/3
f 254/11/3 251/11/3 250/11/3
f 255/8/3 246/8/3 245/8/3
f 255/11/3 245/11/3 251/11/3
f 255/11/3 251/11/3 254/11/3
f 256/4/3 247/4/3 246/4/3
f 256/8/3 246/8/3 255/8/3
f 257/4/3 247/4/3 256/4/3
f 258/4/3 247/4/3 257/4/3
f 259/8/3 248/8/3 247/8/3
f 259/4/3 247/4/3 258/4/3
f 260/7/3 249/7/3 248/7/3
f 260/8/3 248/8/3 259/8/3
f 261/7/3 242/7/3 249/7/3
f 261/7/3 249/7/3 260/7/3
f 265/8/3 253/8/3 252/8/3
f 266/11/3 263/11/3 262/11/3
f 267/10/3 264/10/3 263/10/3
f 267/11/3 263/11/3 266/11/3
f 268/10/3 264/10/3 267/10/3
f 269/8/3 253/8/3 265/8/3
f 270/11/3 268/11/3 267/11/3
f 271/11/3 268/11/3 270/11/3
f 272/8/3 253/8/3 269/8/3
f 273/8/3 253/8/3 272/8/3
f 274/4/3 254/4/3 253/4/3
f 274/8/3 253/8/3 273/8/3
f 275/4/3 254/4/3 274/4/3
f 279/8/3 277/8/3 276/8/3
f 280/8/3 277/8/3 279/8/3
f 283/8/3 277/8/3 280/8/3
f 285/11/3 282/11/3 281/11/3
f 286/11/3 282/11/3 285/11/3
f 287/8/3 277/8/3 283/8/3
f 288/4/3 278/4/3 277/4/3
f 288/8/3 277/8/3 287/8/3
f 289/4/3 278/4/3 288/4/3
f 296/11/3 285/11/3 284/11/3
f 297/10/3 286/10/3 285/10/3
f 297/11/3 285/11/3 296/11/3
f 298/10/3 286/10/3 297/10/3
f 299/11/3 290/11/3 289/11/3
f 300/11/3 290/11/3 299/11/3
f 301/10/3 300/10/3 299/10/3
f 302/11/3 290/11/3 300/11/3
f 302/10/3 300/10/3 301/10/3
f 303/8/3 291/8/3 290/8/3
f 303/11/3 290/11/3 302/11/3
f 304/4/3 292/4/3 291/4/3
f 304/8/3 291/8/3 303/8/3
f 305/8/3 293/8/3 292/8/3
f 305/4/3 292/4/3 304/4/3
f 306/7/3 295/7/3 294/7/3
f 306/8/3 293/8/3 305/8/3
f 306/7/3 294/7/3 293/7/3
f 307/7/3 295/7/3 306/7/3
f 308/11/3 302/11/3 301/11/3
f 309/8/3 303/8/3 302/8/3
f 309/11/3 302/11/3 308/11/3
f 310/4/3 305/4/3 304/4/3
f 310/8/3 303/8/3 309/8/3
f 310/4/3 304/4/3 303/4/3
f 310/4/3 306/4/3 305/4/3
f 311/8/3 307/8/3 306/8/3
f 311/4/3 306/4/3 310/4/3
f 312/7/3 295/7/3 307/7/3
f 312/8/3 307/8/3 311/8/3
f 313/7/3 295/7/3 312/7/3
f 314/11/4 315/11/4 317/11/4
f 315/10/4 316/10/4 318/10/4
f 317/11/4 315/11/4 318/11/4
f 318/10/4 316/10/4 319/10/4
f 318/11/4 319/11/4 320/11/4
f 320/11/4 319/11/4 321/11/4
f 322/11/4 323/11/4 325/11/4
f 325/11/4 323/11/4 326/11/4
f 324/11/4 325/11/4 327/11/4
f 325/10/4 326/10/4 328/10/4
f 327/11/4 325/11/4 328/11/4
f 328/10/4 326/10/4 329/10/4
f 330/10/4 331/10/4 336/10/4
f 331/8/4 332/8/4 337/8/4
f 336/10/4 331/10/4 337/10/4
f 332/4/4 333/4/4 338/4/4
f 337/8/4 332/8/4 338/8/4
f 338/4/4 333/4/4 339/4/4
f 339/4/4 333/4/4 340/4/4
f 333/8/4 334/8/4 341/8/4
f 340/4/4 333/4/4 341/4/4
f 334/7/4 335/7/4 342/7/4
f 341/8/4 334/8/4 342/8/4
f 336/11/4 337/11/4 344/11/4
f 337/11/4 338/11/4 344/11/4
f 338/8/4 339/8/4 345/8/4
f 344/11/4 338/11/4 345/11/4
f 339/4/4 340/4/4 346/4/4
f 345/8/4 339/8/4 346/8/4
f 346/4/4 340/4/4 347/4/4
f 347/4/4 340/4/4 348/4/4
f 340/8/4 341/8/4 349/8/4
f 348/4/4 340/4/4 349/4/4
f 341/7/4 342/7/4 350/7/4
f 349/8/4 341/8/4 350/8/4
f 342/7/4 335/7/4 351/7/4
f 350/7/4 342/7/4 351/7/4
f 343/4/4 344/4/4 352/4/4
f 352/4/4 344/4/4 353/4/4
f 354/4/4 355/4/4 356/4/4
f 356/4/4 355/4/4 357/4/4
f 357/11/4 358/11/4 364/11/4
f 364/11/4 358/11/4 365/11/4
f 358/8/4 359/8/4 366/8/4
f 365/11/4 358/11/4 366/11/4
f 359/4/4 360/4/4 367/4/4
f 366/8/4 359/8/4 367/8/4
f 360/8/4 361/8/4 368/8/4
f 367/4/4 360/4/4 368/4/4
f 362/7/4 363/7/4 369/7/4
f 368/8/4 361/8/4 369/8/4
f 361/7/4 362/7/4 369/7/4
f 369/7/4 363/7/4 370/7/4
f 364/10/4 365/10/4 371/10/4
f 365/8/4 366/8/4 372/8/4
f 371/10/4 365/10/4 372/10/4
f 367/4/4 368/4/4 373/4/4
f 372/8/4 366/8/4 373/8/4
f 366/4/4 367/4/4 373/4/4
f 368/4/4 369/4/4 373/4/4
f 369/8/4 370/8/4 374/8/4
f 373/4/4 369/4/4 374/4/4
f 370/7/4 363/7/4 375/7/4
f 374/8/4 370/8/4 375/8/4
f 375/7/4 363/7/4 376/7/4
f 377/4/4 378/4/4 381/4/4
f 378/8/4 379/8/4 382/8/4
f 381/4/4 378/4/4 382/4/4
f 379/7/4 380/7/4 383/7/4
f 382/8/4 379/8/4 383/8/4
f 383/7/4 380/7/4 384/7/4
f 384/7/4 380/7/4 385/7/4
f 381/8/4 382/8/4 387/8/4
f 377/4/4 381/4/4 387/4/4
f 383/7/4 384/7/4 388/7/4
f 387/8/4 382/8/4 388/8/4
f 382/7/4 383/7/4 388/7/4
f 388/7/4 384/7/4 389/7/4
f 387/4/4 388/4/4 390/4/4
f 388/8/4 389/8/4 390/8/4
f 389/7/4 384/7/4 391/7/4
f 390/8/4 389/8/4 391/8/4
f 391/7/4 384/7/4 392/7/4
f 390/4/4 391/4/4 393/4/4
f 391/8/4 392/8/4 393/8/4
f 392/7/4 384/7/4 394/7/4
f 393/8/4 392/8/4 394/8/4
f 394/7/4 384/7/4 395/7/4
f 393/4/4 394/4/4 396/4/4
f 394/8/4 395/8/4 396/8/4
f 395/7/4 384/7/4 397/7/4
f 396/8/4 395/8/4 397/8/4
f 397/7/4 384/7/4 398/7/4
f 385/7/4 386/7/4 399/7/4
f 399/7/4 386/7/4 400/7/4
f 377/4/4 387/4/4 401/4/4
f 387/4/4 390/4/4 401/4/4
f 390/4/4 393/4/4 401/4/4
f 393/4/4 396/4/4 401/4/4
f 396/4/4 397/4/4 401/4/4
f 397/8/4 398/8/4 402/8/4
f 401/4/4 397/4/4 402/4/4
f 398/7/4 399/7/4 403/7/4
f 402/8/4 398/8/4 403/8/4
f 403/7/4 399/7/4 404/7/4
f 405/7/4 406/7/4 407/7/4
f 407/7/4 406/7/4 408/7/4
f 419/10/5 410/10/5 409/10/5
f 419/11/5 411/11/5 410/11/5
f 420/10/5 412/10/5 411/10/5
f 420/11/5 411/11/5 419/11/5
f 421/11/5 413/11/5 412/11/5
f 421/10/5 412/10/5 420/10/5
f 422/11/5 413/11/5 421/11/5
f 423/10/5 415/10/5 414/10/5
f 423/11/5 416/11/5 415/11/5
f 424/10/5 417/10/5 416/10/5
f 424/11/5 416/11/5 423/11/5
f 425/11/5 418/11/5 417/11/5
f 425/10/5 417/10/5 424/10/5
f 426/11/5 418/11/5 425/11/5
f 427/10/5 419/10/5 409/10/5
f 427/10/5 420/10/5 419/10/5
f 427/10/5 422/10/5 421/10/5
f 427/10/5 421/10/5 420/10/5
f 428/10/5 422/10/5 427/10/5
f 429/10/5 424/10/5 423/10/5
f 429/10/5 423/10/5 414/10/5
f 429/10/5 426/10/5 425/10/5
f 429/10/5 425/10/5 424/10/5
f 430/10/5 426/10/5 429/10/5
f 431/8/5 428/8/5 427/8/5
f 432/8/5 428/8/5 431/8/5
f 433/8/5 430/8/5 429/8/5
f 434/8/5 430/8/5 433/8/5
f 435/4/5 432/4/5 431/4/5
f 436/4/5 432/4/5 435/4/5
f 437/4/5 434/4/5 433/4/5
f 438/4/5 434/4/5 437/4/5
f 444/4/5 440/4/5 439/4/5
f 445/4/5 440/4/5 444/4/5
f 446/4/5 440/4/5 445/4/5
f 447/4/5 440/4/5 446/4/5
f 451/11/5 442/11/5 441/11/5
f 452/10/5 443/10/5 442/10/5
f 452/11/5 442/11/5 451/11/5
f 453/11/5 444/11/5 443/11/5
f 453/10/5 443/10/5 452/10/5
f 454/10/5 449/10/5 448/10/5
f 454/11/5 448/11/5 447/11/5
f 455/11/5 450/11/5 449/11/5
f 455/10/5 449/10/5 454/10/5
f 456/11/5 450/11/5 455/11/5
f 457/10/5 452/10/5 451/10/5
f 458/11/5 453/11/5 452/11/5
f 458/10/5 452/10/5 457/10/5
f 459/11/5 455/11/5 454/11/5
f 459/10/5 456/10/5 455/10/5
f 460/10/5 456/10/5 459/10/5
f 461/11/5 458/11/5 457/11/5
f 462/11/5 453/11/5 458/11/5
f 462/11/5 458/11/5 461/11/5
f 463/11/5 459/11/5 454/11/5
f 463/11/5 460/11/5 459/11/5
f 464/11/5 460/11/5 463/11/5
f 465/10/5 462/10/5 461/10/5
f 466/11/5 453/11/5 462/11/5
f 466/10/5 462/10/5 465/10/5
f 467/11/5 444/11/5 453/11/5
f 467/11/5 453/11/5 466/11/5
f 468/4/5 446/4/5 445/4/5
f 469/4/5 446/4/5 468/4/5
f 470/11/5 454/11/5 447/11/5
f 470/11/5 463/11/5 454/11/5
f 471/10/5 464/10/5 463/10/5
f 471/11/5 463/11/5 470/11/5
f 472/10/5 464/10/5 471/10/5
f 473/4/5 469/4/5 468/4/5
f 473/4/5 468/4/5 467/4/5
f 473/4/5 470/4/5 469/4/5
f 474/4/5 470/4/5 473/4/5
f 477/11/5 476/11/5 475/11/5
f 478/11/5 476/11/5 477/11/5
f 481/7/5 480/7/5 479/7/5
f 482/7/5 480/7/5 481/7/5
f 483/10/6 484/10/6 493/10/6
f 484/11/6 485/11/6 494/11/6
f 493/10/6 484/10/6 494/10/6
f 485/10/6 486/10/6 495/10/6
f 494/11/6 485/11/6 495/11/6
f 486/11/6 487/11/6 496/11/6
f 495/10/6 486/10/6 496/10/6
f 496/11/6 487/11/6 497/11/6
f 488/10/6 489/10/6 498/10/6
f 489/11/6 490/11/6 499/11/6
f 498/10/6 489/10/6 499/10/6
f 490/10/6 491/10/6 500/10/6
f 499/11/6 490/11/6 500/11/6
f 491/11/6 492/11/6 501/11/6
f 500/10/6 491/10/6 501/10/6
f 501/11/6 492/11/6 502/11/6
f 503/7/6 504/7/6 507/7/6
f 507/7/6 504/7/6 508/7/6
f 505/7/6 506/7/6 509/7/6
f 509/7/6 506/7/6 510/7/6
f 511/11/6 512/11/6 514/11/6
f 514/11/6 512/11/6 515/11/6
f 513/7/6 514/7/6 517/7/6
f 517/7/6 514/7/6 518/7/6
f 515/7/6 516/7/6 519/7/6
f 519/7/6 516/7/6 520/7/6
f 521/7/6 522/7/6 525/7/6
f 525/7/6 522/7/6 526/7/6
f 523/7/6 524/7/6 527/7/6
f 527/7/6 524/7/6 528/7/6
f 526/7/6 527/7/6 529/7/6
f 529/7/6 527/7/6 530/7/6
f 531/7/6 532/7/6 533/7/6
f 533/7/6 532/7/6 534/7/6
f 534/7/6 532/7/6 535/7/6
f 535/7/6 532/7/6 536/7/6
f 534/7/6 535/7/6 538/7/6
f 538/7/6 535/7/6 539/7/6
f 537/7/6 538/7/6 541/7/6
f 539/7/6 540/7/6 541/7/6
f 538/7/6 539/7/6 541/7/6
f 541/7/6 540/7/6 542/7/6
f 543/10/6 544/10/6 549/10/6
f 544/11/6 545/11/6 550/11/6
f 549/10/6 544/10/6 550/10/6
f 550/11/6 545/11/6 551/11/6
f 546/11/6 547/11/6 552/11/6
f 547/10/6 548/10/6 553/10/6
f 552/11/6 547/11/6 553/11/6
f 553/10/6 548/10/6 554/10/6
