# MagicaVoxel @ Ephtracy

# group
o 

# material
mtllib Yeti_PurplePink.mtl
usemtl palette

# normals
vn -1 0 0
vn 1 0 0
vn 0 0 1
vn 0 0 -1
vn 0 -1 0
vn 0 1 0

# texcoords
vt 0.181641 0.5
vt 0.232422 0.5
vt 0.267578 0.5
vt 0.271484 0.5
vt 0.369141 0.5
vt 0.404297 0.5
vt 0.537109 0.5
vt 0.552734 0.5
vt 0.826172 0.5
vt 0.888672 0.5
vt 0.958984 0.5
vt 0.966797 0.5
vt 0.994141 0.5

# verts
v -0.9 0.5 0.1
v -0.9 0.5 -2.98023e-08
v -0.9 0.5 -0.1
v -0.9 0.5 -0.2
v -0.9 0.5 -0.3
v -0.9 0.6 0.1
v -0.9 0.6 -2.98023e-08
v -0.9 0.6 -0.1
v -0.9 0.6 -0.2
v -0.9 0.6 -0.3
v -0.9 0.7 0.1
v -0.9 0.7 -0.3
v -0.9 1.2 0.1
v -0.9 1.2 -0.3
v -0.9 1.3 0.1
v -0.9 1.3 -0.3
v -0.9 1.4 0.1
v -0.9 1.4 -0.3
v -0.6 0 0.2
v -0.6 0 -2.98023e-08
v -0.6 0 -0.1
v -0.6 0 -0.3
v -0.6 0.1 0.2
v -0.6 0.1 0.1
v -0.6 0.1 -2.98023e-08
v -0.6 0.1 -0.1
v -0.6 0.2 0.1
v -0.6 0.2 -2.98023e-08
v -0.6 0.5 0.2
v -0.6 0.5 0.1
v -0.6 0.5 -0.3
v -0.6 0.5 -0.4
v -0.6 0.7 0.1
v -0.6 0.7 -0.3
v -0.6 0.8 0.1
v -0.6 0.8 -0.3
v -0.6 0.9 0.2
v -0.6 0.9 0.1
v -0.6 0.9 -0.3
v -0.6 0.9 -0.4
v -0.6 1 0.2
v -0.6 1 0.1
v -0.6 1 -0.3
v -0.6 1 -0.4
v -0.6 1.1 0.1
v -0.6 1.1 -0.3
v -0.6 1.2 0.1
v -0.6 1.2 -0.3
v -0.6 1.4 0.1
v -0.6 1.4 -0.3
v -0.6 1.9 0.2
v -0.6 1.9 0.1
v -0.6 1.9 -2.98023e-08
v -0.6 1.9 -0.4
v -0.6 2 0.1
v -0.6 2 -2.98023e-08
v -0.6 2.1 0.1
v -0.6 2.1 -2.98023e-08
v -0.5 1.3 0.3
v -0.5 1.3 0.2
v -0.5 1.3 -0.4
v -0.5 1.3 -0.5
v -0.5 1.9 0.3
v -0.5 1.9 0.2
v -0.5 1.9 0.1
v -0.5 1.9 -2.98023e-08
v -0.5 1.9 -0.4
v -0.5 1.9 -0.5
v -0.5 2 0.2
v -0.5 2 0.1
v -0.5 2 -2.98023e-08
v -0.5 2 -0.4
v -0.1 0 0.2
v -0.1 0 -2.98023e-08
v -0.1 0 -0.1
v -0.1 0 -0.3
v -0.1 0.1 0.2
v -0.1 0.1 0.1
v -0.1 0.1 -2.98023e-08
v -0.1 0.1 -0.1
v -0.1 0.2 0.1
v -0.1 0.2 -2.98023e-08
v -0.1 0.5 0.1
v -0.1 0.5 -0.3
v 0.1 2 0.1
v 0.1 2 -2.98023e-08
v 0.1 2.1 0.1
v 0.1 2.1 -2.98023e-08
v -0.4 2 0.1
v -0.4 2 -2.98023e-08
v -0.4 2.1 0.1
v -0.4 2.1 -2.98023e-08
v -0.2 0 0.2
v -0.2 0 0.1
v -0.2 0 -2.98023e-08
v -0.2 0 -0.1
v -0.2 0 -0.3
v -0.2 0.1 0.2
v -0.2 0.1 0.1
v -0.2 0.1 -2.98023e-08
v -0.2 0.1 -0.1
v -0.2 0.2 0.1
v -0.2 0.2 -2.98023e-08
v -0.2 0.5 0.1
v -0.2 0.5 -0.3
v 0.2 1.3 0.3
v 0.2 1.3 0.2
v 0.2 1.3 -0.4
v 0.2 1.3 -0.5
v 0.2 1.9 0.3
v 0.2 1.9 0.2
v 0.2 1.9 0.1
v 0.2 1.9 -2.98023e-08
v 0.2 1.9 -0.4
v 0.2 1.9 -0.5
v 0.2 2 0.2
v 0.2 2 0.1
v 0.2 2 -2.98023e-08
v 0.2 2 -0.4
v 0.3 0 0.2
v 0.3 0 0.1
v 0.3 0 -2.98023e-08
v 0.3 0 -0.1
v 0.3 0 -0.3
v 0.3 0.1 0.2
v 0.3 0.1 0.1
v 0.3 0.1 -2.98023e-08
v 0.3 0.1 -0.1
v 0.3 0.2 0.1
v 0.3 0.2 -2.98023e-08
v 0.3 0.5 0.2
v 0.3 0.5 0.1
v 0.3 0.5 -0.3
v 0.3 0.5 -0.4
v 0.3 0.7 0.1
v 0.3 0.7 -0.3
v 0.3 0.8 0.1
v 0.3 0.8 -0.3
v 0.3 1.1 0.1
v 0.3 1.1 -0.3
v 0.3 1.2 0.2
v 0.3 1.2 0.1
v 0.3 1.2 -0.3
v 0.3 1.2 -0.4
v 0.3 1.3 0.2
v 0.3 1.3 0.1
v 0.3 1.3 -0.3
v 0.3 1.3 -0.4
v 0.3 1.4 0.1
v 0.3 1.4 -0.3
v 0.3 1.9 0.2
v 0.3 1.9 0.1
v 0.3 1.9 -2.98023e-08
v 0.3 1.9 -0.4
v 0.3 2 0.1
v 0.3 2 -2.98023e-08
v 0.3 2.1 0.1
v 0.3 2.1 -2.98023e-08
v 0.6 0.5 0.1
v 0.6 0.5 -2.98023e-08
v 0.6 0.5 -0.1
v 0.6 0.5 -0.2
v 0.6 0.5 -0.3
v 0.6 0.6 0.1
v 0.6 0.6 -2.98023e-08
v 0.6 0.6 -0.1
v 0.6 0.6 -0.2
v 0.6 0.6 -0.3
v 0.6 0.7 0.1
v 0.6 0.7 -0.3
v 0.6 1.2 0.1
v 0.6 1.2 -0.3
v 0.6 1.3 0.1
v 0.6 1.3 -0.3
v 0.6 1.4 0.1
v 0.6 1.4 -0.3
v -0.5 1.3 0.3
v -0.5 1.9 0.3
v -0.3 1.6 0.3
v -0.3 1.8 0.3
v -0.2 1.6 0.3
v -0.2 1.8 0.3
v -0.1 1.6 0.3
v -0.1 1.8 0.3
v 0 1.6 0.3
v 0 1.8 0.3
v 0.2 1.3 0.3
v 0.2 1.9 0.3
v -0.6 0 0.2
v -0.6 0.1 0.2
v -0.6 0.5 0.2
v -0.6 0.9 0.2
v -0.6 1 0.2
v -0.6 1.9 0.2
v -0.5 0 0.2
v -0.5 0.1 0.2
v -0.5 0.8 0.2
v -0.5 0.9 0.2
v -0.5 1 0.2
v -0.5 1.3 0.2
v -0.5 1.9 0.2
v -0.5 2 0.2
v -0.4 0 0.2
v -0.4 0.1 0.2
v -0.3 0 0.2
v -0.3 0.1 0.2
v -0.2 0 0.2
v -0.2 0.1 0.2
v -0.2 0.8 0.2
v -0.2 0.9 0.2
v -0.2 1 0.2
v -0.1 0 0.2
v -0.1 0.1 0.2
v -0.1 0.9 0.2
v -0.1 1 0.2
v -0.1 1.1 0.2
v 0 0 0.2
v 0 0.1 0.2
v 0 1 0.2
v 0 1.1 0.2
v 0 1.2 0.2
v 0.1 0 0.2
v 0.1 0.1 0.2
v 0.2 0 0.2
v 0.2 0.1 0.2
v 0.2 1.1 0.2
v 0.2 1.2 0.2
v 0.2 1.3 0.2
v 0.2 1.9 0.2
v 0.2 2 0.2
v 0.3 0 0.2
v 0.3 0.1 0.2
v 0.3 0.5 0.2
v 0.3 1.2 0.2
v 0.3 1.3 0.2
v 0.3 1.9 0.2
v -0.9 0.5 0.1
v -0.9 0.6 0.1
v -0.9 0.7 0.1
v -0.9 1.2 0.1
v -0.9 1.3 0.1
v -0.9 1.4 0.1
v -0.8 0.5 0.1
v -0.8 0.6 0.1
v -0.8 0.7 0.1
v -0.8 0.8 0.1
v -0.8 1.1 0.1
v -0.8 1.2 0.1
v -0.8 1.3 0.1
v -0.7 0.5 0.1
v -0.7 0.6 0.1
v -0.6 0.1 0.1
v -0.6 0.2 0.1
v -0.6 0.5 0.1
v -0.6 0.7 0.1
v -0.6 0.8 0.1
v -0.6 0.9 0.1
v -0.6 1 0.1
v -0.6 1.1 0.1
v -0.6 1.2 0.1
v -0.6 1.4 0.1
v -0.6 1.9 0.1
v -0.6 2 0.1
v -0.6 2.1 0.1
v -0.5 0.1 0.1
v -0.5 1.9 0.1
v -0.5 2 0.1
v -0.5 2.1 0.1
v -0.4 0.1 0.1
v -0.4 2 0.1
v -0.4 2.1 0.1
v -0.3 0.1 0.1
v -0.2 0.1 0.1
v -0.2 0.2 0.1
v -0.2 0.5 0.1
v -0.1 0.1 0.1
v -0.1 0.2 0.1
v -0.1 0.5 0.1
v 0 0.1 0.1
v 0.1 0.1 0.1
v 0.1 2 0.1
v 0.1 2.1 0.1
v 0.2 0.1 0.1
v 0.2 1.9 0.1
v 0.2 2 0.1
v 0.2 2.1 0.1
v 0.3 0.1 0.1
v 0.3 0.2 0.1
v 0.3 0.5 0.1
v 0.3 0.7 0.1
v 0.3 0.8 0.1
v 0.3 1.1 0.1
v 0.3 1.2 0.1
v 0.3 1.3 0.1
v 0.3 1.4 0.1
v 0.3 1.9 0.1
v 0.3 2 0.1
v 0.3 2.1 0.1
v 0.4 0.5 0.1
v 0.4 0.6 0.1
v 0.5 0.5 0.1
v 0.5 0.6 0.1
v 0.5 0.7 0.1
v 0.5 0.8 0.1
v 0.5 1.1 0.1
v 0.5 1.2 0.1
v 0.5 1.3 0.1
v 0.6 0.5 0.1
v 0.6 0.6 0.1
v 0.6 0.7 0.1
v 0.6 1.2 0.1
v 0.6 1.3 0.1
v 0.6 1.4 0.1
v -0.6 1.9 -2.98023e-08
v -0.6 2 -2.98023e-08
v -0.6 2.1 -2.98023e-08
v -0.5 1.9 -2.98023e-08
v -0.5 2 -2.98023e-08
v -0.5 2.1 -2.98023e-08
v -0.4 2 -2.98023e-08
v -0.4 2.1 -2.98023e-08
v 0.1 2 -2.98023e-08
v 0.1 2.1 -2.98023e-08
v 0.2 1.9 -2.98023e-08
v 0.2 2 -2.98023e-08
v 0.2 2.1 -2.98023e-08
v 0.3 1.9 -2.98023e-08
v 0.3 2 -2.98023e-08
v 0.3 2.1 -2.98023e-08
v -0.9 0.5 -0.3
v -0.9 0.6 -0.3
v -0.9 0.7 -0.3
v -0.9 1.2 -0.3
v -0.9 1.3 -0.3
v -0.9 1.4 -0.3
v -0.8 0.5 -0.3
v -0.8 0.6 -0.3
v -0.8 0.7 -0.3
v -0.8 0.8 -0.3
v -0.8 1.1 -0.3
v -0.8 1.2 -0.3
v -0.8 1.3 -0.3
v -0.6 0 -0.3
v -0.6 0.5 -0.3
v -0.6 0.7 -0.3
v -0.6 0.8 -0.3
v -0.6 0.9 -0.3
v -0.6 1 -0.3
v -0.6 1.1 -0.3
v -0.6 1.2 -0.3
v -0.6 1.4 -0.3
v -0.2 0 -0.3
v -0.2 0.5 -0.3
v -0.1 0 -0.3
v -0.1 0.5 -0.3
v 0.3 0 -0.3
v 0.3 0.5 -0.3
v 0.3 0.7 -0.3
v 0.3 0.8 -0.3
v 0.3 1.1 -0.3
v 0.3 1.2 -0.3
v 0.3 1.3 -0.3
v 0.3 1.4 -0.3
v 0.5 0.5 -0.3
v 0.5 0.6 -0.3
v 0.5 0.7 -0.3
v 0.5 0.8 -0.3
v 0.5 1.1 -0.3
v 0.5 1.2 -0.3
v 0.5 1.3 -0.3
v 0.6 0.5 -0.3
v 0.6 0.6 -0.3
v 0.6 0.7 -0.3
v 0.6 1.2 -0.3
v 0.6 1.3 -0.3
v 0.6 1.4 -0.3
v -0.6 0.5 -0.4
v -0.6 0.9 -0.4
v -0.6 1 -0.4
v -0.6 1.9 -0.4
v -0.5 0.8 -0.4
v -0.5 0.9 -0.4
v -0.5 1 -0.4
v -0.5 1.3 -0.4
v -0.5 1.9 -0.4
v -0.5 2 -0.4
v -0.2 0.8 -0.4
v -0.2 0.9 -0.4
v -0.2 1 -0.4
v -0.1 0.9 -0.4
v -0.1 1 -0.4
v -0.1 1.1 -0.4
v 0 1 -0.4
v 0 1.1 -0.4
v 0 1.2 -0.4
v 0.2 1.1 -0.4
v 0.2 1.2 -0.4
v 0.2 1.3 -0.4
v 0.2 1.9 -0.4
v 0.2 2 -0.4
v 0.3 0.5 -0.4
v 0.3 1.2 -0.4
v 0.3 1.3 -0.4
v 0.3 1.9 -0.4
v -0.5 1.3 -0.5
v -0.5 1.9 -0.5
v 0.2 1.3 -0.5
v 0.2 1.9 -0.5
v -0.6 0 0.2
v -0.5 0 0.2
v -0.4 0 0.2
v -0.3 0 0.2
v -0.2 0 0.2
v -0.1 0 0.2
v 0 0 0.2
v 0.1 0 0.2
v 0.2 0 0.2
v 0.3 0 0.2
v -0.5 0 0.1
v -0.4 0 0.1
v -0.3 0 0.1
v -0.2 0 0.1
v 0 0 0.1
v 0.1 0 0.1
v 0.2 0 0.1
v 0.3 0 0.1
v -0.6 0 -2.98023e-08
v -0.2 0 -2.98023e-08
v -0.1 0 -2.98023e-08
v 0.3 0 -2.98023e-08
v -0.6 0 -0.1
v -0.2 0 -0.1
v -0.1 0 -0.1
v 0.3 0 -0.1
v -0.6 0 -0.3
v -0.2 0 -0.3
v -0.1 0 -0.3
v 0.3 0 -0.3
v -0.6 0.5 0.2
v 0.3 0.5 0.2
v -0.9 0.5 0.1
v -0.8 0.5 0.1
v -0.7 0.5 0.1
v -0.6 0.5 0.1
v -0.2 0.5 0.1
v -0.1 0.5 0.1
v 0.3 0.5 0.1
v 0.4 0.5 0.1
v 0.5 0.5 0.1
v 0.6 0.5 0.1
v -0.9 0.5 -2.98023e-08
v -0.8 0.5 -2.98023e-08
v -0.7 0.5 -2.98023e-08
v 0.4 0.5 -2.98023e-08
v 0.5 0.5 -2.98023e-08
v 0.6 0.5 -2.98023e-08
v -0.9 0.5 -0.1
v -0.8 0.5 -0.1
v 0.5 0.5 -0.1
v 0.6 0.5 -0.1
v -0.9 0.5 -0.2
v -0.8 0.5 -0.2
v 0.5 0.5 -0.2
v 0.6 0.5 -0.2
v -0.9 0.5 -0.3
v -0.8 0.5 -0.3
v -0.6 0.5 -0.3
v -0.2 0.5 -0.3
v -0.1 0.5 -0.3
v 0.3 0.5 -0.3
v 0.5 0.5 -0.3
v 0.6 0.5 -0.3
v -0.6 0.5 -0.4
v 0.3 0.5 -0.4
v -0.5 1.3 0.3
v 0.2 1.3 0.3
v -0.5 1.3 0.2
v 0.2 1.3 0.2
v -0.5 1.3 -0.4
v 0.2 1.3 -0.4
v -0.5 1.3 -0.5
v 0.2 1.3 -0.5
v -0.6 0.1 0.2
v -0.5 0.1 0.2
v -0.4 0.1 0.2
v -0.3 0.1 0.2
v -0.2 0.1 0.2
v -0.1 0.1 0.2
v 0 0.1 0.2
v 0.1 0.1 0.2
v 0.2 0.1 0.2
v 0.3 0.1 0.2
v -0.6 0.1 0.1
v -0.5 0.1 0.1
v -0.4 0.1 0.1
v -0.3 0.1 0.1
v -0.2 0.1 0.1
v -0.1 0.1 0.1
v 0 0.1 0.1
v 0.1 0.1 0.1
v 0.2 0.1 0.1
v 0.3 0.1 0.1
v -0.9 1.4 0.1
v -0.6 1.4 0.1
v 0.3 1.4 0.1
v 0.6 1.4 0.1
v -0.9 1.4 -0.3
v -0.6 1.4 -0.3
v 0.3 1.4 -0.3
v 0.6 1.4 -0.3
v -0.5 1.9 0.3
v 0.2 1.9 0.3
v -0.6 1.9 0.2
v -0.5 1.9 0.2
v 0.2 1.9 0.2
v 0.3 1.9 0.2
v -0.6 1.9 0.1
v -0.5 1.9 0.1
v 0.2 1.9 0.1
v 0.3 1.9 0.1
v -0.6 1.9 -2.98023e-08
v -0.5 1.9 -2.98023e-08
v 0.2 1.9 -2.98023e-08
v 0.3 1.9 -2.98023e-08
v -0.6 1.9 -0.4
v -0.5 1.9 -0.4
v 0.2 1.9 -0.4
v 0.3 1.9 -0.4
v -0.5 1.9 -0.5
v 0.2 1.9 -0.5
v -0.5 2 0.2
v 0.2 2 0.2
v -0.5 2 0.1
v -0.4 2 0.1
v 0.1 2 0.1
v 0.2 2 0.1
v -0.5 2 -2.98023e-08
v -0.4 2 -2.98023e-08
v 0.1 2 -2.98023e-08
v 0.2 2 -2.98023e-08
v -0.5 2 -0.4
v 0.2 2 -0.4
v -0.6 2.1 0.1
v -0.5 2.1 0.1
v -0.4 2.1 0.1
v 0.1 2.1 0.1
v 0.2 2.1 0.1
v 0.3 2.1 0.1
v -0.6 2.1 -2.98023e-08
v -0.5 2.1 -2.98023e-08
v -0.4 2.1 -2.98023e-08
v 0.1 2.1 -2.98023e-08
v 0.2 2.1 -2.98023e-08
v 0.3 2.1 -2.98023e-08

# faces
f 6/12/1 2/12/1 1/12/1
f 7/11/1 3/11/1 2/11/1
f 7/12/1 2/12/1 6/12/1
f 8/12/1 4/12/1 3/12/1
f 8/11/1 3/11/1 7/11/1
f 9/11/1 5/11/1 4/11/1
f 9/12/1 4/12/1 8/12/1
f 10/11/1 5/11/1 9/11/1
f 11/3/1 8/3/1 7/3/1
f 11/3/1 7/3/1 6/3/1
f 11/3/1 10/3/1 9/3/1
f 11/3/1 9/3/1 8/3/1
f 12/3/1 10/3/1 11/3/1
f 13/4/1 12/4/1 11/4/1
f 14/4/1 12/4/1 13/4/1
f 15/3/1 14/3/1 13/3/1
f 16/3/1 14/3/1 15/3/1
f 17/6/1 16/6/1 15/6/1
f 18/6/1 16/6/1 17/6/1
f 23/11/1 20/11/1 19/11/1
f 24/11/1 20/11/1 23/11/1
f 25/3/1 21/3/1 20/3/1
f 25/11/1 20/11/1 24/11/1
f 26/4/1 22/4/1 21/4/1
f 26/3/1 21/3/1 25/3/1
f 27/3/1 25/3/1 24/3/1
f 28/4/1 26/4/1 25/4/1
f 28/3/1 25/3/1 27/3/1
f 30/4/1 28/4/1 27/4/1
f 31/4/1 22/4/1 26/4/1
f 31/4/1 26/4/1 28/4/1
f 31/4/1 28/4/1 30/4/1
f 33/4/1 30/4/1 29/4/1
f 34/4/1 32/4/1 31/4/1
f 35/4/1 33/4/1 29/4/1
f 36/4/1 32/4/1 34/4/1
f 37/4/1 35/4/1 29/4/1
f 38/4/1 35/4/1 37/4/1
f 39/4/1 32/4/1 36/4/1
f 40/4/1 32/4/1 39/4/1
f 41/3/1 38/3/1 37/3/1
f 42/3/1 38/3/1 41/3/1
f 43/3/1 40/3/1 39/3/1
f 44/3/1 40/3/1 43/3/1
f 45/6/1 42/6/1 41/6/1
f 46/6/1 44/6/1 43/6/1
f 47/6/1 45/6/1 41/6/1
f 48/6/1 44/6/1 46/6/1
f 49/6/1 47/6/1 41/6/1
f 50/6/1 44/6/1 48/6/1
f 51/6/1 49/6/1 41/6/1
f 51/6/1 50/6/1 49/6/1
f 52/6/1 50/6/1 51/6/1
f 53/6/1 50/6/1 52/6/1
f 54/6/1 44/6/1 50/6/1
f 54/6/1 50/6/1 53/6/1
f 55/12/1 53/12/1 52/12/1
f 56/12/1 53/12/1 55/12/1
f 57/11/1 56/11/1 55/11/1
f 58/11/1 56/11/1 57/11/1
f 63/12/1 60/12/1 59/12/1
f 64/12/1 60/12/1 63/12/1
f 67/6/1 62/6/1 61/6/1
f 68/6/1 62/6/1 67/6/1
f 69/6/1 65/6/1 64/6/1
f 70/6/1 65/6/1 69/6/1
f 71/6/1 67/6/1 66/6/1
f 72/6/1 67/6/1 71/6/1
f 77/11/1 74/11/1 73/11/1
f 78/11/1 74/11/1 77/11/1
f 79/3/1 75/3/1 74/3/1
f 79/11/1 74/11/1 78/11/1
f 80/4/1 76/4/1 75/4/1
f 80/3/1 75/3/1 79/3/1
f 81/3/1 79/3/1 78/3/1
f 82/4/1 80/4/1 79/4/1
f 82/3/1 79/3/1 81/3/1
f 83/4/1 82/4/1 81/4/1
f 84/4/1 76/4/1 80/4/1
f 84/4/1 82/4/1 83/4/1
f 84/4/1 80/4/1 82/4/1
f 87/12/1 86/12/1 85/12/1
f 88/12/1 86/12/1 87/12/1
f 89/12/2 90/12/2 91/12/2
f 91/12/2 90/12/2 92/12/2
f 93/12/2 94/12/2 98/12/2
f 94/11/2 95/11/2 99/11/2
f 98/12/2 94/12/2 99/12/2
f 95/3/2 96/3/2 100/3/2
f 99/11/2 95/11/2 100/11/2
f 96/4/2 97/4/2 101/4/2
f 100/3/2 96/3/2 101/3/2
f 99/3/2 100/3/2 102/3/2
f 100/4/2 101/4/2 103/4/2
f 102/3/2 100/3/2 103/3/2
f 102/4/2 103/4/2 104/4/2
f 101/4/2 97/4/2 105/4/2
f 104/4/2 103/4/2 105/4/2
f 103/4/2 101/4/2 105/4/2
f 106/12/2 107/12/2 110/12/2
f 110/12/2 107/12/2 111/12/2
f 108/6/2 109/6/2 114/6/2
f 114/6/2 109/6/2 115/6/2
f 111/6/2 112/6/2 116/6/2
f 116/6/2 112/6/2 117/6/2
f 113/6/2 114/6/2 118/6/2
f 118/6/2 114/6/2 119/6/2
f 120/12/2 121/12/2 125/12/2
f 121/11/2 122/11/2 126/11/2
f 125/12/2 121/12/2 126/12/2
f 122/3/2 123/3/2 127/3/2
f 126/11/2 122/11/2 127/11/2
f 123/4/2 124/4/2 128/4/2
f 127/3/2 123/3/2 128/3/2
f 126/3/2 127/3/2 129/3/2
f 127/4/2 128/4/2 130/4/2
f 129/3/2 127/3/2 130/3/2
f 129/4/2 130/4/2 132/4/2
f 128/4/2 124/4/2 133/4/2
f 130/4/2 128/4/2 133/4/2
f 132/4/2 130/4/2 133/4/2
f 131/4/2 132/4/2 135/4/2
f 133/4/2 134/4/2 136/4/2
f 131/4/2 135/4/2 137/4/2
f 136/4/2 134/4/2 138/4/2
f 131/4/2 137/4/2 139/4/2
f 138/4/2 134/4/2 140/4/2
f 131/4/2 139/4/2 141/4/2
f 141/4/2 139/4/2 142/4/2
f 140/4/2 134/4/2 143/4/2
f 143/4/2 134/4/2 144/4/2
f 141/3/2 142/3/2 145/3/2
f 145/3/2 142/3/2 146/3/2
f 143/3/2 144/3/2 147/3/2
f 147/3/2 144/3/2 148/3/2
f 145/6/2 146/6/2 149/6/2
f 147/6/2 148/6/2 150/6/2
f 145/6/2 149/6/2 151/6/2
f 149/6/2 150/6/2 151/6/2
f 151/6/2 150/6/2 152/6/2
f 152/6/2 150/6/2 153/6/2
f 150/6/2 148/6/2 154/6/2
f 153/6/2 150/6/2 154/6/2
f 152/12/2 153/12/2 155/12/2
f 155/12/2 153/12/2 156/12/2
f 155/11/2 156/11/2 157/11/2
f 157/11/2 156/11/2 158/11/2
f 159/12/2 160/12/2 164/12/2
f 160/11/2 161/11/2 165/11/2
f 164/12/2 160/12/2 165/12/2
f 161/12/2 162/12/2 166/12/2
f 165/11/2 161/11/2 166/11/2
f 162/11/2 163/11/2 167/11/2
f 166/12/2 162/12/2 167/12/2
f 167/11/2 163/11/2 168/11/2
f 165/3/2 166/3/2 169/3/2
f 164/3/2 165/3/2 169/3/2
f 167/3/2 168/3/2 169/3/2
f 166/3/2 167/3/2 169/3/2
f 169/3/2 168/3/2 170/3/2
f 169/4/2 170/4/2 171/4/2
f 171/4/2 170/4/2 172/4/2
f 171/3/2 172/3/2 173/3/2
f 173/3/2 172/3/2 174/3/2
f 173/6/2 174/6/2 175/6/2
f 175/6/2 174/6/2 176/6/2
f 179/12/3 178/12/3 177/12/3
f 180/12/3 178/12/3 179/12/3
f 181/12/3 179/12/3 177/12/3
f 181/13/3 180/13/3 179/13/3
f 182/12/3 178/12/3 180/12/3
f 182/13/3 180/13/3 181/13/3
f 183/12/3 181/12/3 177/12/3
f 183/12/3 182/12/3 181/12/3
f 184/12/3 178/12/3 182/12/3
f 184/12/3 182/12/3 183/12/3
f 185/12/3 183/12/3 177/12/3
f 185/13/3 184/13/3 183/13/3
f 186/12/3 178/12/3 184/12/3
f 186/13/3 184/13/3 185/13/3
f 187/12/3 185/12/3 177/12/3
f 187/12/3 186/12/3 185/12/3
f 188/12/3 178/12/3 186/12/3
f 188/12/3 186/12/3 187/12/3
f 195/11/3 190/11/3 189/11/3
f 196/11/3 190/11/3 195/11/3
f 197/4/3 192/4/3 191/4/3
f 198/3/3 193/3/3 192/3/3
f 198/4/3 192/4/3 197/4/3
f 199/6/3 194/6/3 193/6/3
f 199/3/3 193/3/3 198/3/3
f 200/6/3 194/6/3 199/6/3
f 201/6/3 194/6/3 200/6/3
f 203/12/3 196/12/3 195/12/3
f 204/12/3 196/12/3 203/12/3
f 205/11/3 204/11/3 203/11/3
f 206/11/3 204/11/3 205/11/3
f 207/12/3 206/12/3 205/12/3
f 208/12/3 206/12/3 207/12/3
f 209/3/3 198/3/3 197/3/3
f 209/4/3 197/4/3 191/4/3
f 210/6/3 199/6/3 198/6/3
f 210/3/3 198/3/3 209/3/3
f 210/6/3 200/6/3 199/6/3
f 211/6/3 200/6/3 210/6/3
f 214/4/3 210/4/3 209/4/3
f 214/3/3 211/3/3 210/3/3
f 215/6/3 200/6/3 211/6/3
f 215/3/3 211/3/3 214/3/3
f 216/6/3 200/6/3 215/6/3
f 217/11/3 213/11/3 212/11/3
f 218/11/3 213/11/3 217/11/3
f 219/4/3 215/4/3 214/4/3
f 219/3/3 216/3/3 215/3/3
f 220/6/3 200/6/3 216/6/3
f 220/3/3 216/3/3 219/3/3
f 221/6/3 200/6/3 220/6/3
f 222/12/3 218/12/3 217/12/3
f 223/12/3 218/12/3 222/12/3
f 224/11/3 223/11/3 222/11/3
f 225/11/3 223/11/3 224/11/3
f 226/4/3 220/4/3 219/4/3
f 226/3/3 221/3/3 220/3/3
f 227/6/3 200/6/3 221/6/3
f 227/3/3 221/3/3 226/3/3
f 228/6/3 200/6/3 227/6/3
f 229/6/3 202/6/3 201/6/3
f 230/6/3 202/6/3 229/6/3
f 231/12/3 225/12/3 224/12/3
f 232/12/3 225/12/3 231/12/3
f 233/4/3 214/4/3 209/4/3
f 233/4/3 209/4/3 191/4/3
f 233/4/3 219/4/3 214/4/3
f 233/4/3 226/4/3 219/4/3
f 233/4/3 227/4/3 226/4/3
f 234/3/3 228/3/3 227/3/3
f 234/4/3 227/4/3 233/4/3
f 235/6/3 229/6/3 228/6/3
f 235/3/3 228/3/3 234/3/3
f 236/6/3 229/6/3 235/6/3
f 243/12/3 238/12/3 237/12/3
f 244/3/3 239/3/3 238/3/3
f 244/12/3 238/12/3 243/12/3
f 245/4/3 240/4/3 239/4/3
f 245/3/3 239/3/3 244/3/3
f 246/4/3 240/4/3 245/4/3
f 247/4/3 240/4/3 246/4/3
f 248/3/3 241/3/3 240/3/3
f 248/4/3 240/4/3 247/4/3
f 249/6/3 242/6/3 241/6/3
f 249/3/3 241/3/3 248/3/3
f 250/11/3 244/11/3 243/11/3
f 251/12/3 245/12/3 244/12/3
f 251/11/3 244/11/3 250/11/3
f 254/12/3 251/12/3 250/12/3
f 255/3/3 246/3/3 245/3/3
f 255/12/3 245/12/3 251/12/3
f 255/12/3 251/12/3 254/12/3
f 256/4/3 247/4/3 246/4/3
f 256/3/3 246/3/3 255/3/3
f 257/4/3 247/4/3 256/4/3
f 258/4/3 247/4/3 257/4/3
f 259/3/3 248/3/3 247/3/3
f 259/4/3 247/4/3 258/4/3
f 260/6/3 249/6/3 248/6/3
f 260/3/3 248/3/3 259/3/3
f 261/6/3 242/6/3 249/6/3
f 261/6/3 249/6/3 260/6/3
f 265/3/3 253/3/3 252/3/3
f 266/12/3 263/12/3 262/12/3
f 267/11/3 264/11/3 263/11/3
f 267/12/3 263/12/3 266/12/3
f 268/11/3 264/11/3 267/11/3
f 269/3/3 253/3/3 265/3/3
f 270/12/3 268/12/3 267/12/3
f 271/12/3 268/12/3 270/12/3
f 272/3/3 253/3/3 269/3/3
f 273/3/3 253/3/3 272/3/3
f 274/4/3 254/4/3 253/4/3
f 274/3/3 253/3/3 273/3/3
f 275/4/3 254/4/3 274/4/3
f 279/3/3 277/3/3 276/3/3
f 280/3/3 277/3/3 279/3/3
f 283/3/3 277/3/3 280/3/3
f 285/12/3 282/12/3 281/12/3
f 286/12/3 282/12/3 285/12/3
f 287/3/3 277/3/3 283/3/3
f 288/4/3 278/4/3 277/4/3
f 288/3/3 277/3/3 287/3/3
f 289/4/3 278/4/3 288/4/3
f 296/12/3 285/12/3 284/12/3
f 297/11/3 286/11/3 285/11/3
f 297/12/3 285/12/3 296/12/3
f 298/11/3 286/11/3 297/11/3
f 299/12/3 290/12/3 289/12/3
f 300/12/3 290/12/3 299/12/3
f 301/11/3 300/11/3 299/11/3
f 302/12/3 290/12/3 300/12/3
f 302/11/3 300/11/3 301/11/3
f 303/3/3 291/3/3 290/3/3
f 303/12/3 290/12/3 302/12/3
f 304/4/3 292/4/3 291/4/3
f 304/3/3 291/3/3 303/3/3
f 305/3/3 293/3/3 292/3/3
f 305/4/3 292/4/3 304/4/3
f 306/6/3 295/6/3 294/6/3
f 306/3/3 293/3/3 305/3/3
f 306/6/3 294/6/3 293/6/3
f 307/6/3 295/6/3 306/6/3
f 308/12/3 302/12/3 301/12/3
f 309/3/3 303/3/3 302/3/3
f 309/12/3 302/12/3 308/12/3
f 310/4/3 305/4/3 304/4/3
f 310/3/3 303/3/3 309/3/3
f 310/4/3 304/4/3 303/4/3
f 310/4/3 306/4/3 305/4/3
f 311/3/3 307/3/3 306/3/3
f 311/4/3 306/4/3 310/4/3
f 312/6/3 295/6/3 307/6/3
f 312/3/3 307/3/3 311/3/3
f 313/6/3 295/6/3 312/6/3
f 314/12/4 315/12/4 317/12/4
f 315/11/4 316/11/4 318/11/4
f 317/12/4 315/12/4 318/12/4
f 318/11/4 316/11/4 319/11/4
f 318/12/4 319/12/4 320/12/4
f 320/12/4 319/12/4 321/12/4
f 322/12/4 323/12/4 325/12/4
f 325/12/4 323/12/4 326/12/4
f 324/12/4 325/12/4 327/12/4
f 325/11/4 326/11/4 328/11/4
f 327/12/4 325/12/4 328/12/4
f 328/11/4 326/11/4 329/11/4
f 330/11/4 331/11/4 336/11/4
f 331/3/4 332/3/4 337/3/4
f 336/11/4 331/11/4 337/11/4
f 332/4/4 333/4/4 338/4/4
f 337/3/4 332/3/4 338/3/4
f 338/4/4 333/4/4 339/4/4
f 339/4/4 333/4/4 340/4/4
f 333/3/4 334/3/4 341/3/4
f 340/4/4 333/4/4 341/4/4
f 334/6/4 335/6/4 342/6/4
f 341/3/4 334/3/4 342/3/4
f 336/12/4 337/12/4 344/12/4
f 337/12/4 338/12/4 344/12/4
f 338/3/4 339/3/4 345/3/4
f 344/12/4 338/12/4 345/12/4
f 339/4/4 340/4/4 346/4/4
f 345/3/4 339/3/4 346/3/4
f 346/4/4 340/4/4 347/4/4
f 347/4/4 340/4/4 348/4/4
f 340/3/4 341/3/4 349/3/4
f 348/4/4 340/4/4 349/4/4
f 341/6/4 342/6/4 350/6/4
f 349/3/4 341/3/4 350/3/4
f 342/6/4 335/6/4 351/6/4
f 350/6/4 342/6/4 351/6/4
f 343/4/4 344/4/4 352/4/4
f 352/4/4 344/4/4 353/4/4
f 354/4/4 355/4/4 356/4/4
f 356/4/4 355/4/4 357/4/4
f 357/12/4 358/12/4 364/12/4
f 364/12/4 358/12/4 365/12/4
f 358/3/4 359/3/4 366/3/4
f 365/12/4 358/12/4 366/12/4
f 359/4/4 360/4/4 367/4/4
f 366/3/4 359/3/4 367/3/4
f 360/3/4 361/3/4 368/3/4
f 367/4/4 360/4/4 368/4/4
f 362/6/4 363/6/4 369/6/4
f 368/3/4 361/3/4 369/3/4
f 361/6/4 362/6/4 369/6/4
f 369/6/4 363/6/4 370/6/4
f 364/11/4 365/11/4 371/11/4
f 365/3/4 366/3/4 372/3/4
f 371/11/4 365/11/4 372/11/4
f 367/4/4 368/4/4 373/4/4
f 372/3/4 366/3/4 373/3/4
f 366/4/4 367/4/4 373/4/4
f 368/4/4 369/4/4 373/4/4
f 369/3/4 370/3/4 374/3/4
f 373/4/4 369/4/4 374/4/4
f 370/6/4 363/6/4 375/6/4
f 374/3/4 370/3/4 375/3/4
f 375/6/4 363/6/4 376/6/4
f 377/4/4 378/4/4 381/4/4
f 378/3/4 379/3/4 382/3/4
f 381/4/4 378/4/4 382/4/4
f 379/6/4 380/6/4 383/6/4
f 382/3/4 379/3/4 383/3/4
f 383/6/4 380/6/4 384/6/4
f 384/6/4 380/6/4 385/6/4
f 381/3/4 382/3/4 387/3/4
f 377/4/4 381/4/4 387/4/4
f 383/6/4 384/6/4 388/6/4
f 387/3/4 382/3/4 388/3/4
f 382/6/4 383/6/4 388/6/4
f 388/6/4 384/6/4 389/6/4
f 387/4/4 388/4/4 390/4/4
f 388/3/4 389/3/4 390/3/4
f 389/6/4 384/6/4 391/6/4
f 390/3/4 389/3/4 391/3/4
f 391/6/4 384/6/4 392/6/4
f 390/4/4 391/4/4 393/4/4
f 391/3/4 392/3/4 393/3/4
f 392/6/4 384/6/4 394/6/4
f 393/3/4 392/3/4 394/3/4
f 394/6/4 384/6/4 395/6/4
f 393/4/4 394/4/4 396/4/4
f 394/3/4 395/3/4 396/3/4
f 395/6/4 384/6/4 397/6/4
f 396/3/4 395/3/4 397/3/4
f 397/6/4 384/6/4 398/6/4
f 385/6/4 386/6/4 399/6/4
f 399/6/4 386/6/4 400/6/4
f 377/4/4 387/4/4 401/4/4
f 387/4/4 390/4/4 401/4/4
f 390/4/4 393/4/4 401/4/4
f 393/4/4 396/4/4 401/4/4
f 396/4/4 397/4/4 401/4/4
f 397/3/4 398/3/4 402/3/4
f 401/4/4 397/4/4 402/4/4
f 398/6/4 399/6/4 403/6/4
f 402/3/4 398/3/4 403/3/4
f 403/6/4 399/6/4 404/6/4
f 405/6/4 406/6/4 407/6/4
f 407/6/4 406/6/4 408/6/4
f 419/11/5 410/11/5 409/11/5
f 419/12/5 411/12/5 410/12/5
f 420/11/5 412/11/5 411/11/5
f 420/12/5 411/12/5 419/12/5
f 421/12/5 413/12/5 412/12/5
f 421/11/5 412/11/5 420/11/5
f 422/12/5 413/12/5 421/12/5
f 423/11/5 415/11/5 414/11/5
f 423/12/5 416/12/5 415/12/5
f 424/11/5 417/11/5 416/11/5
f 424/12/5 416/12/5 423/12/5
f 425/12/5 418/12/5 417/12/5
f 425/11/5 417/11/5 424/11/5
f 426/12/5 418/12/5 425/12/5
f 427/11/5 419/11/5 409/11/5
f 427/11/5 420/11/5 419/11/5
f 427/11/5 422/11/5 421/11/5
f 427/11/5 421/11/5 420/11/5
f 428/11/5 422/11/5 427/11/5
f 429/11/5 424/11/5 423/11/5
f 429/11/5 423/11/5 414/11/5
f 429/11/5 426/11/5 425/11/5
f 429/11/5 425/11/5 424/11/5
f 430/11/5 426/11/5 429/11/5
f 431/3/5 428/3/5 427/3/5
f 432/3/5 428/3/5 431/3/5
f 433/3/5 430/3/5 429/3/5
f 434/3/5 430/3/5 433/3/5
f 435/4/5 432/4/5 431/4/5
f 436/4/5 432/4/5 435/4/5
f 437/4/5 434/4/5 433/4/5
f 438/4/5 434/4/5 437/4/5
f 444/4/5 440/4/5 439/4/5
f 445/4/5 440/4/5 444/4/5
f 446/4/5 440/4/5 445/4/5
f 447/4/5 440/4/5 446/4/5
f 451/12/5 442/12/5 441/12/5
f 452/11/5 443/11/5 442/11/5
f 452/12/5 442/12/5 451/12/5
f 453/12/5 444/12/5 443/12/5
f 453/11/5 443/11/5 452/11/5
f 454/11/5 449/11/5 448/11/5
f 454/12/5 448/12/5 447/12/5
f 455/12/5 450/12/5 449/12/5
f 455/11/5 449/11/5 454/11/5
f 456/12/5 450/12/5 455/12/5
f 457/11/5 452/11/5 451/11/5
f 458/12/5 453/12/5 452/12/5
f 458/11/5 452/11/5 457/11/5
f 459/12/5 455/12/5 454/12/5
f 459/11/5 456/11/5 455/11/5
f 460/11/5 456/11/5 459/11/5
f 461/12/5 458/12/5 457/12/5
f 462/12/5 453/12/5 458/12/5
f 462/12/5 458/12/5 461/12/5
f 463/12/5 459/12/5 454/12/5
f 463/12/5 460/12/5 459/12/5
f 464/12/5 460/12/5 463/12/5
f 465/11/5 462/11/5 461/11/5
f 466/12/5 453/12/5 462/12/5
f 466/11/5 462/11/5 465/11/5
f 467/12/5 444/12/5 453/12/5
f 467/12/5 453/12/5 466/12/5
f 468/4/5 446/4/5 445/4/5
f 469/4/5 446/4/5 468/4/5
f 470/12/5 454/12/5 447/12/5
f 470/12/5 463/12/5 454/12/5
f 471/11/5 464/11/5 463/11/5
f 471/12/5 463/12/5 470/12/5
f 472/11/5 464/11/5 471/11/5
f 473/4/5 469/4/5 468/4/5
f 473/4/5 468/4/5 467/4/5
f 473/4/5 470/4/5 469/4/5
f 474/4/5 470/4/5 473/4/5
f 477/12/5 476/12/5 475/12/5
f 478/12/5 476/12/5 477/12/5
f 481/6/5 480/6/5 479/6/5
f 482/6/5 480/6/5 481/6/5
f 483/11/6 484/11/6 493/11/6
f 484/12/6 485/12/6 494/12/6
f 493/11/6 484/11/6 494/11/6
f 485/11/6 486/11/6 495/11/6
f 494/12/6 485/12/6 495/12/6
f 486/12/6 487/12/6 496/12/6
f 495/11/6 486/11/6 496/11/6
f 496/12/6 487/12/6 497/12/6
f 488/11/6 489/11/6 498/11/6
f 489/12/6 490/12/6 499/12/6
f 498/11/6 489/11/6 499/11/6
f 490/11/6 491/11/6 500/11/6
f 499/12/6 490/12/6 500/12/6
f 491/12/6 492/12/6 501/12/6
f 500/11/6 491/11/6 501/11/6
f 501/12/6 492/12/6 502/12/6
f 503/6/6 504/6/6 507/6/6
f 507/6/6 504/6/6 508/6/6
f 505/6/6 506/6/6 509/6/6
f 509/6/6 506/6/6 510/6/6
f 511/12/6 512/12/6 514/12/6
f 514/12/6 512/12/6 515/12/6
f 513/6/6 514/6/6 517/6/6
f 517/6/6 514/6/6 518/6/6
f 515/6/6 516/6/6 519/6/6
f 519/6/6 516/6/6 520/6/6
f 521/6/6 522/6/6 525/6/6
f 525/6/6 522/6/6 526/6/6
f 523/6/6 524/6/6 527/6/6
f 527/6/6 524/6/6 528/6/6
f 526/6/6 527/6/6 529/6/6
f 529/6/6 527/6/6 530/6/6
f 531/6/6 532/6/6 533/6/6
f 533/6/6 532/6/6 534/6/6
f 534/6/6 532/6/6 535/6/6
f 535/6/6 532/6/6 536/6/6
f 534/6/6 535/6/6 538/6/6
f 538/6/6 535/6/6 539/6/6
f 537/6/6 538/6/6 541/6/6
f 539/6/6 540/6/6 541/6/6
f 538/6/6 539/6/6 541/6/6
f 541/6/6 540/6/6 542/6/6
f 543/11/6 544/11/6 549/11/6
f 544/12/6 545/12/6 550/12/6
f 549/11/6 544/11/6 550/11/6
f 550/12/6 545/12/6 551/12/6
f 546/12/6 547/12/6 552/12/6
f 547/11/6 548/11/6 553/11/6
f 552/12/6 547/12/6 553/12/6
f 553/11/6 548/11/6 554/11/6
