# MagicaVoxel @ Ephtracy

# group
o 

# material
mtllib MoveCursor.mtl
usemtl palette

# normals
vn -1 0 0
vn 1 0 0
vn 0 0 1
vn 0 0 -1
vn 0 -1 0
vn 0 1 0

# texcoords
vt 0.970703 0.5
vt 0.974609 0.5
vt 0.978516 0.5

# verts
v -0.6 0.4 0.3
v -0.6 0.4 0.2
v -0.6 0.6 0.3
v -0.6 0.6 0.2
v -0.5 0.3 0.3
v -0.5 0.3 0.2
v -0.5 0.4 0.3
v -0.5 0.4 0.2
v -0.4 0.2 0.3
v -0.4 0.2 0.2
v -0.4 0.3 0.3
v -0.4 0.3 0.2
v -0.4 0.6 0.3
v -0.4 0.6 0.2
v -0.4 1.3 0.3
v -0.4 1.3 0.2
v -0.3 0.1 0.3
v -0.3 0.1 0.2
v -0.3 0.2 0.3
v -0.3 0.2 0.2
v -0.2 0 0.3
v -0.2 0 0.2
v -0.2 0.1 0.4
v -0.2 0.1 0.3
v -0.2 0.1 0.2
v -0.2 0.1 0.1
v -0.2 0.2 0.5
v -0.2 0.2 0.4
v -0.2 0.2 0.3
v -0.2 0.2 0.2
v -0.2 0.2 0.1
v -0.2 0.2 0
v -0.2 0.3 0.6
v -0.2 0.3 0.5
v -0.2 0.3 0.4
v -0.2 0.3 0.1
v -0.2 0.3 0
v -0.2 0.3 -0.1
v -0.2 0.4 0.7
v -0.2 0.4 0.6
v -0.2 0.4 0.5
v -0.2 0.4 0
v -0.2 0.4 -0.1
v -0.2 0.4 -0.2
v -0.2 0.5 0.6
v -0.2 0.5 0.4
v -0.2 0.5 0.3
v -0.2 0.5 0.2
v -0.2 0.5 0.1
v -0.2 0.5 -0.1
v -0.2 0.6 0.7
v -0.2 0.6 0.5
v -0.2 0.6 0
v -0.2 0.6 -0.2
v -0.2 0.8 0.4
v -0.2 0.8 0.3
v -0.2 0.8 0.2
v -0.2 0.8 0.1
v -0.2 1.2 0.4
v -0.2 1.2 0.3
v -0.2 1.2 0.2
v -0.2 1.2 0.1
v -0.2 1.3 0.5
v -0.2 1.3 0.3
v -0.2 1.3 0.2
v -0.2 1.3 0
v -0.1 0 0.3
v -0.1 0 0.2
v -0.1 0.1 0.4
v -0.1 0.1 0.3
v -0.1 0.1 0.2
v -0.1 0.1 0.1
v -0.1 0.2 0.5
v -0.1 0.2 0.4
v -0.1 0.2 0.3
v -0.1 0.2 0.2
v -0.1 0.2 0.1
v -0.1 0.2 0
v -0.1 0.3 0.6
v -0.1 0.3 0.5
v -0.1 0.3 0.4
v -0.1 0.3 0.1
v -0.1 0.3 0
v -0.1 0.3 -0.1
v -0.1 0.4 0.7
v -0.1 0.4 0.6
v -0.1 0.4 0.5
v -0.1 0.4 0
v -0.1 0.4 -0.1
v -0.1 0.4 -0.2
v -0.1 0.5 0.6
v -0.1 0.5 0.4
v -0.1 0.5 0.3
v -0.1 0.5 0.2
v -0.1 0.5 0.1
v -0.1 0.5 -0.1
v -0.1 0.6 0.7
v -0.1 0.6 0.5
v -0.1 0.6 0
v -0.1 0.6 -0.2
v -0.1 0.8 0.4
v -0.1 0.8 0.3
v -0.1 0.8 0.2
v -0.1 0.8 0.1
v -0.1 1.2 0.4
v -0.1 1.2 0.3
v -0.1 1.2 0.2
v -0.1 1.2 0.1
v -0.1 1.3 0.5
v -0.1 1.3 0.3
v -0.1 1.3 0.2
v -0.1 1.3 0
v -5.96046e-08 0.1 0.3
v -5.96046e-08 0.1 0.2
v -5.96046e-08 0.2 0.3
v -5.96046e-08 0.2 0.2
v 0.1 0.2 0.3
v 0.1 0.2 0.2
v 0.1 0.3 0.3
v 0.1 0.3 0.2
v 0.1 0.6 0.3
v 0.1 0.6 0.2
v 0.1 1.3 0.3
v 0.1 1.3 0.2
v 0.2 0.3 0.3
v 0.2 0.3 0.2
v 0.2 0.4 0.3
v 0.2 0.4 0.2
v 0.3 0.4 0.3
v 0.3 0.4 0.2
v 0.3 0.6 0.3
v 0.3 0.6 0.2
v -0.2 0.4 0.7
v -0.2 0.6 0.7
v -0.1 0.4 0.7
v -0.1 0.6 0.7
v -0.2 0.3 0.6
v -0.2 0.4 0.6
v -0.1 0.3 0.6
v -0.1 0.4 0.6
v -0.2 0.2 0.5
v -0.2 0.3 0.5
v -0.2 0.6 0.5
v -0.2 1.3 0.5
v -0.1 0.2 0.5
v -0.1 0.3 0.5
v -0.1 0.6 0.5
v -0.1 1.3 0.5
v -0.2 0.1 0.4
v -0.2 0.2 0.4
v -0.1 0.1 0.4
v -0.1 0.2 0.4
v -0.6 0.4 0.3
v -0.6 0.6 0.3
v -0.5 0.3 0.3
v -0.5 0.4 0.3
v -0.5 0.5 0.3
v -0.4 0.2 0.3
v -0.4 0.3 0.3
v -0.4 0.4 0.3
v -0.4 0.6 0.3
v -0.4 1.3 0.3
v -0.3 0.1 0.3
v -0.3 0.2 0.3
v -0.3 0.3 0.3
v -0.3 0.5 0.3
v -0.3 0.8 0.3
v -0.3 1.2 0.3
v -0.2 0 0.3
v -0.2 0.1 0.3
v -0.2 0.2 0.3
v -0.2 0.5 0.3
v -0.2 0.8 0.3
v -0.2 1.2 0.3
v -0.2 1.3 0.3
v -0.1 0 0.3
v -0.1 0.1 0.3
v -0.1 0.2 0.3
v -0.1 0.5 0.3
v -0.1 0.8 0.3
v -0.1 1.2 0.3
v -0.1 1.3 0.3
v -5.96046e-08 0.1 0.3
v -5.96046e-08 0.2 0.3
v -5.96046e-08 0.3 0.3
v -5.96046e-08 0.5 0.3
v -5.96046e-08 0.8 0.3
v -5.96046e-08 1.2 0.3
v 0.1 0.2 0.3
v 0.1 0.3 0.3
v 0.1 0.4 0.3
v 0.1 0.6 0.3
v 0.1 1.3 0.3
v 0.2 0.3 0.3
v 0.2 0.4 0.3
v 0.2 0.5 0.3
v 0.3 0.4 0.3
v 0.3 0.6 0.3
v -0.6 0.4 0.2
v -0.6 0.6 0.2
v -0.5 0.3 0.2
v -0.5 0.4 0.2
v -0.5 0.5 0.2
v -0.4 0.2 0.2
v -0.4 0.3 0.2
v -0.4 0.4 0.2
v -0.4 0.6 0.2
v -0.4 1.3 0.2
v -0.3 0.1 0.2
v -0.3 0.2 0.2
v -0.3 0.3 0.2
v -0.3 0.5 0.2
v -0.3 0.8 0.2
v -0.3 1.2 0.2
v -0.2 0 0.2
v -0.2 0.1 0.2
v -0.2 0.2 0.2
v -0.2 0.5 0.2
v -0.2 0.8 0.2
v -0.2 1.2 0.2
v -0.2 1.3 0.2
v -0.1 0 0.2
v -0.1 0.1 0.2
v -0.1 0.2 0.2
v -0.1 0.5 0.2
v -0.1 0.8 0.2
v -0.1 1.2 0.2
v -0.1 1.3 0.2
v -5.96046e-08 0.1 0.2
v -5.96046e-08 0.2 0.2
v -5.96046e-08 0.3 0.2
v -5.96046e-08 0.5 0.2
v -5.96046e-08 0.8 0.2
v -5.96046e-08 1.2 0.2
v 0.1 0.2 0.2
v 0.1 0.3 0.2
v 0.1 0.4 0.2
v 0.1 0.6 0.2
v 0.1 1.3 0.2
v 0.2 0.3 0.2
v 0.2 0.4 0.2
v 0.2 0.5 0.2
v 0.3 0.4 0.2
v 0.3 0.6 0.2
v -0.2 0.1 0.1
v -0.2 0.2 0.1
v -0.1 0.1 0.1
v -0.1 0.2 0.1
v -0.2 0.2 0
v -0.2 0.3 0
v -0.2 0.6 0
v -0.2 1.3 0
v -0.1 0.2 0
v -0.1 0.3 0
v -0.1 0.6 0
v -0.1 1.3 0
v -0.2 0.3 -0.1
v -0.2 0.4 -0.1
v -0.1 0.3 -0.1
v -0.1 0.4 -0.1
v -0.2 0.4 -0.2
v -0.2 0.6 -0.2
v -0.1 0.4 -0.2
v -0.1 0.6 -0.2
v -0.2 0 0.3
v -0.1 0 0.3
v -0.2 0 0.2
v -0.1 0 0.2
v -0.2 0.1 0.4
v -0.1 0.1 0.4
v -0.3 0.1 0.3
v -0.2 0.1 0.3
v -0.1 0.1 0.3
v -5.96046e-08 0.1 0.3
v -0.3 0.1 0.2
v -0.2 0.1 0.2
v -0.1 0.1 0.2
v -5.96046e-08 0.1 0.2
v -0.2 0.1 0.1
v -0.1 0.1 0.1
v -0.2 0.2 0.5
v -0.1 0.2 0.5
v -0.2 0.2 0.4
v -0.1 0.2 0.4
v -0.4 0.2 0.3
v -0.3 0.2 0.3
v -5.96046e-08 0.2 0.3
v 0.1 0.2 0.3
v -0.4 0.2 0.2
v -0.3 0.2 0.2
v -5.96046e-08 0.2 0.2
v 0.1 0.2 0.2
v -0.2 0.2 0.1
v -0.1 0.2 0.1
v -0.2 0.2 0
v -0.1 0.2 0
v -0.2 0.3 0.6
v -0.1 0.3 0.6
v -0.2 0.3 0.5
v -0.1 0.3 0.5
v -0.5 0.3 0.3
v -0.4 0.3 0.3
v 0.1 0.3 0.3
v 0.2 0.3 0.3
v -0.5 0.3 0.2
v -0.4 0.3 0.2
v 0.1 0.3 0.2
v 0.2 0.3 0.2
v -0.2 0.3 0
v -0.1 0.3 0
v -0.2 0.3 -0.1
v -0.1 0.3 -0.1
v -0.2 0.4 0.7
v -0.1 0.4 0.7
v -0.2 0.4 0.6
v -0.1 0.4 0.6
v -0.6 0.4 0.3
v -0.5 0.4 0.3
v 0.2 0.4 0.3
v 0.3 0.4 0.3
v -0.6 0.4 0.2
v -0.5 0.4 0.2
v 0.2 0.4 0.2
v 0.3 0.4 0.2
v -0.2 0.4 -0.1
v -0.1 0.4 -0.1
v -0.2 0.4 -0.2
v -0.1 0.4 -0.2
v -0.2 0.6 0.7
v -0.1 0.6 0.7
v -0.2 0.6 0.5
v -0.1 0.6 0.5
v -0.6 0.6 0.3
v -0.4 0.6 0.3
v 0.1 0.6 0.3
v 0.3 0.6 0.3
v -0.6 0.6 0.2
v -0.4 0.6 0.2
v 0.1 0.6 0.2
v 0.3 0.6 0.2
v -0.2 0.6 0
v -0.1 0.6 0
v -0.2 0.6 -0.2
v -0.1 0.6 -0.2
v -0.2 1.3 0.5
v -0.1 1.3 0.5
v -0.4 1.3 0.3
v -0.2 1.3 0.3
v -0.1 1.3 0.3
v 0.1 1.3 0.3
v -0.4 1.3 0.2
v -0.2 1.3 0.2
v -0.1 1.3 0.2
v 0.1 1.3 0.2
v -0.2 1.3 0
v -0.1 1.3 0

# faces
f 3/1/1 2/1/1 1/1/1
f 4/1/1 2/1/1 3/1/1
f 7/1/1 6/1/1 5/1/1
f 8/1/1 6/1/1 7/1/1
f 11/1/1 10/1/1 9/1/1
f 12/1/1 10/1/1 11/1/1
f 15/1/1 14/1/1 13/1/1
f 16/1/1 14/1/1 15/1/1
f 19/1/1 18/1/1 17/1/1
f 20/1/1 18/1/1 19/1/1
f 24/1/1 22/1/1 21/1/1
f 25/1/1 22/1/1 24/1/1
f 28/1/1 24/1/1 23/1/1
f 29/1/1 24/1/1 28/1/1
f 30/1/1 26/1/1 25/1/1
f 31/1/1 26/1/1 30/1/1
f 34/1/1 28/1/1 27/1/1
f 35/2/1 29/2/1 28/2/1
f 35/1/1 28/1/1 34/1/1
f 36/1/1 32/1/1 31/1/1
f 36/2/1 31/2/1 30/2/1
f 37/1/1 32/1/1 36/1/1
f 40/1/1 34/1/1 33/1/1
f 41/2/1 35/2/1 34/2/1
f 41/1/1 34/1/1 40/1/1
f 42/1/1 38/1/1 37/1/1
f 42/2/1 37/2/1 36/2/1
f 43/1/1 38/1/1 42/1/1
f 45/1/1 40/1/1 39/1/1
f 45/2/1 41/2/1 40/2/1
f 46/2/1 35/2/1 41/2/1
f 46/2/1 41/2/1 45/2/1
f 46/2/1 29/2/1 35/2/1
f 47/2/1 29/2/1 46/2/1
f 48/2/1 42/2/1 36/2/1
f 48/2/1 36/2/1 30/2/1
f 48/2/1 43/2/1 42/2/1
f 49/2/1 43/2/1 48/2/1
f 50/1/1 44/1/1 43/1/1
f 50/2/1 43/2/1 49/2/1
f 51/1/1 45/1/1 39/1/1
f 51/1/1 46/1/1 45/1/1
f 52/1/1 46/1/1 51/1/1
f 53/1/1 50/1/1 49/1/1
f 54/1/1 44/1/1 50/1/1
f 54/1/1 50/1/1 53/1/1
f 55/3/1 47/3/1 46/3/1
f 55/1/1 46/1/1 52/1/1
f 56/3/1 47/3/1 55/3/1
f 57/3/1 49/3/1 48/3/1
f 58/1/1 53/1/1 49/1/1
f 58/3/1 49/3/1 57/3/1
f 59/2/1 56/2/1 55/2/1
f 59/1/1 55/1/1 52/1/1
f 60/2/1 56/2/1 59/2/1
f 61/2/1 58/2/1 57/2/1
f 62/1/1 53/1/1 58/1/1
f 62/2/1 58/2/1 61/2/1
f 63/1/1 60/1/1 59/1/1
f 63/1/1 59/1/1 52/1/1
f 64/1/1 60/1/1 63/1/1
f 65/1/1 62/1/1 61/1/1
f 66/1/1 53/1/1 62/1/1
f 66/1/1 62/1/1 65/1/1
f 67/1/2 68/1/2 70/1/2
f 70/1/2 68/1/2 71/1/2
f 69/1/2 70/1/2 74/1/2
f 74/1/2 70/1/2 75/1/2
f 71/1/2 72/1/2 76/1/2
f 76/1/2 72/1/2 77/1/2
f 73/1/2 74/1/2 80/1/2
f 74/2/2 75/2/2 81/2/2
f 80/1/2 74/1/2 81/1/2
f 77/1/2 78/1/2 82/1/2
f 76/2/2 77/2/2 82/2/2
f 82/1/2 78/1/2 83/1/2
f 79/1/2 80/1/2 86/1/2
f 80/2/2 81/2/2 87/2/2
f 86/1/2 80/1/2 87/1/2
f 83/1/2 84/1/2 88/1/2
f 82/2/2 83/2/2 88/2/2
f 88/1/2 84/1/2 89/1/2
f 85/1/2 86/1/2 91/1/2
f 86/2/2 87/2/2 91/2/2
f 87/2/2 81/2/2 92/2/2
f 91/2/2 87/2/2 92/2/2
f 81/2/2 75/2/2 92/2/2
f 92/2/2 75/2/2 93/2/2
f 82/2/2 88/2/2 94/2/2
f 76/2/2 82/2/2 94/2/2
f 88/2/2 89/2/2 94/2/2
f 94/2/2 89/2/2 95/2/2
f 89/1/2 90/1/2 96/1/2
f 95/2/2 89/2/2 96/2/2
f 85/1/2 91/1/2 97/1/2
f 91/1/2 92/1/2 97/1/2
f 97/1/2 92/1/2 98/1/2
f 95/1/2 96/1/2 99/1/2
f 96/1/2 90/1/2 100/1/2
f 99/1/2 96/1/2 100/1/2
f 92/3/2 93/3/2 101/3/2
f 98/1/2 92/1/2 101/1/2
f 101/3/2 93/3/2 102/3/2
f 94/3/2 95/3/2 103/3/2
f 95/1/2 99/1/2 104/1/2
f 103/3/2 95/3/2 104/3/2
f 101/2/2 102/2/2 105/2/2
f 98/1/2 101/1/2 105/1/2
f 105/2/2 102/2/2 106/2/2
f 103/2/2 104/2/2 107/2/2
f 104/1/2 99/1/2 108/1/2
f 107/2/2 104/2/2 108/2/2
f 105/1/2 106/1/2 109/1/2
f 98/1/2 105/1/2 109/1/2
f 109/1/2 106/1/2 110/1/2
f 107/1/2 108/1/2 111/1/2
f 108/1/2 99/1/2 112/1/2
f 111/1/2 108/1/2 112/1/2
f 113/1/2 114/1/2 115/1/2
f 115/1/2 114/1/2 116/1/2
f 117/1/2 118/1/2 119/1/2
f 119/1/2 118/1/2 120/1/2
f 121/1/2 122/1/2 123/1/2
f 123/1/2 122/1/2 124/1/2
f 125/1/2 126/1/2 127/1/2
f 127/1/2 126/1/2 128/1/2
f 129/1/2 130/1/2 131/1/2
f 131/1/2 130/1/2 132/1/2
f 135/1/3 134/1/3 133/1/3
f 136/1/3 134/1/3 135/1/3
f 139/1/3 138/1/3 137/1/3
f 140/1/3 138/1/3 139/1/3
f 145/1/3 142/1/3 141/1/3
f 146/1/3 142/1/3 145/1/3
f 147/1/3 144/1/3 143/1/3
f 148/1/3 144/1/3 147/1/3
f 151/1/3 150/1/3 149/1/3
f 152/1/3 150/1/3 151/1/3
f 156/1/3 154/1/3 153/1/3
f 157/1/3 154/1/3 156/1/3
f 159/1/3 156/1/3 155/1/3
f 160/2/3 157/2/3 156/2/3
f 160/1/3 156/1/3 159/1/3
f 161/1/3 154/1/3 157/1/3
f 164/1/3 159/1/3 158/1/3
f 165/2/3 160/2/3 159/2/3
f 165/1/3 159/1/3 164/1/3
f 166/2/3 157/2/3 160/2/3
f 166/2/3 160/2/3 165/2/3
f 166/1/3 162/1/3 161/1/3
f 166/1/3 161/1/3 157/1/3
f 167/1/3 162/1/3 166/1/3
f 168/1/3 162/1/3 167/1/3
f 170/1/3 164/1/3 163/1/3
f 171/2/3 165/2/3 164/2/3
f 171/2/3 166/2/3 165/2/3
f 171/1/3 164/1/3 170/1/3
f 172/3/3 167/3/3 166/3/3
f 172/2/3 166/2/3 171/2/3
f 173/2/3 168/2/3 167/2/3
f 173/3/3 167/3/3 172/3/3
f 174/1/3 162/1/3 168/1/3
f 174/2/3 168/2/3 173/2/3
f 175/1/3 162/1/3 174/1/3
f 176/1/3 170/1/3 169/1/3
f 177/1/3 170/1/3 176/1/3
f 183/1/3 178/1/3 177/1/3
f 184/2/3 179/2/3 178/2/3
f 184/1/3 178/1/3 183/1/3
f 185/2/3 179/2/3 184/2/3
f 186/3/3 180/3/3 179/3/3
f 186/2/3 179/2/3 185/2/3
f 187/2/3 181/2/3 180/2/3
f 187/3/3 180/3/3 186/3/3
f 188/1/3 182/1/3 181/1/3
f 188/2/3 181/2/3 187/2/3
f 189/1/3 185/1/3 184/1/3
f 190/2/3 186/2/3 185/2/3
f 190/1/3 185/1/3 189/1/3
f 191/2/3 186/2/3 190/2/3
f 192/1/3 187/1/3 186/1/3
f 192/1/3 188/1/3 187/1/3
f 193/1/3 182/1/3 188/1/3
f 193/1/3 188/1/3 192/1/3
f 194/1/3 191/1/3 190/1/3
f 195/2/3 186/2/3 191/2/3
f 195/1/3 191/1/3 194/1/3
f 196/1/3 192/1/3 186/1/3
f 196/2/3 186/2/3 195/2/3
f 197/1/3 196/1/3 195/1/3
f 198/1/3 192/1/3 196/1/3
f 198/1/3 196/1/3 197/1/3
f 199/1/4 200/1/4 202/1/4
f 202/1/4 200/1/4 203/1/4
f 201/1/4 202/1/4 205/1/4
f 202/2/4 203/2/4 206/2/4
f 205/1/4 202/1/4 206/1/4
f 203/1/4 200/1/4 207/1/4
f 204/1/4 205/1/4 210/1/4
f 205/2/4 206/2/4 211/2/4
f 210/1/4 205/1/4 211/1/4
f 206/2/4 203/2/4 212/2/4
f 211/2/4 206/2/4 212/2/4
f 207/1/4 208/1/4 212/1/4
f 203/1/4 207/1/4 212/1/4
f 212/1/4 208/1/4 213/1/4
f 213/1/4 208/1/4 214/1/4
f 209/1/4 210/1/4 216/1/4
f 210/2/4 211/2/4 217/2/4
f 211/2/4 212/2/4 217/2/4
f 216/1/4 210/1/4 217/1/4
f 212/3/4 213/3/4 218/3/4
f 217/2/4 212/2/4 218/2/4
f 213/2/4 214/2/4 219/2/4
f 218/3/4 213/3/4 219/3/4
f 214/1/4 208/1/4 220/1/4
f 219/2/4 214/2/4 220/2/4
f 220/1/4 208/1/4 221/1/4
f 215/1/4 216/1/4 222/1/4
f 222/1/4 216/1/4 223/1/4
f 223/1/4 224/1/4 229/1/4
f 224/2/4 225/2/4 230/2/4
f 229/1/4 224/1/4 230/1/4
f 230/2/4 225/2/4 231/2/4
f 225/3/4 226/3/4 232/3/4
f 231/2/4 225/2/4 232/2/4
f 226/2/4 227/2/4 233/2/4
f 232/3/4 226/3/4 233/3/4
f 227/1/4 228/1/4 234/1/4
f 233/2/4 227/2/4 234/2/4
f 230/1/4 231/1/4 235/1/4
f 231/2/4 232/2/4 236/2/4
f 235/1/4 231/1/4 236/1/4
f 236/2/4 232/2/4 237/2/4
f 232/1/4 233/1/4 238/1/4
f 233/1/4 234/1/4 238/1/4
f 234/1/4 228/1/4 239/1/4
f 238/1/4 234/1/4 239/1/4
f 236/1/4 237/1/4 240/1/4
f 237/2/4 232/2/4 241/2/4
f 240/1/4 237/1/4 241/1/4
f 232/1/4 238/1/4 242/1/4
f 241/2/4 232/2/4 242/2/4
f 241/1/4 242/1/4 243/1/4
f 242/1/4 238/1/4 244/1/4
f 243/1/4 242/1/4 244/1/4
f 245/1/4 246/1/4 247/1/4
f 247/1/4 246/1/4 248/1/4
f 249/1/4 250/1/4 253/1/4
f 253/1/4 250/1/4 254/1/4
f 251/1/4 252/1/4 255/1/4
f 255/1/4 252/1/4 256/1/4
f 257/1/4 258/1/4 259/1/4
f 259/1/4 258/1/4 260/1/4
f 261/1/4 262/1/4 263/1/4
f 263/1/4 262/1/4 264/1/4
f 267/1/5 266/1/5 265/1/5
f 268/1/5 266/1/5 267/1/5
f 272/1/5 270/1/5 269/1/5
f 273/1/5 270/1/5 272/1/5
f 275/1/5 272/1/5 271/1/5
f 276/1/5 272/1/5 275/1/5
f 277/1/5 274/1/5 273/1/5
f 278/1/5 274/1/5 277/1/5
f 279/1/5 277/1/5 276/1/5
f 280/1/5 277/1/5 279/1/5
f 283/1/5 282/1/5 281/1/5
f 284/1/5 282/1/5 283/1/5
f 289/1/5 286/1/5 285/1/5
f 290/1/5 286/1/5 289/1/5
f 291/1/5 288/1/5 287/1/5
f 292/1/5 288/1/5 291/1/5
f 295/1/5 294/1/5 293/1/5
f 296/1/5 294/1/5 295/1/5
f 299/1/5 298/1/5 297/1/5
f 300/1/5 298/1/5 299/1/5
f 305/1/5 302/1/5 301/1/5
f 306/1/5 302/1/5 305/1/5
f 307/1/5 304/1/5 303/1/5
f 308/1/5 304/1/5 307/1/5
f 311/1/5 310/1/5 309/1/5
f 312/1/5 310/1/5 311/1/5
f 315/1/5 314/1/5 313/1/5
f 316/1/5 314/1/5 315/1/5
f 321/1/5 318/1/5 317/1/5
f 322/1/5 318/1/5 321/1/5
f 323/1/5 320/1/5 319/1/5
f 324/1/5 320/1/5 323/1/5
f 327/1/5 326/1/5 325/1/5
f 328/1/5 326/1/5 327/1/5
f 329/1/6 330/1/6 331/1/6
f 331/1/6 330/1/6 332/1/6
f 333/1/6 334/1/6 337/1/6
f 337/1/6 334/1/6 338/1/6
f 335/1/6 336/1/6 339/1/6
f 339/1/6 336/1/6 340/1/6
f 341/1/6 342/1/6 343/1/6
f 343/1/6 342/1/6 344/1/6
f 345/1/6 346/1/6 348/1/6
f 348/1/6 346/1/6 349/1/6
f 347/1/6 348/1/6 351/1/6
f 349/1/6 350/1/6 351/1/6
f 348/1/6 349/1/6 351/1/6
f 351/1/6 350/1/6 352/1/6
f 352/1/6 350/1/6 353/1/6
f 353/1/6 350/1/6 354/1/6
f 352/1/6 353/1/6 355/1/6
f 355/1/6 353/1/6 356/1/6
